<svg width="345" height="118" viewBox="0 0 345 118" fill="none" xmlns="http://www.w3.org/2000/svg">
<rect width="60" height="60" rx="8" fill="#6366F1" fill-opacity="0.08"/>
<g clip-path="url(#clip0_20005128_7785)">
<path d="M38.1484 30.055C36.3391 30.055 34.8672 31.527 34.8672 33.3362C34.8672 35.1455 36.3391 36.6175 38.1484 36.6175H42.7968C42.8154 36.6175 42.8335 36.6156 42.8518 36.6147C42.8699 36.6156 42.8878 36.6174 42.9062 36.6174C43.5103 36.6174 43.9999 36.1278 43.9999 35.5237V26.9378C43.9999 25.4817 43.2843 24.1902 42.1868 23.3946L38.4659 17.2904C38.3142 17.0414 38.0693 16.8634 37.7857 16.7958C37.5021 16.7281 37.2033 16.7765 36.9555 16.9301L34.2115 18.6318L32.974 16.5376C32.8252 16.2858 32.5818 16.1041 32.2982 16.033C32.0145 15.9619 31.7141 16.0075 31.4643 16.1593L20.9278 22.5628H19.2812C18.6873 22.5628 18.2024 22.0869 18.1878 21.4964C18.2024 20.9059 18.6873 20.43 19.2812 20.43H21.3047C21.9088 20.43 22.3984 19.9403 22.3984 19.3362C22.3984 18.7321 21.9088 18.2425 21.3047 18.2425H19.2812C17.7337 18.2425 16.4331 19.3195 16.0891 20.7633C16.0319 20.896 16 21.042 16 21.1956V21.469V21.5237V39.6252C16 42.0376 17.9626 44.0002 20.375 44.0002H39.625C41.5111 44.0002 43.1793 42.7987 43.7758 41.0104C43.967 40.4374 43.6574 39.8179 43.0844 39.6268C42.5114 39.4356 41.8919 39.7452 41.7007 40.3182C41.4025 41.2121 40.5684 41.8127 39.625 41.8127H20.375C19.1688 41.8127 18.1875 40.8314 18.1875 39.6252V24.5626C18.5298 24.684 18.8979 24.7503 19.2812 24.7503H39.625C40.8311 24.7503 41.8125 25.7316 41.8125 26.9378V30.055H38.1484ZM41.8125 34.4299H38.1484C37.5453 34.43 37.0546 33.9393 37.0546 33.3362C37.0546 32.7331 37.5453 32.2424 38.1484 32.2424H41.8125V34.4299ZM25.1398 22.5628L31.6541 18.6038L32.8188 20.5748C32.8411 20.6287 32.8668 20.6818 32.8986 20.733C32.9224 20.7713 32.9487 20.807 32.9762 20.8414L33.9934 22.5628H25.1398ZM36.5343 22.5628L35.3246 20.5155L37.1717 19.3701L39.1179 22.5628H36.5343Z" fill="url(#paint0_linear_20005128_7785)"/>
</g>
<path d="M85.4 22V7.6H91.48C91.62 7.6 91.8067 7.60667 92.04 7.62C92.28 7.62667 92.4933 7.64667 92.68 7.68C93.54 7.81333 94.2433 8.09667 94.79 8.53C95.3433 8.96333 95.75 9.51 96.01 10.17C96.27 10.8233 96.4 11.5533 96.4 12.36C96.4 13.5667 96.1 14.6 95.5 15.46C94.9 16.3133 93.96 16.84 92.68 17.04L91.48 17.12H88.12V22H85.4ZM93.52 22L90.68 16.14L93.48 15.6L96.6 22H93.52ZM88.12 14.58H91.36C91.5 14.58 91.6533 14.5733 91.82 14.56C91.9867 14.5467 92.14 14.52 92.28 14.48C92.6467 14.38 92.93 14.2133 93.13 13.98C93.33 13.74 93.4667 13.4767 93.54 13.19C93.62 12.8967 93.66 12.62 93.66 12.36C93.66 12.1 93.62 11.8267 93.54 11.54C93.4667 11.2467 93.33 10.9833 93.13 10.75C92.93 10.51 92.6467 10.34 92.28 10.24C92.14 10.2 91.9867 10.1733 91.82 10.16C91.6533 10.1467 91.5 10.14 91.36 10.14H88.12V14.58ZM103.818 22.3C102.712 22.3 101.735 22.0633 100.888 21.59C100.048 21.11 99.3884 20.4533 98.9084 19.62C98.4351 18.78 98.1984 17.82 98.1984 16.74C98.1984 15.56 98.4318 14.5333 98.8984 13.66C99.3651 12.7867 100.008 12.11 100.828 11.63C101.648 11.1433 102.592 10.9 103.658 10.9C104.792 10.9 105.755 11.1667 106.548 11.7C107.342 12.2333 107.928 12.9833 108.308 13.95C108.688 14.9167 108.822 16.0533 108.708 17.36H106.018V16.36C106.018 15.26 105.842 14.47 105.488 13.99C105.142 13.5033 104.572 13.26 103.778 13.26C102.852 13.26 102.168 13.5433 101.728 14.11C101.295 14.67 101.078 15.5 101.078 16.6C101.078 17.6067 101.295 18.3867 101.728 18.94C102.168 19.4867 102.812 19.76 103.658 19.76C104.192 19.76 104.648 19.6433 105.028 19.41C105.408 19.1767 105.698 18.84 105.898 18.4L108.618 19.18C108.212 20.1667 107.568 20.9333 106.688 21.48C105.815 22.0267 104.858 22.3 103.818 22.3ZM100.238 17.36V15.34H107.398V17.36H100.238ZM115.586 27.1C114.973 27.1 114.39 27 113.836 26.8C113.283 26.6067 112.786 26.3333 112.346 25.98C111.913 25.6333 111.56 25.2267 111.286 24.76L113.806 23.54C113.98 23.86 114.226 24.1033 114.546 24.27C114.873 24.4367 115.226 24.52 115.606 24.52C116.013 24.52 116.396 24.45 116.756 24.31C117.116 24.1767 117.403 23.9733 117.616 23.7C117.836 23.4333 117.94 23.1 117.926 22.7V19.56H118.266V11.2H120.646V22.74C120.646 23.0067 120.633 23.2567 120.606 23.49C120.586 23.73 120.546 23.9667 120.486 24.2C120.313 24.86 119.99 25.4033 119.516 25.83C119.05 26.2567 118.476 26.5733 117.796 26.78C117.116 26.9933 116.38 27.1 115.586 27.1ZM115.346 22.3C114.353 22.3 113.483 22.05 112.736 21.55C111.99 21.05 111.406 20.37 110.986 19.51C110.573 18.65 110.366 17.68 110.366 16.6C110.366 15.5 110.576 14.5233 110.996 13.67C111.423 12.81 112.02 12.1333 112.786 11.64C113.553 11.1467 114.453 10.9 115.486 10.9C116.513 10.9 117.376 11.15 118.076 11.65C118.776 12.15 119.306 12.83 119.666 13.69C120.026 14.55 120.206 15.52 120.206 16.6C120.206 17.68 120.023 18.65 119.656 19.51C119.296 20.37 118.756 21.05 118.036 21.55C117.316 22.05 116.42 22.3 115.346 22.3ZM115.786 19.88C116.393 19.88 116.876 19.7433 117.236 19.47C117.603 19.1967 117.866 18.8133 118.026 18.32C118.186 17.8267 118.266 17.2533 118.266 16.6C118.266 15.9467 118.186 15.3733 118.026 14.88C117.866 14.3867 117.61 14.0033 117.256 13.73C116.91 13.4567 116.453 13.32 115.886 13.32C115.28 13.32 114.78 13.47 114.386 13.77C114 14.0633 113.713 14.46 113.526 14.96C113.34 15.4533 113.246 16 113.246 16.6C113.246 17.2067 113.336 17.76 113.516 18.26C113.696 18.7533 113.973 19.1467 114.346 19.44C114.72 19.7333 115.2 19.88 115.786 19.88ZM127.467 22.32C126.62 22.32 125.93 22.1767 125.397 21.89C124.864 21.6033 124.447 21.24 124.147 20.8C123.854 20.36 123.644 19.9033 123.517 19.43C123.39 18.95 123.314 18.5133 123.287 18.12C123.26 17.7267 123.247 17.44 123.247 17.26V11.2H126.007V16.3C126.007 16.5467 126.02 16.8633 126.047 17.25C126.074 17.63 126.157 18.0133 126.297 18.4C126.437 18.7867 126.664 19.11 126.977 19.37C127.297 19.63 127.747 19.76 128.327 19.76C128.56 19.76 128.81 19.7233 129.077 19.65C129.344 19.5767 129.594 19.4367 129.827 19.23C130.06 19.0167 130.25 18.7067 130.397 18.3C130.55 17.8867 130.627 17.3467 130.627 16.68L132.187 17.42C132.187 18.2733 132.014 19.0733 131.667 19.82C131.32 20.5667 130.797 21.17 130.097 21.63C129.404 22.09 128.527 22.32 127.467 22.32ZM130.967 22V18.42H130.627V11.2H133.367V22H130.967ZM136.362 22V7.3H139.082V22H136.362ZM145.08 22.3C144.306 22.3 143.65 22.1533 143.11 21.86C142.576 21.56 142.17 21.1633 141.89 20.67C141.616 20.17 141.48 19.62 141.48 19.02C141.48 18.52 141.556 18.0633 141.71 17.65C141.863 17.2367 142.11 16.8733 142.45 16.56C142.796 16.24 143.26 15.9733 143.84 15.76C144.24 15.6133 144.716 15.4833 145.27 15.37C145.823 15.2567 146.45 15.15 147.15 15.05C147.85 14.9433 148.62 14.8267 149.46 14.7L148.48 15.24C148.48 14.6 148.326 14.13 148.02 13.83C147.713 13.53 147.2 13.38 146.48 13.38C146.08 13.38 145.663 13.4767 145.23 13.67C144.796 13.8633 144.493 14.2067 144.32 14.7L141.86 13.92C142.133 13.0267 142.646 12.3 143.4 11.74C144.153 11.18 145.18 10.9 146.48 10.9C147.433 10.9 148.28 11.0467 149.02 11.34C149.76 11.6333 150.32 12.14 150.7 12.86C150.913 13.26 151.04 13.66 151.08 14.06C151.12 14.46 151.14 14.9067 151.14 15.4V22H148.76V19.78L149.1 20.24C148.573 20.9667 148.003 21.4933 147.39 21.82C146.783 22.14 146.013 22.3 145.08 22.3ZM145.66 20.16C146.16 20.16 146.58 20.0733 146.92 19.9C147.266 19.72 147.54 19.5167 147.74 19.29C147.946 19.0633 148.086 18.8733 148.16 18.72C148.3 18.4267 148.38 18.0867 148.4 17.7C148.426 17.3067 148.44 16.98 148.44 16.72L149.24 16.92C148.433 17.0533 147.78 17.1667 147.28 17.26C146.78 17.3467 146.376 17.4267 146.07 17.5C145.763 17.5733 145.493 17.6533 145.26 17.74C144.993 17.8467 144.776 17.9633 144.61 18.09C144.45 18.21 144.33 18.3433 144.25 18.49C144.176 18.6367 144.14 18.8 144.14 18.98C144.14 19.2267 144.2 19.44 144.32 19.62C144.446 19.7933 144.623 19.9267 144.85 20.02C145.076 20.1133 145.346 20.16 145.66 20.16ZM153.74 22V11.2H156.14V13.84L155.88 13.5C156.02 13.1267 156.207 12.7867 156.44 12.48C156.673 12.1733 156.96 11.92 157.3 11.72C157.56 11.56 157.843 11.4367 158.15 11.35C158.457 11.2567 158.773 11.2 159.1 11.18C159.427 11.1533 159.753 11.16 160.08 11.2V13.74C159.78 13.6467 159.43 13.6167 159.03 13.65C158.637 13.6767 158.28 13.7667 157.96 13.92C157.64 14.0667 157.37 14.2633 157.15 14.51C156.93 14.75 156.763 15.0367 156.65 15.37C156.537 15.6967 156.48 16.0667 156.48 16.48V22H153.74ZM172.166 22.3C170.726 22.3 169.483 21.9867 168.436 21.36C167.396 20.7333 166.593 19.8567 166.026 18.73C165.466 17.6033 165.186 16.2933 165.186 14.8C165.186 13.3067 165.466 11.9967 166.026 10.87C166.593 9.74333 167.396 8.86667 168.436 8.24C169.483 7.61333 170.726 7.3 172.166 7.3C173.819 7.3 175.206 7.71 176.326 8.53C177.453 9.35 178.246 10.46 178.706 11.86L175.966 12.62C175.699 11.7467 175.249 11.07 174.616 10.59C173.983 10.1033 173.166 9.86 172.166 9.86C171.253 9.86 170.489 10.0633 169.876 10.47C169.269 10.8767 168.813 11.45 168.506 12.19C168.199 12.93 168.046 13.8 168.046 14.8C168.046 15.8 168.199 16.67 168.506 17.41C168.813 18.15 169.269 18.7233 169.876 19.13C170.489 19.5367 171.253 19.74 172.166 19.74C173.166 19.74 173.983 19.4967 174.616 19.01C175.249 18.5233 175.699 17.8467 175.966 16.98L178.706 17.74C178.246 19.14 177.453 20.25 176.326 21.07C175.206 21.89 173.819 22.3 172.166 22.3ZM183.908 22.3C183.134 22.3 182.478 22.1533 181.938 21.86C181.404 21.56 180.998 21.1633 180.718 20.67C180.444 20.17 180.308 19.62 180.308 19.02C180.308 18.52 180.384 18.0633 180.538 17.65C180.691 17.2367 180.938 16.8733 181.278 16.56C181.624 16.24 182.088 15.9733 182.668 15.76C183.068 15.6133 183.544 15.4833 184.098 15.37C184.651 15.2567 185.278 15.15 185.978 15.05C186.678 14.9433 187.448 14.8267 188.288 14.7L187.308 15.24C187.308 14.6 187.154 14.13 186.848 13.83C186.541 13.53 186.028 13.38 185.308 13.38C184.908 13.38 184.491 13.4767 184.058 13.67C183.624 13.8633 183.321 14.2067 183.148 14.7L180.688 13.92C180.961 13.0267 181.474 12.3 182.228 11.74C182.981 11.18 184.008 10.9 185.308 10.9C186.261 10.9 187.108 11.0467 187.848 11.34C188.588 11.6333 189.148 12.14 189.528 12.86C189.741 13.26 189.868 13.66 189.908 14.06C189.948 14.46 189.968 14.9067 189.968 15.4V22H187.588V19.78L187.928 20.24C187.401 20.9667 186.831 21.4933 186.218 21.82C185.611 22.14 184.841 22.3 183.908 22.3ZM184.488 20.16C184.988 20.16 185.408 20.0733 185.748 19.9C186.094 19.72 186.368 19.5167 186.568 19.29C186.774 19.0633 186.914 18.8733 186.988 18.72C187.128 18.4267 187.208 18.0867 187.228 17.7C187.254 17.3067 187.268 16.98 187.268 16.72L188.068 16.92C187.261 17.0533 186.608 17.1667 186.108 17.26C185.608 17.3467 185.204 17.4267 184.898 17.5C184.591 17.5733 184.321 17.6533 184.088 17.74C183.821 17.8467 183.604 17.9633 183.438 18.09C183.278 18.21 183.158 18.3433 183.078 18.49C183.004 18.6367 182.968 18.8 182.968 18.98C182.968 19.2267 183.028 19.44 183.148 19.62C183.274 19.7933 183.451 19.9267 183.678 20.02C183.904 20.1133 184.174 20.16 184.488 20.16ZM196.788 22.3C195.428 22.3 194.328 21.9933 193.488 21.38C192.655 20.76 192.148 19.8867 191.968 18.76L194.748 18.34C194.861 18.8467 195.111 19.2433 195.498 19.53C195.891 19.8167 196.388 19.96 196.988 19.96C197.481 19.96 197.861 19.8667 198.128 19.68C198.395 19.4867 198.528 19.22 198.528 18.88C198.528 18.6667 198.475 18.4967 198.368 18.37C198.261 18.2367 198.021 18.1067 197.648 17.98C197.281 17.8533 196.708 17.6867 195.928 17.48C195.048 17.2533 194.345 17 193.818 16.72C193.291 16.44 192.911 16.1067 192.678 15.72C192.445 15.3267 192.328 14.8533 192.328 14.3C192.328 13.6067 192.505 13.0067 192.858 12.5C193.211 11.9867 193.708 11.5933 194.348 11.32C194.995 11.04 195.755 10.9 196.628 10.9C197.475 10.9 198.225 11.03 198.878 11.29C199.531 11.55 200.058 11.92 200.458 12.4C200.865 12.88 201.115 13.4467 201.208 14.1L198.428 14.6C198.381 14.2 198.208 13.8833 197.908 13.65C197.608 13.4167 197.201 13.28 196.688 13.24C196.188 13.2067 195.785 13.2733 195.478 13.44C195.178 13.6067 195.028 13.8467 195.028 14.16C195.028 14.3467 195.091 14.5033 195.218 14.63C195.351 14.7567 195.621 14.8867 196.028 15.02C196.441 15.1533 197.068 15.3267 197.908 15.54C198.728 15.7533 199.385 16.0033 199.878 16.29C200.378 16.57 200.741 16.91 200.968 17.31C201.195 17.7033 201.308 18.18 201.308 18.74C201.308 19.8467 200.908 20.7167 200.108 21.35C199.308 21.9833 198.201 22.3 196.788 22.3ZM210.865 22V16.9C210.865 16.6533 210.852 16.34 210.825 15.96C210.799 15.5733 210.715 15.1867 210.575 14.8C210.435 14.4133 210.205 14.09 209.885 13.83C209.572 13.57 209.125 13.44 208.545 13.44C208.312 13.44 208.062 13.4767 207.795 13.55C207.529 13.6233 207.279 13.7667 207.045 13.98C206.812 14.1867 206.619 14.4933 206.465 14.9C206.319 15.3067 206.245 15.8467 206.245 16.52L204.685 15.78C204.685 14.9267 204.859 14.1267 205.205 13.38C205.552 12.6333 206.072 12.03 206.765 11.57C207.465 11.11 208.345 10.88 209.405 10.88C210.252 10.88 210.942 11.0233 211.475 11.31C212.009 11.5967 212.422 11.96 212.715 12.4C213.015 12.84 213.229 13.3 213.355 13.78C213.482 14.2533 213.559 14.6867 213.585 15.08C213.612 15.4733 213.625 15.76 213.625 15.94V22H210.865ZM203.485 22V7.6H205.905V15H206.245V22H203.485ZM221.52 22.3C220.447 22.3 219.55 22.05 218.83 21.55C218.11 21.05 217.567 20.37 217.2 19.51C216.84 18.65 216.66 17.68 216.66 16.6C216.66 15.52 216.84 14.55 217.2 13.69C217.56 12.83 218.09 12.15 218.79 11.65C219.49 11.15 220.354 10.9 221.38 10.9C222.414 10.9 223.314 11.1467 224.08 11.64C224.847 12.1333 225.44 12.81 225.86 13.67C226.287 14.5233 226.5 15.5 226.5 16.6C226.5 17.68 226.29 18.65 225.87 19.51C225.457 20.37 224.877 21.05 224.13 21.55C223.384 22.05 222.514 22.3 221.52 22.3ZM216.2 22V7.6H218.94V14.6H218.6V22H216.2ZM221.08 19.88C221.667 19.88 222.147 19.7333 222.52 19.44C222.894 19.1467 223.17 18.7533 223.35 18.26C223.53 17.76 223.62 17.2067 223.62 16.6C223.62 16 223.527 15.4533 223.34 14.96C223.154 14.46 222.864 14.0633 222.47 13.77C222.084 13.47 221.587 13.32 220.98 13.32C220.414 13.32 219.954 13.4567 219.6 13.73C219.254 14.0033 219 14.3867 218.84 14.88C218.68 15.3733 218.6 15.9467 218.6 16.6C218.6 17.2533 218.68 17.8267 218.84 18.32C219 18.8133 219.26 19.1967 219.62 19.47C219.987 19.7433 220.474 19.88 221.08 19.88ZM231.701 22.3C230.927 22.3 230.271 22.1533 229.731 21.86C229.197 21.56 228.791 21.1633 228.511 20.67C228.237 20.17 228.101 19.62 228.101 19.02C228.101 18.52 228.177 18.0633 228.331 17.65C228.484 17.2367 228.731 16.8733 229.071 16.56C229.417 16.24 229.881 15.9733 230.461 15.76C230.861 15.6133 231.337 15.4833 231.891 15.37C232.444 15.2567 233.071 15.15 233.771 15.05C234.471 14.9433 235.241 14.8267 236.081 14.7L235.101 15.24C235.101 14.6 234.947 14.13 234.641 13.83C234.334 13.53 233.821 13.38 233.101 13.38C232.701 13.38 232.284 13.4767 231.851 13.67C231.417 13.8633 231.114 14.2067 230.941 14.7L228.481 13.92C228.754 13.0267 229.267 12.3 230.021 11.74C230.774 11.18 231.801 10.9 233.101 10.9C234.054 10.9 234.901 11.0467 235.641 11.34C236.381 11.6333 236.941 12.14 237.321 12.86C237.534 13.26 237.661 13.66 237.701 14.06C237.741 14.46 237.761 14.9067 237.761 15.4V22H235.381V19.78L235.721 20.24C235.194 20.9667 234.624 21.4933 234.011 21.82C233.404 22.14 232.634 22.3 231.701 22.3ZM232.281 20.16C232.781 20.16 233.201 20.0733 233.541 19.9C233.887 19.72 234.161 19.5167 234.361 19.29C234.567 19.0633 234.707 18.8733 234.781 18.72C234.921 18.4267 235.001 18.0867 235.021 17.7C235.047 17.3067 235.061 16.98 235.061 16.72L235.861 16.92C235.054 17.0533 234.401 17.1667 233.901 17.26C233.401 17.3467 232.997 17.4267 232.691 17.5C232.384 17.5733 232.114 17.6533 231.881 17.74C231.614 17.8467 231.397 17.9633 231.231 18.09C231.071 18.21 230.951 18.3433 230.871 18.49C230.797 18.6367 230.761 18.8 230.761 18.98C230.761 19.2267 230.821 19.44 230.941 19.62C231.067 19.7933 231.244 19.9267 231.471 20.02C231.697 20.1133 231.967 20.16 232.281 20.16ZM245.121 22.3C244.001 22.3 243.041 22.05 242.241 21.55C241.441 21.05 240.828 20.37 240.401 19.51C239.974 18.65 239.761 17.68 239.761 16.6C239.761 15.5067 239.981 14.53 240.421 13.67C240.868 12.81 241.494 12.1333 242.301 11.64C243.108 11.1467 244.061 10.9 245.161 10.9C246.434 10.9 247.501 11.2233 248.361 11.87C249.228 12.51 249.781 13.3867 250.021 14.5L247.301 15.22C247.141 14.66 246.861 14.2233 246.461 13.91C246.068 13.5967 245.621 13.44 245.121 13.44C244.548 13.44 244.078 13.58 243.711 13.86C243.344 14.1333 243.074 14.51 242.901 14.99C242.728 15.4633 242.641 16 242.641 16.6C242.641 17.54 242.848 18.3033 243.261 18.89C243.681 19.47 244.301 19.76 245.121 19.76C245.734 19.76 246.201 19.62 246.521 19.34C246.841 19.06 247.081 18.66 247.241 18.14L250.021 18.72C249.714 19.8667 249.134 20.75 248.281 21.37C247.428 21.99 246.374 22.3 245.121 22.3ZM252.001 22L252.021 7.6H254.781V16.4L258.441 11.2H261.801L257.901 16.6L262.061 22H258.521L254.781 16.8V22H252.001Z" fill="white"/>
<path opacity="0.7" d="M89.12 59.24C88.3147 59.24 87.5893 59.1067 86.944 58.84C86.304 58.568 85.7733 58.184 85.352 57.688C84.936 57.192 84.664 56.6027 84.536 55.92L85.736 55.72C85.928 56.4667 86.3333 57.0533 86.952 57.48C87.5707 57.9013 88.3093 58.112 89.168 58.112C89.7333 58.112 90.24 58.024 90.688 57.848C91.136 57.6667 91.488 57.4107 91.744 57.08C92 56.7493 92.128 56.3573 92.128 55.904C92.128 55.6053 92.0747 55.352 91.968 55.144C91.8613 54.9307 91.72 54.7547 91.544 54.616C91.368 54.4773 91.176 54.3627 90.968 54.272C90.76 54.176 90.5573 54.0987 90.36 54.04L87.44 53.168C87.088 53.0667 86.7627 52.9387 86.464 52.784C86.1653 52.624 85.904 52.4347 85.68 52.216C85.4613 51.992 85.2907 51.7307 85.168 51.432C85.0453 51.1333 84.984 50.792 84.984 50.408C84.984 49.7573 85.1547 49.1947 85.496 48.72C85.8373 48.2453 86.304 47.88 86.896 47.624C87.488 47.368 88.1627 47.2427 88.92 47.248C89.688 47.248 90.3733 47.384 90.976 47.656C91.584 47.928 92.0853 48.3173 92.48 48.824C92.8747 49.3253 93.136 49.92 93.264 50.608L92.032 50.832C91.952 50.3307 91.768 49.896 91.48 49.528C91.192 49.16 90.824 48.8773 90.376 48.68C89.9333 48.4773 89.4453 48.3733 88.912 48.368C88.3947 48.368 87.9333 48.456 87.528 48.632C87.128 48.8027 86.8107 49.0373 86.576 49.336C86.3413 49.6347 86.224 49.976 86.224 50.36C86.224 50.7493 86.3307 51.0613 86.544 51.296C86.7627 51.5307 87.0293 51.7147 87.344 51.848C87.664 51.9813 87.9733 52.0907 88.272 52.176L90.528 52.84C90.7627 52.904 91.0373 52.9973 91.352 53.12C91.672 53.2373 91.9813 53.408 92.28 53.632C92.584 53.8507 92.8347 54.1387 93.032 54.496C93.2293 54.8533 93.328 55.3067 93.328 55.856C93.328 56.3893 93.2213 56.8667 93.008 57.288C92.8 57.7093 92.504 58.064 92.12 58.352C91.7413 58.64 91.296 58.8587 90.784 59.008C90.2773 59.1627 89.7227 59.24 89.12 59.24ZM95.1394 48.72V47.4H96.3154V48.72H95.1394ZM95.1394 59V50.36H96.3154V59H95.1394ZM103.418 59C102.932 59.1013 102.452 59.1413 101.978 59.12C101.508 59.0987 101.087 58.9973 100.714 58.816C100.346 58.6347 100.066 58.352 99.8738 57.968C99.7191 57.648 99.6338 57.3253 99.6178 57C99.6071 56.6693 99.6018 56.2933 99.6018 55.872V47.96H100.77V55.824C100.77 56.1867 100.772 56.4907 100.778 56.736C100.788 56.976 100.844 57.1893 100.946 57.376C101.138 57.7333 101.442 57.9467 101.858 58.016C102.279 58.0853 102.799 58.0693 103.418 57.968V59ZM97.7538 51.368V50.36H103.418V51.368H97.7538ZM109.179 59V49.72C109.179 49.496 109.19 49.2747 109.211 49.056C109.238 48.8373 109.288 48.6293 109.363 48.432C109.438 48.2293 109.555 48.0427 109.715 47.872C109.891 47.68 110.083 47.5413 110.291 47.456C110.499 47.3653 110.715 47.3067 110.939 47.28C111.168 47.2533 111.392 47.24 111.611 47.24H112.715V48.232H111.691C111.243 48.232 110.907 48.3413 110.683 48.56C110.464 48.7787 110.355 49.1227 110.355 49.592V59H109.179ZM107.683 51.368V50.36H112.715V51.368H107.683ZM116.233 59.24C115.582 59.24 115.035 59.1227 114.593 58.888C114.155 58.6533 113.827 58.3413 113.609 57.952C113.39 57.5627 113.281 57.1387 113.281 56.68C113.281 56.2107 113.374 55.8107 113.561 55.48C113.753 55.144 114.011 54.8693 114.337 54.656C114.667 54.4427 115.049 54.28 115.481 54.168C115.918 54.0613 116.401 53.968 116.929 53.888C117.462 53.8027 117.982 53.7307 118.489 53.672C119.001 53.608 119.449 53.5467 119.833 53.488L119.417 53.744C119.433 52.8907 119.267 52.2587 118.921 51.848C118.574 51.4373 117.971 51.232 117.113 51.232C116.521 51.232 116.019 51.3653 115.609 51.632C115.203 51.8987 114.918 52.32 114.753 52.896L113.609 52.56C113.806 51.7867 114.203 51.1867 114.801 50.76C115.398 50.3333 116.174 50.12 117.129 50.12C117.918 50.12 118.587 50.2693 119.137 50.568C119.691 50.8613 120.083 51.288 120.313 51.848C120.419 52.0987 120.489 52.3787 120.521 52.688C120.553 52.9973 120.569 53.312 120.569 53.632V59H119.521V56.832L119.825 56.96C119.531 57.7013 119.075 58.2667 118.457 58.656C117.838 59.0453 117.097 59.24 116.233 59.24ZM116.369 58.224C116.918 58.224 117.398 58.1253 117.809 57.928C118.219 57.7307 118.55 57.4613 118.801 57.12C119.051 56.7733 119.214 56.384 119.289 55.952C119.353 55.6747 119.387 55.3707 119.393 55.04C119.398 54.704 119.401 54.4533 119.401 54.288L119.849 54.52C119.449 54.5733 119.014 54.6267 118.545 54.68C118.081 54.7333 117.622 54.7947 117.169 54.864C116.721 54.9333 116.315 55.016 115.953 55.112C115.707 55.1813 115.47 55.28 115.241 55.408C115.011 55.5307 114.822 55.696 114.673 55.904C114.529 56.112 114.457 56.3707 114.457 56.68C114.457 56.9307 114.518 57.1733 114.641 57.408C114.769 57.6427 114.971 57.8373 115.249 57.992C115.531 58.1467 115.905 58.224 116.369 58.224ZM126.235 59.24C125.366 59.24 124.63 59.0453 124.027 58.656C123.425 58.2667 122.966 57.7307 122.651 57.048C122.342 56.36 122.182 55.5707 122.171 54.68C122.182 53.7733 122.347 52.9787 122.667 52.296C122.987 51.608 123.449 51.0747 124.051 50.696C124.654 50.312 125.385 50.12 126.243 50.12C127.118 50.12 127.878 50.3333 128.523 50.76C129.174 51.1867 129.619 51.7707 129.859 52.512L128.707 52.88C128.505 52.3627 128.182 51.9627 127.739 51.68C127.302 51.392 126.801 51.248 126.235 51.248C125.601 51.248 125.075 51.3947 124.659 51.688C124.243 51.976 123.934 52.3787 123.731 52.896C123.529 53.4133 123.425 54.008 123.419 54.68C123.43 55.7147 123.67 56.5467 124.139 57.176C124.609 57.8 125.307 58.112 126.235 58.112C126.822 58.112 127.321 57.9787 127.731 57.712C128.147 57.44 128.462 57.0453 128.675 56.528L129.859 56.88C129.539 57.648 129.07 58.2347 128.451 58.64C127.833 59.04 127.094 59.24 126.235 59.24ZM131.436 48.72V47.4H132.612V48.72H131.436ZM131.436 59V50.36H132.612V59H131.436ZM135.171 59V47.24H136.347V59H135.171ZM138.905 48.72V47.4H140.081V48.72H138.905ZM138.905 59V50.36H140.081V59H138.905ZM145.703 59.232C144.69 59.232 143.855 59.0133 143.199 58.576C142.549 58.1387 142.149 57.5307 141.999 56.752L143.199 56.552C143.327 57.0427 143.618 57.4347 144.071 57.728C144.53 58.016 145.095 58.16 145.767 58.16C146.423 58.16 146.941 58.024 147.319 57.752C147.698 57.4747 147.887 57.0987 147.887 56.624C147.887 56.3573 147.826 56.1413 147.703 55.976C147.586 55.8053 147.343 55.648 146.975 55.504C146.607 55.36 146.058 55.1893 145.327 54.992C144.543 54.7787 143.93 54.5653 143.487 54.352C143.045 54.1387 142.73 53.8933 142.543 53.616C142.357 53.3333 142.263 52.9893 142.263 52.584C142.263 52.0933 142.402 51.664 142.679 51.296C142.957 50.9227 143.341 50.6347 143.831 50.432C144.322 50.224 144.893 50.12 145.543 50.12C146.194 50.12 146.775 50.2267 147.287 50.44C147.805 50.648 148.221 50.9413 148.535 51.32C148.85 51.6987 149.037 52.1387 149.095 52.64L147.895 52.856C147.815 52.3493 147.562 51.9493 147.135 51.656C146.714 51.3573 146.178 51.2027 145.527 51.192C144.914 51.176 144.415 51.2933 144.031 51.544C143.647 51.7893 143.455 52.1173 143.455 52.528C143.455 52.7573 143.525 52.9547 143.663 53.12C143.802 53.28 144.053 53.432 144.415 53.576C144.783 53.72 145.306 53.8773 145.983 54.048C146.778 54.2507 147.402 54.464 147.855 54.688C148.309 54.912 148.631 55.176 148.823 55.48C149.015 55.784 149.111 56.16 149.111 56.608C149.111 57.424 148.807 58.0667 148.199 58.536C147.597 59 146.765 59.232 145.703 59.232ZM151.046 48.72V47.4H152.222V48.72H151.046ZM151.046 59V50.36H152.222V59H151.046ZM157.844 59.232C156.831 59.232 155.996 59.0133 155.34 58.576C154.689 58.1387 154.289 57.5307 154.14 56.752L155.34 56.552C155.468 57.0427 155.759 57.4347 156.212 57.728C156.671 58.016 157.236 58.16 157.908 58.16C158.564 58.16 159.081 58.024 159.46 57.752C159.839 57.4747 160.028 57.0987 160.028 56.624C160.028 56.3573 159.967 56.1413 159.844 55.976C159.727 55.8053 159.484 55.648 159.116 55.504C158.748 55.36 158.199 55.1893 157.468 54.992C156.684 54.7787 156.071 54.5653 155.628 54.352C155.185 54.1387 154.871 53.8933 154.684 53.616C154.497 53.3333 154.404 52.9893 154.404 52.584C154.404 52.0933 154.543 51.664 154.82 51.296C155.097 50.9227 155.481 50.6347 155.972 50.432C156.463 50.224 157.033 50.12 157.684 50.12C158.335 50.12 158.916 50.2267 159.428 50.44C159.945 50.648 160.361 50.9413 160.676 51.32C160.991 51.6987 161.177 52.1387 161.236 52.64L160.036 52.856C159.956 52.3493 159.703 51.9493 159.276 51.656C158.855 51.3573 158.319 51.2027 157.668 51.192C157.055 51.176 156.556 51.2933 156.172 51.544C155.788 51.7893 155.596 52.1173 155.596 52.528C155.596 52.7573 155.665 52.9547 155.804 53.12C155.943 53.28 156.193 53.432 156.556 53.576C156.924 53.72 157.447 53.8773 158.124 54.048C158.919 54.2507 159.543 54.464 159.996 54.688C160.449 54.912 160.772 55.176 160.964 55.48C161.156 55.784 161.252 56.16 161.252 56.608C161.252 57.424 160.948 58.0667 160.34 58.536C159.737 59 158.905 59.232 157.844 59.232ZM169.581 59.24C168.776 59.24 168.088 59.04 167.517 58.64C166.947 58.2347 166.509 57.688 166.205 57C165.901 56.312 165.749 55.536 165.749 54.672C165.749 53.8133 165.899 53.04 166.197 52.352C166.501 51.664 166.936 51.12 167.501 50.72C168.067 50.32 168.744 50.12 169.533 50.12C170.344 50.12 171.027 50.3173 171.581 50.712C172.136 51.1067 172.555 51.648 172.837 52.336C173.125 53.0187 173.269 53.7973 173.269 54.672C173.269 55.5307 173.128 56.3067 172.845 57C172.563 57.688 172.147 58.2347 171.597 58.64C171.048 59.04 170.376 59.24 169.581 59.24ZM169.701 58.144C170.315 58.144 170.821 57.9947 171.221 57.696C171.621 57.3973 171.92 56.9867 172.117 56.464C172.315 55.936 172.413 55.3387 172.413 54.672C172.413 53.9947 172.315 53.3973 172.117 52.88C171.92 52.3573 171.621 51.9493 171.221 51.656C170.827 51.3627 170.328 51.216 169.725 51.216C169.107 51.216 168.595 51.368 168.189 51.672C167.784 51.976 167.483 52.3893 167.285 52.912C167.093 53.4347 166.997 54.0213 166.997 54.672C166.997 55.328 167.096 55.92 167.293 56.448C167.496 56.9707 167.797 57.384 168.197 57.688C168.597 57.992 169.099 58.144 169.701 58.144ZM172.413 59V52.496H172.285V47.48H173.469V59H172.413ZM179.322 59.24C178.463 59.24 177.73 59.0453 177.122 58.656C176.514 58.2667 176.047 57.728 175.722 57.04C175.396 56.352 175.234 55.5627 175.234 54.672C175.234 53.7653 175.399 52.9707 175.73 52.288C176.06 51.6053 176.53 51.0747 177.138 50.696C177.751 50.312 178.479 50.12 179.322 50.12C180.186 50.12 180.922 50.3147 181.53 50.704C182.143 51.088 182.61 51.624 182.93 52.312C183.255 52.9947 183.418 53.7813 183.418 54.672C183.418 55.5787 183.255 56.376 182.93 57.064C182.604 57.7467 182.135 58.28 181.522 58.664C180.908 59.048 180.175 59.24 179.322 59.24ZM179.322 58.112C180.282 58.112 180.996 57.7947 181.466 57.16C181.935 56.52 182.17 55.6907 182.17 54.672C182.17 53.6267 181.932 52.7947 181.458 52.176C180.988 51.5573 180.276 51.248 179.322 51.248C178.676 51.248 178.143 51.3947 177.722 51.688C177.306 51.976 176.994 52.3787 176.786 52.896C176.583 53.408 176.482 54 176.482 54.672C176.482 55.712 176.722 56.5467 177.202 57.176C177.682 57.8 178.388 58.112 179.322 58.112ZM185.343 59V47.24H186.519V59H185.343ZM192.525 59.24C191.666 59.24 190.933 59.0453 190.325 58.656C189.717 58.2667 189.25 57.728 188.925 57.04C188.6 56.352 188.437 55.5627 188.437 54.672C188.437 53.7653 188.602 52.9707 188.933 52.288C189.264 51.6053 189.733 51.0747 190.341 50.696C190.954 50.312 191.682 50.12 192.525 50.12C193.389 50.12 194.125 50.3147 194.733 50.704C195.346 51.088 195.813 51.624 196.133 52.312C196.458 52.9947 196.621 53.7813 196.621 54.672C196.621 55.5787 196.458 56.376 196.133 57.064C195.808 57.7467 195.338 58.28 194.725 58.664C194.112 59.048 193.378 59.24 192.525 59.24ZM192.525 58.112C193.485 58.112 194.2 57.7947 194.669 57.16C195.138 56.52 195.373 55.6907 195.373 54.672C195.373 53.6267 195.136 52.7947 194.661 52.176C194.192 51.5573 193.48 51.248 192.525 51.248C191.88 51.248 191.346 51.3947 190.925 51.688C190.509 51.976 190.197 52.3787 189.989 52.896C189.786 53.408 189.685 54 189.685 54.672C189.685 55.712 189.925 56.5467 190.405 57.176C190.885 57.8 191.592 58.112 192.525 58.112ZM198.386 59V50.36H199.442V52.44L199.234 52.168C199.33 51.912 199.455 51.6773 199.61 51.464C199.764 51.2453 199.932 51.0667 200.114 50.928C200.338 50.7307 200.599 50.5813 200.898 50.48C201.196 50.3733 201.498 50.312 201.802 50.296C202.106 50.2747 202.383 50.296 202.634 50.36V51.464C202.319 51.384 201.975 51.3653 201.602 51.408C201.228 51.4507 200.884 51.6 200.57 51.856C200.282 52.08 200.066 52.3493 199.922 52.664C199.778 52.9733 199.682 53.304 199.634 53.656C199.586 54.0027 199.562 54.3467 199.562 54.688V59H198.386ZM209.826 59.24C209.176 59.24 208.629 59.1227 208.186 58.888C207.749 58.6533 207.421 58.3413 207.202 57.952C206.984 57.5627 206.874 57.1387 206.874 56.68C206.874 56.2107 206.968 55.8107 207.154 55.48C207.346 55.144 207.605 54.8693 207.93 54.656C208.261 54.4427 208.642 54.28 209.074 54.168C209.512 54.0613 209.994 53.968 210.522 53.888C211.056 53.8027 211.576 53.7307 212.082 53.672C212.594 53.608 213.042 53.5467 213.426 53.488L213.01 53.744C213.026 52.8907 212.861 52.2587 212.514 51.848C212.168 51.4373 211.565 51.232 210.706 51.232C210.114 51.232 209.613 51.3653 209.202 51.632C208.797 51.8987 208.512 52.32 208.346 52.896L207.202 52.56C207.4 51.7867 207.797 51.1867 208.394 50.76C208.992 50.3333 209.768 50.12 210.722 50.12C211.512 50.12 212.181 50.2693 212.73 50.568C213.285 50.8613 213.677 51.288 213.906 51.848C214.013 52.0987 214.082 52.3787 214.114 52.688C214.146 52.9973 214.162 53.312 214.162 53.632V59H213.114V56.832L213.418 56.96C213.125 57.7013 212.669 58.2667 212.05 58.656C211.432 59.0453 210.69 59.24 209.826 59.24ZM209.962 58.224C210.512 58.224 210.992 58.1253 211.402 57.928C211.813 57.7307 212.144 57.4613 212.394 57.12C212.645 56.7733 212.808 56.384 212.882 55.952C212.946 55.6747 212.981 55.3707 212.986 55.04C212.992 54.704 212.994 54.4533 212.994 54.288L213.442 54.52C213.042 54.5733 212.608 54.6267 212.138 54.68C211.674 54.7333 211.216 54.7947 210.762 54.864C210.314 54.9333 209.909 55.016 209.546 55.112C209.301 55.1813 209.064 55.28 208.834 55.408C208.605 55.5307 208.416 55.696 208.266 55.904C208.122 56.112 208.05 56.3707 208.05 56.68C208.05 56.9307 208.112 57.1733 208.234 57.408C208.362 57.6427 208.565 57.8373 208.842 57.992C209.125 58.1467 209.498 58.224 209.962 58.224ZM216.245 59V50.36H217.301V52.44L217.093 52.168C217.189 51.912 217.314 51.6773 217.469 51.464C217.624 51.2453 217.792 51.0667 217.973 50.928C218.197 50.7307 218.458 50.5813 218.757 50.48C219.056 50.3733 219.357 50.312 219.661 50.296C219.965 50.2747 220.242 50.296 220.493 50.36V51.464C220.178 51.384 219.834 51.3653 219.461 51.408C219.088 51.4507 218.744 51.6 218.429 51.856C218.141 52.08 217.925 52.3493 217.781 52.664C217.637 52.9733 217.541 53.304 217.493 53.656C217.445 54.0027 217.421 54.3467 217.421 54.688V59H216.245ZM225.438 59.24C224.569 59.24 223.833 59.0453 223.23 58.656C222.628 58.2667 222.169 57.7307 221.854 57.048C221.545 56.36 221.385 55.5707 221.374 54.68C221.385 53.7733 221.55 52.9787 221.87 52.296C222.19 51.608 222.652 51.0747 223.254 50.696C223.857 50.312 224.588 50.12 225.446 50.12C226.321 50.12 227.081 50.3333 227.726 50.76C228.377 51.1867 228.822 51.7707 229.062 52.512L227.91 52.88C227.708 52.3627 227.385 51.9627 226.942 51.68C226.505 51.392 226.004 51.248 225.438 51.248C224.804 51.248 224.278 51.3947 223.862 51.688C223.446 51.976 223.137 52.3787 222.934 52.896C222.732 53.4133 222.628 54.008 222.622 54.68C222.633 55.7147 222.873 56.5467 223.342 57.176C223.812 57.8 224.51 58.112 225.438 58.112C226.025 58.112 226.524 57.9787 226.934 57.712C227.35 57.44 227.665 57.0453 227.878 56.528L229.062 56.88C228.742 57.648 228.273 58.2347 227.654 58.64C227.036 59.04 226.297 59.24 225.438 59.24ZM234.018 59.216C233.5 59.216 233.047 59.136 232.658 58.976C232.274 58.816 231.946 58.6 231.674 58.328C231.407 58.056 231.191 57.7467 231.026 57.4C230.86 57.048 230.74 56.6773 230.666 56.288C230.591 55.8933 230.554 55.5013 230.554 55.112V50.36H231.738V54.768C231.738 55.2427 231.783 55.6827 231.874 56.088C231.964 56.4933 232.108 56.848 232.306 57.152C232.508 57.4507 232.767 57.6827 233.082 57.848C233.402 58.0133 233.788 58.096 234.242 58.096C234.658 58.096 235.023 58.024 235.338 57.88C235.658 57.736 235.924 57.5307 236.138 57.264C236.356 56.992 236.522 56.664 236.634 56.28C236.746 55.8907 236.802 55.4533 236.802 54.968L237.634 55.152C237.634 56.0373 237.479 56.7813 237.17 57.384C236.86 57.9867 236.434 58.4427 235.89 58.752C235.346 59.0613 234.722 59.216 234.018 59.216ZM236.922 59V56.872H236.802V50.36H237.978V59H236.922ZM240.054 60.672L240.126 60.088C240.339 60.104 240.494 60.0613 240.59 59.96C240.686 59.8587 240.744 59.7227 240.766 59.552C240.787 59.3813 240.792 59.1973 240.782 59H240.054V57.312H241.422V59.32C241.422 59.8107 241.296 60.1787 241.046 60.424C240.8 60.6693 240.47 60.752 240.054 60.672ZM248.523 59V49.72C248.523 49.496 248.534 49.2747 248.555 49.056C248.582 48.8373 248.632 48.6293 248.707 48.432C248.782 48.2293 248.899 48.0427 249.059 47.872C249.235 47.68 249.427 47.5413 249.635 47.456C249.843 47.3653 250.059 47.3067 250.283 47.28C250.512 47.2533 250.736 47.24 250.955 47.24H252.059V48.232H251.035C250.587 48.232 250.251 48.3413 250.027 48.56C249.808 48.7787 249.699 49.1227 249.699 49.592V59H248.523ZM247.027 51.368V50.36H252.059V51.368H247.027ZM256.682 59.24C255.84 59.24 255.109 59.0533 254.49 58.68C253.877 58.3067 253.4 57.7813 253.058 57.104C252.717 56.4267 252.546 55.632 252.546 54.72C252.546 53.776 252.714 52.96 253.05 52.272C253.386 51.584 253.858 51.0533 254.466 50.68C255.08 50.3067 255.802 50.12 256.634 50.12C257.488 50.12 258.216 50.3173 258.818 50.712C259.421 51.1013 259.877 51.6613 260.186 52.392C260.496 53.1227 260.637 53.9947 260.61 55.008H259.41V54.592C259.389 53.472 259.146 52.6267 258.682 52.056C258.224 51.4853 257.552 51.2 256.666 51.2C255.738 51.2 255.026 51.5013 254.53 52.104C254.04 52.7067 253.794 53.5653 253.794 54.68C253.794 55.768 254.04 56.6133 254.53 57.216C255.026 57.8133 255.728 58.112 256.634 58.112C257.253 58.112 257.792 57.9707 258.25 57.688C258.714 57.4 259.08 56.9867 259.346 56.448L260.442 56.872C260.101 57.624 259.597 58.208 258.93 58.624C258.269 59.0347 257.52 59.24 256.682 59.24ZM253.378 55.008V54.024H259.978V55.008H253.378ZM262.386 59V50.36H263.442V52.44L263.234 52.168C263.33 51.912 263.455 51.6773 263.61 51.464C263.764 51.2453 263.932 51.0667 264.114 50.928C264.338 50.7307 264.599 50.5813 264.898 50.48C265.196 50.3733 265.498 50.312 265.802 50.296C266.106 50.2747 266.383 50.296 266.634 50.36V51.464C266.319 51.384 265.975 51.3653 265.602 51.408C265.228 51.4507 264.884 51.6 264.57 51.856C264.282 52.08 264.066 52.3493 263.922 52.664C263.778 52.9733 263.682 53.304 263.634 53.656C263.586 54.0027 263.562 54.3467 263.562 54.688V59H262.386ZM278.455 59L278.463 53.328C278.463 52.6613 278.277 52.1387 277.903 51.76C277.535 51.376 277.066 51.184 276.495 51.184C276.17 51.184 275.853 51.2587 275.543 51.408C275.234 51.5573 274.978 51.7973 274.775 52.128C274.578 52.4587 274.479 52.8907 274.479 53.424L273.783 53.224C273.767 52.6053 273.887 52.064 274.143 51.6C274.405 51.136 274.762 50.776 275.215 50.52C275.674 50.2587 276.191 50.128 276.767 50.128C277.637 50.128 278.333 50.3973 278.855 50.936C279.378 51.4693 279.639 52.192 279.639 53.104L279.631 59H278.455ZM268.143 59V50.36H269.199V52.488H269.327V59H268.143ZM273.311 59L273.319 53.408C273.319 52.72 273.135 52.1787 272.767 51.784C272.405 51.384 271.925 51.184 271.327 51.184C270.73 51.184 270.247 51.3893 269.879 51.8C269.511 52.2053 269.327 52.7467 269.327 53.424L268.623 53.04C268.623 52.4853 268.754 51.9893 269.015 51.552C269.277 51.1093 269.634 50.7627 270.087 50.512C270.541 50.256 271.055 50.128 271.631 50.128C272.181 50.128 272.669 50.2453 273.095 50.48C273.527 50.7147 273.866 51.056 274.111 51.504C274.357 51.952 274.479 52.496 274.479 53.136L274.471 59H273.311ZM285.323 59.24C284.48 59.24 283.75 59.0533 283.131 58.68C282.518 58.3067 282.04 57.7813 281.699 57.104C281.358 56.4267 281.187 55.632 281.187 54.72C281.187 53.776 281.355 52.96 281.691 52.272C282.027 51.584 282.499 51.0533 283.107 50.68C283.72 50.3067 284.443 50.12 285.275 50.12C286.128 50.12 286.856 50.3173 287.459 50.712C288.062 51.1013 288.518 51.6613 288.827 52.392C289.136 53.1227 289.278 53.9947 289.251 55.008H288.051V54.592C288.03 53.472 287.787 52.6267 287.323 52.056C286.864 51.4853 286.192 51.2 285.307 51.2C284.379 51.2 283.667 51.5013 283.171 52.104C282.68 52.7067 282.435 53.5653 282.435 54.68C282.435 55.768 282.68 56.6133 283.171 57.216C283.667 57.8133 284.368 58.112 285.275 58.112C285.894 58.112 286.432 57.9707 286.891 57.688C287.355 57.4 287.72 56.9867 287.987 56.448L289.083 56.872C288.742 57.624 288.238 58.208 287.571 58.624C286.91 59.0347 286.16 59.24 285.323 59.24ZM282.019 55.008V54.024H288.619V55.008H282.019ZM297.032 59V54.592C297.032 54.112 296.987 53.672 296.896 53.272C296.805 52.8667 296.659 52.5147 296.456 52.216C296.259 51.912 296 51.6773 295.68 51.512C295.365 51.3467 294.981 51.264 294.528 51.264C294.112 51.264 293.744 51.336 293.424 51.48C293.109 51.624 292.843 51.832 292.624 52.104C292.411 52.3707 292.248 52.696 292.136 53.08C292.024 53.464 291.968 53.9013 291.968 54.392L291.136 54.208C291.136 53.3227 291.291 52.5787 291.6 51.976C291.909 51.3733 292.336 50.9173 292.88 50.608C293.424 50.2987 294.048 50.144 294.752 50.144C295.269 50.144 295.72 50.224 296.104 50.384C296.493 50.544 296.821 50.76 297.088 51.032C297.36 51.304 297.579 51.616 297.744 51.968C297.909 52.3147 298.029 52.6853 298.104 53.08C298.179 53.4693 298.216 53.8587 298.216 54.248V59H297.032ZM290.784 59V50.36H291.848V52.488H291.968V59H290.784ZM304.996 59C304.511 59.1013 304.031 59.1413 303.556 59.12C303.087 59.0987 302.665 58.9973 302.292 58.816C301.924 58.6347 301.644 58.352 301.452 57.968C301.297 57.648 301.212 57.3253 301.196 57C301.185 56.6693 301.18 56.2933 301.18 55.872V47.96H302.348V55.824C302.348 56.1867 302.351 56.4907 302.356 56.736C302.367 56.976 302.423 57.1893 302.524 57.376C302.716 57.7333 303.02 57.9467 303.436 58.016C303.857 58.0853 304.377 58.0693 304.996 57.968V59ZM299.332 51.368V50.36H304.996V51.368H299.332ZM310.002 59.216C309.485 59.216 309.031 59.136 308.642 58.976C308.258 58.816 307.93 58.6 307.658 58.328C307.391 58.056 307.175 57.7467 307.01 57.4C306.845 57.048 306.725 56.6773 306.65 56.288C306.575 55.8933 306.538 55.5013 306.538 55.112V50.36H307.722V54.768C307.722 55.2427 307.767 55.6827 307.858 56.088C307.949 56.4933 308.093 56.848 308.29 57.152C308.493 57.4507 308.751 57.6827 309.066 57.848C309.386 58.0133 309.773 58.096 310.226 58.096C310.642 58.096 311.007 58.024 311.322 57.88C311.642 57.736 311.909 57.5307 312.122 57.264C312.341 56.992 312.506 56.664 312.618 56.28C312.73 55.8907 312.786 55.4533 312.786 54.968L313.618 55.152C313.618 56.0373 313.463 56.7813 313.154 57.384C312.845 57.9867 312.418 58.4427 311.874 58.752C311.33 59.0613 310.706 59.216 310.002 59.216ZM312.906 59V56.872H312.786V50.36H313.962V59H312.906ZM326.502 59L326.51 53.328C326.51 52.6613 326.323 52.1387 325.95 51.76C325.582 51.376 325.113 51.184 324.542 51.184C324.217 51.184 323.899 51.2587 323.59 51.408C323.281 51.5573 323.025 51.7973 322.822 52.128C322.625 52.4587 322.526 52.8907 322.526 53.424L321.83 53.224C321.814 52.6053 321.934 52.064 322.19 51.6C322.451 51.136 322.809 50.776 323.262 50.52C323.721 50.2587 324.238 50.128 324.814 50.128C325.683 50.128 326.379 50.3973 326.902 50.936C327.425 51.4693 327.686 52.192 327.686 53.104L327.678 59H326.502ZM316.19 59V50.36H317.246V52.488H317.374V59H316.19ZM321.358 59L321.366 53.408C321.366 52.72 321.182 52.1787 320.814 51.784C320.451 51.384 319.971 51.184 319.374 51.184C318.777 51.184 318.294 51.3893 317.926 51.8C317.558 52.2053 317.374 52.7467 317.374 53.424L316.67 53.04C316.67 52.4853 316.801 51.9893 317.062 51.552C317.323 51.1093 317.681 50.7627 318.134 50.512C318.587 50.256 319.102 50.128 319.678 50.128C320.227 50.128 320.715 50.2453 321.142 50.48C321.574 50.7147 321.913 51.056 322.158 51.504C322.403 51.952 322.526 52.496 322.526 53.136L322.518 59H321.358ZM87.456 85L84.32 76.36H85.512L88.064 83.464L90.6 76.36H91.808L88.672 85H87.456ZM96.5885 85.24C95.7458 85.24 95.0152 85.0533 94.3965 84.68C93.7832 84.3067 93.3058 83.7813 92.9645 83.104C92.6232 82.4267 92.4525 81.632 92.4525 80.72C92.4525 79.776 92.6205 78.96 92.9565 78.272C93.2925 77.584 93.7645 77.0533 94.3725 76.68C94.9858 76.3067 95.7085 76.12 96.5405 76.12C97.3938 76.12 98.1218 76.3173 98.7245 76.712C99.3272 77.1013 99.7832 77.6613 100.093 78.392C100.402 79.1227 100.543 79.9947 100.517 81.008H99.3165V80.592C99.2952 79.472 99.0525 78.6267 98.5885 78.056C98.1298 77.4853 97.4578 77.2 96.5725 77.2C95.6445 77.2 94.9325 77.5013 94.4365 78.104C93.9458 78.7067 93.7005 79.5653 93.7005 80.68C93.7005 81.768 93.9458 82.6133 94.4365 83.216C94.9325 83.8133 95.6338 84.112 96.5405 84.112C97.1592 84.112 97.6978 83.9707 98.1565 83.688C98.6205 83.4 98.9858 82.9867 99.2525 82.448L100.349 82.872C100.007 83.624 99.5032 84.208 98.8365 84.624C98.1752 85.0347 97.4258 85.24 96.5885 85.24ZM93.2845 81.008V80.024H99.8845V81.008H93.2845ZM105.516 85.232C104.503 85.232 103.668 85.0133 103.012 84.576C102.361 84.1387 101.961 83.5307 101.812 82.752L103.012 82.552C103.14 83.0427 103.431 83.4347 103.884 83.728C104.343 84.016 104.908 84.16 105.58 84.16C106.236 84.16 106.753 84.024 107.132 83.752C107.511 83.4747 107.7 83.0987 107.7 82.624C107.7 82.3573 107.639 82.1413 107.516 81.976C107.399 81.8053 107.156 81.648 106.788 81.504C106.42 81.36 105.871 81.1893 105.14 80.992C104.356 80.7787 103.743 80.5653 103.3 80.352C102.857 80.1387 102.543 79.8933 102.356 79.616C102.169 79.3333 102.076 78.9893 102.076 78.584C102.076 78.0933 102.215 77.664 102.492 77.296C102.769 76.9227 103.153 76.6347 103.644 76.432C104.135 76.224 104.705 76.12 105.356 76.12C106.007 76.12 106.588 76.2267 107.1 76.44C107.617 76.648 108.033 76.9413 108.348 77.32C108.663 77.6987 108.849 78.1387 108.908 78.64L107.708 78.856C107.628 78.3493 107.375 77.9493 106.948 77.656C106.527 77.3573 105.991 77.2027 105.34 77.192C104.727 77.176 104.228 77.2933 103.844 77.544C103.46 77.7893 103.268 78.1173 103.268 78.528C103.268 78.7573 103.337 78.9547 103.476 79.12C103.615 79.28 103.865 79.432 104.228 79.576C104.596 79.72 105.119 79.8773 105.796 80.048C106.591 80.2507 107.215 80.464 107.668 80.688C108.121 80.912 108.444 81.176 108.636 81.48C108.828 81.784 108.924 82.16 108.924 82.608C108.924 83.424 108.62 84.0667 108.012 84.536C107.409 85 106.577 85.232 105.516 85.232ZM115.402 85C114.917 85.1013 114.437 85.1413 113.962 85.12C113.493 85.0987 113.071 84.9973 112.698 84.816C112.33 84.6347 112.05 84.352 111.858 83.968C111.703 83.648 111.618 83.3253 111.602 83C111.591 82.6693 111.586 82.2933 111.586 81.872V73.96H112.754V81.824C112.754 82.1867 112.757 82.4907 112.762 82.736C112.773 82.976 112.829 83.1893 112.93 83.376C113.122 83.7333 113.426 83.9467 113.842 84.016C114.263 84.0853 114.783 84.0693 115.402 83.968V85ZM109.738 77.368V76.36H115.402V77.368H109.738ZM117.264 74.72V73.4H118.44V74.72H117.264ZM117.264 85V76.36H118.44V85H117.264ZM124.719 85.24C123.924 85.24 123.252 85.04 122.703 84.64C122.153 84.2347 121.737 83.688 121.455 83C121.172 82.3067 121.031 81.5307 121.031 80.672C121.031 79.7973 121.172 79.0187 121.455 78.336C121.743 77.648 122.164 77.1067 122.719 76.712C123.273 76.3173 123.956 76.12 124.767 76.12C125.556 76.12 126.233 76.32 126.799 76.72C127.364 77.12 127.796 77.664 128.095 78.352C128.399 79.04 128.551 79.8133 128.551 80.672C128.551 81.536 128.399 82.312 128.095 83C127.791 83.688 127.353 84.2347 126.783 84.64C126.212 85.04 125.524 85.24 124.719 85.24ZM120.831 85V73.48H122.015V78.496H121.887V85H120.831ZM124.599 84.144C125.201 84.144 125.703 83.992 126.103 83.688C126.503 83.384 126.801 82.9707 126.999 82.448C127.201 81.92 127.303 81.328 127.303 80.672C127.303 80.0213 127.204 79.4347 127.007 78.912C126.809 78.3893 126.508 77.976 126.103 77.672C125.703 77.368 125.193 77.216 124.575 77.216C123.972 77.216 123.471 77.3627 123.071 77.656C122.676 77.9493 122.38 78.3573 122.183 78.88C121.985 79.3973 121.887 79.9947 121.887 80.672C121.887 81.3387 121.985 81.936 122.183 82.464C122.38 82.9867 122.679 83.3973 123.079 83.696C123.479 83.9947 123.985 84.144 124.599 84.144ZM133.612 85.216C133.094 85.216 132.641 85.136 132.252 84.976C131.868 84.816 131.54 84.6 131.268 84.328C131.001 84.056 130.785 83.7467 130.62 83.4C130.454 83.048 130.334 82.6773 130.26 82.288C130.185 81.8933 130.148 81.5013 130.148 81.112V76.36H131.332V80.768C131.332 81.2427 131.377 81.6827 131.468 82.088C131.558 82.4933 131.702 82.848 131.9 83.152C132.102 83.4507 132.361 83.6827 132.676 83.848C132.996 84.0133 133.382 84.096 133.836 84.096C134.252 84.096 134.617 84.024 134.932 83.88C135.252 83.736 135.518 83.5307 135.732 83.264C135.95 82.992 136.116 82.664 136.228 82.28C136.34 81.8907 136.396 81.4533 136.396 80.968L137.227 81.152C137.227 82.0373 137.073 82.7813 136.764 83.384C136.454 83.9867 136.028 84.4427 135.484 84.752C134.94 85.0613 134.316 85.216 133.612 85.216ZM136.516 85V82.872H136.396V76.36H137.572V85H136.516ZM139.968 85V73.24H141.144V85H139.968ZM146.846 85.216C146.329 85.216 145.875 85.136 145.486 84.976C145.102 84.816 144.774 84.6 144.502 84.328C144.235 84.056 144.019 83.7467 143.854 83.4C143.689 83.048 143.569 82.6773 143.494 82.288C143.419 81.8933 143.382 81.5013 143.382 81.112V76.36H144.566V80.768C144.566 81.2427 144.611 81.6827 144.702 82.088C144.793 82.4933 144.937 82.848 145.134 83.152C145.337 83.4507 145.595 83.6827 145.91 83.848C146.23 84.0133 146.617 84.096 147.07 84.096C147.486 84.096 147.851 84.024 148.166 83.88C148.486 83.736 148.753 83.5307 148.966 83.264C149.185 82.992 149.35 82.664 149.462 82.28C149.574 81.8907 149.63 81.4533 149.63 80.968L150.462 81.152C150.462 82.0373 150.307 82.7813 149.998 83.384C149.689 83.9867 149.262 84.4427 148.718 84.752C148.174 85.0613 147.55 85.216 146.846 85.216ZM149.75 85V82.872H149.63V76.36H150.806V85H149.75ZM163.346 85L163.354 79.328C163.354 78.6613 163.167 78.1387 162.794 77.76C162.426 77.376 161.957 77.184 161.386 77.184C161.061 77.184 160.743 77.2587 160.434 77.408C160.125 77.5573 159.869 77.7973 159.666 78.128C159.469 78.4587 159.37 78.8907 159.37 79.424L158.674 79.224C158.658 78.6053 158.778 78.064 159.034 77.6C159.295 77.136 159.653 76.776 160.106 76.52C160.565 76.2587 161.082 76.128 161.658 76.128C162.527 76.128 163.223 76.3973 163.746 76.936C164.269 77.4693 164.53 78.192 164.53 79.104L164.522 85H163.346ZM153.034 85V76.36H154.09V78.488H154.218V85H153.034ZM158.202 85L158.21 79.408C158.21 78.72 158.026 78.1787 157.658 77.784C157.295 77.384 156.815 77.184 156.218 77.184C155.621 77.184 155.138 77.3893 154.77 77.8C154.402 78.2053 154.218 78.7467 154.218 79.424L153.514 79.04C153.514 78.4853 153.645 77.9893 153.906 77.552C154.167 77.1093 154.525 76.7627 154.978 76.512C155.431 76.256 155.946 76.128 156.522 76.128C157.071 76.128 157.559 76.2453 157.986 76.48C158.418 76.7147 158.757 77.056 159.002 77.504C159.247 77.952 159.37 78.496 159.37 79.136L159.362 85H158.202ZM172.28 85.24C171.629 85.24 171.082 85.1227 170.64 84.888C170.202 84.6533 169.874 84.3413 169.656 83.952C169.437 83.5627 169.328 83.1387 169.328 82.68C169.328 82.2107 169.421 81.8107 169.608 81.48C169.8 81.144 170.058 80.8693 170.384 80.656C170.714 80.4427 171.096 80.28 171.528 80.168C171.965 80.0613 172.448 79.968 172.976 79.888C173.509 79.8027 174.029 79.7307 174.536 79.672C175.048 79.608 175.496 79.5467 175.88 79.488L175.464 79.744C175.48 78.8907 175.314 78.2587 174.968 77.848C174.621 77.4373 174.018 77.232 173.16 77.232C172.568 77.232 172.066 77.3653 171.656 77.632C171.25 77.8987 170.965 78.32 170.799 78.896L169.656 78.56C169.853 77.7867 170.25 77.1867 170.848 76.76C171.445 76.3333 172.221 76.12 173.176 76.12C173.965 76.12 174.634 76.2693 175.184 76.568C175.738 76.8613 176.13 77.288 176.36 77.848C176.466 78.0987 176.536 78.3787 176.568 78.688C176.6 78.9973 176.616 79.312 176.616 79.632V85H175.568V82.832L175.872 82.96C175.578 83.7013 175.122 84.2667 174.504 84.656C173.885 85.0453 173.144 85.24 172.28 85.24ZM172.416 84.224C172.965 84.224 173.445 84.1253 173.856 83.928C174.266 83.7307 174.597 83.4613 174.848 83.12C175.098 82.7733 175.261 82.384 175.336 81.952C175.4 81.6747 175.434 81.3707 175.44 81.04C175.445 80.704 175.448 80.4533 175.448 80.288L175.896 80.52C175.496 80.5733 175.061 80.6267 174.592 80.68C174.128 80.7333 173.669 80.7947 173.216 80.864C172.768 80.9333 172.362 81.016 172 81.112C171.754 81.1813 171.517 81.28 171.288 81.408C171.058 81.5307 170.869 81.696 170.72 81.904C170.576 82.112 170.504 82.3707 170.504 82.68C170.504 82.9307 170.565 83.1733 170.688 83.408C170.816 83.6427 171.018 83.8373 171.296 83.992C171.578 84.1467 171.952 84.224 172.416 84.224ZM178.698 85V76.36H179.754V78.44L179.546 78.168C179.642 77.912 179.767 77.6773 179.922 77.464C180.077 77.2453 180.245 77.0667 180.426 76.928C180.65 76.7307 180.911 76.5813 181.21 76.48C181.509 76.3733 181.81 76.312 182.114 76.296C182.418 76.2747 182.695 76.296 182.946 76.36V77.464C182.631 77.384 182.287 77.3653 181.914 77.408C181.541 77.4507 181.197 77.6 180.882 77.856C180.594 78.08 180.378 78.3493 180.234 78.664C180.09 78.9733 179.994 79.304 179.946 79.656C179.898 80.0027 179.874 80.3467 179.874 80.688V85H178.698ZM187.891 85.24C187.022 85.24 186.286 85.0453 185.684 84.656C185.081 84.2667 184.622 83.7307 184.308 83.048C183.998 82.36 183.838 81.5707 183.828 80.68C183.838 79.7733 184.004 78.9787 184.324 78.296C184.644 77.608 185.105 77.0747 185.708 76.696C186.31 76.312 187.041 76.12 187.9 76.12C188.774 76.12 189.534 76.3333 190.18 76.76C190.83 77.1867 191.276 77.7707 191.516 78.512L190.364 78.88C190.161 78.3627 189.838 77.9627 189.396 77.68C188.958 77.392 188.457 77.248 187.891 77.248C187.257 77.248 186.732 77.3947 186.316 77.688C185.9 77.976 185.59 78.3787 185.388 78.896C185.185 79.4133 185.081 80.008 185.076 80.68C185.086 81.7147 185.326 82.5467 185.796 83.176C186.265 83.8 186.964 84.112 187.891 84.112C188.478 84.112 188.977 83.9787 189.388 83.712C189.804 83.44 190.118 83.0453 190.332 82.528L191.516 82.88C191.196 83.648 190.726 84.2347 190.108 84.64C189.489 85.04 188.75 85.24 187.891 85.24ZM196.471 85.216C195.954 85.216 195.5 85.136 195.111 84.976C194.727 84.816 194.399 84.6 194.127 84.328C193.86 84.056 193.644 83.7467 193.479 83.4C193.314 83.048 193.194 82.6773 193.119 82.288C193.044 81.8933 193.007 81.5013 193.007 81.112V76.36H194.191V80.768C194.191 81.2427 194.236 81.6827 194.327 82.088C194.418 82.4933 194.562 82.848 194.759 83.152C194.962 83.4507 195.22 83.6827 195.535 83.848C195.855 84.0133 196.242 84.096 196.695 84.096C197.111 84.096 197.476 84.024 197.791 83.88C198.111 83.736 198.378 83.5307 198.591 83.264C198.81 82.992 198.975 82.664 199.087 82.28C199.199 81.8907 199.255 81.4533 199.255 80.968L200.087 81.152C200.087 82.0373 199.932 82.7813 199.623 83.384C199.314 83.9867 198.887 84.4427 198.343 84.752C197.799 85.0613 197.175 85.216 196.471 85.216ZM199.375 85V82.872H199.255V76.36H200.431V85H199.375ZM209.526 85.24C208.683 85.24 207.953 85.0533 207.334 84.68C206.721 84.3067 206.243 83.7813 205.902 83.104C205.561 82.4267 205.39 81.632 205.39 80.72C205.39 79.776 205.558 78.96 205.894 78.272C206.23 77.584 206.702 77.0533 207.31 76.68C207.923 76.3067 208.646 76.12 209.478 76.12C210.331 76.12 211.059 76.3173 211.662 76.712C212.265 77.1013 212.721 77.6613 213.03 78.392C213.339 79.1227 213.481 79.9947 213.454 81.008H212.254V80.592C212.233 79.472 211.99 78.6267 211.526 78.056C211.067 77.4853 210.395 77.2 209.51 77.2C208.582 77.2 207.87 77.5013 207.374 78.104C206.883 78.7067 206.638 79.5653 206.638 80.68C206.638 81.768 206.883 82.6133 207.374 83.216C207.87 83.8133 208.571 84.112 209.478 84.112C210.097 84.112 210.635 83.9707 211.094 83.688C211.558 83.4 211.923 82.9867 212.19 82.448L213.286 82.872C212.945 83.624 212.441 84.208 211.774 84.624C211.113 85.0347 210.363 85.24 209.526 85.24ZM206.222 81.008V80.024H212.822V81.008H206.222ZM215.389 85V73.24H216.565V85H215.389ZM222.62 85.24C221.777 85.24 221.046 85.0533 220.428 84.68C219.814 84.3067 219.337 83.7813 218.996 83.104C218.654 82.4267 218.484 81.632 218.484 80.72C218.484 79.776 218.652 78.96 218.988 78.272C219.324 77.584 219.796 77.0533 220.404 76.68C221.017 76.3067 221.74 76.12 222.572 76.12C223.425 76.12 224.153 76.3173 224.756 76.712C225.358 77.1013 225.814 77.6613 226.124 78.392C226.433 79.1227 226.574 79.9947 226.548 81.008H225.348V80.592C225.326 79.472 225.084 78.6267 224.62 78.056C224.161 77.4853 223.489 77.2 222.604 77.2C221.676 77.2 220.964 77.5013 220.468 78.104C219.977 78.7067 219.732 79.5653 219.732 80.68C219.732 81.768 219.977 82.6133 220.468 83.216C220.964 83.8133 221.665 84.112 222.572 84.112C223.19 84.112 223.729 83.9707 224.188 83.688C224.652 83.4 225.017 82.9867 225.284 82.448L226.38 82.872C226.038 83.624 225.534 84.208 224.868 84.624C224.206 85.0347 223.457 85.24 222.62 85.24ZM219.316 81.008V80.024H225.916V81.008H219.316ZM238.393 85L238.401 79.328C238.401 78.6613 238.214 78.1387 237.841 77.76C237.473 77.376 237.003 77.184 236.433 77.184C236.107 77.184 235.79 77.2587 235.481 77.408C235.171 77.5573 234.915 77.7973 234.713 78.128C234.515 78.4587 234.417 78.8907 234.417 79.424L233.721 79.224C233.705 78.6053 233.825 78.064 234.081 77.6C234.342 77.136 234.699 76.776 235.153 76.52C235.611 76.2587 236.129 76.128 236.705 76.128C237.574 76.128 238.27 76.3973 238.793 76.936C239.315 77.4693 239.577 78.192 239.577 79.104L239.569 85H238.393ZM228.081 85V76.36H229.137V78.488H229.265V85H228.081ZM233.249 85L233.257 79.408C233.257 78.72 233.073 78.1787 232.705 77.784C232.342 77.384 231.862 77.184 231.265 77.184C230.667 77.184 230.185 77.3893 229.817 77.8C229.449 78.2053 229.265 78.7467 229.265 79.424L228.561 79.04C228.561 78.4853 228.691 77.9893 228.953 77.552C229.214 77.1093 229.571 76.7627 230.025 76.512C230.478 76.256 230.993 76.128 231.569 76.128C232.118 76.128 232.606 76.2453 233.033 76.48C233.465 76.7147 233.803 77.056 234.049 77.504C234.294 77.952 234.417 78.496 234.417 79.136L234.409 85H233.249ZM245.26 85.24C244.418 85.24 243.687 85.0533 243.068 84.68C242.455 84.3067 241.978 83.7813 241.636 83.104C241.295 82.4267 241.124 81.632 241.124 80.72C241.124 79.776 241.292 78.96 241.628 78.272C241.964 77.584 242.436 77.0533 243.044 76.68C243.658 76.3067 244.38 76.12 245.212 76.12C246.066 76.12 246.794 76.3173 247.396 76.712C247.999 77.1013 248.455 77.6613 248.764 78.392C249.074 79.1227 249.215 79.9947 249.188 81.008H247.988V80.592C247.967 79.472 247.724 78.6267 247.26 78.056C246.802 77.4853 246.13 77.2 245.244 77.2C244.316 77.2 243.604 77.5013 243.108 78.104C242.618 78.7067 242.372 79.5653 242.372 80.68C242.372 81.768 242.618 82.6133 243.108 83.216C243.604 83.8133 244.306 84.112 245.212 84.112C245.831 84.112 246.37 83.9707 246.828 83.688C247.292 83.4 247.658 82.9867 247.924 82.448L249.02 82.872C248.679 83.624 248.175 84.208 247.508 84.624C246.847 85.0347 246.098 85.24 245.26 85.24ZM241.956 81.008V80.024H248.556V81.008H241.956ZM256.969 85V80.592C256.969 80.112 256.924 79.672 256.833 79.272C256.743 78.8667 256.596 78.5147 256.393 78.216C256.196 77.912 255.937 77.6773 255.617 77.512C255.303 77.3467 254.919 77.264 254.465 77.264C254.049 77.264 253.681 77.336 253.361 77.48C253.047 77.624 252.78 77.832 252.561 78.104C252.348 78.3707 252.185 78.696 252.073 79.08C251.961 79.464 251.905 79.9013 251.905 80.392L251.073 80.208C251.073 79.3227 251.228 78.5787 251.537 77.976C251.847 77.3733 252.273 76.9173 252.817 76.608C253.361 76.2987 253.985 76.144 254.689 76.144C255.207 76.144 255.657 76.224 256.041 76.384C256.431 76.544 256.759 76.76 257.025 77.032C257.297 77.304 257.516 77.616 257.681 77.968C257.847 78.3147 257.967 78.6853 258.041 79.08C258.116 79.4693 258.153 79.8587 258.153 80.248V85H256.969ZM250.721 85V76.36H251.785V78.488H251.905V85H250.721ZM264.933 85C264.448 85.1013 263.968 85.1413 263.493 85.12C263.024 85.0987 262.603 84.9973 262.229 84.816C261.861 84.6347 261.581 84.352 261.389 83.968C261.235 83.648 261.149 83.3253 261.133 83C261.123 82.6693 261.117 82.2933 261.117 81.872V73.96H262.285V81.824C262.285 82.1867 262.288 82.4907 262.293 82.736C262.304 82.976 262.36 83.1893 262.461 83.376C262.653 83.7333 262.957 83.9467 263.373 84.016C263.795 84.0853 264.315 84.0693 264.933 83.968V85ZM259.269 77.368V76.36H264.933V77.368H259.269ZM269.94 85.216C269.422 85.216 268.969 85.136 268.58 84.976C268.196 84.816 267.868 84.6 267.596 84.328C267.329 84.056 267.113 83.7467 266.948 83.4C266.782 83.048 266.662 82.6773 266.588 82.288C266.513 81.8933 266.476 81.5013 266.476 81.112V76.36H267.66V80.768C267.66 81.2427 267.705 81.6827 267.796 82.088C267.886 82.4933 268.03 82.848 268.228 83.152C268.43 83.4507 268.689 83.6827 269.004 83.848C269.324 84.0133 269.71 84.096 270.164 84.096C270.58 84.096 270.945 84.024 271.26 83.88C271.58 83.736 271.846 83.5307 272.06 83.264C272.278 82.992 272.444 82.664 272.556 82.28C272.668 81.8907 272.724 81.4533 272.724 80.968L273.556 81.152C273.556 82.0373 273.401 82.7813 273.092 83.384C272.782 83.9867 272.356 84.4427 271.812 84.752C271.268 85.0613 270.644 85.216 269.94 85.216ZM272.844 85V82.872H272.724V76.36H273.9V85H272.844ZM286.44 85L286.448 79.328C286.448 78.6613 286.261 78.1387 285.888 77.76C285.52 77.376 285.05 77.184 284.48 77.184C284.154 77.184 283.837 77.2587 283.528 77.408C283.218 77.5573 282.962 77.7973 282.76 78.128C282.562 78.4587 282.464 78.8907 282.464 79.424L281.768 79.224C281.752 78.6053 281.872 78.064 282.128 77.6C282.389 77.136 282.746 76.776 283.2 76.52C283.658 76.2587 284.176 76.128 284.752 76.128C285.621 76.128 286.317 76.3973 286.84 76.936C287.362 77.4693 287.624 78.192 287.624 79.104L287.616 85H286.44ZM276.128 85V76.36H277.184V78.488H277.312V85H276.128ZM281.296 85L281.304 79.408C281.304 78.72 281.12 78.1787 280.752 77.784C280.389 77.384 279.909 77.184 279.312 77.184C278.714 77.184 278.232 77.3893 277.864 77.8C277.496 78.2053 277.312 78.7467 277.312 79.424L276.608 79.04C276.608 78.4853 276.738 77.9893 277 77.552C277.261 77.1093 277.618 76.7627 278.072 76.512C278.525 76.256 279.04 76.128 279.616 76.128C280.165 76.128 280.653 76.2453 281.08 76.48C281.512 76.7147 281.85 77.056 282.096 77.504C282.341 77.952 282.464 78.496 282.464 79.136L282.456 85H281.296ZM85.28 100.72V99.4H86.456V100.72H85.28ZM85.28 111V102.36H86.456V111H85.28ZM99.1584 111L99.1664 105.328C99.1664 104.661 98.9797 104.139 98.6064 103.76C98.2384 103.376 97.769 103.184 97.1984 103.184C96.873 103.184 96.5557 103.259 96.2464 103.408C95.937 103.557 95.681 103.797 95.4784 104.128C95.281 104.459 95.1824 104.891 95.1824 105.424L94.4864 105.224C94.4704 104.605 94.5904 104.064 94.8464 103.6C95.1077 103.136 95.465 102.776 95.9184 102.52C96.377 102.259 96.8944 102.128 97.4704 102.128C98.3397 102.128 99.0357 102.397 99.5584 102.936C100.081 103.469 100.342 104.192 100.342 105.104L100.334 111H99.1584ZM88.8464 111V102.36H89.9024V104.488H90.0304V111H88.8464ZM94.0144 111L94.0224 105.408C94.0224 104.72 93.8384 104.179 93.4704 103.784C93.1077 103.384 92.6277 103.184 92.0304 103.184C91.433 103.184 90.9504 103.389 90.5824 103.8C90.2144 104.205 90.0304 104.747 90.0304 105.424L89.3264 105.04C89.3264 104.485 89.457 103.989 89.7184 103.552C89.9797 103.109 90.337 102.763 90.7904 102.512C91.2437 102.256 91.7584 102.128 92.3344 102.128C92.8837 102.128 93.3717 102.245 93.7984 102.48C94.2304 102.715 94.569 103.056 94.8144 103.504C95.0597 103.952 95.1824 104.496 95.1824 105.136L95.1744 111H94.0144ZM106.297 111.24C105.502 111.24 104.83 111.04 104.281 110.64C103.732 110.235 103.316 109.688 103.033 109C102.75 108.307 102.609 107.531 102.609 106.672C102.609 105.797 102.75 105.019 103.033 104.336C103.321 103.648 103.742 103.107 104.297 102.712C104.852 102.317 105.534 102.12 106.345 102.12C107.134 102.12 107.812 102.32 108.377 102.72C108.942 103.12 109.374 103.664 109.673 104.352C109.977 105.04 110.129 105.813 110.129 106.672C110.129 107.536 109.977 108.312 109.673 109C109.369 109.688 108.932 110.235 108.361 110.64C107.79 111.04 107.102 111.24 106.297 111.24ZM102.409 114.84V102.36H103.465V108.864H103.593V114.84H102.409ZM106.177 110.144C106.78 110.144 107.281 109.992 107.681 109.688C108.081 109.384 108.38 108.971 108.577 108.448C108.78 107.92 108.881 107.328 108.881 106.672C108.881 106.021 108.782 105.435 108.585 104.912C108.388 104.389 108.086 103.976 107.681 103.672C107.281 103.368 106.772 103.216 106.153 103.216C105.55 103.216 105.049 103.363 104.649 103.656C104.254 103.949 103.958 104.357 103.761 104.88C103.564 105.397 103.465 105.995 103.465 106.672C103.465 107.339 103.564 107.936 103.761 108.464C103.958 108.987 104.257 109.397 104.657 109.696C105.057 109.995 105.564 110.144 106.177 110.144ZM115.542 111.24C114.699 111.24 113.968 111.053 113.35 110.68C112.736 110.307 112.259 109.781 111.918 109.104C111.576 108.427 111.406 107.632 111.406 106.72C111.406 105.776 111.574 104.96 111.91 104.272C112.246 103.584 112.718 103.053 113.326 102.68C113.939 102.307 114.662 102.12 115.494 102.12C116.347 102.12 117.075 102.317 117.678 102.712C118.28 103.101 118.736 103.661 119.046 104.392C119.355 105.123 119.496 105.995 119.47 107.008H118.27V106.592C118.248 105.472 118.006 104.627 117.542 104.056C117.083 103.485 116.411 103.2 115.526 103.2C114.598 103.2 113.886 103.501 113.39 104.104C112.899 104.707 112.654 105.565 112.654 106.68C112.654 107.768 112.899 108.613 113.39 109.216C113.886 109.813 114.587 110.112 115.494 110.112C116.112 110.112 116.651 109.971 117.11 109.688C117.574 109.4 117.939 108.987 118.206 108.448L119.302 108.872C118.96 109.624 118.456 110.208 117.79 110.624C117.128 111.035 116.379 111.24 115.542 111.24ZM112.238 107.008V106.024H118.838V107.008H112.238ZM121.245 111V102.36H122.301V104.44L122.093 104.168C122.189 103.912 122.314 103.677 122.469 103.464C122.624 103.245 122.792 103.067 122.973 102.928C123.197 102.731 123.458 102.581 123.757 102.48C124.056 102.373 124.357 102.312 124.661 102.296C124.965 102.275 125.242 102.296 125.493 102.36V103.464C125.178 103.384 124.834 103.365 124.461 103.408C124.088 103.451 123.744 103.6 123.429 103.856C123.141 104.08 122.925 104.349 122.781 104.664C122.637 104.973 122.541 105.304 122.493 105.656C122.445 106.003 122.421 106.347 122.421 106.688V111H121.245ZM130.206 111.24C129.401 111.24 128.713 111.04 128.142 110.64C127.572 110.235 127.134 109.688 126.83 109C126.526 108.312 126.374 107.536 126.374 106.672C126.374 105.813 126.524 105.04 126.822 104.352C127.126 103.664 127.561 103.12 128.126 102.72C128.692 102.32 129.369 102.12 130.158 102.12C130.969 102.12 131.652 102.317 132.206 102.712C132.761 103.107 133.18 103.648 133.462 104.336C133.75 105.019 133.894 105.797 133.894 106.672C133.894 107.531 133.753 108.307 133.47 109C133.188 109.688 132.772 110.235 132.222 110.64C131.673 111.04 131.001 111.24 130.206 111.24ZM130.326 110.144C130.94 110.144 131.446 109.995 131.846 109.696C132.246 109.397 132.545 108.987 132.742 108.464C132.94 107.936 133.038 107.339 133.038 106.672C133.038 105.995 132.94 105.397 132.742 104.88C132.545 104.357 132.246 103.949 131.846 103.656C131.452 103.363 130.953 103.216 130.35 103.216C129.732 103.216 129.22 103.368 128.814 103.672C128.409 103.976 128.108 104.389 127.91 104.912C127.718 105.435 127.622 106.021 127.622 106.672C127.622 107.328 127.721 107.92 127.918 108.448C128.121 108.971 128.422 109.384 128.822 109.688C129.222 109.992 129.724 110.144 130.326 110.144ZM133.038 111V104.496H132.91V99.48H134.094V111H133.038ZM136.499 100.72V99.4H137.675V100.72H136.499ZM136.499 111V102.36H137.675V111H136.499ZM143.729 111.24C142.886 111.24 142.156 111.053 141.537 110.68C140.924 110.307 140.446 109.781 140.105 109.104C139.764 108.427 139.593 107.632 139.593 106.72C139.593 105.776 139.761 104.96 140.097 104.272C140.433 103.584 140.905 103.053 141.513 102.68C142.126 102.307 142.849 102.12 143.681 102.12C144.534 102.12 145.262 102.317 145.865 102.712C146.468 103.101 146.924 103.661 147.233 104.392C147.542 105.123 147.684 105.995 147.657 107.008H146.457V106.592C146.436 105.472 146.193 104.627 145.729 104.056C145.27 103.485 144.598 103.2 143.713 103.2C142.785 103.2 142.073 103.501 141.577 104.104C141.086 104.707 140.841 105.565 140.841 106.68C140.841 107.768 141.086 108.613 141.577 109.216C142.073 109.813 142.774 110.112 143.681 110.112C144.3 110.112 144.838 109.971 145.297 109.688C145.761 109.4 146.126 108.987 146.393 108.448L147.489 108.872C147.148 109.624 146.644 110.208 145.977 110.624C145.316 111.035 144.566 111.24 143.729 111.24ZM140.425 107.008V106.024H147.025V107.008H140.425ZM154.137 111C153.651 111.101 153.171 111.141 152.697 111.12C152.227 111.099 151.806 110.997 151.433 110.816C151.065 110.635 150.785 110.352 150.593 109.968C150.438 109.648 150.353 109.325 150.337 109C150.326 108.669 150.321 108.293 150.321 107.872V99.96H151.489V107.824C151.489 108.187 151.491 108.491 151.497 108.736C151.507 108.976 151.563 109.189 151.665 109.376C151.857 109.733 152.161 109.947 152.577 110.016C152.998 110.085 153.518 110.069 154.137 109.968V111ZM148.473 103.368V102.36H154.137V103.368H148.473ZM162.698 111.24C161.855 111.24 161.125 111.053 160.506 110.68C159.893 110.307 159.415 109.781 159.074 109.104C158.733 108.427 158.562 107.632 158.562 106.72C158.562 105.776 158.73 104.96 159.066 104.272C159.402 103.584 159.874 103.053 160.482 102.68C161.095 102.307 161.818 102.12 162.65 102.12C163.503 102.12 164.231 102.317 164.834 102.712C165.437 103.101 165.893 103.661 166.202 104.392C166.511 105.123 166.653 105.995 166.626 107.008H165.426V106.592C165.405 105.472 165.162 104.627 164.698 104.056C164.239 103.485 163.567 103.2 162.682 103.2C161.754 103.2 161.042 103.501 160.546 104.104C160.055 104.707 159.81 105.565 159.81 106.68C159.81 107.768 160.055 108.613 160.546 109.216C161.042 109.813 161.743 110.112 162.65 110.112C163.269 110.112 163.807 109.971 164.266 109.688C164.73 109.4 165.095 108.987 165.362 108.448L166.458 108.872C166.117 109.624 165.613 110.208 164.946 110.624C164.285 111.035 163.535 111.24 162.698 111.24ZM159.394 107.008V106.024H165.994V107.008H159.394ZM168.561 111V99.24H169.737V111H168.561ZM175.792 111.24C174.949 111.24 174.218 111.053 173.6 110.68C172.986 110.307 172.509 109.781 172.168 109.104C171.826 108.427 171.656 107.632 171.656 106.72C171.656 105.776 171.824 104.96 172.16 104.272C172.496 103.584 172.968 103.053 173.576 102.68C174.189 102.307 174.912 102.12 175.744 102.12C176.597 102.12 177.325 102.317 177.928 102.712C178.53 103.101 178.986 103.661 179.296 104.392C179.605 105.123 179.746 105.995 179.72 107.008H178.52V106.592C178.498 105.472 178.256 104.627 177.792 104.056C177.333 103.485 176.661 103.2 175.776 103.2C174.848 103.2 174.136 103.501 173.64 104.104C173.149 104.707 172.904 105.565 172.904 106.68C172.904 107.768 173.149 108.613 173.64 109.216C174.136 109.813 174.837 110.112 175.744 110.112C176.362 110.112 176.901 109.971 177.36 109.688C177.824 109.4 178.189 108.987 178.456 108.448L179.552 108.872C179.21 109.624 178.706 110.208 178.04 110.624C177.378 111.035 176.629 111.24 175.792 111.24ZM172.488 107.008V106.024H179.088V107.008H172.488ZM181.655 100.72V99.4H182.831V100.72H181.655ZM181.655 111V102.36H182.831V111H181.655ZM186.085 111V101.72C186.085 101.496 186.096 101.275 186.117 101.056C186.144 100.837 186.195 100.629 186.269 100.432C186.344 100.229 186.461 100.043 186.621 99.872C186.797 99.68 186.989 99.5413 187.197 99.456C187.405 99.3653 187.621 99.3067 187.845 99.28C188.075 99.2533 188.299 99.24 188.517 99.24H189.621V100.232H188.597C188.149 100.232 187.813 100.341 187.589 100.56C187.371 100.779 187.261 101.123 187.261 101.592V111H186.085ZM184.589 103.368V102.36H189.621V103.368H184.589ZM194.245 111.24C193.402 111.24 192.671 111.053 192.053 110.68C191.439 110.307 190.962 109.781 190.621 109.104C190.279 108.427 190.109 107.632 190.109 106.72C190.109 105.776 190.277 104.96 190.613 104.272C190.949 103.584 191.421 103.053 192.029 102.68C192.642 102.307 193.365 102.12 194.197 102.12C195.05 102.12 195.778 102.317 196.381 102.712C196.983 103.101 197.439 103.661 197.749 104.392C198.058 105.123 198.199 105.995 198.173 107.008H196.973V106.592C196.951 105.472 196.709 104.627 196.245 104.056C195.786 103.485 195.114 103.2 194.229 103.2C193.301 103.2 192.589 103.501 192.093 104.104C191.602 104.707 191.357 105.565 191.357 106.68C191.357 107.768 191.602 108.613 192.093 109.216C192.589 109.813 193.29 110.112 194.197 110.112C194.815 110.112 195.354 109.971 195.813 109.688C196.277 109.4 196.642 108.987 196.909 108.448L198.005 108.872C197.663 109.624 197.159 110.208 196.493 110.624C195.831 111.035 195.082 111.24 194.245 111.24ZM190.941 107.008V106.024H197.541V107.008H190.941ZM205.954 111V106.592C205.954 106.112 205.908 105.672 205.818 105.272C205.727 104.867 205.58 104.515 205.378 104.216C205.18 103.912 204.922 103.677 204.602 103.512C204.287 103.347 203.903 103.264 203.45 103.264C203.034 103.264 202.666 103.336 202.346 103.48C202.031 103.624 201.764 103.832 201.546 104.104C201.332 104.371 201.17 104.696 201.058 105.08C200.946 105.464 200.89 105.901 200.89 106.392L200.058 106.208C200.058 105.323 200.212 104.579 200.522 103.976C200.831 103.373 201.258 102.917 201.802 102.608C202.346 102.299 202.97 102.144 203.674 102.144C204.191 102.144 204.642 102.224 205.026 102.384C205.415 102.544 205.743 102.76 206.01 103.032C206.282 103.304 206.5 103.616 206.666 103.968C206.831 104.315 206.951 104.685 207.026 105.08C207.1 105.469 207.138 105.859 207.138 106.248V111H205.954ZM199.706 111V102.36H200.77V104.488H200.89V111H199.706ZM212.519 111.24C211.714 111.24 211.026 111.04 210.455 110.64C209.884 110.235 209.447 109.688 209.143 109C208.839 108.312 208.687 107.536 208.687 106.672C208.687 105.813 208.836 105.04 209.135 104.352C209.439 103.664 209.874 103.12 210.439 102.72C211.004 102.32 211.682 102.12 212.471 102.12C213.282 102.12 213.964 102.317 214.519 102.712C215.074 103.107 215.492 103.648 215.775 104.336C216.063 105.019 216.207 105.797 216.207 106.672C216.207 107.531 216.066 108.307 215.783 109C215.5 109.688 215.084 110.235 214.535 110.64C213.986 111.04 213.314 111.24 212.519 111.24ZM212.639 110.144C213.252 110.144 213.759 109.995 214.159 109.696C214.559 109.397 214.858 108.987 215.055 108.464C215.252 107.936 215.351 107.339 215.351 106.672C215.351 105.995 215.252 105.397 215.055 104.88C214.858 104.357 214.559 103.949 214.159 103.656C213.764 103.363 213.266 103.216 212.663 103.216C212.044 103.216 211.532 103.368 211.127 103.672C210.722 103.976 210.42 104.389 210.223 104.912C210.031 105.435 209.935 106.021 209.935 106.672C209.935 107.328 210.034 107.92 210.231 108.448C210.434 108.971 210.735 109.384 211.135 109.688C211.535 109.992 212.036 110.144 212.639 110.144ZM215.351 111V104.496H215.223V99.48H216.407V111H215.351ZM218.875 111V109.632H220.243V111H218.875Z" fill="white"/>
<defs>
<linearGradient id="paint0_linear_20005128_7785" x1="16" y1="30.0672" x2="43.9999" y2="30.0672" gradientUnits="userSpaceOnUse">
<stop stop-color="#6366F1"/>
<stop offset="0.5" stop-color="#8B5CF6"/>
<stop offset="1" stop-color="#D946EF"/>
</linearGradient>
<clipPath id="clip0_20005128_7785">
<rect width="28" height="28" fill="white" transform="translate(16 16)"/>
</clipPath>
</defs>
</svg>
