<svg width="345" height="118" viewBox="0 0 345 118" fill="none" xmlns="http://www.w3.org/2000/svg">
<rect width="60" height="60" rx="8" fill="#6366F1" fill-opacity="0.08"/>
<g clip-path="url(#clip0_20005128_7794)">
<path d="M42.3217 38.5444C43.4213 37.0473 43.999 35.3076 43.999 33.474C43.999 30.5388 42.4768 27.8137 39.9088 26.1132C39.672 23.4981 38.4509 21.0729 36.4093 19.2042C34.1518 17.138 31.1566 16 27.9756 16C24.7946 16 21.7995 17.138 19.5419 19.2043C17.2573 21.2953 15.9991 24.0831 15.9991 27.0543C15.9991 29.3396 16.7358 31.5062 18.1362 33.36L16.0788 38.4494C15.9119 38.8621 16.0119 39.3348 16.3315 39.6446C16.5399 39.8465 16.8143 39.9531 17.0931 39.9531C17.242 39.9531 17.3922 39.9227 17.534 39.8602L23.402 37.2734C24.1387 37.555 24.8977 37.7657 25.6741 37.9051C26.4695 39.2132 27.6039 40.3208 28.983 41.1272C30.5227 42.0273 32.3004 42.5082 34.129 42.5221C34.1558 42.524 34.1826 42.5262 34.21 42.5262C35.4742 42.5262 36.6991 42.3078 37.8578 41.8765L42.4641 43.907C42.6059 43.9696 42.7561 44 42.905 44C43.1838 44 43.4583 43.8935 43.6666 43.6915C43.9863 43.3816 44.0862 42.9089 43.9193 42.4963L42.3217 38.5444ZM40.0554 38.7749L40.8817 40.8189L38.3203 39.6898C38.0434 39.5677 37.7283 39.5658 37.4499 39.6846C36.446 40.1129 35.371 40.3324 34.2543 40.3381C34.2395 40.3375 34.2249 40.3359 34.21 40.3359C32.0545 40.3359 30.0182 39.4936 28.5955 38.0924C30.3993 38.006 32.1673 37.5454 33.7436 36.7449C34.2823 36.4713 34.4971 35.813 34.2235 35.2744C33.95 34.7358 33.2916 34.5211 32.753 34.7945C31.302 35.5315 29.6499 35.9211 27.9756 35.9211C26.5207 35.9211 25.12 35.6382 23.8126 35.0804C23.5343 34.9616 23.2191 34.9634 22.9422 35.0856L19.1164 36.7721L20.4045 33.5857C20.5572 33.2078 20.4873 32.7763 20.2228 32.4662C18.8907 30.9034 18.1866 29.0319 18.1866 27.0543C18.1866 22.1651 22.5779 18.1875 27.9756 18.1875C33.3733 18.1875 37.7646 22.1651 37.7646 27.0543C37.7646 28.6334 37.3004 30.1837 36.422 31.5375C36.0932 32.0442 36.2374 32.7215 36.7442 33.0503C37.2509 33.3792 37.9282 33.2348 38.2571 32.7281C39.0366 31.5267 39.5574 30.2002 39.7982 28.8225C41.0795 30.0772 41.8115 31.73 41.8115 33.474C41.8115 35.0012 41.2671 36.4471 40.2371 37.6554C39.9726 37.9656 39.9027 38.3971 40.0554 38.7749ZM29.0147 32.6797C29.0147 33.2837 28.525 33.7734 27.9209 33.7734C27.3168 33.7734 26.8272 33.2837 26.8272 32.6797C26.8272 32.0756 27.3168 31.5859 27.9209 31.5859C28.525 31.5859 29.0147 32.0756 29.0147 32.6797ZM32.0762 24.4849C32.0769 24.5001 32.0772 24.5153 32.0772 24.5306C32.0776 26.1771 31.0993 27.6588 29.5849 28.3053C29.2716 28.4391 29.069 28.7547 29.069 29.1092V29.1797C29.069 29.7837 28.5793 30.2734 27.9753 30.2734C27.3712 30.2734 26.8815 29.7837 26.8815 29.1797V29.1093C26.8815 27.8771 27.6055 26.7719 28.7261 26.2935C29.4235 25.9958 29.8774 25.3187 29.8894 24.5625C29.8892 24.552 29.889 24.5415 29.889 24.5309C29.889 23.4757 29.0305 22.6172 27.9753 22.6172C26.9201 22.6172 26.0615 23.4757 26.0615 24.5308C26.0615 25.1349 25.5719 25.6246 24.9678 25.6246C24.3637 25.6246 23.874 25.1349 23.874 24.5308C23.874 22.2695 25.7138 20.4297 27.9753 20.4297C30.2213 20.4297 32.0516 22.2446 32.0762 24.4849Z" fill="url(#paint0_linear_20005128_7794)"/>
</g>
<path d="M90.84 22.3C89.7733 22.3 88.81 22.1133 87.95 21.74C87.0967 21.36 86.3933 20.82 85.84 20.12C85.2933 19.4133 84.9467 18.5733 84.8 17.6L87.64 17.18C87.84 18.0067 88.2533 18.6433 88.88 19.09C89.5067 19.5367 90.22 19.76 91.02 19.76C91.4667 19.76 91.9 19.69 92.32 19.55C92.74 19.41 93.0833 19.2033 93.35 18.93C93.6233 18.6567 93.76 18.32 93.76 17.92C93.76 17.7733 93.7367 17.6333 93.69 17.5C93.65 17.36 93.58 17.23 93.48 17.11C93.38 16.99 93.2367 16.8767 93.05 16.77C92.87 16.6633 92.64 16.5667 92.36 16.48L88.62 15.38C88.34 15.3 88.0133 15.1867 87.64 15.04C87.2733 14.8933 86.9167 14.6833 86.57 14.41C86.2233 14.1367 85.9333 13.7767 85.7 13.33C85.4733 12.8767 85.36 12.3067 85.36 11.62C85.36 10.6533 85.6033 9.85 86.09 9.21C86.5767 8.57 87.2267 8.09333 88.04 7.78C88.8533 7.46667 89.7533 7.31333 90.74 7.32C91.7333 7.33333 92.62 7.50333 93.4 7.83C94.18 8.15667 94.8333 8.63333 95.36 9.26C95.8867 9.88 96.2667 10.64 96.5 11.54L93.56 12.04C93.4533 11.5733 93.2567 11.18 92.97 10.86C92.6833 10.54 92.34 10.2967 91.94 10.13C91.5467 9.96333 91.1333 9.87333 90.7 9.86C90.2733 9.84667 89.87 9.90667 89.49 10.04C89.1167 10.1667 88.81 10.3533 88.57 10.6C88.3367 10.8467 88.22 11.14 88.22 11.48C88.22 11.7933 88.3167 12.05 88.51 12.25C88.7033 12.4433 88.9467 12.6 89.24 12.72C89.5333 12.84 89.8333 12.94 90.14 13.02L92.64 13.7C93.0133 13.8 93.4267 13.9333 93.88 14.1C94.3333 14.26 94.7667 14.4867 95.18 14.78C95.6 15.0667 95.9433 15.4467 96.21 15.92C96.4833 16.3933 96.62 16.9933 96.62 17.72C96.62 18.4933 96.4567 19.17 96.13 19.75C95.81 20.3233 95.3767 20.8 94.83 21.18C94.2833 21.5533 93.6633 21.8333 92.97 22.02C92.2833 22.2067 91.5733 22.3 90.84 22.3ZM102.838 22.32C101.991 22.32 101.301 22.1767 100.768 21.89C100.235 21.6033 99.818 21.24 99.518 20.8C99.2246 20.36 99.0146 19.9033 98.888 19.43C98.7613 18.95 98.6846 18.5133 98.658 18.12C98.6313 17.7267 98.618 17.44 98.618 17.26V11.2H101.378V16.3C101.378 16.5467 101.391 16.8633 101.418 17.25C101.445 17.63 101.528 18.0133 101.668 18.4C101.808 18.7867 102.035 19.11 102.348 19.37C102.668 19.63 103.118 19.76 103.698 19.76C103.931 19.76 104.181 19.7233 104.448 19.65C104.715 19.5767 104.965 19.4367 105.198 19.23C105.431 19.0167 105.621 18.7067 105.768 18.3C105.921 17.8867 105.998 17.3467 105.998 16.68L107.558 17.42C107.558 18.2733 107.385 19.0733 107.038 19.82C106.691 20.5667 106.168 21.17 105.468 21.63C104.775 22.09 103.898 22.32 102.838 22.32ZM106.338 22V18.42H105.998V11.2H108.738V22H106.338ZM116.833 22.3C115.759 22.3 114.863 22.05 114.143 21.55C113.423 21.05 112.879 20.37 112.513 19.51C112.153 18.65 111.973 17.68 111.973 16.6C111.973 15.52 112.153 14.55 112.513 13.69C112.873 12.83 113.403 12.15 114.103 11.65C114.803 11.15 115.666 10.9 116.693 10.9C117.726 10.9 118.626 11.1467 119.393 11.64C120.159 12.1333 120.753 12.81 121.173 13.67C121.599 14.5233 121.813 15.5 121.813 16.6C121.813 17.68 121.603 18.65 121.183 19.51C120.769 20.37 120.189 21.05 119.443 21.55C118.696 22.05 117.826 22.3 116.833 22.3ZM111.513 26.8V11.2H113.913V18.6H114.253V26.8H111.513ZM116.393 19.88C116.979 19.88 117.459 19.7333 117.833 19.44C118.206 19.1467 118.483 18.7533 118.663 18.26C118.843 17.76 118.933 17.2067 118.933 16.6C118.933 16 118.839 15.4533 118.653 14.96C118.466 14.46 118.176 14.0633 117.783 13.77C117.396 13.47 116.899 13.32 116.293 13.32C115.726 13.32 115.266 13.4567 114.913 13.73C114.566 14.0033 114.313 14.3867 114.153 14.88C113.993 15.3733 113.913 15.9467 113.913 16.6C113.913 17.2533 113.993 17.8267 114.153 18.32C114.313 18.8133 114.573 19.1967 114.933 19.47C115.299 19.7433 115.786 19.88 116.393 19.88ZM129.313 22.3C128.24 22.3 127.343 22.05 126.623 21.55C125.903 21.05 125.36 20.37 124.993 19.51C124.633 18.65 124.453 17.68 124.453 16.6C124.453 15.52 124.633 14.55 124.993 13.69C125.353 12.83 125.883 12.15 126.583 11.65C127.283 11.15 128.147 10.9 129.173 10.9C130.207 10.9 131.107 11.1467 131.873 11.64C132.64 12.1333 133.233 12.81 133.653 13.67C134.08 14.5233 134.293 15.5 134.293 16.6C134.293 17.68 134.083 18.65 133.663 19.51C133.25 20.37 132.67 21.05 131.923 21.55C131.177 22.05 130.307 22.3 129.313 22.3ZM123.993 26.8V11.2H126.393V18.6H126.733V26.8H123.993ZM128.873 19.88C129.46 19.88 129.94 19.7333 130.313 19.44C130.687 19.1467 130.963 18.7533 131.143 18.26C131.323 17.76 131.413 17.2067 131.413 16.6C131.413 16 131.32 15.4533 131.133 14.96C130.947 14.46 130.657 14.0633 130.263 13.77C129.877 13.47 129.38 13.32 128.773 13.32C128.207 13.32 127.747 13.4567 127.393 13.73C127.047 14.0033 126.793 14.3867 126.633 14.88C126.473 15.3733 126.393 15.9467 126.393 16.6C126.393 17.2533 126.473 17.8267 126.633 18.32C126.793 18.8133 127.053 19.1967 127.413 19.47C127.78 19.7433 128.267 19.88 128.873 19.88ZM141.354 22.3C140.267 22.3 139.314 22.0567 138.494 21.57C137.674 21.0833 137.034 20.4133 136.574 19.56C136.12 18.7 135.894 17.7133 135.894 16.6C135.894 15.4733 136.127 14.4833 136.594 13.63C137.06 12.77 137.704 12.1 138.524 11.62C139.344 11.14 140.287 10.9 141.354 10.9C142.44 10.9 143.394 11.1433 144.214 11.63C145.04 12.1167 145.684 12.79 146.144 13.65C146.604 14.5033 146.834 15.4867 146.834 16.6C146.834 17.72 146.6 18.71 146.134 19.57C145.674 20.4233 145.03 21.0933 144.204 21.58C143.384 22.06 142.434 22.3 141.354 22.3ZM141.354 19.76C142.227 19.76 142.877 19.4667 143.304 18.88C143.737 18.2867 143.954 17.5267 143.954 16.6C143.954 15.64 143.734 14.8733 143.294 14.3C142.86 13.7267 142.214 13.44 141.354 13.44C140.76 13.44 140.274 13.5733 139.894 13.84C139.514 14.1067 139.23 14.4767 139.044 14.95C138.864 15.4233 138.774 15.9733 138.774 16.6C138.774 17.5667 138.99 18.3367 139.424 18.91C139.864 19.4767 140.507 19.76 141.354 19.76ZM149.033 22V11.2H151.433V13.84L151.173 13.5C151.313 13.1267 151.499 12.7867 151.733 12.48C151.966 12.1733 152.253 11.92 152.593 11.72C152.853 11.56 153.136 11.4367 153.443 11.35C153.749 11.2567 154.066 11.2 154.393 11.18C154.719 11.1533 155.046 11.16 155.373 11.2V13.74C155.073 13.6467 154.723 13.6167 154.323 13.65C153.929 13.6767 153.573 13.7667 153.253 13.92C152.933 14.0667 152.663 14.2633 152.443 14.51C152.223 14.75 152.056 15.0367 151.943 15.37C151.829 15.6967 151.773 16.0667 151.773 16.48V22H149.033ZM163.755 22C163.008 22.14 162.275 22.2 161.555 22.18C160.842 22.1667 160.202 22.0433 159.635 21.81C159.075 21.57 158.648 21.1867 158.355 20.66C158.088 20.1667 157.948 19.6667 157.935 19.16C157.922 18.6467 157.915 18.0667 157.915 17.42V8.2H160.635V17.26C160.635 17.68 160.638 18.06 160.645 18.4C160.658 18.7333 160.728 19 160.855 19.2C161.095 19.58 161.478 19.7867 162.005 19.82C162.532 19.8533 163.115 19.8267 163.755 19.74V22ZM156.075 13.3V11.2H163.755V13.3H156.075ZM169.766 21.98V19.62L175.806 14.26C176.259 13.86 176.579 13.4833 176.766 13.13C176.952 12.7767 177.046 12.4467 177.046 12.14C177.046 11.7 176.956 11.31 176.776 10.97C176.596 10.6233 176.342 10.3533 176.016 10.16C175.689 9.96 175.306 9.86 174.866 9.86C174.406 9.86 173.999 9.96667 173.646 10.18C173.299 10.3867 173.029 10.6633 172.836 11.01C172.642 11.35 172.552 11.72 172.566 12.12H169.766C169.766 11.1333 169.982 10.28 170.416 9.56C170.849 8.84 171.452 8.28333 172.226 7.89C172.999 7.49667 173.899 7.3 174.926 7.3C175.866 7.3 176.706 7.50667 177.446 7.92C178.192 8.32667 178.779 8.89667 179.206 9.63C179.632 10.3633 179.846 11.2133 179.846 12.18C179.846 12.8933 179.746 13.4867 179.546 13.96C179.346 14.4267 179.049 14.86 178.656 15.26C178.262 15.6533 177.779 16.1 177.206 16.6L173.306 20.02L173.086 19.42H179.846V21.98H169.766ZM187.705 22V19.76H181.445V17.22L185.985 7.6H189.105L184.565 17.22H187.705V13.62H190.465V17.22H191.745V19.76H190.465V22H187.705ZM197.79 7.6H200.51L196.67 22H193.95L197.79 7.6ZM203.835 22L208.675 10.16H202.515V7.6H211.595V10.16L206.775 22H203.835Z" fill="white"/>
<path opacity="0.7" d="M84.32 59L88.288 47.48H89.848L93.816 59H92.592L88.824 48.136H89.288L85.544 59H84.32ZM86.088 56.208V55.104H92.04V56.208H86.088ZM102.12 59.24C101.277 59.24 100.546 59.0533 99.9278 58.68C99.3144 58.3067 98.8371 57.7813 98.4958 57.104C98.1544 56.4267 97.9838 55.632 97.9838 54.72C97.9838 53.776 98.1518 52.96 98.4878 52.272C98.8238 51.584 99.2958 51.0533 99.9038 50.68C100.517 50.3067 101.24 50.12 102.072 50.12C102.925 50.12 103.653 50.3173 104.256 50.712C104.858 51.1013 105.314 51.6613 105.624 52.392C105.933 53.1227 106.074 53.9947 106.048 55.008H104.848V54.592C104.826 53.472 104.584 52.6267 104.12 52.056C103.661 51.4853 102.989 51.2 102.104 51.2C101.176 51.2 100.464 51.5013 99.9678 52.104C99.4771 52.7067 99.2318 53.5653 99.2318 54.68C99.2318 55.768 99.4771 56.6133 99.9678 57.216C100.464 57.8133 101.165 58.112 102.072 58.112C102.69 58.112 103.229 57.9707 103.688 57.688C104.152 57.4 104.517 56.9867 104.784 56.448L105.88 56.872C105.538 57.624 105.034 58.208 104.368 58.624C103.706 59.0347 102.957 59.24 102.12 59.24ZM98.8158 55.008V54.024H105.416V55.008H98.8158ZM107.983 59V47.24H109.159V59H107.983ZM115.214 59.24C114.371 59.24 113.64 59.0533 113.022 58.68C112.408 58.3067 111.931 57.7813 111.59 57.104C111.248 56.4267 111.078 55.632 111.078 54.72C111.078 53.776 111.246 52.96 111.582 52.272C111.918 51.584 112.39 51.0533 112.998 50.68C113.611 50.3067 114.334 50.12 115.166 50.12C116.019 50.12 116.747 50.3173 117.35 50.712C117.952 51.1013 118.408 51.6613 118.718 52.392C119.027 53.1227 119.168 53.9947 119.142 55.008H117.942V54.592C117.92 53.472 117.678 52.6267 117.214 52.056C116.755 51.4853 116.083 51.2 115.198 51.2C114.27 51.2 113.558 51.5013 113.062 52.104C112.571 52.7067 112.326 53.5653 112.326 54.68C112.326 55.768 112.571 56.6133 113.062 57.216C113.558 57.8133 114.259 58.112 115.166 58.112C115.784 58.112 116.323 57.9707 116.782 57.688C117.246 57.4 117.611 56.9867 117.878 56.448L118.974 56.872C118.632 57.624 118.128 58.208 117.462 58.624C116.8 59.0347 116.051 59.24 115.214 59.24ZM111.91 55.008V54.024H118.51V55.008H111.91ZM130.987 59L130.995 53.328C130.995 52.6613 130.808 52.1387 130.435 51.76C130.067 51.376 129.597 51.184 129.027 51.184C128.701 51.184 128.384 51.2587 128.075 51.408C127.765 51.5573 127.509 51.7973 127.307 52.128C127.109 52.4587 127.011 52.8907 127.011 53.424L126.315 53.224C126.299 52.6053 126.419 52.064 126.675 51.6C126.936 51.136 127.293 50.776 127.747 50.52C128.205 50.2587 128.723 50.128 129.299 50.128C130.168 50.128 130.864 50.3973 131.387 50.936C131.909 51.4693 132.171 52.192 132.171 53.104L132.163 59H130.987ZM120.675 59V50.36H121.731V52.488H121.859V59H120.675ZM125.843 59L125.851 53.408C125.851 52.72 125.667 52.1787 125.299 51.784C124.936 51.384 124.456 51.184 123.859 51.184C123.261 51.184 122.779 51.3893 122.411 51.8C122.043 52.2053 121.859 52.7467 121.859 53.424L121.155 53.04C121.155 52.4853 121.285 51.9893 121.547 51.552C121.808 51.1093 122.165 50.7627 122.619 50.512C123.072 50.256 123.587 50.128 124.163 50.128C124.712 50.128 125.2 50.2453 125.627 50.48C126.059 50.7147 126.397 51.056 126.643 51.504C126.888 51.952 127.011 52.496 127.011 53.136L127.003 59H125.843ZM137.854 59.24C137.011 59.24 136.281 59.0533 135.662 58.68C135.049 58.3067 134.571 57.7813 134.23 57.104C133.889 56.4267 133.718 55.632 133.718 54.72C133.718 53.776 133.886 52.96 134.222 52.272C134.558 51.584 135.03 51.0533 135.638 50.68C136.251 50.3067 136.974 50.12 137.806 50.12C138.659 50.12 139.387 50.3173 139.99 50.712C140.593 51.1013 141.049 51.6613 141.358 52.392C141.667 53.1227 141.809 53.9947 141.782 55.008H140.582V54.592C140.561 53.472 140.318 52.6267 139.854 52.056C139.395 51.4853 138.723 51.2 137.838 51.2C136.91 51.2 136.198 51.5013 135.702 52.104C135.211 52.7067 134.966 53.5653 134.966 54.68C134.966 55.768 135.211 56.6133 135.702 57.216C136.198 57.8133 136.899 58.112 137.806 58.112C138.425 58.112 138.963 57.9707 139.422 57.688C139.886 57.4 140.251 56.9867 140.518 56.448L141.614 56.872C141.273 57.624 140.769 58.208 140.102 58.624C139.441 59.0347 138.691 59.24 137.854 59.24ZM134.55 55.008V54.024H141.15V55.008H134.55ZM149.563 59V54.592C149.563 54.112 149.518 53.672 149.427 53.272C149.336 52.8667 149.19 52.5147 148.987 52.216C148.79 51.912 148.531 51.6773 148.211 51.512C147.896 51.3467 147.512 51.264 147.059 51.264C146.643 51.264 146.275 51.336 145.955 51.48C145.64 51.624 145.374 51.832 145.155 52.104C144.942 52.3707 144.779 52.696 144.667 53.08C144.555 53.464 144.499 53.9013 144.499 54.392L143.667 54.208C143.667 53.3227 143.822 52.5787 144.131 51.976C144.44 51.3733 144.867 50.9173 145.411 50.608C145.955 50.2987 146.579 50.144 147.283 50.144C147.8 50.144 148.251 50.224 148.635 50.384C149.024 50.544 149.352 50.76 149.619 51.032C149.891 51.304 150.11 51.616 150.275 51.968C150.44 52.3147 150.56 52.6853 150.635 53.08C150.71 53.4693 150.747 53.8587 150.747 54.248V59H149.563ZM143.315 59V50.36H144.379V52.488H144.499V59H143.315ZM157.527 59C157.042 59.1013 156.562 59.1413 156.087 59.12C155.618 59.0987 155.196 58.9973 154.823 58.816C154.455 58.6347 154.175 58.352 153.983 57.968C153.828 57.648 153.743 57.3253 153.727 57C153.716 56.6693 153.711 56.2933 153.711 55.872V47.96H154.879V55.824C154.879 56.1867 154.882 56.4907 154.887 56.736C154.898 56.976 154.954 57.1893 155.055 57.376C155.247 57.7333 155.551 57.9467 155.967 58.016C156.388 58.0853 156.908 58.0693 157.527 57.968V59ZM151.863 51.368V50.36H157.527V51.368H151.863ZM162.533 59.216C162.016 59.216 161.563 59.136 161.173 58.976C160.789 58.816 160.461 58.6 160.189 58.328C159.923 58.056 159.707 57.7467 159.541 57.4C159.376 57.048 159.256 56.6773 159.181 56.288C159.107 55.8933 159.069 55.5013 159.069 55.112V50.36H160.253V54.768C160.253 55.2427 160.299 55.6827 160.389 56.088C160.48 56.4933 160.624 56.848 160.821 57.152C161.024 57.4507 161.283 57.6827 161.597 57.848C161.917 58.0133 162.304 58.096 162.757 58.096C163.173 58.096 163.539 58.024 163.853 57.88C164.173 57.736 164.44 57.5307 164.653 57.264C164.872 56.992 165.037 56.664 165.149 56.28C165.261 55.8907 165.317 55.4533 165.317 54.968L166.149 55.152C166.149 56.0373 165.995 56.7813 165.685 57.384C165.376 57.9867 164.949 58.4427 164.405 58.752C163.861 59.0613 163.237 59.216 162.533 59.216ZM165.437 59V56.872H165.317V50.36H166.493V59H165.437ZM179.033 59L179.041 53.328C179.041 52.6613 178.855 52.1387 178.481 51.76C178.113 51.376 177.644 51.184 177.073 51.184C176.748 51.184 176.431 51.2587 176.121 51.408C175.812 51.5573 175.556 51.7973 175.353 52.128C175.156 52.4587 175.057 52.8907 175.057 53.424L174.361 53.224C174.345 52.6053 174.465 52.064 174.721 51.6C174.983 51.136 175.34 50.776 175.793 50.52C176.252 50.2587 176.769 50.128 177.345 50.128C178.215 50.128 178.911 50.3973 179.433 50.936C179.956 51.4693 180.217 52.192 180.217 53.104L180.209 59H179.033ZM168.721 59V50.36H169.777V52.488H169.905V59H168.721ZM173.889 59L173.897 53.408C173.897 52.72 173.713 52.1787 173.345 51.784C172.983 51.384 172.503 51.184 171.905 51.184C171.308 51.184 170.825 51.3893 170.457 51.8C170.089 52.2053 169.905 52.7467 169.905 53.424L169.201 53.04C169.201 52.4853 169.332 51.9893 169.593 51.552C169.855 51.1093 170.212 50.7627 170.665 50.512C171.119 50.256 171.633 50.128 172.209 50.128C172.759 50.128 173.247 50.2453 173.673 50.48C174.105 50.7147 174.444 51.056 174.689 51.504C174.935 51.952 175.057 52.496 175.057 53.136L175.049 59H173.889ZM182.132 60.672L182.204 60.088C182.417 60.104 182.572 60.0613 182.668 59.96C182.764 59.8587 182.823 59.7227 182.844 59.552C182.865 59.3813 182.871 59.1973 182.86 59H182.132V57.312H183.5V59.32C183.5 59.8107 183.375 60.1787 183.124 60.424C182.879 60.6693 182.548 60.752 182.132 60.672ZM189.905 48.72V47.4H191.081V48.72H189.905ZM189.905 59V50.36H191.081V59H189.905ZM203.783 59L203.791 53.328C203.791 52.6613 203.605 52.1387 203.231 51.76C202.863 51.376 202.394 51.184 201.823 51.184C201.498 51.184 201.181 51.2587 200.871 51.408C200.562 51.5573 200.306 51.7973 200.103 52.128C199.906 52.4587 199.807 52.8907 199.807 53.424L199.111 53.224C199.095 52.6053 199.215 52.064 199.471 51.6C199.733 51.136 200.09 50.776 200.543 50.52C201.002 50.2587 201.519 50.128 202.095 50.128C202.965 50.128 203.661 50.3973 204.183 50.936C204.706 51.4693 204.967 52.192 204.967 53.104L204.959 59H203.783ZM193.471 59V50.36H194.527V52.488H194.655V59H193.471ZM198.639 59L198.647 53.408C198.647 52.72 198.463 52.1787 198.095 51.784C197.733 51.384 197.253 51.184 196.655 51.184C196.058 51.184 195.575 51.3893 195.207 51.8C194.839 52.2053 194.655 52.7467 194.655 53.424L193.951 53.04C193.951 52.4853 194.082 51.9893 194.343 51.552C194.605 51.1093 194.962 50.7627 195.415 50.512C195.869 50.256 196.383 50.128 196.959 50.128C197.509 50.128 197.997 50.2453 198.423 50.48C198.855 50.7147 199.194 51.056 199.439 51.504C199.685 51.952 199.807 52.496 199.807 53.136L199.799 59H198.639ZM210.922 59.24C210.127 59.24 209.455 59.04 208.906 58.64C208.357 58.2347 207.941 57.688 207.658 57C207.375 56.3067 207.234 55.5307 207.234 54.672C207.234 53.7973 207.375 53.0187 207.658 52.336C207.946 51.648 208.367 51.1067 208.922 50.712C209.477 50.3173 210.159 50.12 210.97 50.12C211.759 50.12 212.437 50.32 213.002 50.72C213.567 51.12 213.999 51.664 214.298 52.352C214.602 53.04 214.754 53.8133 214.754 54.672C214.754 55.536 214.602 56.312 214.298 57C213.994 57.688 213.557 58.2347 212.986 58.64C212.415 59.04 211.727 59.24 210.922 59.24ZM207.034 62.84V50.36H208.09V56.864H208.218V62.84H207.034ZM210.802 58.144C211.405 58.144 211.906 57.992 212.306 57.688C212.706 57.384 213.005 56.9707 213.202 56.448C213.405 55.92 213.506 55.328 213.506 54.672C213.506 54.0213 213.407 53.4347 213.21 52.912C213.013 52.3893 212.711 51.976 212.306 51.672C211.906 51.368 211.397 51.216 210.778 51.216C210.175 51.216 209.674 51.3627 209.274 51.656C208.879 51.9493 208.583 52.3573 208.386 52.88C208.189 53.3973 208.09 53.9947 208.09 54.672C208.09 55.3387 208.189 55.936 208.386 56.464C208.583 56.9867 208.882 57.3973 209.282 57.696C209.682 57.9947 210.189 58.144 210.802 58.144ZM220.167 59.24C219.324 59.24 218.593 59.0533 217.975 58.68C217.361 58.3067 216.884 57.7813 216.543 57.104C216.201 56.4267 216.031 55.632 216.031 54.72C216.031 53.776 216.199 52.96 216.535 52.272C216.871 51.584 217.343 51.0533 217.951 50.68C218.564 50.3067 219.287 50.12 220.119 50.12C220.972 50.12 221.7 50.3173 222.303 50.712C222.905 51.1013 223.361 51.6613 223.671 52.392C223.98 53.1227 224.121 53.9947 224.095 55.008H222.895V54.592C222.873 53.472 222.631 52.6267 222.167 52.056C221.708 51.4853 221.036 51.2 220.151 51.2C219.223 51.2 218.511 51.5013 218.015 52.104C217.524 52.7067 217.279 53.5653 217.279 54.68C217.279 55.768 217.524 56.6133 218.015 57.216C218.511 57.8133 219.212 58.112 220.119 58.112C220.737 58.112 221.276 57.9707 221.735 57.688C222.199 57.4 222.564 56.9867 222.831 56.448L223.927 56.872C223.585 57.624 223.081 58.208 222.415 58.624C221.753 59.0347 221.004 59.24 220.167 59.24ZM216.863 55.008V54.024H223.463V55.008H216.863ZM225.87 59V50.36H226.926V52.44L226.718 52.168C226.814 51.912 226.939 51.6773 227.094 51.464C227.249 51.2453 227.417 51.0667 227.598 50.928C227.822 50.7307 228.083 50.5813 228.382 50.48C228.681 50.3733 228.982 50.312 229.286 50.296C229.59 50.2747 229.867 50.296 230.118 50.36V51.464C229.803 51.384 229.459 51.3653 229.086 51.408C228.713 51.4507 228.369 51.6 228.054 51.856C227.766 52.08 227.55 52.3493 227.406 52.664C227.262 52.9733 227.166 53.304 227.118 53.656C227.07 54.0027 227.046 54.3467 227.046 54.688V59H225.87ZM234.831 59.24C234.026 59.24 233.338 59.04 232.767 58.64C232.197 58.2347 231.759 57.688 231.455 57C231.151 56.312 230.999 55.536 230.999 54.672C230.999 53.8133 231.149 53.04 231.447 52.352C231.751 51.664 232.186 51.12 232.751 50.72C233.317 50.32 233.994 50.12 234.783 50.12C235.594 50.12 236.277 50.3173 236.831 50.712C237.386 51.1067 237.805 51.648 238.087 52.336C238.375 53.0187 238.519 53.7973 238.519 54.672C238.519 55.5307 238.378 56.3067 238.095 57C237.813 57.688 237.397 58.2347 236.847 58.64C236.298 59.04 235.626 59.24 234.831 59.24ZM234.951 58.144C235.565 58.144 236.071 57.9947 236.471 57.696C236.871 57.3973 237.17 56.9867 237.367 56.464C237.565 55.936 237.663 55.3387 237.663 54.672C237.663 53.9947 237.565 53.3973 237.367 52.88C237.17 52.3573 236.871 51.9493 236.471 51.656C236.077 51.3627 235.578 51.216 234.975 51.216C234.357 51.216 233.845 51.368 233.439 51.672C233.034 51.976 232.733 52.3893 232.535 52.912C232.343 53.4347 232.247 54.0213 232.247 54.672C232.247 55.328 232.346 55.92 232.543 56.448C232.746 56.9707 233.047 57.384 233.447 57.688C233.847 57.992 234.349 58.144 234.951 58.144ZM237.663 59V52.496H237.535V47.48H238.719V59H237.663ZM241.124 48.72V47.4H242.3V48.72H241.124ZM241.124 59V50.36H242.3V59H241.124ZM248.354 59.24C247.511 59.24 246.781 59.0533 246.162 58.68C245.549 58.3067 245.071 57.7813 244.73 57.104C244.389 56.4267 244.218 55.632 244.218 54.72C244.218 53.776 244.386 52.96 244.722 52.272C245.058 51.584 245.53 51.0533 246.138 50.68C246.751 50.3067 247.474 50.12 248.306 50.12C249.159 50.12 249.887 50.3173 250.49 50.712C251.093 51.1013 251.549 51.6613 251.858 52.392C252.167 53.1227 252.309 53.9947 252.282 55.008H251.082V54.592C251.061 53.472 250.818 52.6267 250.354 52.056C249.895 51.4853 249.223 51.2 248.338 51.2C247.41 51.2 246.698 51.5013 246.202 52.104C245.711 52.7067 245.466 53.5653 245.466 54.68C245.466 55.768 245.711 56.6133 246.202 57.216C246.698 57.8133 247.399 58.112 248.306 58.112C248.925 58.112 249.463 57.9707 249.922 57.688C250.386 57.4 250.751 56.9867 251.018 56.448L252.114 56.872C251.773 57.624 251.269 58.208 250.602 58.624C249.941 59.0347 249.191 59.24 248.354 59.24ZM245.05 55.008V54.024H251.65V55.008H245.05ZM258.762 59C258.276 59.1013 257.796 59.1413 257.322 59.12C256.852 59.0987 256.431 58.9973 256.058 58.816C255.69 58.6347 255.41 58.352 255.218 57.968C255.063 57.648 254.978 57.3253 254.962 57C254.951 56.6693 254.946 56.2933 254.946 55.872V47.96H256.114V55.824C256.114 56.1867 256.116 56.4907 256.122 56.736C256.132 56.976 256.188 57.1893 256.29 57.376C256.482 57.7333 256.786 57.9467 257.202 58.016C257.623 58.0853 258.143 58.0693 258.762 57.968V59ZM253.098 51.368V50.36H258.762V51.368H253.098ZM267.323 59.24C266.48 59.24 265.75 59.0533 265.131 58.68C264.518 58.3067 264.04 57.7813 263.699 57.104C263.358 56.4267 263.187 55.632 263.187 54.72C263.187 53.776 263.355 52.96 263.691 52.272C264.027 51.584 264.499 51.0533 265.107 50.68C265.72 50.3067 266.443 50.12 267.275 50.12C268.128 50.12 268.856 50.3173 269.459 50.712C270.062 51.1013 270.518 51.6613 270.827 52.392C271.136 53.1227 271.278 53.9947 271.251 55.008H270.051V54.592C270.03 53.472 269.787 52.6267 269.323 52.056C268.864 51.4853 268.192 51.2 267.307 51.2C266.379 51.2 265.667 51.5013 265.171 52.104C264.68 52.7067 264.435 53.5653 264.435 54.68C264.435 55.768 264.68 56.6133 265.171 57.216C265.667 57.8133 266.368 58.112 267.275 58.112C267.894 58.112 268.432 57.9707 268.891 57.688C269.355 57.4 269.72 56.9867 269.987 56.448L271.083 56.872C270.742 57.624 270.238 58.208 269.571 58.624C268.91 59.0347 268.16 59.24 267.323 59.24ZM264.019 55.008V54.024H270.619V55.008H264.019ZM279.032 59V54.592C279.032 54.112 278.987 53.672 278.896 53.272C278.805 52.8667 278.659 52.5147 278.456 52.216C278.259 51.912 278 51.6773 277.68 51.512C277.365 51.3467 276.981 51.264 276.528 51.264C276.112 51.264 275.744 51.336 275.424 51.48C275.109 51.624 274.843 51.832 274.624 52.104C274.411 52.3707 274.248 52.696 274.136 53.08C274.024 53.464 273.968 53.9013 273.968 54.392L273.136 54.208C273.136 53.3227 273.291 52.5787 273.6 51.976C273.909 51.3733 274.336 50.9173 274.88 50.608C275.424 50.2987 276.048 50.144 276.752 50.144C277.269 50.144 277.72 50.224 278.104 50.384C278.493 50.544 278.821 50.76 279.088 51.032C279.36 51.304 279.579 51.616 279.744 51.968C279.909 52.3147 280.029 52.6853 280.104 53.08C280.179 53.4693 280.216 53.8587 280.216 54.248V59H279.032ZM272.784 59V50.36H273.848V52.488H273.968V59H272.784ZM282.452 48.72V47.4H283.628V48.72H282.452ZM282.452 59V50.36H283.628V59H282.452ZM296.33 59L296.338 53.328C296.338 52.6613 296.152 52.1387 295.778 51.76C295.41 51.376 294.941 51.184 294.37 51.184C294.045 51.184 293.728 51.2587 293.418 51.408C293.109 51.5573 292.853 51.7973 292.65 52.128C292.453 52.4587 292.354 52.8907 292.354 53.424L291.658 53.224C291.642 52.6053 291.762 52.064 292.018 51.6C292.28 51.136 292.637 50.776 293.09 50.52C293.549 50.2587 294.066 50.128 294.642 50.128C295.512 50.128 296.208 50.3973 296.73 50.936C297.253 51.4693 297.514 52.192 297.514 53.104L297.506 59H296.33ZM286.018 59V50.36H287.074V52.488H287.202V59H286.018ZM291.186 59L291.194 53.408C291.194 52.72 291.01 52.1787 290.642 51.784C290.28 51.384 289.8 51.184 289.202 51.184C288.605 51.184 288.122 51.3893 287.754 51.8C287.386 52.2053 287.202 52.7467 287.202 53.424L286.498 53.04C286.498 52.4853 286.629 51.9893 286.89 51.552C287.152 51.1093 287.509 50.7627 287.962 50.512C288.416 50.256 288.93 50.128 289.506 50.128C290.056 50.128 290.544 50.2453 290.97 50.48C291.402 50.7147 291.741 51.056 291.986 51.504C292.232 51.952 292.354 52.496 292.354 53.136L292.346 59H291.186ZM299.429 60.672L299.501 60.088C299.714 60.104 299.869 60.0613 299.965 59.96C300.061 59.8587 300.119 59.7227 300.141 59.552C300.162 59.3813 300.167 59.1973 300.157 59H299.429V57.312H300.797V59.32C300.797 59.8107 300.671 60.1787 300.421 60.424C300.175 60.6693 299.845 60.752 299.429 60.672ZM89 85.24C88.2053 85.24 87.5333 85.04 86.984 84.64C86.4347 84.2347 86.0187 83.688 85.736 83C85.4533 82.3067 85.312 81.5307 85.312 80.672C85.312 79.7973 85.4533 79.0187 85.736 78.336C86.024 77.648 86.4453 77.1067 87 76.712C87.5547 76.3173 88.2373 76.12 89.048 76.12C89.8373 76.12 90.5147 76.32 91.08 76.72C91.6453 77.12 92.0773 77.664 92.376 78.352C92.68 79.04 92.832 79.8133 92.832 80.672C92.832 81.536 92.68 82.312 92.376 83C92.072 83.688 91.6347 84.2347 91.064 84.64C90.4933 85.04 89.8053 85.24 89 85.24ZM85.112 88.84V76.36H86.168V82.864H86.296V88.84H85.112ZM88.88 84.144C89.4827 84.144 89.984 83.992 90.384 83.688C90.784 83.384 91.0827 82.9707 91.28 82.448C91.4827 81.92 91.584 81.328 91.584 80.672C91.584 80.0213 91.4853 79.4347 91.288 78.912C91.0907 78.3893 90.7893 77.976 90.384 77.672C89.984 77.368 89.4747 77.216 88.856 77.216C88.2533 77.216 87.752 77.3627 87.352 77.656C86.9573 77.9493 86.6613 78.3573 86.464 78.88C86.2667 79.3973 86.168 79.9947 86.168 80.672C86.168 81.3387 86.2667 81.936 86.464 82.464C86.6613 82.9867 86.96 83.3973 87.36 83.696C87.76 83.9947 88.2667 84.144 88.88 84.144ZM94.5888 85V76.36H95.6448V78.44L95.4368 78.168C95.5328 77.912 95.6581 77.6773 95.8128 77.464C95.9674 77.2453 96.1354 77.0667 96.3168 76.928C96.5408 76.7307 96.8021 76.5813 97.1008 76.48C97.3994 76.3733 97.7008 76.312 98.0048 76.296C98.3088 76.2747 98.5861 76.296 98.8368 76.36V77.464C98.5221 77.384 98.1781 77.3653 97.8048 77.408C97.4314 77.4507 97.0874 77.6 96.7728 77.856C96.4848 78.08 96.2688 78.3493 96.1248 78.664C95.9808 78.9733 95.8848 79.304 95.8368 79.656C95.7888 80.0027 95.7648 80.3467 95.7648 80.688V85H94.5888ZM103.854 85.24C103.011 85.24 102.281 85.0533 101.662 84.68C101.049 84.3067 100.571 83.7813 100.23 83.104C99.8888 82.4267 99.7181 81.632 99.7181 80.72C99.7181 79.776 99.8861 78.96 100.222 78.272C100.558 77.584 101.03 77.0533 101.638 76.68C102.251 76.3067 102.974 76.12 103.806 76.12C104.659 76.12 105.387 76.3173 105.99 76.712C106.593 77.1013 107.049 77.6613 107.358 78.392C107.667 79.1227 107.809 79.9947 107.782 81.008H106.582V80.592C106.561 79.472 106.318 78.6267 105.854 78.056C105.395 77.4853 104.723 77.2 103.838 77.2C102.91 77.2 102.198 77.5013 101.702 78.104C101.211 78.7067 100.966 79.5653 100.966 80.68C100.966 81.768 101.211 82.6133 101.702 83.216C102.198 83.8133 102.899 84.112 103.806 84.112C104.425 84.112 104.963 83.9707 105.422 83.688C105.886 83.4 106.251 82.9867 106.518 82.448L107.614 82.872C107.273 83.624 106.769 84.208 106.102 84.624C105.441 85.0347 104.691 85.24 103.854 85.24ZM100.55 81.008V80.024H107.15V81.008H100.55ZM114.262 85C113.776 85.1013 113.296 85.1413 112.822 85.12C112.352 85.0987 111.931 84.9973 111.558 84.816C111.19 84.6347 110.91 84.352 110.718 83.968C110.563 83.648 110.478 83.3253 110.462 83C110.451 82.6693 110.446 82.2933 110.446 81.872V73.96H111.614V81.824C111.614 82.1867 111.616 82.4907 111.622 82.736C111.632 82.976 111.688 83.1893 111.79 83.376C111.982 83.7333 112.286 83.9467 112.702 84.016C113.123 84.0853 113.643 84.0693 114.262 83.968V85ZM108.598 77.368V76.36H114.262V77.368H108.598ZM116.124 74.72V73.4H117.3V74.72H116.124ZM116.124 85V76.36H117.3V85H116.124ZM123.002 85.216C122.485 85.216 122.031 85.136 121.642 84.976C121.258 84.816 120.93 84.6 120.658 84.328C120.391 84.056 120.175 83.7467 120.01 83.4C119.845 83.048 119.725 82.6773 119.65 82.288C119.575 81.8933 119.538 81.5013 119.538 81.112V76.36H120.722V80.768C120.722 81.2427 120.767 81.6827 120.858 82.088C120.949 82.4933 121.093 82.848 121.29 83.152C121.493 83.4507 121.751 83.6827 122.066 83.848C122.386 84.0133 122.773 84.096 123.226 84.096C123.642 84.096 124.007 84.024 124.322 83.88C124.642 83.736 124.909 83.5307 125.122 83.264C125.341 82.992 125.506 82.664 125.618 82.28C125.73 81.8907 125.786 81.4533 125.786 80.968L126.618 81.152C126.618 82.0373 126.463 82.7813 126.154 83.384C125.845 83.9867 125.418 84.4427 124.874 84.752C124.33 85.0613 123.706 85.216 123.002 85.216ZM125.906 85V82.872H125.786V76.36H126.962V85H125.906ZM139.502 85L139.51 79.328C139.51 78.6613 139.323 78.1387 138.95 77.76C138.582 77.376 138.113 77.184 137.542 77.184C137.217 77.184 136.899 77.2587 136.59 77.408C136.281 77.5573 136.025 77.7973 135.822 78.128C135.625 78.4587 135.526 78.8907 135.526 79.424L134.83 79.224C134.814 78.6053 134.934 78.064 135.19 77.6C135.451 77.136 135.809 76.776 136.262 76.52C136.721 76.2587 137.238 76.128 137.814 76.128C138.683 76.128 139.379 76.3973 139.902 76.936C140.425 77.4693 140.686 78.192 140.686 79.104L140.678 85H139.502ZM129.19 85V76.36H130.246V78.488H130.374V85H129.19ZM134.358 85L134.366 79.408C134.366 78.72 134.182 78.1787 133.814 77.784C133.451 77.384 132.971 77.184 132.374 77.184C131.777 77.184 131.294 77.3893 130.926 77.8C130.558 78.2053 130.374 78.7467 130.374 79.424L129.67 79.04C129.67 78.4853 129.801 77.9893 130.062 77.552C130.323 77.1093 130.681 76.7627 131.134 76.512C131.587 76.256 132.102 76.128 132.678 76.128C133.227 76.128 133.715 76.2453 134.142 76.48C134.574 76.7147 134.913 77.056 135.158 77.504C135.403 77.952 135.526 78.496 135.526 79.136L135.518 85H134.358ZM149.62 85.24C148.777 85.24 148.046 85.0533 147.428 84.68C146.814 84.3067 146.337 83.7813 145.996 83.104C145.654 82.4267 145.484 81.632 145.484 80.72C145.484 79.776 145.652 78.96 145.988 78.272C146.324 77.584 146.796 77.0533 147.404 76.68C148.017 76.3067 148.74 76.12 149.572 76.12C150.425 76.12 151.153 76.3173 151.756 76.712C152.358 77.1013 152.814 77.6613 153.124 78.392C153.433 79.1227 153.574 79.9947 153.548 81.008H152.348V80.592C152.326 79.472 152.084 78.6267 151.62 78.056C151.161 77.4853 150.489 77.2 149.604 77.2C148.676 77.2 147.964 77.5013 147.468 78.104C146.977 78.7067 146.732 79.5653 146.732 80.68C146.732 81.768 146.977 82.6133 147.468 83.216C147.964 83.8133 148.665 84.112 149.572 84.112C150.19 84.112 150.729 83.9707 151.188 83.688C151.652 83.4 152.017 82.9867 152.284 82.448L153.38 82.872C153.038 83.624 152.534 84.208 151.868 84.624C151.206 85.0347 150.457 85.24 149.62 85.24ZM146.316 81.008V80.024H152.916V81.008H146.316ZM160.027 85C159.542 85.1013 159.062 85.1413 158.587 85.12C158.118 85.0987 157.696 84.9973 157.323 84.816C156.955 84.6347 156.675 84.352 156.483 83.968C156.328 83.648 156.243 83.3253 156.227 83C156.216 82.6693 156.211 82.2933 156.211 81.872V73.96H157.379V81.824C157.379 82.1867 157.382 82.4907 157.387 82.736C157.398 82.976 157.454 83.1893 157.555 83.376C157.747 83.7333 158.051 83.9467 158.467 84.016C158.888 84.0853 159.408 84.0693 160.027 83.968V85ZM154.363 77.368V76.36H160.027V77.368H154.363ZM161.889 74.72V73.4H163.065V74.72H161.889ZM161.889 85V76.36H163.065V85H161.889ZM167.936 85.24C167.285 85.24 166.738 85.1227 166.296 84.888C165.858 84.6533 165.53 84.3413 165.312 83.952C165.093 83.5627 164.984 83.1387 164.984 82.68C164.984 82.2107 165.077 81.8107 165.264 81.48C165.456 81.144 165.714 80.8693 166.04 80.656C166.37 80.4427 166.752 80.28 167.184 80.168C167.621 80.0613 168.104 79.968 168.632 79.888C169.165 79.8027 169.685 79.7307 170.192 79.672C170.704 79.608 171.152 79.5467 171.536 79.488L171.12 79.744C171.136 78.8907 170.97 78.2587 170.624 77.848C170.277 77.4373 169.674 77.232 168.816 77.232C168.224 77.232 167.722 77.3653 167.312 77.632C166.906 77.8987 166.621 78.32 166.456 78.896L165.312 78.56C165.509 77.7867 165.906 77.1867 166.504 76.76C167.101 76.3333 167.877 76.12 168.832 76.12C169.621 76.12 170.29 76.2693 170.84 76.568C171.394 76.8613 171.786 77.288 172.016 77.848C172.122 78.0987 172.192 78.3787 172.224 78.688C172.256 78.9973 172.272 79.312 172.272 79.632V85H171.224V82.832L171.528 82.96C171.234 83.7013 170.778 84.2667 170.16 84.656C169.541 85.0453 168.8 85.24 167.936 85.24ZM168.072 84.224C168.621 84.224 169.101 84.1253 169.512 83.928C169.922 83.7307 170.253 83.4613 170.504 83.12C170.754 82.7733 170.917 82.384 170.992 81.952C171.056 81.6747 171.09 81.3707 171.096 81.04C171.101 80.704 171.104 80.4533 171.104 80.288L171.552 80.52C171.152 80.5733 170.717 80.6267 170.248 80.68C169.784 80.7333 169.325 80.7947 168.872 80.864C168.424 80.9333 168.018 81.016 167.656 81.112C167.41 81.1813 167.173 81.28 166.944 81.408C166.714 81.5307 166.525 81.696 166.376 81.904C166.232 82.112 166.16 82.3707 166.16 82.68C166.16 82.9307 166.221 83.1733 166.344 83.408C166.472 83.6427 166.674 83.8373 166.952 83.992C167.234 84.1467 167.608 84.224 168.072 84.224ZM184.658 85L184.666 79.328C184.666 78.6613 184.48 78.1387 184.106 77.76C183.738 77.376 183.269 77.184 182.698 77.184C182.373 77.184 182.056 77.2587 181.746 77.408C181.437 77.5573 181.181 77.7973 180.978 78.128C180.781 78.4587 180.682 78.8907 180.682 79.424L179.986 79.224C179.97 78.6053 180.09 78.064 180.346 77.6C180.608 77.136 180.965 76.776 181.418 76.52C181.877 76.2587 182.394 76.128 182.97 76.128C183.84 76.128 184.536 76.3973 185.058 76.936C185.581 77.4693 185.842 78.192 185.842 79.104L185.834 85H184.658ZM174.346 85V76.36H175.402V78.488H175.53V85H174.346ZM179.514 85L179.522 79.408C179.522 78.72 179.338 78.1787 178.97 77.784C178.608 77.384 178.128 77.184 177.53 77.184C176.933 77.184 176.45 77.3893 176.082 77.8C175.714 78.2053 175.53 78.7467 175.53 79.424L174.826 79.04C174.826 78.4853 174.957 77.9893 175.218 77.552C175.48 77.1093 175.837 76.7627 176.29 76.512C176.744 76.256 177.258 76.128 177.834 76.128C178.384 76.128 178.872 76.2453 179.298 76.48C179.73 76.7147 180.069 77.056 180.314 77.504C180.56 77.952 180.682 78.496 180.682 79.136L180.674 85H179.514ZM191.976 85V75.72C191.976 75.496 191.987 75.2747 192.008 75.056C192.035 74.8373 192.085 74.6293 192.16 74.432C192.235 74.2293 192.352 74.0427 192.512 73.872C192.688 73.68 192.88 73.5413 193.088 73.456C193.296 73.3653 193.512 73.3067 193.736 73.28C193.965 73.2533 194.189 73.24 194.408 73.24H195.512V74.232H194.488C194.04 74.232 193.704 74.3413 193.48 74.56C193.261 74.7787 193.152 75.1227 193.152 75.592V85H191.976ZM190.48 77.368V76.36H195.512V77.368H190.48ZM199.03 85.24C198.379 85.24 197.832 85.1227 197.39 84.888C196.952 84.6533 196.624 84.3413 196.406 83.952C196.187 83.5627 196.078 83.1387 196.078 82.68C196.078 82.2107 196.171 81.8107 196.358 81.48C196.55 81.144 196.808 80.8693 197.134 80.656C197.464 80.4427 197.846 80.28 198.278 80.168C198.715 80.0613 199.198 79.968 199.726 79.888C200.259 79.8027 200.779 79.7307 201.286 79.672C201.798 79.608 202.246 79.5467 202.63 79.488L202.214 79.744C202.23 78.8907 202.064 78.2587 201.718 77.848C201.371 77.4373 200.768 77.232 199.91 77.232C199.318 77.232 198.816 77.3653 198.406 77.632C198 77.8987 197.715 78.32 197.549 78.896L196.406 78.56C196.603 77.7867 197 77.1867 197.598 76.76C198.195 76.3333 198.971 76.12 199.926 76.12C200.715 76.12 201.384 76.2693 201.934 76.568C202.488 76.8613 202.88 77.288 203.11 77.848C203.216 78.0987 203.286 78.3787 203.318 78.688C203.35 78.9973 203.366 79.312 203.366 79.632V85H202.318V82.832L202.622 82.96C202.328 83.7013 201.872 84.2667 201.254 84.656C200.635 85.0453 199.894 85.24 199.03 85.24ZM199.166 84.224C199.715 84.224 200.195 84.1253 200.606 83.928C201.016 83.7307 201.347 83.4613 201.598 83.12C201.848 82.7733 202.011 82.384 202.086 81.952C202.15 81.6747 202.184 81.3707 202.19 81.04C202.195 80.704 202.198 80.4533 202.198 80.288L202.646 80.52C202.246 80.5733 201.811 80.6267 201.342 80.68C200.878 80.7333 200.419 80.7947 199.966 80.864C199.518 80.9333 199.112 81.016 198.75 81.112C198.504 81.1813 198.267 81.28 198.038 81.408C197.808 81.5307 197.619 81.696 197.47 81.904C197.326 82.112 197.254 82.3707 197.254 82.68C197.254 82.9307 197.315 83.1733 197.438 83.408C197.566 83.6427 197.768 83.8373 198.046 83.992C198.328 84.1467 198.702 84.224 199.166 84.224ZM209.032 85.24C208.163 85.24 207.427 85.0453 206.824 84.656C206.221 84.2667 205.763 83.7307 205.448 83.048C205.139 82.36 204.979 81.5707 204.968 80.68C204.979 79.7733 205.144 78.9787 205.464 78.296C205.784 77.608 206.245 77.0747 206.848 76.696C207.451 76.312 208.181 76.12 209.04 76.12C209.915 76.12 210.675 76.3333 211.32 76.76C211.971 77.1867 212.416 77.7707 212.656 78.512L211.504 78.88C211.301 78.3627 210.979 77.9627 210.536 77.68C210.099 77.392 209.597 77.248 209.032 77.248C208.397 77.248 207.872 77.3947 207.456 77.688C207.04 77.976 206.731 78.3787 206.528 78.896C206.325 79.4133 206.221 80.008 206.216 80.68C206.227 81.7147 206.467 82.5467 206.936 83.176C207.405 83.8 208.104 84.112 209.032 84.112C209.619 84.112 210.117 83.9787 210.528 83.712C210.944 83.44 211.259 83.0453 211.472 82.528L212.656 82.88C212.336 83.648 211.867 84.2347 211.248 84.64C210.629 85.04 209.891 85.24 209.032 85.24ZM214.233 74.72V73.4H215.409V74.72H214.233ZM214.233 85V76.36H215.409V85H214.233ZM217.968 85V73.24H219.144V85H217.968ZM221.702 74.72V73.4H222.878V74.72H221.702ZM221.702 85V76.36H222.878V85H221.702ZM228.5 85.232C227.487 85.232 226.652 85.0133 225.996 84.576C225.346 84.1387 224.946 83.5307 224.796 82.752L225.996 82.552C226.124 83.0427 226.415 83.4347 226.868 83.728C227.327 84.016 227.892 84.16 228.564 84.16C229.22 84.16 229.738 84.024 230.116 83.752C230.495 83.4747 230.684 83.0987 230.684 82.624C230.684 82.3573 230.623 82.1413 230.5 81.976C230.383 81.8053 230.14 81.648 229.772 81.504C229.404 81.36 228.855 81.1893 228.124 80.992C227.34 80.7787 226.727 80.5653 226.284 80.352C225.842 80.1387 225.527 79.8933 225.34 79.616C225.154 79.3333 225.06 78.9893 225.06 78.584C225.06 78.0933 225.199 77.664 225.476 77.296C225.754 76.9227 226.138 76.6347 226.628 76.432C227.119 76.224 227.69 76.12 228.34 76.12C228.991 76.12 229.572 76.2267 230.084 76.44C230.602 76.648 231.018 76.9413 231.332 77.32C231.647 77.6987 231.834 78.1387 231.892 78.64L230.692 78.856C230.612 78.3493 230.359 77.9493 229.932 77.656C229.511 77.3573 228.975 77.2027 228.324 77.192C227.711 77.176 227.212 77.2933 226.828 77.544C226.444 77.7893 226.252 78.1173 226.252 78.528C226.252 78.7573 226.322 78.9547 226.46 79.12C226.599 79.28 226.85 79.432 227.212 79.576C227.58 79.72 228.103 79.8773 228.78 80.048C229.575 80.2507 230.199 80.464 230.652 80.688C231.106 80.912 231.428 81.176 231.62 81.48C231.812 81.784 231.908 82.16 231.908 82.608C231.908 83.424 231.604 84.0667 230.996 84.536C230.394 85 229.562 85.232 228.5 85.232ZM233.843 74.72V73.4H235.019V74.72H233.843ZM233.843 85V76.36H235.019V85H233.843ZM240.78 74.72V73.4H241.956V74.72H240.78ZM240.78 85V76.36H241.956V85H240.78ZM250.594 85V80.592C250.594 80.112 250.549 79.672 250.458 79.272C250.368 78.8667 250.221 78.5147 250.018 78.216C249.821 77.912 249.562 77.6773 249.242 77.512C248.928 77.3467 248.544 77.264 248.09 77.264C247.674 77.264 247.306 77.336 246.986 77.48C246.672 77.624 246.405 77.832 246.186 78.104C245.973 78.3707 245.81 78.696 245.698 79.08C245.586 79.464 245.53 79.9013 245.53 80.392L244.698 80.208C244.698 79.3227 244.853 78.5787 245.162 77.976C245.472 77.3733 245.898 76.9173 246.442 76.608C246.986 76.2987 247.61 76.144 248.314 76.144C248.832 76.144 249.282 76.224 249.666 76.384C250.056 76.544 250.384 76.76 250.65 77.032C250.922 77.304 251.141 77.616 251.306 77.968C251.472 78.3147 251.592 78.6853 251.666 79.08C251.741 79.4693 251.778 79.8587 251.778 80.248V85H250.594ZM244.346 85V76.36H245.41V78.488H245.53V85H244.346ZM259.53 85.24C258.879 85.24 258.332 85.1227 257.89 84.888C257.452 84.6533 257.124 84.3413 256.906 83.952C256.687 83.5627 256.578 83.1387 256.578 82.68C256.578 82.2107 256.671 81.8107 256.858 81.48C257.05 81.144 257.308 80.8693 257.634 80.656C257.964 80.4427 258.346 80.28 258.778 80.168C259.215 80.0613 259.698 79.968 260.226 79.888C260.759 79.8027 261.279 79.7307 261.786 79.672C262.298 79.608 262.746 79.5467 263.13 79.488L262.714 79.744C262.73 78.8907 262.564 78.2587 262.218 77.848C261.871 77.4373 261.268 77.232 260.41 77.232C259.818 77.232 259.316 77.3653 258.906 77.632C258.5 77.8987 258.215 78.32 258.049 78.896L256.906 78.56C257.103 77.7867 257.5 77.1867 258.098 76.76C258.695 76.3333 259.471 76.12 260.426 76.12C261.215 76.12 261.884 76.2693 262.434 76.568C262.988 76.8613 263.38 77.288 263.61 77.848C263.716 78.0987 263.786 78.3787 263.818 78.688C263.85 78.9973 263.866 79.312 263.866 79.632V85H262.818V82.832L263.122 82.96C262.828 83.7013 262.372 84.2667 261.754 84.656C261.135 85.0453 260.394 85.24 259.53 85.24ZM259.666 84.224C260.215 84.224 260.695 84.1253 261.106 83.928C261.516 83.7307 261.847 83.4613 262.098 83.12C262.348 82.7733 262.511 82.384 262.586 81.952C262.65 81.6747 262.684 81.3707 262.69 81.04C262.695 80.704 262.698 80.4533 262.698 80.288L263.146 80.52C262.746 80.5733 262.311 80.6267 261.842 80.68C261.378 80.7333 260.919 80.7947 260.466 80.864C260.018 80.9333 259.612 81.016 259.25 81.112C259.004 81.1813 258.767 81.28 258.538 81.408C258.308 81.5307 258.119 81.696 257.97 81.904C257.826 82.112 257.754 82.3707 257.754 82.68C257.754 82.9307 257.815 83.1733 257.938 83.408C258.066 83.6427 258.268 83.8373 258.546 83.992C258.828 84.1467 259.202 84.224 259.666 84.224ZM269.604 85.24C268.761 85.24 268.031 85.0533 267.412 84.68C266.799 84.3067 266.321 83.7813 265.98 83.104C265.639 82.4267 265.468 81.632 265.468 80.72C265.468 79.776 265.636 78.96 265.972 78.272C266.308 77.584 266.78 77.0533 267.388 76.68C268.001 76.3067 268.724 76.12 269.556 76.12C270.409 76.12 271.137 76.3173 271.74 76.712C272.343 77.1013 272.799 77.6613 273.108 78.392C273.417 79.1227 273.559 79.9947 273.532 81.008H272.332V80.592C272.311 79.472 272.068 78.6267 271.604 78.056C271.145 77.4853 270.473 77.2 269.588 77.2C268.66 77.2 267.948 77.5013 267.452 78.104C266.961 78.7067 266.716 79.5653 266.716 80.68C266.716 81.768 266.961 82.6133 267.452 83.216C267.948 83.8133 268.649 84.112 269.556 84.112C270.175 84.112 270.713 83.9707 271.172 83.688C271.636 83.4 272.001 82.9867 272.268 82.448L273.364 82.872C273.023 83.624 272.519 84.208 271.852 84.624C271.191 85.0347 270.441 85.24 269.604 85.24ZM266.3 81.008V80.024H272.9V81.008H266.3ZM281.313 85V80.592C281.313 80.112 281.268 79.672 281.177 79.272C281.086 78.8667 280.94 78.5147 280.737 78.216C280.54 77.912 280.281 77.6773 279.961 77.512C279.646 77.3467 279.262 77.264 278.809 77.264C278.393 77.264 278.025 77.336 277.705 77.48C277.39 77.624 277.124 77.832 276.905 78.104C276.692 78.3707 276.529 78.696 276.417 79.08C276.305 79.464 276.249 79.9013 276.249 80.392L275.417 80.208C275.417 79.3227 275.572 78.5787 275.881 77.976C276.19 77.3733 276.617 76.9173 277.161 76.608C277.705 76.2987 278.329 76.144 279.033 76.144C279.55 76.144 280.001 76.224 280.385 76.384C280.774 76.544 281.102 76.76 281.369 77.032C281.641 77.304 281.86 77.616 282.025 77.968C282.19 78.3147 282.31 78.6853 282.385 79.08C282.46 79.4693 282.497 79.8587 282.497 80.248V85H281.313ZM275.065 85V76.36H276.129V78.488H276.249V85H275.065ZM288.182 85.24C287.34 85.24 286.609 85.0533 285.99 84.68C285.377 84.3067 284.9 83.7813 284.558 83.104C284.217 82.4267 284.046 81.632 284.046 80.72C284.046 79.776 284.214 78.96 284.55 78.272C284.886 77.584 285.358 77.0533 285.966 76.68C286.58 76.3067 287.302 76.12 288.134 76.12C288.988 76.12 289.716 76.3173 290.318 76.712C290.921 77.1013 291.377 77.6613 291.686 78.392C291.996 79.1227 292.137 79.9947 292.11 81.008H290.91V80.592C290.889 79.472 290.646 78.6267 290.182 78.056C289.724 77.4853 289.052 77.2 288.166 77.2C287.238 77.2 286.526 77.5013 286.03 78.104C285.54 78.7067 285.294 79.5653 285.294 80.68C285.294 81.768 285.54 82.6133 286.03 83.216C286.526 83.8133 287.228 84.112 288.134 84.112C288.753 84.112 289.292 83.9707 289.75 83.688C290.214 83.4 290.58 82.9867 290.846 82.448L291.942 82.872C291.601 83.624 291.097 84.208 290.43 84.624C289.769 85.0347 289.02 85.24 288.182 85.24ZM284.878 81.008V80.024H291.478V81.008H284.878ZM296.201 85.24C295.551 85.24 295.004 85.1227 294.561 84.888C294.124 84.6533 293.796 84.3413 293.577 83.952C293.359 83.5627 293.249 83.1387 293.249 82.68C293.249 82.2107 293.343 81.8107 293.529 81.48C293.721 81.144 293.98 80.8693 294.305 80.656C294.636 80.4427 295.017 80.28 295.449 80.168C295.887 80.0613 296.369 79.968 296.897 79.888C297.431 79.8027 297.951 79.7307 298.457 79.672C298.969 79.608 299.417 79.5467 299.801 79.488L299.385 79.744C299.401 78.8907 299.236 78.2587 298.889 77.848C298.543 77.4373 297.94 77.232 297.081 77.232C296.489 77.232 295.988 77.3653 295.577 77.632C295.172 77.8987 294.887 78.32 294.721 78.896L293.577 78.56C293.775 77.7867 294.172 77.1867 294.769 76.76C295.367 76.3333 296.143 76.12 297.097 76.12C297.887 76.12 298.556 76.2693 299.105 76.568C299.66 76.8613 300.052 77.288 300.281 77.848C300.388 78.0987 300.457 78.3787 300.489 78.688C300.521 78.9973 300.537 79.312 300.537 79.632V85H299.489V82.832L299.793 82.96C299.5 83.7013 299.044 84.2667 298.425 84.656C297.807 85.0453 297.065 85.24 296.201 85.24ZM296.337 84.224C296.887 84.224 297.367 84.1253 297.777 83.928C298.188 83.7307 298.519 83.4613 298.769 83.12C299.02 82.7733 299.183 82.384 299.257 81.952C299.321 81.6747 299.356 81.3707 299.361 81.04C299.367 80.704 299.369 80.4533 299.369 80.288L299.817 80.52C299.417 80.5733 298.983 80.6267 298.513 80.68C298.049 80.7333 297.591 80.7947 297.137 80.864C296.689 80.9333 296.284 81.016 295.921 81.112C295.676 81.1813 295.439 81.28 295.209 81.408C294.98 81.5307 294.791 81.696 294.641 81.904C294.497 82.112 294.425 82.3707 294.425 82.68C294.425 82.9307 294.487 83.1733 294.609 83.408C294.737 83.6427 294.94 83.8373 295.217 83.992C295.5 84.1467 295.873 84.224 296.337 84.224ZM308.86 85V80.592C308.86 80.112 308.815 79.672 308.724 79.272C308.633 78.8667 308.487 78.5147 308.284 78.216C308.087 77.912 307.828 77.6773 307.508 77.512C307.193 77.3467 306.809 77.264 306.356 77.264C305.94 77.264 305.572 77.336 305.252 77.48C304.937 77.624 304.671 77.832 304.452 78.104C304.239 78.3707 304.076 78.696 303.964 79.08C303.852 79.464 303.796 79.9013 303.796 80.392L302.964 80.208C302.964 79.3227 303.119 78.5787 303.428 77.976C303.737 77.3733 304.164 76.9173 304.708 76.608C305.252 76.2987 305.876 76.144 306.58 76.144C307.097 76.144 307.548 76.224 307.932 76.384C308.321 76.544 308.649 76.76 308.916 77.032C309.188 77.304 309.407 77.616 309.572 77.968C309.737 78.3147 309.857 78.6853 309.932 79.08C310.007 79.4693 310.044 79.8587 310.044 80.248V85H308.86ZM302.612 85V76.36H303.676V78.488H303.796V85H302.612ZM88.472 111.24C87.6667 111.24 86.9787 111.04 86.408 110.64C85.8373 110.235 85.4 109.688 85.096 109C84.792 108.312 84.64 107.536 84.64 106.672C84.64 105.813 84.7893 105.04 85.088 104.352C85.392 103.664 85.8267 103.12 86.392 102.72C86.9573 102.32 87.6347 102.12 88.424 102.12C89.2347 102.12 89.9173 102.317 90.472 102.712C91.0267 103.107 91.4453 103.648 91.728 104.336C92.016 105.019 92.16 105.797 92.16 106.672C92.16 107.531 92.0187 108.307 91.736 109C91.4533 109.688 91.0373 110.235 90.488 110.64C89.9387 111.04 89.2667 111.24 88.472 111.24ZM88.592 110.144C89.2053 110.144 89.712 109.995 90.112 109.696C90.512 109.397 90.8107 108.987 91.008 108.464C91.2053 107.936 91.304 107.339 91.304 106.672C91.304 105.995 91.2053 105.397 91.008 104.88C90.8107 104.357 90.512 103.949 90.112 103.656C89.7173 103.363 89.2187 103.216 88.616 103.216C87.9973 103.216 87.4853 103.368 87.08 103.672C86.6747 103.976 86.3733 104.389 86.176 104.912C85.984 105.435 85.888 106.021 85.888 106.672C85.888 107.328 85.9867 107.92 86.184 108.448C86.3867 108.971 86.688 109.384 87.088 109.688C87.488 109.992 87.9893 110.144 88.592 110.144ZM91.176 114.84V108.864H91.304V102.36H92.36V114.84H91.176ZM97.9084 111.216C97.391 111.216 96.9377 111.136 96.5484 110.976C96.1644 110.816 95.8364 110.6 95.5644 110.328C95.2977 110.056 95.0817 109.747 94.9164 109.4C94.751 109.048 94.631 108.677 94.5564 108.288C94.4817 107.893 94.4444 107.501 94.4444 107.112V102.36H95.6284V106.768C95.6284 107.243 95.6737 107.683 95.7644 108.088C95.855 108.493 95.999 108.848 96.1964 109.152C96.399 109.451 96.6577 109.683 96.9724 109.848C97.2924 110.013 97.679 110.096 98.1324 110.096C98.5484 110.096 98.9137 110.024 99.2284 109.88C99.5484 109.736 99.815 109.531 100.028 109.264C100.247 108.992 100.412 108.664 100.524 108.28C100.636 107.891 100.692 107.453 100.692 106.968L101.524 107.152C101.524 108.037 101.37 108.781 101.06 109.384C100.751 109.987 100.324 110.443 99.7804 110.752C99.2364 111.061 98.6124 111.216 97.9084 111.216ZM100.812 111V108.872H100.692V102.36H101.868V111H100.812ZM106.576 111.24C105.926 111.24 105.379 111.123 104.936 110.888C104.499 110.653 104.171 110.341 103.952 109.952C103.734 109.563 103.624 109.139 103.624 108.68C103.624 108.211 103.718 107.811 103.904 107.48C104.096 107.144 104.355 106.869 104.68 106.656C105.011 106.443 105.392 106.28 105.824 106.168C106.262 106.061 106.744 105.968 107.272 105.888C107.806 105.803 108.326 105.731 108.832 105.672C109.344 105.608 109.792 105.547 110.176 105.488L109.76 105.744C109.776 104.891 109.611 104.259 109.264 103.848C108.918 103.437 108.315 103.232 107.456 103.232C106.864 103.232 106.363 103.365 105.952 103.632C105.547 103.899 105.262 104.32 105.096 104.896L103.952 104.56C104.15 103.787 104.547 103.187 105.144 102.76C105.742 102.333 106.518 102.12 107.472 102.12C108.262 102.12 108.931 102.269 109.48 102.568C110.035 102.861 110.427 103.288 110.656 103.848C110.763 104.099 110.832 104.379 110.864 104.688C110.896 104.997 110.912 105.312 110.912 105.632V111H109.864V108.832L110.168 108.96C109.875 109.701 109.419 110.267 108.8 110.656C108.182 111.045 107.44 111.24 106.576 111.24ZM106.712 110.224C107.262 110.224 107.742 110.125 108.152 109.928C108.563 109.731 108.894 109.461 109.144 109.12C109.395 108.773 109.558 108.384 109.632 107.952C109.696 107.675 109.731 107.371 109.736 107.04C109.742 106.704 109.744 106.453 109.744 106.288L110.192 106.52C109.792 106.573 109.358 106.627 108.888 106.68C108.424 106.733 107.966 106.795 107.512 106.864C107.064 106.933 106.659 107.016 106.296 107.112C106.051 107.181 105.814 107.28 105.584 107.408C105.355 107.531 105.166 107.696 105.016 107.904C104.872 108.112 104.8 108.371 104.8 108.68C104.8 108.931 104.862 109.173 104.984 109.408C105.112 109.643 105.315 109.837 105.592 109.992C105.875 110.147 106.248 110.224 106.712 110.224ZM123.299 111L123.307 105.328C123.307 104.661 123.12 104.139 122.747 103.76C122.379 103.376 121.91 103.184 121.339 103.184C121.014 103.184 120.696 103.259 120.387 103.408C120.078 103.557 119.822 103.797 119.619 104.128C119.422 104.459 119.323 104.891 119.323 105.424L118.627 105.224C118.611 104.605 118.731 104.064 118.987 103.6C119.248 103.136 119.606 102.776 120.059 102.52C120.518 102.259 121.035 102.128 121.611 102.128C122.48 102.128 123.176 102.397 123.699 102.936C124.222 103.469 124.483 104.192 124.483 105.104L124.475 111H123.299ZM112.987 111V102.36H114.043V104.488H114.171V111H112.987ZM118.155 111L118.163 105.408C118.163 104.72 117.979 104.179 117.611 103.784C117.248 103.384 116.768 103.184 116.171 103.184C115.574 103.184 115.091 103.389 114.723 103.8C114.355 104.205 114.171 104.747 114.171 105.424L113.467 105.04C113.467 104.485 113.598 103.989 113.859 103.552C114.12 103.109 114.478 102.763 114.931 102.512C115.384 102.256 115.899 102.128 116.475 102.128C117.024 102.128 117.512 102.245 117.939 102.48C118.371 102.715 118.71 103.056 118.955 103.504C119.2 103.952 119.323 104.496 119.323 105.136L119.315 111H118.155ZM140.065 111L140.073 105.328C140.073 104.661 139.886 104.139 139.513 103.76C139.145 103.376 138.675 103.184 138.105 103.184C137.779 103.184 137.462 103.259 137.153 103.408C136.843 103.557 136.587 103.797 136.385 104.128C136.187 104.459 136.089 104.891 136.089 105.424L135.393 105.224C135.377 104.605 135.497 104.064 135.753 103.6C136.014 103.136 136.371 102.776 136.825 102.52C137.283 102.259 137.801 102.128 138.377 102.128C139.246 102.128 139.942 102.397 140.465 102.936C140.987 103.469 141.249 104.192 141.249 105.104L141.241 111H140.065ZM129.753 111V102.36H130.809V104.488H130.937V111H129.753ZM134.921 111L134.929 105.408C134.929 104.72 134.745 104.179 134.377 103.784C134.014 103.384 133.534 103.184 132.937 103.184C132.339 103.184 131.857 103.389 131.489 103.8C131.121 104.205 130.937 104.747 130.937 105.424L130.233 105.04C130.233 104.485 130.363 103.989 130.625 103.552C130.886 103.109 131.243 102.763 131.697 102.512C132.15 102.256 132.665 102.128 133.241 102.128C133.79 102.128 134.278 102.245 134.705 102.48C135.137 102.715 135.475 103.056 135.721 103.504C135.966 103.952 136.089 104.496 136.089 105.136L136.081 111H134.921ZM145.795 111.24C145.144 111.24 144.598 111.123 144.155 110.888C143.718 110.653 143.39 110.341 143.171 109.952C142.952 109.563 142.843 109.139 142.843 108.68C142.843 108.211 142.936 107.811 143.123 107.48C143.315 107.144 143.574 106.869 143.899 106.656C144.23 106.443 144.611 106.28 145.043 106.168C145.48 106.061 145.963 105.968 146.491 105.888C147.024 105.803 147.544 105.731 148.051 105.672C148.563 105.608 149.011 105.547 149.395 105.488L148.979 105.744C148.995 104.891 148.83 104.259 148.483 103.848C148.136 103.437 147.534 103.232 146.675 103.232C146.083 103.232 145.582 103.365 145.171 103.632C144.766 103.899 144.48 104.32 144.315 104.896L143.171 104.56C143.368 103.787 143.766 103.187 144.363 102.76C144.96 102.333 145.736 102.12 146.691 102.12C147.48 102.12 148.15 102.269 148.699 102.568C149.254 102.861 149.646 103.288 149.875 103.848C149.982 104.099 150.051 104.379 150.083 104.688C150.115 104.997 150.131 105.312 150.131 105.632V111H149.083V108.832L149.387 108.96C149.094 109.701 148.638 110.267 148.019 110.656C147.4 111.045 146.659 111.24 145.795 111.24ZM145.931 110.224C146.48 110.224 146.96 110.125 147.371 109.928C147.782 109.731 148.112 109.461 148.363 109.12C148.614 108.773 148.776 108.384 148.851 107.952C148.915 107.675 148.95 107.371 148.955 107.04C148.96 106.704 148.963 106.453 148.963 106.288L149.411 106.52C149.011 106.573 148.576 106.627 148.107 106.68C147.643 106.733 147.184 106.795 146.731 106.864C146.283 106.933 145.878 107.016 145.515 107.112C145.27 107.181 145.032 107.28 144.803 107.408C144.574 107.531 144.384 107.696 144.235 107.904C144.091 108.112 144.019 108.371 144.019 108.68C144.019 108.931 144.08 109.173 144.203 109.408C144.331 109.643 144.534 109.837 144.811 109.992C145.094 110.147 145.467 110.224 145.931 110.224ZM155.518 111.216C155 111.216 154.547 111.136 154.158 110.976C153.774 110.816 153.446 110.6 153.174 110.328C152.907 110.056 152.691 109.747 152.526 109.4C152.36 109.048 152.24 108.677 152.166 108.288C152.091 107.893 152.054 107.501 152.054 107.112V102.36H153.238V106.768C153.238 107.243 153.283 107.683 153.374 108.088C153.464 108.493 153.608 108.848 153.806 109.152C154.008 109.451 154.267 109.683 154.582 109.848C154.902 110.013 155.288 110.096 155.742 110.096C156.158 110.096 156.523 110.024 156.838 109.88C157.158 109.736 157.424 109.531 157.638 109.264C157.856 108.992 158.022 108.664 158.134 108.28C158.246 107.891 158.302 107.453 158.302 106.968L159.134 107.152C159.134 108.037 158.979 108.781 158.67 109.384C158.36 109.987 157.934 110.443 157.39 110.752C156.846 111.061 156.222 111.216 155.518 111.216ZM158.422 111V108.872H158.302V102.36H159.478V111H158.422ZM161.714 111V102.36H162.77V104.44L162.562 104.168C162.658 103.912 162.783 103.677 162.938 103.464C163.092 103.245 163.26 103.067 163.442 102.928C163.666 102.731 163.927 102.581 164.226 102.48C164.524 102.373 164.826 102.312 165.13 102.296C165.434 102.275 165.711 102.296 165.962 102.36V103.464C165.647 103.384 165.303 103.365 164.93 103.408C164.556 103.451 164.212 103.6 163.898 103.856C163.61 104.08 163.394 104.349 163.25 104.664C163.106 104.973 163.01 105.304 162.962 105.656C162.914 106.003 162.89 106.347 162.89 106.688V111H161.714ZM167.639 100.72V99.4H168.815V100.72H167.639ZM167.639 111V102.36H168.815V111H167.639ZM174.438 111.232C173.424 111.232 172.59 111.013 171.934 110.576C171.283 110.139 170.883 109.531 170.734 108.752L171.934 108.552C172.062 109.043 172.352 109.435 172.806 109.728C173.264 110.016 173.83 110.16 174.502 110.16C175.158 110.16 175.675 110.024 176.054 109.752C176.432 109.475 176.622 109.099 176.622 108.624C176.622 108.357 176.56 108.141 176.438 107.976C176.32 107.805 176.078 107.648 175.71 107.504C175.342 107.36 174.792 107.189 174.062 106.992C173.278 106.779 172.664 106.565 172.222 106.352C171.779 106.139 171.464 105.893 171.278 105.616C171.091 105.333 170.998 104.989 170.998 104.584C170.998 104.093 171.136 103.664 171.414 103.296C171.691 102.923 172.075 102.635 172.566 102.432C173.056 102.224 173.627 102.12 174.278 102.12C174.928 102.12 175.51 102.227 176.022 102.44C176.539 102.648 176.955 102.941 177.27 103.32C177.584 103.699 177.771 104.139 177.83 104.64L176.63 104.856C176.55 104.349 176.296 103.949 175.87 103.656C175.448 103.357 174.912 103.203 174.262 103.192C173.648 103.176 173.15 103.293 172.766 103.544C172.382 103.789 172.19 104.117 172.19 104.528C172.19 104.757 172.259 104.955 172.398 105.12C172.536 105.28 172.787 105.432 173.15 105.576C173.518 105.72 174.04 105.877 174.718 106.048C175.512 106.251 176.136 106.464 176.59 106.688C177.043 106.912 177.366 107.176 177.558 107.48C177.75 107.784 177.846 108.16 177.846 108.608C177.846 109.424 177.542 110.067 176.934 110.536C176.331 111 175.499 111.232 174.438 111.232ZM179.844 111V109.632H181.212V111H179.844Z" fill="white"/>
<defs>
<linearGradient id="paint0_linear_20005128_7794" x1="15.999" y1="30.067" x2="43.9991" y2="30.067" gradientUnits="userSpaceOnUse">
<stop stop-color="#6366F1"/>
<stop offset="0.5" stop-color="#8B5CF6"/>
<stop offset="1" stop-color="#D946EF"/>
</linearGradient>
<clipPath id="clip0_20005128_7794">
<rect width="28" height="28" fill="white" transform="translate(16 16)"/>
</clipPath>
</defs>
</svg>
