<svg width="345" height="118" viewBox="0 0 345 118" fill="none" xmlns="http://www.w3.org/2000/svg">
<rect width="60" height="60" rx="8" fill="#6366F1" fill-opacity="0.08"/>
<g clip-path="url(#clip0_20005128_7778)">
<path d="M29.9453 37.6562C24.9141 37.6562 22.5728 33.4344 22.4753 33.2548C22.188 32.7235 22.3858 32.0598 22.9171 31.7722C23.4486 31.4849 24.1121 31.6827 24.3994 32.214C24.4018 32.2183 24.8733 33.0614 25.8111 33.8813C27.0159 34.9347 28.4068 35.4688 29.9453 35.4688C33.6873 35.4688 35.4734 32.2465 35.491 32.214C35.7785 31.6827 36.4422 31.4849 36.9735 31.7724C37.5048 32.0598 37.7026 32.7235 37.4151 33.2548C37.3179 33.4344 34.9766 37.6562 29.9453 37.6562ZM37.244 41.9823C37.7607 41.6694 37.9258 40.9969 37.6129 40.4801C37.2999 39.9636 36.6272 39.7985 36.1107 40.1114C34.2735 41.2242 32.1604 41.8125 30 41.8125C23.4866 41.8125 18.1875 36.5134 18.1875 30C18.1875 23.4866 23.4866 18.1875 30 18.1875C36.5134 18.1875 41.8125 23.4866 41.8125 30C41.8125 32.3291 41.1199 34.5961 39.8096 36.5561C39.4738 37.0583 39.6088 37.7376 40.1108 38.0732C40.6132 38.4091 41.2923 38.274 41.6279 37.7718C43.1799 35.451 44 32.7634 44 30C44 26.2605 42.5437 22.7447 39.8995 20.1005C37.2553 17.4563 33.7395 16 30 16C26.2605 16 22.7447 17.4563 20.1005 20.1005C17.4563 22.7447 16 26.2605 16 30C16 33.7395 17.4563 37.2553 20.1005 39.8995C22.7447 42.5437 26.2605 44 30 44C32.5601 44 35.065 43.3023 37.244 41.9823ZM37.6016 27.375C37.6016 25.8672 36.3749 24.6406 34.8672 24.6406C33.3594 24.6406 32.1328 25.8672 32.1328 27.375C32.1328 27.9791 32.6224 28.4688 33.2266 28.4688C33.8307 28.4688 34.3203 27.9791 34.3203 27.375C34.3203 27.0734 34.5656 26.8281 34.8672 26.8281C35.1688 26.8281 35.4141 27.0734 35.4141 27.375C35.4141 27.9791 35.9037 28.4688 36.5078 28.4688C37.1119 28.4688 37.6016 27.9791 37.6016 27.375ZM27.9219 27.375C27.9219 25.8672 26.6953 24.6406 25.1875 24.6406C23.6797 24.6406 22.4531 25.8672 22.4531 27.375C22.4531 27.9791 22.9427 28.4688 23.5469 28.4688C24.151 28.4688 24.6406 27.9791 24.6406 27.375C24.6406 27.0734 24.8859 26.8281 25.1875 26.8281C25.4891 26.8281 25.7344 27.0734 25.7344 27.375C25.7344 27.9791 26.224 28.4688 26.8281 28.4688C27.4323 28.4688 27.9219 27.9791 27.9219 27.375Z" fill="url(#paint0_linear_20005128_7778)"/>
</g>
<path d="M88.74 22V10.14H84.2V7.6H96V10.14H91.46V22H88.74ZM100.865 22.3C99.7788 22.3 98.8255 22.0567 98.0055 21.57C97.1855 21.0833 96.5455 20.4133 96.0855 19.56C95.6321 18.7 95.4055 17.7133 95.4055 16.6C95.4055 15.4733 95.6388 14.4833 96.1055 13.63C96.5721 12.77 97.2155 12.1 98.0355 11.62C98.8555 11.14 99.7988 10.9 100.865 10.9C101.952 10.9 102.905 11.1433 103.725 11.63C104.552 12.1167 105.195 12.79 105.655 13.65C106.115 14.5033 106.345 15.4867 106.345 16.6C106.345 17.72 106.112 18.71 105.645 19.57C105.185 20.4233 104.542 21.0933 103.715 21.58C102.895 22.06 101.945 22.3 100.865 22.3ZM100.865 19.76C101.739 19.76 102.389 19.4667 102.815 18.88C103.249 18.2867 103.465 17.5267 103.465 16.6C103.465 15.64 103.245 14.8733 102.805 14.3C102.372 13.7267 101.725 13.44 100.865 13.44C100.272 13.44 99.7855 13.5733 99.4055 13.84C99.0255 14.1067 98.7421 14.4767 98.5555 14.95C98.3755 15.4233 98.2855 15.9733 98.2855 16.6C98.2855 17.5667 98.5021 18.3367 98.9355 18.91C99.3755 19.4767 100.019 19.76 100.865 19.76ZM113.845 22.3C112.771 22.3 111.875 22.05 111.155 21.55C110.435 21.05 109.891 20.37 109.525 19.51C109.165 18.65 108.985 17.68 108.985 16.6C108.985 15.52 109.165 14.55 109.525 13.69C109.885 12.83 110.415 12.15 111.115 11.65C111.815 11.15 112.678 10.9 113.705 10.9C114.738 10.9 115.638 11.1467 116.405 11.64C117.171 12.1333 117.765 12.81 118.185 13.67C118.611 14.5233 118.825 15.5 118.825 16.6C118.825 17.68 118.615 18.65 118.195 19.51C117.781 20.37 117.201 21.05 116.455 21.55C115.708 22.05 114.838 22.3 113.845 22.3ZM108.525 26.8V11.2H110.925V18.6H111.265V26.8H108.525ZM113.405 19.88C113.991 19.88 114.471 19.7333 114.845 19.44C115.218 19.1467 115.495 18.7533 115.675 18.26C115.855 17.76 115.945 17.2067 115.945 16.6C115.945 16 115.851 15.4533 115.665 14.96C115.478 14.46 115.188 14.0633 114.795 13.77C114.408 13.47 113.911 13.32 113.305 13.32C112.738 13.32 112.278 13.4567 111.925 13.73C111.578 14.0033 111.325 14.3867 111.165 14.88C111.005 15.3733 110.925 15.9467 110.925 16.6C110.925 17.2533 111.005 17.8267 111.165 18.32C111.325 18.8133 111.585 19.1967 111.945 19.47C112.311 19.7433 112.798 19.88 113.405 19.88ZM130.469 22.3C129.402 22.3 128.439 22.1133 127.579 21.74C126.726 21.36 126.022 20.82 125.469 20.12C124.922 19.4133 124.576 18.5733 124.429 17.6L127.269 17.18C127.469 18.0067 127.882 18.6433 128.509 19.09C129.136 19.5367 129.849 19.76 130.649 19.76C131.096 19.76 131.529 19.69 131.949 19.55C132.369 19.41 132.712 19.2033 132.979 18.93C133.252 18.6567 133.389 18.32 133.389 17.92C133.389 17.7733 133.366 17.6333 133.319 17.5C133.279 17.36 133.209 17.23 133.109 17.11C133.009 16.99 132.866 16.8767 132.679 16.77C132.499 16.6633 132.269 16.5667 131.989 16.48L128.249 15.38C127.969 15.3 127.642 15.1867 127.269 15.04C126.902 14.8933 126.546 14.6833 126.199 14.41C125.852 14.1367 125.562 13.7767 125.329 13.33C125.102 12.8767 124.989 12.3067 124.989 11.62C124.989 10.6533 125.232 9.85 125.719 9.21C126.206 8.57 126.856 8.09333 127.669 7.78C128.482 7.46667 129.382 7.31333 130.369 7.32C131.362 7.33333 132.249 7.50333 133.029 7.83C133.809 8.15667 134.462 8.63333 134.989 9.26C135.516 9.88 135.896 10.64 136.129 11.54L133.189 12.04C133.082 11.5733 132.886 11.18 132.599 10.86C132.312 10.54 131.969 10.2967 131.569 10.13C131.176 9.96333 130.762 9.87333 130.329 9.86C129.902 9.84667 129.499 9.90667 129.119 10.04C128.746 10.1667 128.439 10.3533 128.199 10.6C127.966 10.8467 127.849 11.14 127.849 11.48C127.849 11.7933 127.946 12.05 128.139 12.25C128.332 12.4433 128.576 12.6 128.869 12.72C129.162 12.84 129.462 12.94 129.769 13.02L132.269 13.7C132.642 13.8 133.056 13.9333 133.509 14.1C133.962 14.26 134.396 14.4867 134.809 14.78C135.229 15.0667 135.572 15.4467 135.839 15.92C136.112 16.3933 136.249 16.9933 136.249 17.72C136.249 18.4933 136.086 19.17 135.759 19.75C135.439 20.3233 135.006 20.8 134.459 21.18C133.912 21.5533 133.292 21.8333 132.599 22.02C131.912 22.2067 131.202 22.3 130.469 22.3ZM144.927 22C144.18 22.14 143.447 22.2 142.727 22.18C142.014 22.1667 141.374 22.0433 140.807 21.81C140.247 21.57 139.82 21.1867 139.527 20.66C139.26 20.1667 139.12 19.6667 139.107 19.16C139.094 18.6467 139.087 18.0667 139.087 17.42V8.2H141.807V17.26C141.807 17.68 141.81 18.06 141.817 18.4C141.83 18.7333 141.9 19 142.027 19.2C142.267 19.58 142.65 19.7867 143.177 19.82C143.704 19.8533 144.287 19.8267 144.927 19.74V22ZM137.247 13.3V11.2H144.927V13.3H137.247ZM150.334 22.3C149.56 22.3 148.904 22.1533 148.364 21.86C147.83 21.56 147.424 21.1633 147.144 20.67C146.87 20.17 146.734 19.62 146.734 19.02C146.734 18.52 146.81 18.0633 146.964 17.65C147.117 17.2367 147.364 16.8733 147.704 16.56C148.05 16.24 148.514 15.9733 149.094 15.76C149.494 15.6133 149.97 15.4833 150.524 15.37C151.077 15.2567 151.704 15.15 152.404 15.05C153.104 14.9433 153.874 14.8267 154.714 14.7L153.734 15.24C153.734 14.6 153.58 14.13 153.274 13.83C152.967 13.53 152.454 13.38 151.734 13.38C151.334 13.38 150.917 13.4767 150.484 13.67C150.05 13.8633 149.747 14.2067 149.574 14.7L147.114 13.92C147.387 13.0267 147.9 12.3 148.654 11.74C149.407 11.18 150.434 10.9 151.734 10.9C152.687 10.9 153.534 11.0467 154.274 11.34C155.014 11.6333 155.574 12.14 155.954 12.86C156.167 13.26 156.294 13.66 156.334 14.06C156.374 14.46 156.394 14.9067 156.394 15.4V22H154.014V19.78L154.354 20.24C153.827 20.9667 153.257 21.4933 152.644 21.82C152.037 22.14 151.267 22.3 150.334 22.3ZM150.914 20.16C151.414 20.16 151.834 20.0733 152.174 19.9C152.52 19.72 152.794 19.5167 152.994 19.29C153.2 19.0633 153.34 18.8733 153.414 18.72C153.554 18.4267 153.634 18.0867 153.654 17.7C153.68 17.3067 153.694 16.98 153.694 16.72L154.494 16.92C153.687 17.0533 153.034 17.1667 152.534 17.26C152.034 17.3467 151.63 17.4267 151.324 17.5C151.017 17.5733 150.747 17.6533 150.514 17.74C150.247 17.8467 150.03 17.9633 149.864 18.09C149.704 18.21 149.584 18.3433 149.504 18.49C149.43 18.6367 149.394 18.8 149.394 18.98C149.394 19.2267 149.454 19.44 149.574 19.62C149.7 19.7933 149.877 19.9267 150.104 20.02C150.33 20.1133 150.6 20.16 150.914 20.16ZM166.354 22V16.9C166.354 16.6533 166.34 16.34 166.314 15.96C166.287 15.5733 166.204 15.1867 166.064 14.8C165.924 14.4133 165.694 14.09 165.374 13.83C165.06 13.57 164.614 13.44 164.034 13.44C163.8 13.44 163.55 13.4767 163.284 13.55C163.017 13.6233 162.767 13.7667 162.534 13.98C162.3 14.1867 162.107 14.4933 161.954 14.9C161.807 15.3067 161.734 15.8467 161.734 16.52L160.174 15.78C160.174 14.9267 160.347 14.1267 160.694 13.38C161.04 12.6333 161.56 12.03 162.254 11.57C162.954 11.11 163.834 10.88 164.894 10.88C165.74 10.88 166.43 11.0233 166.964 11.31C167.497 11.5967 167.91 11.96 168.204 12.4C168.504 12.84 168.717 13.3 168.844 13.78C168.97 14.2533 169.047 14.6867 169.074 15.08C169.1 15.4733 169.114 15.76 169.114 15.94V22H166.354ZM158.974 22V11.2H161.394V14.78H161.734V22H158.974ZM175.893 22.3C174.9 22.3 174.03 22.05 173.283 21.55C172.537 21.05 171.953 20.37 171.533 19.51C171.12 18.65 170.913 17.68 170.913 16.6C170.913 15.5 171.123 14.5233 171.543 13.67C171.97 12.81 172.567 12.1333 173.333 11.64C174.1 11.1467 175 10.9 176.033 10.9C177.06 10.9 177.923 11.15 178.623 11.65C179.323 12.15 179.853 12.83 180.213 13.69C180.573 14.55 180.753 15.52 180.753 16.6C180.753 17.68 180.57 18.65 180.203 19.51C179.843 20.37 179.303 21.05 178.583 21.55C177.863 22.05 176.967 22.3 175.893 22.3ZM176.333 19.88C176.94 19.88 177.423 19.7433 177.783 19.47C178.15 19.1967 178.413 18.8133 178.573 18.32C178.733 17.8267 178.813 17.2533 178.813 16.6C178.813 15.9467 178.733 15.3733 178.573 14.88C178.413 14.3867 178.157 14.0033 177.803 13.73C177.457 13.4567 177 13.32 176.433 13.32C175.827 13.32 175.327 13.47 174.933 13.77C174.547 14.0633 174.26 14.46 174.073 14.96C173.887 15.4533 173.793 16 173.793 16.6C173.793 17.2067 173.883 17.76 174.063 18.26C174.243 18.7533 174.52 19.1467 174.893 19.44C175.267 19.7333 175.747 19.88 176.333 19.88ZM178.813 22V14.6H178.473V7.6H181.213V22H178.813ZM187.013 22.3C186.24 22.3 185.583 22.1533 185.043 21.86C184.51 21.56 184.103 21.1633 183.823 20.67C183.55 20.17 183.413 19.62 183.413 19.02C183.413 18.52 183.49 18.0633 183.643 17.65C183.797 17.2367 184.043 16.8733 184.383 16.56C184.73 16.24 185.193 15.9733 185.773 15.76C186.173 15.6133 186.65 15.4833 187.203 15.37C187.757 15.2567 188.383 15.15 189.083 15.05C189.783 14.9433 190.553 14.8267 191.393 14.7L190.413 15.24C190.413 14.6 190.26 14.13 189.953 13.83C189.647 13.53 189.133 13.38 188.413 13.38C188.013 13.38 187.597 13.4767 187.163 13.67C186.73 13.8633 186.427 14.2067 186.253 14.7L183.793 13.92C184.067 13.0267 184.58 12.3 185.333 11.74C186.087 11.18 187.113 10.9 188.413 10.9C189.367 10.9 190.213 11.0467 190.953 11.34C191.693 11.6333 192.253 12.14 192.633 12.86C192.847 13.26 192.973 13.66 193.013 14.06C193.053 14.46 193.073 14.9067 193.073 15.4V22H190.693V19.78L191.033 20.24C190.507 20.9667 189.937 21.4933 189.323 21.82C188.717 22.14 187.947 22.3 187.013 22.3ZM187.593 20.16C188.093 20.16 188.513 20.0733 188.853 19.9C189.2 19.72 189.473 19.5167 189.673 19.29C189.88 19.0633 190.02 18.8733 190.093 18.72C190.233 18.4267 190.313 18.0867 190.333 17.7C190.36 17.3067 190.373 16.98 190.373 16.72L191.173 16.92C190.367 17.0533 189.713 17.1667 189.213 17.26C188.713 17.3467 188.31 17.4267 188.003 17.5C187.697 17.5733 187.427 17.6533 187.193 17.74C186.927 17.8467 186.71 17.9633 186.543 18.09C186.383 18.21 186.263 18.3433 186.183 18.49C186.11 18.6367 186.073 18.8 186.073 18.98C186.073 19.2267 186.133 19.44 186.253 19.62C186.38 19.7933 186.557 19.9267 186.783 20.02C187.01 20.1133 187.28 20.16 187.593 20.16ZM195.673 22V11.2H198.073V13.84L197.813 13.5C197.953 13.1267 198.14 12.7867 198.373 12.48C198.607 12.1733 198.893 11.92 199.233 11.72C199.493 11.56 199.777 11.4367 200.083 11.35C200.39 11.2567 200.707 11.2 201.033 11.18C201.36 11.1533 201.687 11.16 202.013 11.2V13.74C201.713 13.6467 201.363 13.6167 200.963 13.65C200.57 13.6767 200.213 13.7667 199.893 13.92C199.573 14.0667 199.303 14.2633 199.083 14.51C198.863 14.75 198.697 15.0367 198.583 15.37C198.47 15.6967 198.413 16.0667 198.413 16.48V22H195.673ZM208.1 22.3C207.107 22.3 206.237 22.05 205.49 21.55C204.744 21.05 204.16 20.37 203.74 19.51C203.327 18.65 203.12 17.68 203.12 16.6C203.12 15.5 203.33 14.5233 203.75 13.67C204.177 12.81 204.774 12.1333 205.54 11.64C206.307 11.1467 207.207 10.9 208.24 10.9C209.267 10.9 210.13 11.15 210.83 11.65C211.53 12.15 212.06 12.83 212.42 13.69C212.78 14.55 212.96 15.52 212.96 16.6C212.96 17.68 212.777 18.65 212.41 19.51C212.05 20.37 211.51 21.05 210.79 21.55C210.07 22.05 209.174 22.3 208.1 22.3ZM208.54 19.88C209.147 19.88 209.63 19.7433 209.99 19.47C210.357 19.1967 210.62 18.8133 210.78 18.32C210.94 17.8267 211.02 17.2533 211.02 16.6C211.02 15.9467 210.94 15.3733 210.78 14.88C210.62 14.3867 210.364 14.0033 210.01 13.73C209.664 13.4567 209.207 13.32 208.64 13.32C208.034 13.32 207.534 13.47 207.14 13.77C206.754 14.0633 206.467 14.46 206.28 14.96C206.094 15.4533 206 16 206 16.6C206 17.2067 206.09 17.76 206.27 18.26C206.45 18.7533 206.727 19.1467 207.1 19.44C207.474 19.7333 207.954 19.88 208.54 19.88ZM211.02 22V14.6H210.68V7.6H213.42V22H211.02ZM220.44 22.3C219.08 22.3 217.98 21.9933 217.14 21.38C216.307 20.76 215.8 19.8867 215.62 18.76L218.4 18.34C218.514 18.8467 218.764 19.2433 219.15 19.53C219.544 19.8167 220.04 19.96 220.64 19.96C221.134 19.96 221.514 19.8667 221.78 19.68C222.047 19.4867 222.18 19.22 222.18 18.88C222.18 18.6667 222.127 18.4967 222.02 18.37C221.914 18.2367 221.674 18.1067 221.3 17.98C220.934 17.8533 220.36 17.6867 219.58 17.48C218.7 17.2533 217.997 17 217.47 16.72C216.944 16.44 216.564 16.1067 216.33 15.72C216.097 15.3267 215.98 14.8533 215.98 14.3C215.98 13.6067 216.157 13.0067 216.51 12.5C216.864 11.9867 217.36 11.5933 218 11.32C218.647 11.04 219.407 10.9 220.28 10.9C221.127 10.9 221.877 11.03 222.53 11.29C223.184 11.55 223.71 11.92 224.11 12.4C224.517 12.88 224.767 13.4467 224.86 14.1L222.08 14.6C222.034 14.2 221.86 13.8833 221.56 13.65C221.26 13.4167 220.854 13.28 220.34 13.24C219.84 13.2067 219.437 13.2733 219.13 13.44C218.83 13.6067 218.68 13.8467 218.68 14.16C218.68 14.3467 218.744 14.5033 218.87 14.63C219.004 14.7567 219.274 14.8867 219.68 15.02C220.094 15.1533 220.72 15.3267 221.56 15.54C222.38 15.7533 223.037 16.0033 223.53 16.29C224.03 16.57 224.394 16.91 224.62 17.31C224.847 17.7033 224.96 18.18 224.96 18.74C224.96 19.8467 224.56 20.7167 223.76 21.35C222.96 21.9833 221.854 22.3 220.44 22.3Z" fill="white"/>
<path opacity="0.7" d="M85.12 59V47.48H91.736V48.656H86.296V52.656H90.776V53.824H86.296V59H85.12ZM95.342 59.24C94.6913 59.24 94.1447 59.1227 93.702 58.888C93.2647 58.6533 92.9367 58.3413 92.718 57.952C92.4993 57.5627 92.39 57.1387 92.39 56.68C92.39 56.2107 92.4833 55.8107 92.67 55.48C92.862 55.144 93.1207 54.8693 93.446 54.656C93.7767 54.4427 94.158 54.28 94.59 54.168C95.0273 54.0613 95.51 53.968 96.038 53.888C96.5713 53.8027 97.0913 53.7307 97.598 53.672C98.11 53.608 98.558 53.5467 98.942 53.488L98.526 53.744C98.542 52.8907 98.3767 52.2587 98.03 51.848C97.6833 51.4373 97.0807 51.232 96.222 51.232C95.63 51.232 95.1287 51.3653 94.718 51.632C94.3127 51.8987 94.0273 52.32 93.862 52.896L92.718 52.56C92.9153 51.7867 93.3127 51.1867 93.91 50.76C94.5073 50.3333 95.2833 50.12 96.238 50.12C97.0273 50.12 97.6967 50.2693 98.246 50.568C98.8007 50.8613 99.1927 51.288 99.422 51.848C99.5287 52.0987 99.598 52.3787 99.63 52.688C99.662 52.9973 99.678 53.312 99.678 53.632V59H98.63V56.832L98.934 56.96C98.6407 57.7013 98.1847 58.2667 97.566 58.656C96.9473 59.0453 96.206 59.24 95.342 59.24ZM95.478 58.224C96.0273 58.224 96.5073 58.1253 96.918 57.928C97.3287 57.7307 97.6593 57.4613 97.91 57.12C98.1607 56.7733 98.3233 56.384 98.398 55.952C98.462 55.6747 98.4967 55.3707 98.502 55.04C98.5073 54.704 98.51 54.4533 98.51 54.288L98.958 54.52C98.558 54.5733 98.1233 54.6267 97.654 54.68C97.19 54.7333 96.7313 54.7947 96.278 54.864C95.83 54.9333 95.4247 55.016 95.062 55.112C94.8167 55.1813 94.5793 55.28 94.35 55.408C94.1207 55.5307 93.9313 55.696 93.782 55.904C93.638 56.112 93.566 56.3707 93.566 56.68C93.566 56.9307 93.6273 57.1733 93.75 57.408C93.878 57.6427 94.0807 57.8373 94.358 57.992C94.6407 58.1467 95.014 58.224 95.478 58.224ZM105.065 59.216C104.547 59.216 104.094 59.136 103.705 58.976C103.321 58.816 102.993 58.6 102.721 58.328C102.454 58.056 102.238 57.7467 102.073 57.4C101.907 57.048 101.787 56.6773 101.713 56.288C101.638 55.8933 101.601 55.5013 101.601 55.112V50.36H102.785V54.768C102.785 55.2427 102.83 55.6827 102.921 56.088C103.011 56.4933 103.155 56.848 103.353 57.152C103.555 57.4507 103.814 57.6827 104.129 57.848C104.449 58.0133 104.835 58.096 105.289 58.096C105.705 58.096 106.07 58.024 106.385 57.88C106.705 57.736 106.971 57.5307 107.185 57.264C107.403 56.992 107.569 56.664 107.681 56.28C107.793 55.8907 107.849 55.4533 107.849 54.968L108.681 55.152C108.681 56.0373 108.526 56.7813 108.217 57.384C107.907 57.9867 107.481 58.4427 106.937 58.752C106.393 59.0613 105.769 59.216 105.065 59.216ZM107.969 59V56.872H107.849V50.36H109.025V59H107.969ZM114.845 59.24C113.975 59.24 113.239 59.0453 112.637 58.656C112.034 58.2667 111.575 57.7307 111.261 57.048C110.951 56.36 110.791 55.5707 110.781 54.68C110.791 53.7733 110.957 52.9787 111.277 52.296C111.597 51.608 112.058 51.0747 112.661 50.696C113.263 50.312 113.994 50.12 114.853 50.12C115.727 50.12 116.487 50.3333 117.133 50.76C117.783 51.1867 118.229 51.7707 118.469 52.512L117.317 52.88C117.114 52.3627 116.791 51.9627 116.349 51.68C115.911 51.392 115.41 51.248 114.845 51.248C114.21 51.248 113.685 51.3947 113.269 51.688C112.853 51.976 112.543 52.3787 112.341 52.896C112.138 53.4133 112.034 54.008 112.029 54.68C112.039 55.7147 112.279 56.5467 112.749 57.176C113.218 57.8 113.917 58.112 114.845 58.112C115.431 58.112 115.93 57.9787 116.341 57.712C116.757 57.44 117.071 57.0453 117.285 56.528L118.469 56.88C118.149 57.648 117.679 58.2347 117.061 58.64C116.442 59.04 115.703 59.24 114.845 59.24ZM120.046 48.72V47.4H121.222V48.72H120.046ZM120.046 59V50.36H121.222V59H120.046ZM127.5 59.24C126.705 59.24 126.033 59.04 125.484 58.64C124.935 58.2347 124.519 57.688 124.236 57C123.953 56.3067 123.812 55.5307 123.812 54.672C123.812 53.7973 123.953 53.0187 124.236 52.336C124.524 51.648 124.945 51.1067 125.5 50.712C126.055 50.3173 126.737 50.12 127.548 50.12C128.337 50.12 129.015 50.32 129.58 50.72C130.145 51.12 130.577 51.664 130.876 52.352C131.18 53.04 131.332 53.8133 131.332 54.672C131.332 55.536 131.18 56.312 130.876 57C130.572 57.688 130.135 58.2347 129.564 58.64C128.993 59.04 128.305 59.24 127.5 59.24ZM123.612 59V47.48H124.796V52.496H124.668V59H123.612ZM127.38 58.144C127.983 58.144 128.484 57.992 128.884 57.688C129.284 57.384 129.583 56.9707 129.78 56.448C129.983 55.92 130.084 55.328 130.084 54.672C130.084 54.0213 129.985 53.4347 129.788 52.912C129.591 52.3893 129.289 51.976 128.884 51.672C128.484 51.368 127.975 51.216 127.356 51.216C126.753 51.216 126.252 51.3627 125.852 51.656C125.457 51.9493 125.161 52.3573 124.964 52.88C124.767 53.3973 124.668 53.9947 124.668 54.672C124.668 55.3387 124.767 55.936 124.964 56.464C125.161 56.9867 125.46 57.3973 125.86 57.696C126.26 57.9947 126.767 58.144 127.38 58.144ZM136.393 59.216C135.875 59.216 135.422 59.136 135.033 58.976C134.649 58.816 134.321 58.6 134.049 58.328C133.782 58.056 133.566 57.7467 133.401 57.4C133.235 57.048 133.115 56.6773 133.041 56.288C132.966 55.8933 132.929 55.5013 132.929 55.112V50.36H134.113V54.768C134.113 55.2427 134.158 55.6827 134.249 56.088C134.339 56.4933 134.483 56.848 134.681 57.152C134.883 57.4507 135.142 57.6827 135.457 57.848C135.777 58.0133 136.163 58.096 136.617 58.096C137.033 58.096 137.398 58.024 137.713 57.88C138.033 57.736 138.299 57.5307 138.513 57.264C138.731 56.992 138.897 56.664 139.009 56.28C139.121 55.8907 139.177 55.4533 139.177 54.968L140.009 55.152C140.009 56.0373 139.854 56.7813 139.545 57.384C139.235 57.9867 138.809 58.4427 138.265 58.752C137.721 59.0613 137.097 59.216 136.393 59.216ZM139.297 59V56.872H139.177V50.36H140.353V59H139.297ZM145.813 59.232C144.799 59.232 143.965 59.0133 143.309 58.576C142.658 58.1387 142.258 57.5307 142.109 56.752L143.309 56.552C143.437 57.0427 143.727 57.4347 144.181 57.728C144.639 58.016 145.205 58.16 145.877 58.16C146.533 58.16 147.05 58.024 147.429 57.752C147.807 57.4747 147.997 57.0987 147.997 56.624C147.997 56.3573 147.935 56.1413 147.813 55.976C147.695 55.8053 147.453 55.648 147.085 55.504C146.717 55.36 146.167 55.1893 145.437 54.992C144.653 54.7787 144.039 54.5653 143.597 54.352C143.154 54.1387 142.839 53.8933 142.653 53.616C142.466 53.3333 142.373 52.9893 142.373 52.584C142.373 52.0933 142.511 51.664 142.789 51.296C143.066 50.9227 143.45 50.6347 143.941 50.432C144.431 50.224 145.002 50.12 145.653 50.12C146.303 50.12 146.885 50.2267 147.397 50.44C147.914 50.648 148.33 50.9413 148.645 51.32C148.959 51.6987 149.146 52.1387 149.205 52.64L148.005 52.856C147.925 52.3493 147.671 51.9493 147.245 51.656C146.823 51.3573 146.287 51.2027 145.637 51.192C145.023 51.176 144.525 51.2933 144.141 51.544C143.757 51.7893 143.565 52.1173 143.565 52.528C143.565 52.7573 143.634 52.9547 143.773 53.12C143.911 53.28 144.162 53.432 144.525 53.576C144.893 53.72 145.415 53.8773 146.093 54.048C146.887 54.2507 147.511 54.464 147.965 54.688C148.418 54.912 148.741 55.176 148.933 55.48C149.125 55.784 149.221 56.16 149.221 56.608C149.221 57.424 148.917 58.0667 148.309 58.536C147.706 59 146.874 59.232 145.813 59.232ZM157.782 59.24C156.913 59.24 156.177 59.0453 155.574 58.656C154.971 58.2667 154.513 57.7307 154.198 57.048C153.889 56.36 153.729 55.5707 153.718 54.68C153.729 53.7733 153.894 52.9787 154.214 52.296C154.534 51.608 154.995 51.0747 155.598 50.696C156.201 50.312 156.931 50.12 157.79 50.12C158.665 50.12 159.425 50.3333 160.07 50.76C160.721 51.1867 161.166 51.7707 161.406 52.512L160.254 52.88C160.051 52.3627 159.729 51.9627 159.286 51.68C158.849 51.392 158.347 51.248 157.782 51.248C157.147 51.248 156.622 51.3947 156.206 51.688C155.79 51.976 155.481 52.3787 155.278 52.896C155.075 53.4133 154.971 54.008 154.966 54.68C154.977 55.7147 155.217 56.5467 155.686 57.176C156.155 57.8 156.854 58.112 157.782 58.112C158.369 58.112 158.867 57.9787 159.278 57.712C159.694 57.44 160.009 57.0453 160.222 56.528L161.406 56.88C161.086 57.648 160.617 58.2347 159.998 58.64C159.379 59.04 158.641 59.24 157.782 59.24ZM166.362 59.216C165.844 59.216 165.391 59.136 165.002 58.976C164.618 58.816 164.29 58.6 164.018 58.328C163.751 58.056 163.535 57.7467 163.37 57.4C163.204 57.048 163.084 56.6773 163.01 56.288C162.935 55.8933 162.898 55.5013 162.898 55.112V50.36H164.082V54.768C164.082 55.2427 164.127 55.6827 164.218 56.088C164.308 56.4933 164.452 56.848 164.65 57.152C164.852 57.4507 165.111 57.6827 165.426 57.848C165.746 58.0133 166.132 58.096 166.586 58.096C167.002 58.096 167.367 58.024 167.682 57.88C168.002 57.736 168.268 57.5307 168.482 57.264C168.7 56.992 168.866 56.664 168.978 56.28C169.09 55.8907 169.146 55.4533 169.146 54.968L169.977 55.152C169.977 56.0373 169.823 56.7813 169.514 57.384C169.204 57.9867 168.778 58.4427 168.234 58.752C167.69 59.0613 167.066 59.216 166.362 59.216ZM169.266 59V56.872H169.146V50.36H170.322V59H169.266ZM172.558 59V50.36H173.614V52.44L173.406 52.168C173.502 51.912 173.627 51.6773 173.782 51.464C173.936 51.2453 174.104 51.0667 174.286 50.928C174.51 50.7307 174.771 50.5813 175.07 50.48C175.368 50.3733 175.67 50.312 175.974 50.296C176.278 50.2747 176.555 50.296 176.806 50.36V51.464C176.491 51.384 176.147 51.3653 175.774 51.408C175.4 51.4507 175.056 51.6 174.742 51.856C174.454 52.08 174.238 52.3493 174.094 52.664C173.95 52.9733 173.854 53.304 173.806 53.656C173.758 54.0027 173.734 54.3467 173.734 54.688V59H172.558ZM181.235 59.232C180.221 59.232 179.387 59.0133 178.731 58.576C178.08 58.1387 177.68 57.5307 177.531 56.752L178.731 56.552C178.859 57.0427 179.149 57.4347 179.603 57.728C180.061 58.016 180.627 58.16 181.299 58.16C181.955 58.16 182.472 58.024 182.851 57.752C183.229 57.4747 183.419 57.0987 183.419 56.624C183.419 56.3573 183.357 56.1413 183.235 55.976C183.117 55.8053 182.875 55.648 182.507 55.504C182.139 55.36 181.589 55.1893 180.859 54.992C180.075 54.7787 179.461 54.5653 179.019 54.352C178.576 54.1387 178.261 53.8933 178.075 53.616C177.888 53.3333 177.795 52.9893 177.795 52.584C177.795 52.0933 177.933 51.664 178.211 51.296C178.488 50.9227 178.872 50.6347 179.363 50.432C179.853 50.224 180.424 50.12 181.075 50.12C181.725 50.12 182.307 50.2267 182.819 50.44C183.336 50.648 183.752 50.9413 184.067 51.32C184.381 51.6987 184.568 52.1387 184.627 52.64L183.427 52.856C183.347 52.3493 183.093 51.9493 182.667 51.656C182.245 51.3573 181.709 51.2027 181.059 51.192C180.445 51.176 179.947 51.2933 179.563 51.544C179.179 51.7893 178.987 52.1173 178.987 52.528C178.987 52.7573 179.056 52.9547 179.195 53.12C179.333 53.28 179.584 53.432 179.947 53.576C180.315 53.72 180.837 53.8773 181.515 54.048C182.309 54.2507 182.933 54.464 183.387 54.688C183.84 54.912 184.163 55.176 184.355 55.48C184.547 55.784 184.643 56.16 184.643 56.608C184.643 57.424 184.339 58.0667 183.731 58.536C183.128 59 182.296 59.232 181.235 59.232ZM189.721 59.216C189.204 59.216 188.75 59.136 188.361 58.976C187.977 58.816 187.649 58.6 187.377 58.328C187.11 58.056 186.894 57.7467 186.729 57.4C186.564 57.048 186.444 56.6773 186.369 56.288C186.294 55.8933 186.257 55.5013 186.257 55.112V50.36H187.441V54.768C187.441 55.2427 187.486 55.6827 187.577 56.088C187.668 56.4933 187.812 56.848 188.009 57.152C188.212 57.4507 188.47 57.6827 188.785 57.848C189.105 58.0133 189.492 58.096 189.945 58.096C190.361 58.096 190.726 58.024 191.041 57.88C191.361 57.736 191.628 57.5307 191.841 57.264C192.06 56.992 192.225 56.664 192.337 56.28C192.449 55.8907 192.505 55.4533 192.505 54.968L193.337 55.152C193.337 56.0373 193.182 56.7813 192.873 57.384C192.564 57.9867 192.137 58.4427 191.593 58.752C191.049 59.0613 190.425 59.216 189.721 59.216ZM192.625 59V56.872H192.505V50.36H193.681V59H192.625ZM199.141 59.232C198.128 59.232 197.293 59.0133 196.637 58.576C195.986 58.1387 195.586 57.5307 195.437 56.752L196.637 56.552C196.765 57.0427 197.056 57.4347 197.509 57.728C197.968 58.016 198.533 58.16 199.205 58.16C199.861 58.16 200.378 58.024 200.757 57.752C201.136 57.4747 201.325 57.0987 201.325 56.624C201.325 56.3573 201.264 56.1413 201.141 55.976C201.024 55.8053 200.781 55.648 200.413 55.504C200.045 55.36 199.496 55.1893 198.765 54.992C197.981 54.7787 197.368 54.5653 196.925 54.352C196.482 54.1387 196.168 53.8933 195.981 53.616C195.794 53.3333 195.701 52.9893 195.701 52.584C195.701 52.0933 195.84 51.664 196.117 51.296C196.394 50.9227 196.778 50.6347 197.269 50.432C197.76 50.224 198.33 50.12 198.981 50.12C199.632 50.12 200.213 50.2267 200.725 50.44C201.242 50.648 201.658 50.9413 201.973 51.32C202.288 51.6987 202.474 52.1387 202.533 52.64L201.333 52.856C201.253 52.3493 201 51.9493 200.573 51.656C200.152 51.3573 199.616 51.2027 198.965 51.192C198.352 51.176 197.853 51.2933 197.469 51.544C197.085 51.7893 196.893 52.1173 196.893 52.528C196.893 52.7573 196.962 52.9547 197.101 53.12C197.24 53.28 197.49 53.432 197.853 53.576C198.221 53.72 198.744 53.8773 199.421 54.048C200.216 54.2507 200.84 54.464 201.293 54.688C201.746 54.912 202.069 55.176 202.261 55.48C202.453 55.784 202.549 56.16 202.549 56.608C202.549 57.424 202.245 58.0667 201.637 58.536C201.034 59 200.202 59.232 199.141 59.232ZM217.83 59L217.838 53.328C217.838 52.6613 217.652 52.1387 217.278 51.76C216.91 51.376 216.441 51.184 215.87 51.184C215.545 51.184 215.228 51.2587 214.918 51.408C214.609 51.5573 214.353 51.7973 214.15 52.128C213.953 52.4587 213.854 52.8907 213.854 53.424L213.158 53.224C213.142 52.6053 213.262 52.064 213.518 51.6C213.78 51.136 214.137 50.776 214.59 50.52C215.049 50.2587 215.566 50.128 216.142 50.128C217.012 50.128 217.708 50.3973 218.23 50.936C218.753 51.4693 219.014 52.192 219.014 53.104L219.006 59H217.83ZM207.518 59V50.36H208.574V52.488H208.702V59H207.518ZM212.686 59L212.694 53.408C212.694 52.72 212.51 52.1787 212.142 51.784C211.78 51.384 211.3 51.184 210.702 51.184C210.105 51.184 209.622 51.3893 209.254 51.8C208.886 52.2053 208.702 52.7467 208.702 53.424L207.998 53.04C207.998 52.4853 208.129 51.9893 208.39 51.552C208.652 51.1093 209.009 50.7627 209.462 50.512C209.916 50.256 210.43 50.128 211.006 50.128C211.556 50.128 212.044 50.2453 212.47 50.48C212.902 50.7147 213.241 51.056 213.486 51.504C213.732 51.952 213.854 52.496 213.854 53.136L213.846 59H212.686ZM223.561 59.24C222.91 59.24 222.363 59.1227 221.921 58.888C221.483 58.6533 221.155 58.3413 220.937 57.952C220.718 57.5627 220.609 57.1387 220.609 56.68C220.609 56.2107 220.702 55.8107 220.889 55.48C221.081 55.144 221.339 54.8693 221.665 54.656C221.995 54.4427 222.377 54.28 222.809 54.168C223.246 54.0613 223.729 53.968 224.257 53.888C224.79 53.8027 225.31 53.7307 225.817 53.672C226.329 53.608 226.777 53.5467 227.161 53.488L226.745 53.744C226.761 52.8907 226.595 52.2587 226.249 51.848C225.902 51.4373 225.299 51.232 224.441 51.232C223.849 51.232 223.347 51.3653 222.937 51.632C222.531 51.8987 222.246 52.32 222.081 52.896L220.937 52.56C221.134 51.7867 221.531 51.1867 222.129 50.76C222.726 50.3333 223.502 50.12 224.457 50.12C225.246 50.12 225.915 50.2693 226.465 50.568C227.019 50.8613 227.411 51.288 227.641 51.848C227.747 52.0987 227.817 52.3787 227.849 52.688C227.881 52.9973 227.897 53.312 227.897 53.632V59H226.849V56.832L227.153 56.96C226.859 57.7013 226.403 58.2667 225.785 58.656C225.166 59.0453 224.425 59.24 223.561 59.24ZM223.697 58.224C224.246 58.224 224.726 58.1253 225.137 57.928C225.547 57.7307 225.878 57.4613 226.129 57.12C226.379 56.7733 226.542 56.384 226.617 55.952C226.681 55.6747 226.715 55.3707 226.721 55.04C226.726 54.704 226.729 54.4533 226.729 54.288L227.177 54.52C226.777 54.5733 226.342 54.6267 225.873 54.68C225.409 54.7333 224.95 54.7947 224.497 54.864C224.049 54.9333 223.643 55.016 223.281 55.112C223.035 55.1813 222.798 55.28 222.569 55.408C222.339 55.5307 222.15 55.696 222.001 55.904C221.857 56.112 221.785 56.3707 221.785 56.68C221.785 56.9307 221.846 57.1733 221.969 57.408C222.097 57.6427 222.299 57.8373 222.577 57.992C222.859 58.1467 223.233 58.224 223.697 58.224ZM233.635 59.24C232.793 59.24 232.062 59.0533 231.443 58.68C230.83 58.3067 230.353 57.7813 230.011 57.104C229.67 56.4267 229.499 55.632 229.499 54.72C229.499 53.776 229.667 52.96 230.003 52.272C230.339 51.584 230.811 51.0533 231.419 50.68C232.033 50.3067 232.755 50.12 233.587 50.12C234.441 50.12 235.169 50.3173 235.771 50.712C236.374 51.1013 236.83 51.6613 237.139 52.392C237.449 53.1227 237.59 53.9947 237.563 55.008H236.363V54.592C236.342 53.472 236.099 52.6267 235.635 52.056C235.177 51.4853 234.505 51.2 233.619 51.2C232.691 51.2 231.979 51.5013 231.483 52.104C230.993 52.7067 230.747 53.5653 230.747 54.68C230.747 55.768 230.993 56.6133 231.483 57.216C231.979 57.8133 232.681 58.112 233.587 58.112C234.206 58.112 234.745 57.9707 235.203 57.688C235.667 57.4 236.033 56.9867 236.299 56.448L237.395 56.872C237.054 57.624 236.55 58.208 235.883 58.624C235.222 59.0347 234.473 59.24 233.635 59.24ZM230.331 55.008V54.024H236.931V55.008H230.331ZM242.923 59.24C242.053 59.24 241.317 59.0453 240.715 58.656C240.112 58.2667 239.653 57.7307 239.339 57.048C239.029 56.36 238.869 55.5707 238.859 54.68C238.869 53.7733 239.035 52.9787 239.355 52.296C239.675 51.608 240.136 51.0747 240.739 50.696C241.341 50.312 242.072 50.12 242.931 50.12C243.805 50.12 244.565 50.3333 245.211 50.76C245.861 51.1867 246.307 51.7707 246.547 52.512L245.395 52.88C245.192 52.3627 244.869 51.9627 244.427 51.68C243.989 51.392 243.488 51.248 242.923 51.248C242.288 51.248 241.763 51.3947 241.347 51.688C240.931 51.976 240.621 52.3787 240.419 52.896C240.216 53.4133 240.112 54.008 240.107 54.68C240.117 55.7147 240.357 56.5467 240.827 57.176C241.296 57.8 241.995 58.112 242.923 58.112C243.509 58.112 244.008 57.9787 244.419 57.712C244.835 57.44 245.149 57.0453 245.363 56.528L246.547 56.88C246.227 57.648 245.757 58.2347 245.139 58.64C244.52 59.04 243.781 59.24 242.923 59.24ZM251.62 59.24C250.777 59.24 250.046 59.0533 249.428 58.68C248.814 58.3067 248.337 57.7813 247.996 57.104C247.654 56.4267 247.484 55.632 247.484 54.72C247.484 53.776 247.652 52.96 247.988 52.272C248.324 51.584 248.796 51.0533 249.404 50.68C250.017 50.3067 250.74 50.12 251.572 50.12C252.425 50.12 253.153 50.3173 253.756 50.712C254.358 51.1013 254.814 51.6613 255.124 52.392C255.433 53.1227 255.574 53.9947 255.548 55.008H254.348V54.592C254.326 53.472 254.084 52.6267 253.62 52.056C253.161 51.4853 252.489 51.2 251.604 51.2C250.676 51.2 249.964 51.5013 249.468 52.104C248.977 52.7067 248.732 53.5653 248.732 54.68C248.732 55.768 248.977 56.6133 249.468 57.216C249.964 57.8133 250.665 58.112 251.572 58.112C252.19 58.112 252.729 57.9707 253.188 57.688C253.652 57.4 254.017 56.9867 254.284 56.448L255.38 56.872C255.038 57.624 254.534 58.208 253.868 58.624C253.206 59.0347 252.457 59.24 251.62 59.24ZM248.316 55.008V54.024H254.916V55.008H248.316ZM263.329 59V54.592C263.329 54.112 263.283 53.672 263.193 53.272C263.102 52.8667 262.955 52.5147 262.753 52.216C262.555 51.912 262.297 51.6773 261.977 51.512C261.662 51.3467 261.278 51.264 260.825 51.264C260.409 51.264 260.041 51.336 259.721 51.48C259.406 51.624 259.139 51.832 258.921 52.104C258.707 52.3707 258.545 52.696 258.433 53.08C258.321 53.464 258.265 53.9013 258.265 54.392L257.433 54.208C257.433 53.3227 257.587 52.5787 257.897 51.976C258.206 51.3733 258.633 50.9173 259.177 50.608C259.721 50.2987 260.345 50.144 261.049 50.144C261.566 50.144 262.017 50.224 262.401 50.384C262.79 50.544 263.118 50.76 263.385 51.032C263.657 51.304 263.875 51.616 264.041 51.968C264.206 52.3147 264.326 52.6853 264.401 53.08C264.475 53.4693 264.513 53.8587 264.513 54.248V59H263.329ZM257.081 59V50.36H258.145V52.488H258.265V59H257.081ZM269.061 59.24C268.41 59.24 267.863 59.1227 267.421 58.888C266.983 58.6533 266.655 58.3413 266.437 57.952C266.218 57.5627 266.109 57.1387 266.109 56.68C266.109 56.2107 266.202 55.8107 266.389 55.48C266.581 55.144 266.839 54.8693 267.165 54.656C267.495 54.4427 267.877 54.28 268.309 54.168C268.746 54.0613 269.229 53.968 269.757 53.888C270.29 53.8027 270.81 53.7307 271.317 53.672C271.829 53.608 272.277 53.5467 272.661 53.488L272.245 53.744C272.261 52.8907 272.095 52.2587 271.749 51.848C271.402 51.4373 270.799 51.232 269.941 51.232C269.349 51.232 268.847 51.3653 268.437 51.632C268.031 51.8987 267.746 52.32 267.581 52.896L266.437 52.56C266.634 51.7867 267.031 51.1867 267.629 50.76C268.226 50.3333 269.002 50.12 269.957 50.12C270.746 50.12 271.415 50.2693 271.965 50.568C272.519 50.8613 272.911 51.288 273.141 51.848C273.247 52.0987 273.317 52.3787 273.349 52.688C273.381 52.9973 273.397 53.312 273.397 53.632V59H272.349V56.832L272.653 56.96C272.359 57.7013 271.903 58.2667 271.285 58.656C270.666 59.0453 269.925 59.24 269.061 59.24ZM269.197 58.224C269.746 58.224 270.226 58.1253 270.637 57.928C271.047 57.7307 271.378 57.4613 271.629 57.12C271.879 56.7733 272.042 56.384 272.117 55.952C272.181 55.6747 272.215 55.3707 272.221 55.04C272.226 54.704 272.229 54.4533 272.229 54.288L272.677 54.52C272.277 54.5733 271.842 54.6267 271.373 54.68C270.909 54.7333 270.45 54.7947 269.997 54.864C269.549 54.9333 269.143 55.016 268.781 55.112C268.535 55.1813 268.298 55.28 268.069 55.408C267.839 55.5307 267.65 55.696 267.501 55.904C267.357 56.112 267.285 56.3707 267.285 56.68C267.285 56.9307 267.346 57.1733 267.469 57.408C267.597 57.6427 267.799 57.8373 268.077 57.992C268.359 58.1467 268.733 58.224 269.197 58.224ZM278.703 59.232C277.69 59.232 276.855 59.0133 276.199 58.576C275.549 58.1387 275.149 57.5307 274.999 56.752L276.199 56.552C276.327 57.0427 276.618 57.4347 277.071 57.728C277.53 58.016 278.095 58.16 278.767 58.16C279.423 58.16 279.941 58.024 280.319 57.752C280.698 57.4747 280.887 57.0987 280.887 56.624C280.887 56.3573 280.826 56.1413 280.703 55.976C280.586 55.8053 280.343 55.648 279.975 55.504C279.607 55.36 279.058 55.1893 278.327 54.992C277.543 54.7787 276.93 54.5653 276.487 54.352C276.045 54.1387 275.73 53.8933 275.543 53.616C275.357 53.3333 275.263 52.9893 275.263 52.584C275.263 52.0933 275.402 51.664 275.679 51.296C275.957 50.9227 276.341 50.6347 276.831 50.432C277.322 50.224 277.893 50.12 278.543 50.12C279.194 50.12 279.775 50.2267 280.287 50.44C280.805 50.648 281.221 50.9413 281.535 51.32C281.85 51.6987 282.037 52.1387 282.095 52.64L280.895 52.856C280.815 52.3493 280.562 51.9493 280.135 51.656C279.714 51.3573 279.178 51.2027 278.527 51.192C277.914 51.176 277.415 51.2933 277.031 51.544C276.647 51.7893 276.455 52.1173 276.455 52.528C276.455 52.7573 276.525 52.9547 276.663 53.12C276.802 53.28 277.053 53.432 277.415 53.576C277.783 53.72 278.306 53.8773 278.983 54.048C279.778 54.2507 280.402 54.464 280.855 54.688C281.309 54.912 281.631 55.176 281.823 55.48C282.015 55.784 282.111 56.16 282.111 56.608C282.111 57.424 281.807 58.0667 281.199 58.536C280.597 59 279.765 59.232 278.703 59.232ZM287.249 59V47.24H288.425V59H287.249ZM294.431 59.24C293.572 59.24 292.839 59.0453 292.231 58.656C291.623 58.2667 291.156 57.728 290.831 57.04C290.506 56.352 290.343 55.5627 290.343 54.672C290.343 53.7653 290.508 52.9707 290.839 52.288C291.17 51.6053 291.639 51.0747 292.247 50.696C292.86 50.312 293.588 50.12 294.431 50.12C295.295 50.12 296.031 50.3147 296.639 50.704C297.252 51.088 297.719 51.624 298.039 52.312C298.364 52.9947 298.527 53.7813 298.527 54.672C298.527 55.5787 298.364 56.376 298.039 57.064C297.714 57.7467 297.244 58.28 296.631 58.664C296.018 59.048 295.284 59.24 294.431 59.24ZM294.431 58.112C295.391 58.112 296.106 57.7947 296.575 57.16C297.044 56.52 297.279 55.6907 297.279 54.672C297.279 53.6267 297.042 52.7947 296.567 52.176C296.098 51.5573 295.386 51.248 294.431 51.248C293.786 51.248 293.252 51.3947 292.831 51.688C292.415 51.976 292.103 52.3787 291.895 52.896C291.692 53.408 291.591 54 291.591 54.672C291.591 55.712 291.831 56.5467 292.311 57.176C292.791 57.8 293.498 58.112 294.431 58.112ZM300.292 59V50.36H301.348V52.44L301.14 52.168C301.236 51.912 301.361 51.6773 301.516 51.464C301.671 51.2453 301.839 51.0667 302.02 50.928C302.244 50.7307 302.505 50.5813 302.804 50.48C303.103 50.3733 303.404 50.312 303.708 50.296C304.012 50.2747 304.289 50.296 304.54 50.36V51.464C304.225 51.384 303.881 51.3653 303.508 51.408C303.135 51.4507 302.791 51.6 302.476 51.856C302.188 52.08 301.972 52.3493 301.828 52.664C301.684 52.9733 301.588 53.304 301.54 53.656C301.492 54.0027 301.468 54.3467 301.468 54.688V59H300.292ZM309.557 59.24C308.715 59.24 307.984 59.0533 307.365 58.68C306.752 58.3067 306.275 57.7813 305.933 57.104C305.592 56.4267 305.421 55.632 305.421 54.72C305.421 53.776 305.589 52.96 305.925 52.272C306.261 51.584 306.733 51.0533 307.341 50.68C307.955 50.3067 308.677 50.12 309.509 50.12C310.363 50.12 311.091 50.3173 311.693 50.712C312.296 51.1013 312.752 51.6613 313.061 52.392C313.371 53.1227 313.512 53.9947 313.485 55.008H312.285V54.592C312.264 53.472 312.021 52.6267 311.557 52.056C311.099 51.4853 310.427 51.2 309.541 51.2C308.613 51.2 307.901 51.5013 307.405 52.104C306.915 52.7067 306.669 53.5653 306.669 54.68C306.669 55.768 306.915 56.6133 307.405 57.216C307.901 57.8133 308.603 58.112 309.509 58.112C310.128 58.112 310.667 57.9707 311.125 57.688C311.589 57.4 311.955 56.9867 312.221 56.448L313.317 56.872C312.976 57.624 312.472 58.208 311.805 58.624C311.144 59.0347 310.395 59.24 309.557 59.24ZM306.253 55.008V54.024H312.853V55.008H306.253ZM325.33 59L325.338 53.328C325.338 52.6613 325.152 52.1387 324.778 51.76C324.41 51.376 323.941 51.184 323.37 51.184C323.045 51.184 322.728 51.2587 322.418 51.408C322.109 51.5573 321.853 51.7973 321.65 52.128C321.453 52.4587 321.354 52.8907 321.354 53.424L320.658 53.224C320.642 52.6053 320.762 52.064 321.018 51.6C321.28 51.136 321.637 50.776 322.09 50.52C322.549 50.2587 323.066 50.128 323.642 50.128C324.512 50.128 325.208 50.3973 325.73 50.936C326.253 51.4693 326.514 52.192 326.514 53.104L326.506 59H325.33ZM315.018 59V50.36H316.074V52.488H316.202V59H315.018ZM320.186 59L320.194 53.408C320.194 52.72 320.01 52.1787 319.642 51.784C319.28 51.384 318.8 51.184 318.202 51.184C317.605 51.184 317.122 51.3893 316.754 51.8C316.386 52.2053 316.202 52.7467 316.202 53.424L315.498 53.04C315.498 52.4853 315.629 51.9893 315.89 51.552C316.152 51.1093 316.509 50.7627 316.962 50.512C317.416 50.256 317.93 50.128 318.506 50.128C319.056 50.128 319.544 50.2453 319.97 50.48C320.402 50.7147 320.741 51.056 320.986 51.504C321.232 51.952 321.354 52.496 321.354 53.136L321.346 59H320.186ZM88.704 85.24C87.8347 85.24 87.0987 85.0453 86.496 84.656C85.8933 84.2667 85.4347 83.7307 85.12 83.048C84.8107 82.36 84.6507 81.5707 84.64 80.68C84.6507 79.7733 84.816 78.9787 85.136 78.296C85.456 77.608 85.9173 77.0747 86.52 76.696C87.1227 76.312 87.8533 76.12 88.712 76.12C89.5867 76.12 90.3467 76.3333 90.992 76.76C91.6427 77.1867 92.088 77.7707 92.328 78.512L91.176 78.88C90.9733 78.3627 90.6507 77.9627 90.208 77.68C89.7707 77.392 89.2693 77.248 88.704 77.248C88.0693 77.248 87.544 77.3947 87.128 77.688C86.712 77.976 86.4027 78.3787 86.2 78.896C85.9973 79.4133 85.8933 80.008 85.888 80.68C85.8987 81.7147 86.1387 82.5467 86.608 83.176C87.0773 83.8 87.776 84.112 88.704 84.112C89.2907 84.112 89.7893 83.9787 90.2 83.712C90.616 83.44 90.9307 83.0453 91.144 82.528L92.328 82.88C92.008 83.648 91.5387 84.2347 90.92 84.64C90.3013 85.04 89.5627 85.24 88.704 85.24ZM97.2834 85.216C96.766 85.216 96.3127 85.136 95.9234 84.976C95.5394 84.816 95.2114 84.6 94.9394 84.328C94.6727 84.056 94.4567 83.7467 94.2914 83.4C94.126 83.048 94.006 82.6773 93.9314 82.288C93.8567 81.8933 93.8194 81.5013 93.8194 81.112V76.36H95.0034V80.768C95.0034 81.2427 95.0487 81.6827 95.1394 82.088C95.23 82.4933 95.374 82.848 95.5714 83.152C95.774 83.4507 96.0327 83.6827 96.3474 83.848C96.6674 84.0133 97.054 84.096 97.5074 84.096C97.9234 84.096 98.2887 84.024 98.6034 83.88C98.9234 83.736 99.19 83.5307 99.4034 83.264C99.622 82.992 99.7874 82.664 99.8994 82.28C100.011 81.8907 100.067 81.4533 100.067 80.968L100.899 81.152C100.899 82.0373 100.745 82.7813 100.435 83.384C100.126 83.9867 99.6994 84.4427 99.1554 84.752C98.6114 85.0613 97.9874 85.216 97.2834 85.216ZM100.187 85V82.872H100.067V76.36H101.243V85H100.187ZM103.479 85V76.36H104.535V78.44L104.327 78.168C104.423 77.912 104.549 77.6773 104.703 77.464C104.858 77.2453 105.026 77.0667 105.207 76.928C105.431 76.7307 105.693 76.5813 105.991 76.48C106.29 76.3733 106.591 76.312 106.895 76.296C107.199 76.2747 107.477 76.296 107.727 76.36V77.464C107.413 77.384 107.069 77.3653 106.695 77.408C106.322 77.4507 105.978 77.6 105.663 77.856C105.375 78.08 105.159 78.3493 105.015 78.664C104.871 78.9733 104.775 79.304 104.727 79.656C104.679 80.0027 104.655 80.3467 104.655 80.688V85H103.479ZM112.157 85.232C111.143 85.232 110.309 85.0133 109.653 84.576C109.002 84.1387 108.602 83.5307 108.453 82.752L109.653 82.552C109.781 83.0427 110.071 83.4347 110.525 83.728C110.983 84.016 111.549 84.16 112.22 84.16C112.877 84.16 113.394 84.024 113.773 83.752C114.151 83.4747 114.341 83.0987 114.341 82.624C114.341 82.3573 114.279 82.1413 114.157 81.976C114.039 81.8053 113.797 81.648 113.429 81.504C113.061 81.36 112.511 81.1893 111.781 80.992C110.997 80.7787 110.383 80.5653 109.941 80.352C109.498 80.1387 109.183 79.8933 108.997 79.616C108.81 79.3333 108.717 78.9893 108.717 78.584C108.717 78.0933 108.855 77.664 109.133 77.296C109.41 76.9227 109.794 76.6347 110.285 76.432C110.775 76.224 111.346 76.12 111.997 76.12C112.647 76.12 113.229 76.2267 113.741 76.44C114.258 76.648 114.674 76.9413 114.989 77.32C115.303 77.6987 115.49 78.1387 115.549 78.64L114.349 78.856C114.269 78.3493 114.015 77.9493 113.589 77.656C113.167 77.3573 112.631 77.2027 111.981 77.192C111.367 77.176 110.869 77.2933 110.485 77.544C110.101 77.7893 109.909 78.1173 109.909 78.528C109.909 78.7573 109.978 78.9547 110.117 79.12C110.255 79.28 110.506 79.432 110.869 79.576C111.237 79.72 111.759 79.8773 112.437 80.048C113.231 80.2507 113.855 80.464 114.309 80.688C114.762 80.912 115.085 81.176 115.277 81.48C115.469 81.784 115.565 82.16 115.565 82.608C115.565 83.424 115.261 84.0667 114.653 84.536C114.05 85 113.218 85.232 112.157 85.232ZM120.643 85.216C120.125 85.216 119.672 85.136 119.283 84.976C118.899 84.816 118.571 84.6 118.299 84.328C118.032 84.056 117.816 83.7467 117.651 83.4C117.485 83.048 117.365 82.6773 117.291 82.288C117.216 81.8933 117.179 81.5013 117.179 81.112V76.36H118.363V80.768C118.363 81.2427 118.408 81.6827 118.499 82.088C118.589 82.4933 118.733 82.848 118.931 83.152C119.133 83.4507 119.392 83.6827 119.707 83.848C120.027 84.0133 120.413 84.096 120.867 84.096C121.283 84.096 121.648 84.024 121.963 83.88C122.283 83.736 122.549 83.5307 122.763 83.264C122.981 82.992 123.147 82.664 123.259 82.28C123.371 81.8907 123.427 81.4533 123.427 80.968L124.259 81.152C124.259 82.0373 124.104 82.7813 123.795 83.384C123.485 83.9867 123.059 84.4427 122.515 84.752C121.971 85.0613 121.347 85.216 120.643 85.216ZM123.547 85V82.872H123.427V76.36H124.603V85H123.547ZM130.063 85.232C129.049 85.232 128.215 85.0133 127.559 84.576C126.908 84.1387 126.508 83.5307 126.359 82.752L127.559 82.552C127.687 83.0427 127.977 83.4347 128.431 83.728C128.889 84.016 129.455 84.16 130.127 84.16C130.783 84.16 131.3 84.024 131.679 83.752C132.057 83.4747 132.247 83.0987 132.247 82.624C132.247 82.3573 132.185 82.1413 132.063 81.976C131.945 81.8053 131.703 81.648 131.335 81.504C130.967 81.36 130.417 81.1893 129.687 80.992C128.903 80.7787 128.289 80.5653 127.847 80.352C127.404 80.1387 127.089 79.8933 126.903 79.616C126.716 79.3333 126.623 78.9893 126.623 78.584C126.623 78.0933 126.761 77.664 127.039 77.296C127.316 76.9227 127.7 76.6347 128.191 76.432C128.681 76.224 129.252 76.12 129.903 76.12C130.553 76.12 131.135 76.2267 131.647 76.44C132.164 76.648 132.58 76.9413 132.895 77.32C133.209 77.6987 133.396 78.1387 133.455 78.64L132.255 78.856C132.175 78.3493 131.921 77.9493 131.495 77.656C131.073 77.3573 130.537 77.2027 129.887 77.192C129.273 77.176 128.775 77.2933 128.391 77.544C128.007 77.7893 127.815 78.1173 127.815 78.528C127.815 78.7573 127.884 78.9547 128.023 79.12C128.161 79.28 128.412 79.432 128.775 79.576C129.143 79.72 129.665 79.8773 130.343 80.048C131.137 80.2507 131.761 80.464 132.215 80.688C132.668 80.912 132.991 81.176 133.183 81.48C133.375 81.784 133.471 82.16 133.471 82.608C133.471 83.424 133.167 84.0667 132.559 84.536C131.956 85 131.124 85.232 130.063 85.232ZM144.688 85V80.592C144.688 80.112 144.643 79.672 144.552 79.272C144.461 78.8667 144.315 78.5147 144.112 78.216C143.915 77.912 143.656 77.6773 143.336 77.512C143.021 77.3467 142.637 77.264 142.184 77.264C141.768 77.264 141.4 77.336 141.08 77.48C140.765 77.624 140.499 77.832 140.28 78.104C140.067 78.3707 139.904 78.696 139.792 79.08C139.68 79.464 139.624 79.9013 139.624 80.392L138.792 80.208C138.792 79.3227 138.947 78.5787 139.256 77.976C139.565 77.3733 139.992 76.9173 140.536 76.608C141.08 76.2987 141.704 76.144 142.408 76.144C142.925 76.144 143.376 76.224 143.76 76.384C144.149 76.544 144.477 76.76 144.744 77.032C145.016 77.304 145.235 77.616 145.4 77.968C145.565 78.3147 145.685 78.6853 145.76 79.08C145.835 79.4693 145.872 79.8587 145.872 80.248V85H144.688ZM138.44 85V76.36H139.504V78.488H139.624V85H138.44ZM148.108 74.72V73.4H149.284V74.72H148.108ZM148.108 85V76.36H149.284V85H148.108ZM155.562 85.24C154.768 85.24 154.096 85.04 153.547 84.64C152.997 84.2347 152.581 83.688 152.299 83C152.016 82.3067 151.875 81.5307 151.875 80.672C151.875 79.7973 152.016 79.0187 152.299 78.336C152.587 77.648 153.008 77.1067 153.563 76.712C154.117 76.3173 154.8 76.12 155.611 76.12C156.4 76.12 157.077 76.32 157.643 76.72C158.208 77.12 158.64 77.664 158.939 78.352C159.243 79.04 159.395 79.8133 159.395 80.672C159.395 81.536 159.243 82.312 158.939 83C158.635 83.688 158.197 84.2347 157.627 84.64C157.056 85.04 156.368 85.24 155.562 85.24ZM151.675 85V73.48H152.859V78.496H152.731V85H151.675ZM155.443 84.144C156.045 84.144 156.547 83.992 156.947 83.688C157.347 83.384 157.645 82.9707 157.843 82.448C158.045 81.92 158.147 81.328 158.147 80.672C158.147 80.0213 158.048 79.4347 157.851 78.912C157.653 78.3893 157.352 77.976 156.947 77.672C156.547 77.368 156.037 77.216 155.419 77.216C154.816 77.216 154.315 77.3627 153.915 77.656C153.52 77.9493 153.224 78.3573 153.027 78.88C152.829 79.3973 152.731 79.9947 152.731 80.672C152.731 81.3387 152.829 81.936 153.027 82.464C153.224 82.9867 153.523 83.3973 153.923 83.696C154.323 83.9947 154.829 84.144 155.443 84.144ZM167.391 85V80.592C167.391 80.112 167.346 79.672 167.255 79.272C167.165 78.8667 167.018 78.5147 166.815 78.216C166.618 77.912 166.359 77.6773 166.039 77.512C165.725 77.3467 165.341 77.264 164.887 77.264C164.471 77.264 164.103 77.336 163.783 77.48C163.469 77.624 163.202 77.832 162.983 78.104C162.77 78.3707 162.607 78.696 162.495 79.08C162.383 79.464 162.327 79.9013 162.327 80.392L161.495 80.208C161.495 79.3227 161.65 78.5787 161.959 77.976C162.269 77.3733 162.695 76.9173 163.239 76.608C163.783 76.2987 164.407 76.144 165.111 76.144C165.629 76.144 166.079 76.224 166.463 76.384C166.853 76.544 167.181 76.76 167.447 77.032C167.719 77.304 167.938 77.616 168.103 77.968C168.269 78.3147 168.389 78.6853 168.463 79.08C168.538 79.4693 168.575 79.8587 168.575 80.248V85H167.391ZM161.143 85V73.48H162.207V79.984H162.327V85H161.143ZM170.875 85V83.632H172.243V85H170.875ZM181.917 85.24C181.112 85.24 180.386 85.1067 179.741 84.84C179.101 84.568 178.57 84.184 178.149 83.688C177.733 83.192 177.461 82.6027 177.333 81.92L178.533 81.72C178.725 82.4667 179.13 83.0533 179.749 83.48C180.368 83.9013 181.106 84.112 181.965 84.112C182.53 84.112 183.037 84.024 183.485 83.848C183.933 83.6667 184.285 83.4107 184.541 83.08C184.797 82.7493 184.925 82.3573 184.925 81.904C184.925 81.6053 184.872 81.352 184.765 81.144C184.658 80.9307 184.517 80.7547 184.341 80.616C184.165 80.4773 183.973 80.3627 183.765 80.272C183.557 80.176 183.354 80.0987 183.157 80.04L180.237 79.168C179.885 79.0667 179.56 78.9387 179.261 78.784C178.962 78.624 178.701 78.4347 178.477 78.216C178.258 77.992 178.088 77.7307 177.965 77.432C177.842 77.1333 177.781 76.792 177.781 76.408C177.781 75.7573 177.952 75.1947 178.293 74.72C178.634 74.2453 179.101 73.88 179.693 73.624C180.285 73.368 180.96 73.2427 181.717 73.248C182.485 73.248 183.17 73.384 183.773 73.656C184.381 73.928 184.882 74.3173 185.277 74.824C185.672 75.3253 185.933 75.92 186.061 76.608L184.829 76.832C184.749 76.3307 184.565 75.896 184.277 75.528C183.989 75.16 183.621 74.8773 183.173 74.68C182.73 74.4773 182.242 74.3733 181.709 74.368C181.192 74.368 180.73 74.456 180.325 74.632C179.925 74.8027 179.608 75.0373 179.373 75.336C179.138 75.6347 179.021 75.976 179.021 76.36C179.021 76.7493 179.128 77.0613 179.341 77.296C179.56 77.5307 179.826 77.7147 180.141 77.848C180.461 77.9813 180.77 78.0907 181.069 78.176L183.325 78.84C183.56 78.904 183.834 78.9973 184.149 79.12C184.469 79.2373 184.778 79.408 185.077 79.632C185.381 79.8507 185.632 80.1387 185.829 80.496C186.026 80.8533 186.125 81.3067 186.125 81.856C186.125 82.3893 186.018 82.8667 185.805 83.288C185.597 83.7093 185.301 84.064 184.917 84.352C184.538 84.64 184.093 84.8587 183.581 85.008C183.074 85.1627 182.52 85.24 181.917 85.24ZM191.384 85.24C190.526 85.24 189.792 85.0453 189.184 84.656C188.576 84.2667 188.11 83.728 187.784 83.04C187.459 82.352 187.296 81.5627 187.296 80.672C187.296 79.7653 187.462 78.9707 187.792 78.288C188.123 77.6053 188.592 77.0747 189.2 76.696C189.814 76.312 190.542 76.12 191.384 76.12C192.248 76.12 192.984 76.3147 193.592 76.704C194.206 77.088 194.672 77.624 194.992 78.312C195.318 78.9947 195.48 79.7813 195.48 80.672C195.48 81.5787 195.318 82.376 194.992 83.064C194.667 83.7467 194.198 84.28 193.584 84.664C192.971 85.048 192.238 85.24 191.384 85.24ZM191.384 84.112C192.344 84.112 193.059 83.7947 193.528 83.16C193.998 82.52 194.232 81.6907 194.232 80.672C194.232 79.6267 193.995 78.7947 193.52 78.176C193.051 77.5573 192.339 77.248 191.384 77.248C190.739 77.248 190.206 77.3947 189.784 77.688C189.368 77.976 189.056 78.3787 188.848 78.896C188.646 79.408 188.544 80 188.544 80.672C188.544 81.712 188.784 82.5467 189.264 83.176C189.744 83.8 190.451 84.112 191.384 84.112ZM200.829 85.24C199.96 85.24 199.224 85.0453 198.621 84.656C198.018 84.2667 197.56 83.7307 197.245 83.048C196.936 82.36 196.776 81.5707 196.765 80.68C196.776 79.7733 196.941 78.9787 197.261 78.296C197.581 77.608 198.042 77.0747 198.645 76.696C199.248 76.312 199.978 76.12 200.837 76.12C201.712 76.12 202.472 76.3333 203.117 76.76C203.768 77.1867 204.213 77.7707 204.453 78.512L203.301 78.88C203.098 78.3627 202.776 77.9627 202.333 77.68C201.896 77.392 201.394 77.248 200.829 77.248C200.194 77.248 199.669 77.3947 199.253 77.688C198.837 77.976 198.528 78.3787 198.325 78.896C198.122 79.4133 198.018 80.008 198.013 80.68C198.024 81.7147 198.264 82.5467 198.733 83.176C199.202 83.8 199.901 84.112 200.829 84.112C201.416 84.112 201.914 83.9787 202.325 83.712C202.741 83.44 203.056 83.0453 203.269 82.528L204.453 82.88C204.133 83.648 203.664 84.2347 203.045 84.64C202.426 85.04 201.688 85.24 200.829 85.24ZM206.03 74.72V73.4H207.206V74.72H206.03ZM206.03 85V76.36H207.206V85H206.03ZM209.764 74.72V73.4H210.94V74.72H209.764ZM209.764 85V76.36H210.94V85H209.764ZM216.563 85.232C215.549 85.232 214.715 85.0133 214.059 84.576C213.408 84.1387 213.008 83.5307 212.859 82.752L214.059 82.552C214.187 83.0427 214.477 83.4347 214.931 83.728C215.389 84.016 215.955 84.16 216.627 84.16C217.283 84.16 217.8 84.024 218.179 83.752C218.557 83.4747 218.747 83.0987 218.747 82.624C218.747 82.3573 218.685 82.1413 218.563 81.976C218.445 81.8053 218.203 81.648 217.835 81.504C217.467 81.36 216.917 81.1893 216.187 80.992C215.403 80.7787 214.789 80.5653 214.347 80.352C213.904 80.1387 213.589 79.8933 213.403 79.616C213.216 79.3333 213.123 78.9893 213.123 78.584C213.123 78.0933 213.261 77.664 213.539 77.296C213.816 76.9227 214.2 76.6347 214.691 76.432C215.181 76.224 215.752 76.12 216.403 76.12C217.053 76.12 217.635 76.2267 218.147 76.44C218.664 76.648 219.08 76.9413 219.395 77.32C219.709 77.6987 219.896 78.1387 219.955 78.64L218.755 78.856C218.675 78.3493 218.421 77.9493 217.995 77.656C217.573 77.3573 217.037 77.2027 216.387 77.192C215.773 77.176 215.275 77.2933 214.891 77.544C214.507 77.7893 214.315 78.1173 214.315 78.528C214.315 78.7573 214.384 78.9547 214.523 79.12C214.661 79.28 214.912 79.432 215.275 79.576C215.643 79.72 216.165 79.8773 216.843 80.048C217.637 80.2507 218.261 80.464 218.715 80.688C219.168 80.912 219.491 81.176 219.683 81.48C219.875 81.784 219.971 82.16 219.971 82.608C219.971 83.424 219.667 84.0667 219.059 84.536C218.456 85 217.624 85.232 216.563 85.232ZM228.172 85.232C227.159 85.232 226.324 85.0133 225.668 84.576C225.017 84.1387 224.617 83.5307 224.468 82.752L225.668 82.552C225.796 83.0427 226.087 83.4347 226.54 83.728C226.999 84.016 227.564 84.16 228.236 84.16C228.892 84.16 229.409 84.024 229.788 83.752C230.167 83.4747 230.356 83.0987 230.356 82.624C230.356 82.3573 230.295 82.1413 230.172 81.976C230.055 81.8053 229.812 81.648 229.444 81.504C229.076 81.36 228.527 81.1893 227.796 80.992C227.012 80.7787 226.399 80.5653 225.956 80.352C225.513 80.1387 225.199 79.8933 225.012 79.616C224.825 79.3333 224.732 78.9893 224.732 78.584C224.732 78.0933 224.871 77.664 225.148 77.296C225.425 76.9227 225.809 76.6347 226.3 76.432C226.791 76.224 227.361 76.12 228.012 76.12C228.663 76.12 229.244 76.2267 229.756 76.44C230.273 76.648 230.689 76.9413 231.004 77.32C231.319 77.6987 231.505 78.1387 231.564 78.64L230.364 78.856C230.284 78.3493 230.031 77.9493 229.604 77.656C229.183 77.3573 228.647 77.2027 227.996 77.192C227.383 77.176 226.884 77.2933 226.5 77.544C226.116 77.7893 225.924 78.1173 225.924 78.528C225.924 78.7573 225.993 78.9547 226.132 79.12C226.271 79.28 226.521 79.432 226.884 79.576C227.252 79.72 227.775 79.8773 228.452 80.048C229.247 80.2507 229.871 80.464 230.324 80.688C230.777 80.912 231.1 81.176 231.292 81.48C231.484 81.784 231.58 82.16 231.58 82.608C231.58 83.424 231.276 84.0667 230.668 84.536C230.065 85 229.233 85.232 228.172 85.232ZM233.514 74.72V73.4H234.69V74.72H233.514ZM233.514 85V76.36H234.69V85H233.514ZM241.793 85C241.307 85.1013 240.827 85.1413 240.353 85.12C239.883 85.0987 239.462 84.9973 239.089 84.816C238.721 84.6347 238.441 84.352 238.249 83.968C238.094 83.648 238.009 83.3253 237.993 83C237.982 82.6693 237.977 82.2933 237.977 81.872V73.96H239.145V81.824C239.145 82.1867 239.147 82.4907 239.153 82.736C239.163 82.976 239.219 83.1893 239.321 83.376C239.513 83.7333 239.817 83.9467 240.233 84.016C240.654 84.0853 241.174 84.0693 241.793 83.968V85ZM236.129 77.368V76.36H241.793V77.368H236.129ZM246.698 85V76.36H247.754V78.44L247.546 78.168C247.642 77.912 247.767 77.6773 247.922 77.464C248.077 77.2453 248.245 77.0667 248.426 76.928C248.65 76.7307 248.911 76.5813 249.21 76.48C249.509 76.3733 249.81 76.312 250.114 76.296C250.418 76.2747 250.695 76.296 250.946 76.36V77.464C250.631 77.384 250.287 77.3653 249.914 77.408C249.541 77.4507 249.197 77.6 248.882 77.856C248.594 78.08 248.378 78.3493 248.234 78.664C248.09 78.9733 247.994 79.304 247.946 79.656C247.898 80.0027 247.874 80.3467 247.874 80.688V85H246.698ZM252.624 74.72V73.4H253.8V74.72H252.624ZM252.624 85V76.36H253.8V85H252.624ZM259.422 85.232C258.409 85.232 257.574 85.0133 256.918 84.576C256.267 84.1387 255.867 83.5307 255.718 82.752L256.918 82.552C257.046 83.0427 257.337 83.4347 257.79 83.728C258.249 84.016 258.814 84.16 259.486 84.16C260.142 84.16 260.659 84.024 261.038 83.752C261.417 83.4747 261.606 83.0987 261.606 82.624C261.606 82.3573 261.545 82.1413 261.422 81.976C261.305 81.8053 261.062 81.648 260.694 81.504C260.326 81.36 259.777 81.1893 259.046 80.992C258.262 80.7787 257.649 80.5653 257.206 80.352C256.763 80.1387 256.449 79.8933 256.262 79.616C256.075 79.3333 255.982 78.9893 255.982 78.584C255.982 78.0933 256.121 77.664 256.398 77.296C256.675 76.9227 257.059 76.6347 257.55 76.432C258.041 76.224 258.611 76.12 259.262 76.12C259.913 76.12 260.494 76.2267 261.006 76.44C261.523 76.648 261.939 76.9413 262.254 77.32C262.569 77.6987 262.755 78.1387 262.814 78.64L261.614 78.856C261.534 78.3493 261.281 77.9493 260.854 77.656C260.433 77.3573 259.897 77.2027 259.246 77.192C258.633 77.176 258.134 77.2933 257.75 77.544C257.366 77.7893 257.174 78.1173 257.174 78.528C257.174 78.7573 257.243 78.9547 257.382 79.12C257.521 79.28 257.771 79.432 258.134 79.576C258.502 79.72 259.025 79.8773 259.702 80.048C260.497 80.2507 261.121 80.464 261.574 80.688C262.027 80.912 262.35 81.176 262.542 81.48C262.734 81.784 262.83 82.16 262.83 82.608C262.83 83.424 262.526 84.0667 261.918 84.536C261.315 85 260.483 85.232 259.422 85.232ZM267.908 85.216C267.391 85.216 266.938 85.136 266.548 84.976C266.164 84.816 265.836 84.6 265.564 84.328C265.298 84.056 265.082 83.7467 264.916 83.4C264.751 83.048 264.631 82.6773 264.556 82.288C264.482 81.8933 264.444 81.5013 264.444 81.112V76.36H265.628V80.768C265.628 81.2427 265.674 81.6827 265.764 82.088C265.855 82.4933 265.999 82.848 266.196 83.152C266.399 83.4507 266.658 83.6827 266.972 83.848C267.292 84.0133 267.679 84.096 268.132 84.096C268.548 84.096 268.914 84.024 269.228 83.88C269.548 83.736 269.815 83.5307 270.028 83.264C270.247 82.992 270.412 82.664 270.524 82.28C270.636 81.8907 270.692 81.4533 270.692 80.968L271.524 81.152C271.524 82.0373 271.37 82.7813 271.06 83.384C270.751 83.9867 270.324 84.4427 269.78 84.752C269.236 85.0613 268.612 85.216 267.908 85.216ZM270.812 85V82.872H270.692V76.36H271.868V85H270.812ZM277.328 85.232C276.315 85.232 275.48 85.0133 274.824 84.576C274.174 84.1387 273.774 83.5307 273.624 82.752L274.824 82.552C274.952 83.0427 275.243 83.4347 275.696 83.728C276.155 84.016 276.72 84.16 277.392 84.16C278.048 84.16 278.566 84.024 278.944 83.752C279.323 83.4747 279.512 83.0987 279.512 82.624C279.512 82.3573 279.451 82.1413 279.328 81.976C279.211 81.8053 278.968 81.648 278.6 81.504C278.232 81.36 277.683 81.1893 276.952 80.992C276.168 80.7787 275.555 80.5653 275.112 80.352C274.67 80.1387 274.355 79.8933 274.168 79.616C273.982 79.3333 273.888 78.9893 273.888 78.584C273.888 78.0933 274.027 77.664 274.304 77.296C274.582 76.9227 274.966 76.6347 275.456 76.432C275.947 76.224 276.518 76.12 277.168 76.12C277.819 76.12 278.4 76.2267 278.912 76.44C279.43 76.648 279.846 76.9413 280.16 77.32C280.475 77.6987 280.662 78.1387 280.72 78.64L279.52 78.856C279.44 78.3493 279.187 77.9493 278.76 77.656C278.339 77.3573 277.803 77.2027 277.152 77.192C276.539 77.176 276.04 77.2933 275.656 77.544C275.272 77.7893 275.08 78.1173 275.08 78.528C275.08 78.7573 275.15 78.9547 275.288 79.12C275.427 79.28 275.678 79.432 276.04 79.576C276.408 79.72 276.931 79.8773 277.608 80.048C278.403 80.2507 279.027 80.464 279.48 80.688C279.934 80.912 280.256 81.176 280.448 81.48C280.64 81.784 280.736 82.16 280.736 82.608C280.736 83.424 280.432 84.0667 279.824 84.536C279.222 85 278.39 85.232 277.328 85.232ZM285.874 74.72V73.4H287.05V74.72H285.874ZM285.874 85V76.36H287.05V85H285.874ZM292.8 85.24C291.995 85.24 291.307 85.04 290.736 84.64C290.165 84.2347 289.728 83.688 289.424 83C289.12 82.312 288.968 81.536 288.968 80.672C288.968 79.8133 289.117 79.04 289.416 78.352C289.72 77.664 290.155 77.12 290.72 76.72C291.285 76.32 291.963 76.12 292.752 76.12C293.563 76.12 294.245 76.3173 294.8 76.712C295.355 77.1067 295.773 77.648 296.056 78.336C296.344 79.0187 296.488 79.7973 296.488 80.672C296.488 81.5307 296.347 82.3067 296.064 83C295.781 83.688 295.365 84.2347 294.816 84.64C294.267 85.04 293.595 85.24 292.8 85.24ZM292.92 84.144C293.533 84.144 294.04 83.9947 294.44 83.696C294.84 83.3973 295.139 82.9867 295.336 82.464C295.533 81.936 295.632 81.3387 295.632 80.672C295.632 79.9947 295.533 79.3973 295.336 78.88C295.139 78.3573 294.84 77.9493 294.44 77.656C294.045 77.3627 293.547 77.216 292.944 77.216C292.325 77.216 291.813 77.368 291.408 77.672C291.003 77.976 290.701 78.3893 290.504 78.912C290.312 79.4347 290.216 80.0213 290.216 80.672C290.216 81.328 290.315 81.92 290.512 82.448C290.715 82.9707 291.016 83.384 291.416 83.688C291.816 83.992 292.317 84.144 292.92 84.144ZM295.632 85V78.496H295.504V73.48H296.688V85H295.632ZM299.157 85V83.632H300.525V85H299.157ZM310.198 85.24C309.393 85.24 308.667 85.1067 308.022 84.84C307.382 84.568 306.851 84.184 306.43 83.688C306.014 83.192 305.742 82.6027 305.614 81.92L306.814 81.72C307.006 82.4667 307.411 83.0533 308.03 83.48C308.649 83.9013 309.387 84.112 310.246 84.112C310.811 84.112 311.318 84.024 311.766 83.848C312.214 83.6667 312.566 83.4107 312.822 83.08C313.078 82.7493 313.206 82.3573 313.206 81.904C313.206 81.6053 313.153 81.352 313.046 81.144C312.939 80.9307 312.798 80.7547 312.622 80.616C312.446 80.4773 312.254 80.3627 312.046 80.272C311.838 80.176 311.635 80.0987 311.438 80.04L308.518 79.168C308.166 79.0667 307.841 78.9387 307.542 78.784C307.243 78.624 306.982 78.4347 306.758 78.216C306.539 77.992 306.369 77.7307 306.246 77.432C306.123 77.1333 306.062 76.792 306.062 76.408C306.062 75.7573 306.233 75.1947 306.574 74.72C306.915 74.2453 307.382 73.88 307.974 73.624C308.566 73.368 309.241 73.2427 309.998 73.248C310.766 73.248 311.451 73.384 312.054 73.656C312.662 73.928 313.163 74.3173 313.558 74.824C313.953 75.3253 314.214 75.92 314.342 76.608L313.11 76.832C313.03 76.3307 312.846 75.896 312.558 75.528C312.27 75.16 311.902 74.8773 311.454 74.68C311.011 74.4773 310.523 74.3733 309.99 74.368C309.473 74.368 309.011 74.456 308.606 74.632C308.206 74.8027 307.889 75.0373 307.654 75.336C307.419 75.6347 307.302 75.976 307.302 76.36C307.302 76.7493 307.409 77.0613 307.622 77.296C307.841 77.5307 308.107 77.7147 308.422 77.848C308.742 77.9813 309.051 78.0907 309.35 78.176L311.606 78.84C311.841 78.904 312.115 78.9973 312.43 79.12C312.75 79.2373 313.059 79.408 313.358 79.632C313.662 79.8507 313.913 80.1387 314.11 80.496C314.307 80.8533 314.406 81.3067 314.406 81.856C314.406 82.3893 314.299 82.8667 314.086 83.288C313.878 83.7093 313.582 84.064 313.198 84.352C312.819 84.64 312.374 84.8587 311.862 85.008C311.355 85.1627 310.801 85.24 310.198 85.24ZM316.218 74.72V73.4H317.394V74.72H316.218ZM316.218 85V76.36H317.394V85H316.218ZM324.496 85C324.011 85.1013 323.531 85.1413 323.056 85.12C322.587 85.0987 322.165 84.9973 321.792 84.816C321.424 84.6347 321.144 84.352 320.952 83.968C320.797 83.648 320.712 83.3253 320.696 83C320.685 82.6693 320.68 82.2933 320.68 81.872V73.96H321.848V81.824C321.848 82.1867 321.851 82.4907 321.856 82.736C321.867 82.976 321.923 83.1893 322.024 83.376C322.216 83.7333 322.52 83.9467 322.936 84.016C323.357 84.0853 323.877 84.0693 324.496 83.968V85ZM318.832 77.368V76.36H324.496V77.368H318.832ZM85.976 111V101.72C85.976 101.496 85.9867 101.275 86.008 101.056C86.0347 100.837 86.0853 100.629 86.16 100.432C86.2347 100.229 86.352 100.043 86.512 99.872C86.688 99.68 86.88 99.5413 87.088 99.456C87.296 99.3653 87.512 99.3067 87.736 99.28C87.9653 99.2533 88.1893 99.24 88.408 99.24H89.512V100.232H88.488C88.04 100.232 87.704 100.341 87.48 100.56C87.2613 100.779 87.152 101.123 87.152 101.592V111H85.976ZM84.48 103.368V102.36H89.512V103.368H84.48ZM93.0295 111.24C92.3788 111.24 91.8322 111.123 91.3895 110.888C90.9522 110.653 90.6242 110.341 90.4055 109.952C90.1868 109.563 90.0775 109.139 90.0775 108.68C90.0775 108.211 90.1708 107.811 90.3575 107.48C90.5495 107.144 90.8082 106.869 91.1335 106.656C91.4642 106.443 91.8455 106.28 92.2775 106.168C92.7148 106.061 93.1975 105.968 93.7255 105.888C94.2588 105.803 94.7788 105.731 95.2855 105.672C95.7975 105.608 96.2455 105.547 96.6295 105.488L96.2135 105.744C96.2295 104.891 96.0642 104.259 95.7175 103.848C95.3708 103.437 94.7682 103.232 93.9095 103.232C93.3175 103.232 92.8162 103.365 92.4055 103.632C92.0002 103.899 91.7148 104.32 91.5495 104.896L90.4055 104.56C90.6028 103.787 91.0002 103.187 91.5975 102.76C92.1948 102.333 92.9708 102.12 93.9255 102.12C94.7148 102.12 95.3842 102.269 95.9335 102.568C96.4882 102.861 96.8802 103.288 97.1095 103.848C97.2162 104.099 97.2855 104.379 97.3175 104.688C97.3495 104.997 97.3655 105.312 97.3655 105.632V111H96.3175V108.832L96.6215 108.96C96.3282 109.701 95.8722 110.267 95.2535 110.656C94.6348 111.045 93.8935 111.24 93.0295 111.24ZM93.1655 110.224C93.7148 110.224 94.1948 110.125 94.6055 109.928C95.0162 109.731 95.3468 109.461 95.5975 109.12C95.8482 108.773 96.0108 108.384 96.0855 107.952C96.1495 107.675 96.1842 107.371 96.1895 107.04C96.1948 106.704 96.1975 106.453 96.1975 106.288L96.6455 106.52C96.2455 106.573 95.8108 106.627 95.3415 106.68C94.8775 106.733 94.4188 106.795 93.9655 106.864C93.5175 106.933 93.1122 107.016 92.7495 107.112C92.5042 107.181 92.2668 107.28 92.0375 107.408C91.8082 107.531 91.6188 107.696 91.4695 107.904C91.3255 108.112 91.2535 108.371 91.2535 108.68C91.2535 108.931 91.3148 109.173 91.4375 109.408C91.5655 109.643 91.7682 109.837 92.0455 109.992C92.3282 110.147 92.7015 110.224 93.1655 110.224ZM103.032 111.24C102.163 111.24 101.427 111.045 100.824 110.656C100.221 110.267 99.7628 109.731 99.4481 109.048C99.1388 108.36 98.9788 107.571 98.9681 106.68C98.9788 105.773 99.1441 104.979 99.4641 104.296C99.7841 103.608 100.245 103.075 100.848 102.696C101.451 102.312 102.181 102.12 103.04 102.12C103.915 102.12 104.675 102.333 105.32 102.76C105.971 103.187 106.416 103.771 106.656 104.512L105.504 104.88C105.301 104.363 104.979 103.963 104.536 103.68C104.099 103.392 103.597 103.248 103.032 103.248C102.397 103.248 101.872 103.395 101.456 103.688C101.04 103.976 100.731 104.379 100.528 104.896C100.325 105.413 100.221 106.008 100.216 106.68C100.227 107.715 100.467 108.547 100.936 109.176C101.405 109.8 102.104 110.112 103.032 110.112C103.619 110.112 104.117 109.979 104.528 109.712C104.944 109.44 105.259 109.045 105.472 108.528L106.656 108.88C106.336 109.648 105.867 110.235 105.248 110.64C104.629 111.04 103.891 111.24 103.032 111.24ZM108.233 100.72V99.4H109.409V100.72H108.233ZM108.233 111V102.36H109.409V111H108.233ZM111.968 111V99.24H113.144V111H111.968ZM115.702 100.72V99.4H116.878V100.72H115.702ZM115.702 111V102.36H116.878V111H115.702ZM122.5 111.232C121.487 111.232 120.652 111.013 119.996 110.576C119.346 110.139 118.946 109.531 118.796 108.752L119.996 108.552C120.124 109.043 120.415 109.435 120.868 109.728C121.327 110.016 121.892 110.16 122.564 110.16C123.22 110.16 123.738 110.024 124.116 109.752C124.495 109.475 124.684 109.099 124.684 108.624C124.684 108.357 124.623 108.141 124.5 107.976C124.383 107.805 124.14 107.648 123.772 107.504C123.404 107.36 122.855 107.189 122.124 106.992C121.34 106.779 120.727 106.565 120.284 106.352C119.842 106.139 119.527 105.893 119.34 105.616C119.154 105.333 119.06 104.989 119.06 104.584C119.06 104.093 119.199 103.664 119.476 103.296C119.754 102.923 120.138 102.635 120.628 102.432C121.119 102.224 121.69 102.12 122.34 102.12C122.991 102.12 123.572 102.227 124.084 102.44C124.602 102.648 125.018 102.941 125.332 103.32C125.647 103.699 125.834 104.139 125.892 104.64L124.692 104.856C124.612 104.349 124.359 103.949 123.932 103.656C123.511 103.357 122.975 103.203 122.324 103.192C121.711 103.176 121.212 103.293 120.828 103.544C120.444 103.789 120.252 104.117 120.252 104.528C120.252 104.757 120.322 104.955 120.46 105.12C120.599 105.28 120.85 105.432 121.212 105.576C121.58 105.72 122.103 105.877 122.78 106.048C123.575 106.251 124.199 106.464 124.652 106.688C125.106 106.912 125.428 107.176 125.62 107.48C125.812 107.784 125.908 108.16 125.908 108.608C125.908 109.424 125.604 110.067 124.996 110.536C124.394 111 123.562 111.232 122.5 111.232ZM127.843 100.72V99.4H129.019V100.72H127.843ZM127.843 111V102.36H129.019V111H127.843ZM134.641 111.232C133.628 111.232 132.793 111.013 132.137 110.576C131.486 110.139 131.086 109.531 130.937 108.752L132.137 108.552C132.265 109.043 132.556 109.435 133.009 109.728C133.468 110.016 134.033 110.16 134.705 110.16C135.361 110.16 135.878 110.024 136.257 109.752C136.636 109.475 136.825 109.099 136.825 108.624C136.825 108.357 136.764 108.141 136.641 107.976C136.524 107.805 136.281 107.648 135.913 107.504C135.545 107.36 134.996 107.189 134.265 106.992C133.481 106.779 132.868 106.565 132.425 106.352C131.982 106.139 131.668 105.893 131.481 105.616C131.294 105.333 131.201 104.989 131.201 104.584C131.201 104.093 131.34 103.664 131.617 103.296C131.894 102.923 132.278 102.635 132.769 102.432C133.26 102.224 133.83 102.12 134.481 102.12C135.132 102.12 135.713 102.227 136.225 102.44C136.742 102.648 137.158 102.941 137.473 103.32C137.788 103.699 137.974 104.139 138.033 104.64L136.833 104.856C136.753 104.349 136.5 103.949 136.073 103.656C135.652 103.357 135.116 103.203 134.465 103.192C133.852 103.176 133.353 103.293 132.969 103.544C132.585 103.789 132.393 104.117 132.393 104.528C132.393 104.757 132.462 104.955 132.601 105.12C132.74 105.28 132.99 105.432 133.353 105.576C133.721 105.72 134.244 105.877 134.921 106.048C135.716 106.251 136.34 106.464 136.793 106.688C137.246 106.912 137.569 107.176 137.761 107.48C137.953 107.784 138.049 108.16 138.049 108.608C138.049 109.424 137.745 110.067 137.137 110.536C136.534 111 135.702 111.232 134.641 111.232ZM146.378 111.24C145.573 111.24 144.885 111.04 144.314 110.64C143.744 110.235 143.306 109.688 143.002 109C142.698 108.312 142.546 107.536 142.546 106.672C142.546 105.813 142.696 105.04 142.994 104.352C143.298 103.664 143.733 103.12 144.298 102.72C144.864 102.32 145.541 102.12 146.33 102.12C147.141 102.12 147.824 102.317 148.378 102.712C148.933 103.107 149.352 103.648 149.634 104.336C149.922 105.019 150.066 105.797 150.066 106.672C150.066 107.531 149.925 108.307 149.642 109C149.36 109.688 148.944 110.235 148.394 110.64C147.845 111.04 147.173 111.24 146.378 111.24ZM146.498 110.144C147.112 110.144 147.618 109.995 148.018 109.696C148.418 109.397 148.717 108.987 148.914 108.464C149.112 107.936 149.21 107.339 149.21 106.672C149.21 105.995 149.112 105.397 148.914 104.88C148.717 104.357 148.418 103.949 148.018 103.656C147.624 103.363 147.125 103.216 146.522 103.216C145.904 103.216 145.392 103.368 144.986 103.672C144.581 103.976 144.28 104.389 144.082 104.912C143.89 105.435 143.794 106.021 143.794 106.672C143.794 107.328 143.893 107.92 144.09 108.448C144.293 108.971 144.594 109.384 144.994 109.688C145.394 109.992 145.896 110.144 146.498 110.144ZM149.21 111V104.496H149.082V99.48H150.266V111H149.21ZM156.119 111.24C155.26 111.24 154.527 111.045 153.919 110.656C153.311 110.267 152.844 109.728 152.519 109.04C152.193 108.352 152.031 107.563 152.031 106.672C152.031 105.765 152.196 104.971 152.527 104.288C152.857 103.605 153.327 103.075 153.935 102.696C154.548 102.312 155.276 102.12 156.119 102.12C156.983 102.12 157.719 102.315 158.327 102.704C158.94 103.088 159.407 103.624 159.727 104.312C160.052 104.995 160.215 105.781 160.215 106.672C160.215 107.579 160.052 108.376 159.727 109.064C159.401 109.747 158.932 110.28 158.319 110.664C157.705 111.048 156.972 111.24 156.119 111.24ZM156.119 110.112C157.079 110.112 157.793 109.795 158.263 109.16C158.732 108.52 158.967 107.691 158.967 106.672C158.967 105.627 158.729 104.795 158.255 104.176C157.785 103.557 157.073 103.248 156.119 103.248C155.473 103.248 154.94 103.395 154.519 103.688C154.103 103.976 153.791 104.379 153.583 104.896C153.38 105.408 153.279 106 153.279 106.672C153.279 107.712 153.519 108.547 153.999 109.176C154.479 109.8 155.185 110.112 156.119 110.112ZM162.139 111V99.24H163.315V111H162.139ZM169.322 111.24C168.463 111.24 167.73 111.045 167.122 110.656C166.514 110.267 166.047 109.728 165.722 109.04C165.396 108.352 165.234 107.563 165.234 106.672C165.234 105.765 165.399 104.971 165.73 104.288C166.06 103.605 166.53 103.075 167.138 102.696C167.751 102.312 168.479 102.12 169.322 102.12C170.186 102.12 170.922 102.315 171.53 102.704C172.143 103.088 172.61 103.624 172.93 104.312C173.255 104.995 173.418 105.781 173.418 106.672C173.418 107.579 173.255 108.376 172.93 109.064C172.604 109.747 172.135 110.28 171.522 110.664C170.908 111.048 170.175 111.24 169.322 111.24ZM169.322 110.112C170.282 110.112 170.996 109.795 171.466 109.16C171.935 108.52 172.17 107.691 172.17 106.672C172.17 105.627 171.932 104.795 171.458 104.176C170.988 103.557 170.276 103.248 169.322 103.248C168.676 103.248 168.143 103.395 167.722 103.688C167.306 103.976 166.994 104.379 166.786 104.896C166.583 105.408 166.482 106 166.482 106.672C166.482 107.712 166.722 108.547 167.202 109.176C167.682 109.8 168.388 110.112 169.322 110.112ZM175.183 111V102.36H176.239V104.44L176.031 104.168C176.127 103.912 176.252 103.677 176.407 103.464C176.561 103.245 176.729 103.067 176.911 102.928C177.135 102.731 177.396 102.581 177.695 102.48C177.993 102.373 178.295 102.312 178.599 102.296C178.903 102.275 179.18 102.296 179.431 102.36V103.464C179.116 103.384 178.772 103.365 178.399 103.408C178.025 103.451 177.681 103.6 177.367 103.856C177.079 104.08 176.863 104.349 176.719 104.664C176.575 104.973 176.479 105.304 176.431 105.656C176.383 106.003 176.359 106.347 176.359 106.688V111H175.183ZM186.623 111.24C185.973 111.24 185.426 111.123 184.983 110.888C184.546 110.653 184.218 110.341 183.999 109.952C183.781 109.563 183.671 109.139 183.671 108.68C183.671 108.211 183.765 107.811 183.951 107.48C184.143 107.144 184.402 106.869 184.727 106.656C185.058 106.443 185.439 106.28 185.871 106.168C186.309 106.061 186.791 105.968 187.319 105.888C187.853 105.803 188.373 105.731 188.879 105.672C189.391 105.608 189.839 105.547 190.223 105.488L189.807 105.744C189.823 104.891 189.658 104.259 189.311 103.848C188.965 103.437 188.362 103.232 187.503 103.232C186.911 103.232 186.41 103.365 185.999 103.632C185.594 103.899 185.309 104.32 185.143 104.896L183.999 104.56C184.197 103.787 184.594 103.187 185.191 102.76C185.789 102.333 186.565 102.12 187.519 102.12C188.309 102.12 188.978 102.269 189.527 102.568C190.082 102.861 190.474 103.288 190.703 103.848C190.81 104.099 190.879 104.379 190.911 104.688C190.943 104.997 190.959 105.312 190.959 105.632V111H189.911V108.832L190.215 108.96C189.922 109.701 189.466 110.267 188.847 110.656C188.229 111.045 187.487 111.24 186.623 111.24ZM186.759 110.224C187.309 110.224 187.789 110.125 188.199 109.928C188.61 109.731 188.941 109.461 189.191 109.12C189.442 108.773 189.605 108.384 189.679 107.952C189.743 107.675 189.778 107.371 189.783 107.04C189.789 106.704 189.791 106.453 189.791 106.288L190.239 106.52C189.839 106.573 189.405 106.627 188.935 106.68C188.471 106.733 188.013 106.795 187.559 106.864C187.111 106.933 186.706 107.016 186.343 107.112C186.098 107.181 185.861 107.28 185.631 107.408C185.402 107.531 185.213 107.696 185.063 107.904C184.919 108.112 184.847 108.371 184.847 108.68C184.847 108.931 184.909 109.173 185.031 109.408C185.159 109.643 185.362 109.837 185.639 109.992C185.922 110.147 186.295 110.224 186.759 110.224ZM193.042 111V102.36H194.098V104.44L193.89 104.168C193.986 103.912 194.111 103.677 194.266 103.464C194.421 103.245 194.589 103.067 194.77 102.928C194.994 102.731 195.255 102.581 195.554 102.48C195.853 102.373 196.154 102.312 196.458 102.296C196.762 102.275 197.039 102.296 197.29 102.36V103.464C196.975 103.384 196.631 103.365 196.258 103.408C195.885 103.451 195.541 103.6 195.226 103.856C194.938 104.08 194.722 104.349 194.578 104.664C194.434 104.973 194.338 105.304 194.29 105.656C194.242 106.003 194.218 106.347 194.218 106.688V111H193.042ZM202.235 111.24C201.366 111.24 200.63 111.045 200.027 110.656C199.425 110.267 198.966 109.731 198.651 109.048C198.342 108.36 198.182 107.571 198.171 106.68C198.182 105.773 198.347 104.979 198.667 104.296C198.987 103.608 199.449 103.075 200.051 102.696C200.654 102.312 201.385 102.12 202.243 102.12C203.118 102.12 203.878 102.333 204.523 102.76C205.174 103.187 205.619 103.771 205.859 104.512L204.707 104.88C204.505 104.363 204.182 103.963 203.739 103.68C203.302 103.392 202.801 103.248 202.235 103.248C201.601 103.248 201.075 103.395 200.659 103.688C200.243 103.976 199.934 104.379 199.731 104.896C199.529 105.413 199.425 106.008 199.419 106.68C199.43 107.715 199.67 108.547 200.139 109.176C200.609 109.8 201.307 110.112 202.235 110.112C202.822 110.112 203.321 109.979 203.731 109.712C204.147 109.44 204.462 109.045 204.675 108.528L205.859 108.88C205.539 109.648 205.07 110.235 204.451 110.64C203.833 111.04 203.094 111.24 202.235 111.24ZM210.815 111.216C210.297 111.216 209.844 111.136 209.455 110.976C209.071 110.816 208.743 110.6 208.471 110.328C208.204 110.056 207.988 109.747 207.823 109.4C207.657 109.048 207.537 108.677 207.463 108.288C207.388 107.893 207.351 107.501 207.351 107.112V102.36H208.535V106.768C208.535 107.243 208.58 107.683 208.671 108.088C208.761 108.493 208.905 108.848 209.103 109.152C209.305 109.451 209.564 109.683 209.879 109.848C210.199 110.013 210.585 110.096 211.039 110.096C211.455 110.096 211.82 110.024 212.135 109.88C212.455 109.736 212.721 109.531 212.935 109.264C213.153 108.992 213.319 108.664 213.431 108.28C213.543 107.891 213.599 107.453 213.599 106.968L214.431 107.152C214.431 108.037 214.276 108.781 213.967 109.384C213.657 109.987 213.231 110.443 212.687 110.752C212.143 111.061 211.519 111.216 210.815 111.216ZM213.719 111V108.872H213.599V102.36H214.775V111H213.719ZM217.235 111V109.632H218.603V111H217.235Z" fill="white"/>
<defs>
<linearGradient id="paint0_linear_20005128_7778" x1="16" y1="30.067" x2="44" y2="30.067" gradientUnits="userSpaceOnUse">
<stop stop-color="#6366F1"/>
<stop offset="0.5" stop-color="#8B5CF6"/>
<stop offset="1" stop-color="#D946EF"/>
</linearGradient>
<clipPath id="clip0_20005128_7778">
<rect width="28" height="28" fill="white" transform="translate(16 16)"/>
</clipPath>
</defs>
</svg>
