<svg width="345" height="118" viewBox="0 0 345 118" fill="none" xmlns="http://www.w3.org/2000/svg">
<rect width="60" height="60" rx="8" fill="#6366F1" fill-opacity="0.08"/>
<path d="M38.5312 32.4129C39.1354 32.4129 39.625 32.9025 39.625 33.5066V34.8191C39.625 35.4232 39.1354 35.9129 38.5312 35.9129H36.0156C35.4115 35.9129 34.9219 35.4232 34.9219 34.8191V33.5066C34.9219 32.9025 35.4115 32.4129 36.0156 32.4129H38.5312ZM41.8125 30.4441V27.1629H18.1875V35.9062C18.1875 37.1124 19.1689 38.0938 20.375 38.0938H39.625C40.8311 38.0938 41.8125 37.1124 41.8125 35.9062C41.8125 35.3021 42.3021 34.8125 42.9062 34.8125C43.5104 34.8125 44 35.3021 44 35.9062C44 38.3187 42.0374 40.2812 39.625 40.2812H20.375C17.9626 40.2812 16 38.3187 16 35.9062V24.0938C16 21.6813 17.9626 19.7188 20.375 19.7188H39.625C42.0374 19.7188 44 21.6813 44 24.0938V30.4441C44 31.0482 43.5104 31.5379 42.9062 31.5379C42.3021 31.5379 41.8125 31.0482 41.8125 30.4441ZM41.8125 24.9754V24.0938C41.8125 22.8876 40.8311 21.9062 39.625 21.9062H20.375C19.1689 21.9062 18.1875 22.8876 18.1875 24.0938V24.9754H41.8125ZM21.4688 29.3504C20.8646 29.3504 20.375 29.84 20.375 30.4441C20.375 31.0482 20.8646 31.5379 21.4688 31.5379H30.4922C31.0963 31.5379 31.5859 31.0482 31.5859 30.4441C31.5859 29.84 31.0963 29.3504 30.4922 29.3504H21.4688Z" fill="url(#paint0_linear_20005128_7815)"/>
<path d="M85.4 22V7.6H94.8V10.14H88.12V13.22H93.6V15.76H88.12V19.46H94.8V22H85.4ZM100.197 22.3C99.4235 22.3 98.7669 22.1533 98.2269 21.86C97.6935 21.56 97.2869 21.1633 97.0069 20.67C96.7335 20.17 96.5969 19.62 96.5969 19.02C96.5969 18.52 96.6735 18.0633 96.8269 17.65C96.9802 17.2367 97.2269 16.8733 97.5669 16.56C97.9135 16.24 98.3769 15.9733 98.9569 15.76C99.3569 15.6133 99.8335 15.4833 100.387 15.37C100.94 15.2567 101.567 15.15 102.267 15.05C102.967 14.9433 103.737 14.8267 104.577 14.7L103.597 15.24C103.597 14.6 103.444 14.13 103.137 13.83C102.83 13.53 102.317 13.38 101.597 13.38C101.197 13.38 100.78 13.4767 100.347 13.67C99.9135 13.8633 99.6102 14.2067 99.4369 14.7L96.9769 13.92C97.2502 13.0267 97.7635 12.3 98.5169 11.74C99.2702 11.18 100.297 10.9 101.597 10.9C102.55 10.9 103.397 11.0467 104.137 11.34C104.877 11.6333 105.437 12.14 105.817 12.86C106.03 13.26 106.157 13.66 106.197 14.06C106.237 14.46 106.257 14.9067 106.257 15.4V22H103.877V19.78L104.217 20.24C103.69 20.9667 103.12 21.4933 102.507 21.82C101.9 22.14 101.13 22.3 100.197 22.3ZM100.777 20.16C101.277 20.16 101.697 20.0733 102.037 19.9C102.384 19.72 102.657 19.5167 102.857 19.29C103.064 19.0633 103.204 18.8733 103.277 18.72C103.417 18.4267 103.497 18.0867 103.517 17.7C103.544 17.3067 103.557 16.98 103.557 16.72L104.357 16.92C103.55 17.0533 102.897 17.1667 102.397 17.26C101.897 17.3467 101.494 17.4267 101.187 17.5C100.88 17.5733 100.61 17.6533 100.377 17.74C100.11 17.8467 99.8935 17.9633 99.7269 18.09C99.5669 18.21 99.4469 18.3433 99.3669 18.49C99.2935 18.6367 99.2569 18.8 99.2569 18.98C99.2569 19.2267 99.3169 19.44 99.4369 19.62C99.5635 19.7933 99.7402 19.9267 99.9669 20.02C100.194 20.1133 100.464 20.16 100.777 20.16ZM113.077 22.3C111.717 22.3 110.617 21.9933 109.777 21.38C108.944 20.76 108.437 19.8867 108.257 18.76L111.037 18.34C111.15 18.8467 111.4 19.2433 111.787 19.53C112.18 19.8167 112.677 19.96 113.277 19.96C113.77 19.96 114.15 19.8667 114.417 19.68C114.684 19.4867 114.817 19.22 114.817 18.88C114.817 18.6667 114.764 18.4967 114.657 18.37C114.55 18.2367 114.31 18.1067 113.937 17.98C113.57 17.8533 112.997 17.6867 112.217 17.48C111.337 17.2533 110.634 17 110.107 16.72C109.58 16.44 109.2 16.1067 108.967 15.72C108.734 15.3267 108.617 14.8533 108.617 14.3C108.617 13.6067 108.794 13.0067 109.147 12.5C109.5 11.9867 109.997 11.5933 110.637 11.32C111.284 11.04 112.044 10.9 112.917 10.9C113.764 10.9 114.514 11.03 115.167 11.29C115.82 11.55 116.347 11.92 116.747 12.4C117.154 12.88 117.404 13.4467 117.497 14.1L114.717 14.6C114.67 14.2 114.497 13.8833 114.197 13.65C113.897 13.4167 113.49 13.28 112.977 13.24C112.477 13.2067 112.074 13.2733 111.767 13.44C111.467 13.6067 111.317 13.8467 111.317 14.16C111.317 14.3467 111.38 14.5033 111.507 14.63C111.64 14.7567 111.91 14.8867 112.317 15.02C112.73 15.1533 113.357 15.3267 114.197 15.54C115.017 15.7533 115.674 16.0033 116.167 16.29C116.667 16.57 117.03 16.91 117.257 17.31C117.484 17.7033 117.597 18.18 117.597 18.74C117.597 19.8467 117.197 20.7167 116.397 21.35C115.597 21.9833 114.49 22.3 113.077 22.3ZM120.784 26.8L122.864 21.08L122.904 22.76L118.204 11.2H121.024L124.184 19.38H123.544L126.684 11.2H129.404L123.304 26.8H120.784ZM134.814 22V7.6H140.894C141.034 7.6 141.221 7.60667 141.454 7.62C141.694 7.62667 141.907 7.64667 142.094 7.68C142.954 7.81333 143.657 8.09667 144.204 8.53C144.757 8.96333 145.164 9.51 145.424 10.17C145.684 10.8233 145.814 11.5533 145.814 12.36C145.814 13.1667 145.681 13.9 145.414 14.56C145.154 15.2133 144.747 15.7567 144.194 16.19C143.647 16.6233 142.947 16.9067 142.094 17.04C141.907 17.0667 141.694 17.0867 141.454 17.1C141.214 17.1133 141.027 17.12 140.894 17.12H137.534V22H134.814ZM137.534 14.58H140.774C140.914 14.58 141.067 14.5733 141.234 14.56C141.401 14.5467 141.554 14.52 141.694 14.48C142.061 14.38 142.344 14.2133 142.544 13.98C142.744 13.74 142.881 13.4767 142.954 13.19C143.034 12.8967 143.074 12.62 143.074 12.36C143.074 12.1 143.034 11.8267 142.954 11.54C142.881 11.2467 142.744 10.9833 142.544 10.75C142.344 10.51 142.061 10.34 141.694 10.24C141.554 10.2 141.401 10.1733 141.234 10.16C141.067 10.1467 140.914 10.14 140.774 10.14H137.534V14.58ZM150.607 22.3C149.834 22.3 149.177 22.1533 148.637 21.86C148.104 21.56 147.697 21.1633 147.417 20.67C147.144 20.17 147.007 19.62 147.007 19.02C147.007 18.52 147.084 18.0633 147.237 17.65C147.39 17.2367 147.637 16.8733 147.977 16.56C148.324 16.24 148.787 15.9733 149.367 15.76C149.767 15.6133 150.244 15.4833 150.797 15.37C151.35 15.2567 151.977 15.15 152.677 15.05C153.377 14.9433 154.147 14.8267 154.987 14.7L154.007 15.24C154.007 14.6 153.854 14.13 153.547 13.83C153.24 13.53 152.727 13.38 152.007 13.38C151.607 13.38 151.19 13.4767 150.757 13.67C150.324 13.8633 150.02 14.2067 149.847 14.7L147.387 13.92C147.66 13.0267 148.174 12.3 148.927 11.74C149.68 11.18 150.707 10.9 152.007 10.9C152.96 10.9 153.807 11.0467 154.547 11.34C155.287 11.6333 155.847 12.14 156.227 12.86C156.44 13.26 156.567 13.66 156.607 14.06C156.647 14.46 156.667 14.9067 156.667 15.4V22H154.287V19.78L154.627 20.24C154.1 20.9667 153.53 21.4933 152.917 21.82C152.31 22.14 151.54 22.3 150.607 22.3ZM151.187 20.16C151.687 20.16 152.107 20.0733 152.447 19.9C152.794 19.72 153.067 19.5167 153.267 19.29C153.474 19.0633 153.614 18.8733 153.687 18.72C153.827 18.4267 153.907 18.0867 153.927 17.7C153.954 17.3067 153.967 16.98 153.967 16.72L154.767 16.92C153.96 17.0533 153.307 17.1667 152.807 17.26C152.307 17.3467 151.904 17.4267 151.597 17.5C151.29 17.5733 151.02 17.6533 150.787 17.74C150.52 17.8467 150.304 17.9633 150.137 18.09C149.977 18.21 149.857 18.3433 149.777 18.49C149.704 18.6367 149.667 18.8 149.667 18.98C149.667 19.2267 149.727 19.44 149.847 19.62C149.974 19.7933 150.15 19.9267 150.377 20.02C150.604 20.1133 150.874 20.16 151.187 20.16ZM160.042 26.8L162.122 21.08L162.162 22.76L157.462 11.2H160.282L163.442 19.38H162.802L165.942 11.2H168.662L162.562 26.8H160.042ZM183.068 22V15.62C183.068 14.9067 182.898 14.3533 182.558 13.96C182.225 13.56 181.761 13.36 181.168 13.36C180.788 13.36 180.458 13.45 180.178 13.63C179.898 13.8033 179.678 14.05 179.518 14.37C179.365 14.6833 179.288 15.0467 179.288 15.46L178.148 14.7C178.148 13.96 178.321 13.3067 178.668 12.74C179.021 12.1733 179.491 11.7333 180.078 11.42C180.671 11.1 181.328 10.94 182.048 10.94C183.281 10.94 184.211 11.3067 184.838 12.04C185.471 12.7667 185.788 13.72 185.788 14.9V22H183.068ZM170.048 22V11.2H172.448V14.78H172.788V22H170.048ZM176.568 22V15.62C176.568 14.9067 176.398 14.3533 176.058 13.96C175.725 13.56 175.261 13.36 174.668 13.36C174.101 13.36 173.645 13.5567 173.298 13.95C172.958 14.3367 172.788 14.84 172.788 15.46L171.648 14.66C171.648 13.9533 171.825 13.32 172.178 12.76C172.531 12.2 173.005 11.7567 173.598 11.43C174.198 11.1033 174.868 10.94 175.608 10.94C176.455 10.94 177.148 11.12 177.688 11.48C178.235 11.84 178.638 12.32 178.898 12.92C179.158 13.52 179.288 14.18 179.288 14.9V22H176.568ZM193.213 22.3C192.106 22.3 191.13 22.0633 190.283 21.59C189.443 21.11 188.783 20.4533 188.303 19.62C187.83 18.78 187.593 17.82 187.593 16.74C187.593 15.56 187.826 14.5333 188.293 13.66C188.76 12.7867 189.403 12.11 190.223 11.63C191.043 11.1433 191.986 10.9 193.053 10.9C194.186 10.9 195.15 11.1667 195.943 11.7C196.736 12.2333 197.323 12.9833 197.703 13.95C198.083 14.9167 198.216 16.0533 198.103 17.36H195.413V16.36C195.413 15.26 195.236 14.47 194.883 13.99C194.536 13.5033 193.966 13.26 193.173 13.26C192.246 13.26 191.563 13.5433 191.123 14.11C190.69 14.67 190.473 15.5 190.473 16.6C190.473 17.6067 190.69 18.3867 191.123 18.94C191.563 19.4867 192.206 19.76 193.053 19.76C193.586 19.76 194.043 19.6433 194.423 19.41C194.803 19.1767 195.093 18.84 195.293 18.4L198.013 19.18C197.606 20.1667 196.963 20.9333 196.083 21.48C195.21 22.0267 194.253 22.3 193.213 22.3ZM189.633 17.36V15.34H196.793V17.36H189.633ZM207.428 22V16.9C207.428 16.6533 207.415 16.34 207.388 15.96C207.361 15.5733 207.278 15.1867 207.138 14.8C206.998 14.4133 206.768 14.09 206.448 13.83C206.135 13.57 205.688 13.44 205.108 13.44C204.875 13.44 204.625 13.4767 204.358 13.55C204.091 13.6233 203.841 13.7667 203.608 13.98C203.375 14.1867 203.181 14.4933 203.028 14.9C202.881 15.3067 202.808 15.8467 202.808 16.52L201.248 15.78C201.248 14.9267 201.421 14.1267 201.768 13.38C202.115 12.6333 202.635 12.03 203.328 11.57C204.028 11.11 204.908 10.88 205.968 10.88C206.815 10.88 207.505 11.0233 208.038 11.31C208.571 11.5967 208.985 11.96 209.278 12.4C209.578 12.84 209.791 13.3 209.918 13.78C210.045 14.2533 210.121 14.6867 210.148 15.08C210.175 15.4733 210.188 15.76 210.188 15.94V22H207.428ZM200.048 22V11.2H202.468V14.78H202.808V22H200.048ZM219.263 22C218.516 22.14 217.783 22.2 217.063 22.18C216.349 22.1667 215.709 22.0433 215.143 21.81C214.583 21.57 214.156 21.1867 213.863 20.66C213.596 20.1667 213.456 19.6667 213.443 19.16C213.429 18.6467 213.423 18.0667 213.423 17.42V8.2H216.143V17.26C216.143 17.68 216.146 18.06 216.153 18.4C216.166 18.7333 216.236 19 216.363 19.2C216.603 19.58 216.986 19.7867 217.513 19.82C218.039 19.8533 218.623 19.8267 219.263 19.74V22ZM211.583 13.3V11.2H219.263V13.3H211.583ZM225.89 22.3C224.53 22.3 223.43 21.9933 222.59 21.38C221.756 20.76 221.25 19.8867 221.07 18.76L223.85 18.34C223.963 18.8467 224.213 19.2433 224.6 19.53C224.993 19.8167 225.49 19.96 226.09 19.96C226.583 19.96 226.963 19.8667 227.23 19.68C227.496 19.4867 227.63 19.22 227.63 18.88C227.63 18.6667 227.576 18.4967 227.47 18.37C227.363 18.2367 227.123 18.1067 226.75 17.98C226.383 17.8533 225.81 17.6867 225.03 17.48C224.15 17.2533 223.446 17 222.92 16.72C222.393 16.44 222.013 16.1067 221.78 15.72C221.546 15.3267 221.43 14.8533 221.43 14.3C221.43 13.6067 221.606 13.0067 221.96 12.5C222.313 11.9867 222.81 11.5933 223.45 11.32C224.096 11.04 224.856 10.9 225.73 10.9C226.576 10.9 227.326 11.03 227.98 11.29C228.633 11.55 229.16 11.92 229.56 12.4C229.966 12.88 230.216 13.4467 230.31 14.1L227.53 14.6C227.483 14.2 227.31 13.8833 227.01 13.65C226.71 13.4167 226.303 13.28 225.79 13.24C225.29 13.2067 224.886 13.2733 224.58 13.44C224.28 13.6067 224.13 13.8467 224.13 14.16C224.13 14.3467 224.193 14.5033 224.32 14.63C224.453 14.7567 224.723 14.8867 225.13 15.02C225.543 15.1533 226.17 15.3267 227.01 15.54C227.83 15.7533 228.486 16.0033 228.98 16.29C229.48 16.57 229.843 16.91 230.07 17.31C230.296 17.7033 230.41 18.18 230.41 18.74C230.41 19.8467 230.01 20.7167 229.21 21.35C228.41 21.9833 227.303 22.3 225.89 22.3Z" fill="white"/>
<path opacity="0.7" d="M85.28 59V47.48H86.456V59H85.28ZM92.2064 59.24C91.401 59.24 90.713 59.04 90.1424 58.64C89.5717 58.2347 89.1344 57.688 88.8304 57C88.5264 56.312 88.3744 55.536 88.3744 54.672C88.3744 53.8133 88.5237 53.04 88.8224 52.352C89.1264 51.664 89.561 51.12 90.1264 50.72C90.6917 50.32 91.369 50.12 92.1584 50.12C92.969 50.12 93.6517 50.3173 94.2064 50.712C94.761 51.1067 95.1797 51.648 95.4624 52.336C95.7504 53.0187 95.8944 53.7973 95.8944 54.672C95.8944 55.5307 95.753 56.3067 95.4704 57C95.1877 57.688 94.7717 58.2347 94.2224 58.64C93.673 59.04 93.001 59.24 92.2064 59.24ZM92.3264 58.144C92.9397 58.144 93.4464 57.9947 93.8464 57.696C94.2464 57.3973 94.545 56.9867 94.7424 56.464C94.9397 55.936 95.0384 55.3387 95.0384 54.672C95.0384 53.9947 94.9397 53.3973 94.7424 52.88C94.545 52.3573 94.2464 51.9493 93.8464 51.656C93.4517 51.3627 92.953 51.216 92.3504 51.216C91.7317 51.216 91.2197 51.368 90.8144 51.672C90.409 51.976 90.1077 52.3893 89.9104 52.912C89.7184 53.4347 89.6224 54.0213 89.6224 54.672C89.6224 55.328 89.721 55.92 89.9184 56.448C90.121 56.9707 90.4224 57.384 90.8224 57.688C91.2224 57.992 91.7237 58.144 92.3264 58.144ZM95.0384 59V52.496H94.9104V47.48H96.0944V59H95.0384ZM111.846 59L111.854 53.328C111.854 52.6613 111.667 52.1387 111.294 51.76C110.926 51.376 110.457 51.184 109.886 51.184C109.561 51.184 109.243 51.2587 108.934 51.408C108.625 51.5573 108.369 51.7973 108.166 52.128C107.969 52.4587 107.87 52.8907 107.87 53.424L107.174 53.224C107.158 52.6053 107.278 52.064 107.534 51.6C107.795 51.136 108.153 50.776 108.606 50.52C109.065 50.2587 109.582 50.128 110.158 50.128C111.027 50.128 111.723 50.3973 112.246 50.936C112.769 51.4693 113.03 52.192 113.03 53.104L113.022 59H111.846ZM101.534 59V50.36H102.59V52.488H102.718V59H101.534ZM106.702 59L106.71 53.408C106.71 52.72 106.526 52.1787 106.158 51.784C105.795 51.384 105.315 51.184 104.718 51.184C104.121 51.184 103.638 51.3893 103.27 51.8C102.902 52.2053 102.718 52.7467 102.718 53.424L102.014 53.04C102.014 52.4853 102.145 51.9893 102.406 51.552C102.667 51.1093 103.025 50.7627 103.478 50.512C103.931 50.256 104.446 50.128 105.022 50.128C105.571 50.128 106.059 50.2453 106.486 50.48C106.918 50.7147 107.257 51.056 107.502 51.504C107.747 51.952 107.87 52.496 107.87 53.136L107.862 59H106.702ZM118.666 59.24C117.807 59.24 117.074 59.0453 116.466 58.656C115.858 58.2667 115.391 57.728 115.066 57.04C114.74 56.352 114.578 55.5627 114.578 54.672C114.578 53.7653 114.743 52.9707 115.074 52.288C115.404 51.6053 115.874 51.0747 116.482 50.696C117.095 50.312 117.823 50.12 118.666 50.12C119.53 50.12 120.266 50.3147 120.874 50.704C121.487 51.088 121.954 51.624 122.274 52.312C122.599 52.9947 122.762 53.7813 122.762 54.672C122.762 55.5787 122.599 56.376 122.274 57.064C121.948 57.7467 121.479 58.28 120.866 58.664C120.252 59.048 119.519 59.24 118.666 59.24ZM118.666 58.112C119.626 58.112 120.34 57.7947 120.81 57.16C121.279 56.52 121.514 55.6907 121.514 54.672C121.514 53.6267 121.276 52.7947 120.802 52.176C120.332 51.5573 119.62 51.248 118.666 51.248C118.02 51.248 117.487 51.3947 117.066 51.688C116.65 51.976 116.338 52.3787 116.13 52.896C115.927 53.408 115.826 54 115.826 54.672C115.826 55.712 116.066 56.5467 116.546 57.176C117.026 57.8 117.732 58.112 118.666 58.112ZM124.686 59V47.24H125.862V59H124.686ZM128.421 59V47.24H129.597V59H128.421ZM132.155 48.72V47.4H133.331V48.72H132.155ZM132.155 59V50.36H133.331V59H132.155ZM138.953 59.232C137.94 59.232 137.105 59.0133 136.449 58.576C135.799 58.1387 135.399 57.5307 135.249 56.752L136.449 56.552C136.577 57.0427 136.868 57.4347 137.321 57.728C137.78 58.016 138.345 58.16 139.017 58.16C139.673 58.16 140.191 58.024 140.569 57.752C140.948 57.4747 141.137 57.0987 141.137 56.624C141.137 56.3573 141.076 56.1413 140.953 55.976C140.836 55.8053 140.593 55.648 140.225 55.504C139.857 55.36 139.308 55.1893 138.577 54.992C137.793 54.7787 137.18 54.5653 136.737 54.352C136.295 54.1387 135.98 53.8933 135.793 53.616C135.607 53.3333 135.513 52.9893 135.513 52.584C135.513 52.0933 135.652 51.664 135.929 51.296C136.207 50.9227 136.591 50.6347 137.081 50.432C137.572 50.224 138.143 50.12 138.793 50.12C139.444 50.12 140.025 50.2267 140.537 50.44C141.055 50.648 141.471 50.9413 141.785 51.32C142.1 51.6987 142.287 52.1387 142.345 52.64L141.145 52.856C141.065 52.3493 140.812 51.9493 140.385 51.656C139.964 51.3573 139.428 51.2027 138.777 51.192C138.164 51.176 137.665 51.2933 137.281 51.544C136.897 51.7893 136.705 52.1173 136.705 52.528C136.705 52.7573 136.775 52.9547 136.913 53.12C137.052 53.28 137.303 53.432 137.665 53.576C138.033 53.72 138.556 53.8773 139.233 54.048C140.028 54.2507 140.652 54.464 141.105 54.688C141.559 54.912 141.881 55.176 142.073 55.48C142.265 55.784 142.361 56.16 142.361 56.608C142.361 57.424 142.057 58.0667 141.449 58.536C140.847 59 140.015 59.232 138.953 59.232ZM150.923 59.24C150.053 59.24 149.317 59.0453 148.715 58.656C148.112 58.2667 147.653 57.7307 147.339 57.048C147.029 56.36 146.869 55.5707 146.859 54.68C146.869 53.7733 147.035 52.9787 147.355 52.296C147.675 51.608 148.136 51.0747 148.739 50.696C149.341 50.312 150.072 50.12 150.931 50.12C151.805 50.12 152.565 50.3333 153.211 50.76C153.861 51.1867 154.307 51.7707 154.547 52.512L153.395 52.88C153.192 52.3627 152.869 51.9627 152.427 51.68C151.989 51.392 151.488 51.248 150.923 51.248C150.288 51.248 149.763 51.3947 149.347 51.688C148.931 51.976 148.621 52.3787 148.419 52.896C148.216 53.4133 148.112 54.008 148.107 54.68C148.117 55.7147 148.357 56.5467 148.827 57.176C149.296 57.8 149.995 58.112 150.923 58.112C151.509 58.112 152.008 57.9787 152.419 57.712C152.835 57.44 153.149 57.0453 153.363 56.528L154.547 56.88C154.227 57.648 153.757 58.2347 153.139 58.64C152.52 59.04 151.781 59.24 150.923 59.24ZM159.572 59.24C158.713 59.24 157.98 59.0453 157.372 58.656C156.764 58.2667 156.297 57.728 155.972 57.04C155.646 56.352 155.484 55.5627 155.484 54.672C155.484 53.7653 155.649 52.9707 155.98 52.288C156.31 51.6053 156.78 51.0747 157.388 50.696C158.001 50.312 158.729 50.12 159.572 50.12C160.436 50.12 161.172 50.3147 161.78 50.704C162.393 51.088 162.86 51.624 163.18 52.312C163.505 52.9947 163.668 53.7813 163.668 54.672C163.668 55.5787 163.505 56.376 163.18 57.064C162.854 57.7467 162.385 58.28 161.772 58.664C161.158 59.048 160.425 59.24 159.572 59.24ZM159.572 58.112C160.532 58.112 161.246 57.7947 161.716 57.16C162.185 56.52 162.42 55.6907 162.42 54.672C162.42 53.6267 162.182 52.7947 161.708 52.176C161.238 51.5573 160.526 51.248 159.572 51.248C158.926 51.248 158.393 51.3947 157.972 51.688C157.556 51.976 157.244 52.3787 157.036 52.896C156.833 53.408 156.732 54 156.732 54.672C156.732 55.712 156.972 56.5467 157.452 57.176C157.932 57.8 158.638 58.112 159.572 58.112ZM171.673 59V54.592C171.673 54.112 171.627 53.672 171.537 53.272C171.446 52.8667 171.299 52.5147 171.097 52.216C170.899 51.912 170.641 51.6773 170.321 51.512C170.006 51.3467 169.622 51.264 169.169 51.264C168.753 51.264 168.385 51.336 168.065 51.48C167.75 51.624 167.483 51.832 167.265 52.104C167.051 52.3707 166.889 52.696 166.777 53.08C166.665 53.464 166.609 53.9013 166.609 54.392L165.777 54.208C165.777 53.3227 165.931 52.5787 166.241 51.976C166.55 51.3733 166.977 50.9173 167.521 50.608C168.065 50.2987 168.689 50.144 169.393 50.144C169.91 50.144 170.361 50.224 170.745 50.384C171.134 50.544 171.462 50.76 171.729 51.032C172.001 51.304 172.219 51.616 172.385 51.968C172.55 52.3147 172.67 52.6853 172.745 53.08C172.819 53.4693 172.857 53.8587 172.857 54.248V59H171.673ZM165.425 59V50.36H166.489V52.488H166.609V59H165.425ZM178.157 59.232C177.143 59.232 176.309 59.0133 175.653 58.576C175.002 58.1387 174.602 57.5307 174.453 56.752L175.653 56.552C175.781 57.0427 176.071 57.4347 176.525 57.728C176.983 58.016 177.549 58.16 178.22 58.16C178.877 58.16 179.394 58.024 179.773 57.752C180.151 57.4747 180.341 57.0987 180.341 56.624C180.341 56.3573 180.279 56.1413 180.157 55.976C180.039 55.8053 179.797 55.648 179.429 55.504C179.061 55.36 178.511 55.1893 177.781 54.992C176.997 54.7787 176.383 54.5653 175.941 54.352C175.498 54.1387 175.183 53.8933 174.997 53.616C174.81 53.3333 174.717 52.9893 174.717 52.584C174.717 52.0933 174.855 51.664 175.133 51.296C175.41 50.9227 175.794 50.6347 176.285 50.432C176.775 50.224 177.346 50.12 177.997 50.12C178.647 50.12 179.229 50.2267 179.741 50.44C180.258 50.648 180.674 50.9413 180.989 51.32C181.303 51.6987 181.49 52.1387 181.549 52.64L180.349 52.856C180.269 52.3493 180.015 51.9493 179.589 51.656C179.167 51.3573 178.631 51.2027 177.981 51.192C177.367 51.176 176.869 51.2933 176.485 51.544C176.101 51.7893 175.909 52.1173 175.909 52.528C175.909 52.7573 175.978 52.9547 176.117 53.12C176.255 53.28 176.506 53.432 176.869 53.576C177.237 53.72 177.759 53.8773 178.437 54.048C179.231 54.2507 179.855 54.464 180.309 54.688C180.762 54.912 181.085 55.176 181.277 55.48C181.469 55.784 181.565 56.16 181.565 56.608C181.565 57.424 181.261 58.0667 180.653 58.536C180.05 59 179.218 59.232 178.157 59.232ZM186.995 59.24C186.152 59.24 185.421 59.0533 184.803 58.68C184.189 58.3067 183.712 57.7813 183.371 57.104C183.029 56.4267 182.859 55.632 182.859 54.72C182.859 53.776 183.027 52.96 183.363 52.272C183.699 51.584 184.171 51.0533 184.779 50.68C185.392 50.3067 186.115 50.12 186.947 50.12C187.8 50.12 188.528 50.3173 189.131 50.712C189.733 51.1013 190.189 51.6613 190.499 52.392C190.808 53.1227 190.949 53.9947 190.923 55.008H189.723V54.592C189.701 53.472 189.459 52.6267 188.995 52.056C188.536 51.4853 187.864 51.2 186.979 51.2C186.051 51.2 185.339 51.5013 184.843 52.104C184.352 52.7067 184.107 53.5653 184.107 54.68C184.107 55.768 184.352 56.6133 184.843 57.216C185.339 57.8133 186.04 58.112 186.947 58.112C187.565 58.112 188.104 57.9707 188.563 57.688C189.027 57.4 189.392 56.9867 189.659 56.448L190.755 56.872C190.413 57.624 189.909 58.208 189.243 58.624C188.581 59.0347 187.832 59.24 186.995 59.24ZM183.691 55.008V54.024H190.291V55.008H183.691ZM196.282 59.24C195.413 59.24 194.677 59.0453 194.074 58.656C193.471 58.2667 193.013 57.7307 192.698 57.048C192.389 56.36 192.229 55.5707 192.218 54.68C192.229 53.7733 192.394 52.9787 192.714 52.296C193.034 51.608 193.495 51.0747 194.098 50.696C194.701 50.312 195.431 50.12 196.29 50.12C197.165 50.12 197.925 50.3333 198.57 50.76C199.221 51.1867 199.666 51.7707 199.906 52.512L198.754 52.88C198.551 52.3627 198.229 51.9627 197.786 51.68C197.349 51.392 196.847 51.248 196.282 51.248C195.647 51.248 195.122 51.3947 194.706 51.688C194.29 51.976 193.981 52.3787 193.778 52.896C193.575 53.4133 193.471 54.008 193.466 54.68C193.477 55.7147 193.717 56.5467 194.186 57.176C194.655 57.8 195.354 58.112 196.282 58.112C196.869 58.112 197.367 57.9787 197.778 57.712C198.194 57.44 198.509 57.0453 198.722 56.528L199.906 56.88C199.586 57.648 199.117 58.2347 198.498 58.64C197.879 59.04 197.141 59.24 196.282 59.24ZM206.262 59C205.776 59.1013 205.296 59.1413 204.822 59.12C204.352 59.0987 203.931 58.9973 203.558 58.816C203.19 58.6347 202.91 58.352 202.718 57.968C202.563 57.648 202.478 57.3253 202.462 57C202.451 56.6693 202.446 56.2933 202.446 55.872V47.96H203.614V55.824C203.614 56.1867 203.616 56.4907 203.622 56.736C203.632 56.976 203.688 57.1893 203.79 57.376C203.982 57.7333 204.286 57.9467 204.702 58.016C205.123 58.0853 205.643 58.0693 206.262 57.968V59ZM200.598 51.368V50.36H206.262V51.368H200.598ZM211.307 59.24C210.465 59.24 209.734 59.0533 209.115 58.68C208.502 58.3067 208.025 57.7813 207.683 57.104C207.342 56.4267 207.171 55.632 207.171 54.72C207.171 53.776 207.339 52.96 207.675 52.272C208.011 51.584 208.483 51.0533 209.091 50.68C209.705 50.3067 210.427 50.12 211.259 50.12C212.113 50.12 212.841 50.3173 213.443 50.712C214.046 51.1013 214.502 51.6613 214.811 52.392C215.121 53.1227 215.262 53.9947 215.235 55.008H214.035V54.592C214.014 53.472 213.771 52.6267 213.307 52.056C212.849 51.4853 212.177 51.2 211.291 51.2C210.363 51.2 209.651 51.5013 209.155 52.104C208.665 52.7067 208.419 53.5653 208.419 54.68C208.419 55.768 208.665 56.6133 209.155 57.216C209.651 57.8133 210.353 58.112 211.259 58.112C211.878 58.112 212.417 57.9707 212.875 57.688C213.339 57.4 213.705 56.9867 213.971 56.448L215.067 56.872C214.726 57.624 214.222 58.208 213.555 58.624C212.894 59.0347 212.145 59.24 211.307 59.24ZM208.003 55.008V54.024H214.603V55.008H208.003ZM221.715 59C221.229 59.1013 220.749 59.1413 220.275 59.12C219.805 59.0987 219.384 58.9973 219.011 58.816C218.643 58.6347 218.363 58.352 218.171 57.968C218.016 57.648 217.931 57.3253 217.915 57C217.904 56.6693 217.899 56.2933 217.899 55.872V47.96H219.067V55.824C219.067 56.1867 219.069 56.4907 219.075 56.736C219.085 56.976 219.141 57.1893 219.243 57.376C219.435 57.7333 219.739 57.9467 220.155 58.016C220.576 58.0853 221.096 58.0693 221.715 57.968V59ZM216.051 51.368V50.36H221.715V51.368H216.051ZM226.721 59.216C226.204 59.216 225.75 59.136 225.361 58.976C224.977 58.816 224.649 58.6 224.377 58.328C224.11 58.056 223.894 57.7467 223.729 57.4C223.564 57.048 223.444 56.6773 223.369 56.288C223.294 55.8933 223.257 55.5013 223.257 55.112V50.36H224.441V54.768C224.441 55.2427 224.486 55.6827 224.577 56.088C224.668 56.4933 224.812 56.848 225.009 57.152C225.212 57.4507 225.47 57.6827 225.785 57.848C226.105 58.0133 226.492 58.096 226.945 58.096C227.361 58.096 227.726 58.024 228.041 57.88C228.361 57.736 228.628 57.5307 228.841 57.264C229.06 56.992 229.225 56.664 229.337 56.28C229.449 55.8907 229.505 55.4533 229.505 54.968L230.337 55.152C230.337 56.0373 230.182 56.7813 229.873 57.384C229.564 57.9867 229.137 58.4427 228.593 58.752C228.049 59.0613 227.425 59.216 226.721 59.216ZM229.625 59V56.872H229.505V50.36H230.681V59H229.625ZM232.917 59V50.36H233.973V52.44L233.765 52.168C233.861 51.912 233.986 51.6773 234.141 51.464C234.296 51.2453 234.464 51.0667 234.645 50.928C234.869 50.7307 235.13 50.5813 235.429 50.48C235.728 50.3733 236.029 50.312 236.333 50.296C236.637 50.2747 236.914 50.296 237.165 50.36V51.464C236.85 51.384 236.506 51.3653 236.133 51.408C235.76 51.4507 235.416 51.6 235.101 51.856C234.813 52.08 234.597 52.3493 234.453 52.664C234.309 52.9733 234.213 53.304 234.165 53.656C234.117 54.0027 234.093 54.3467 234.093 54.688V59H232.917ZM245.47 59.24C244.6 59.24 243.864 59.0453 243.262 58.656C242.659 58.2667 242.2 57.7307 241.886 57.048C241.576 56.36 241.416 55.5707 241.406 54.68C241.416 53.7733 241.582 52.9787 241.902 52.296C242.222 51.608 242.683 51.0747 243.286 50.696C243.888 50.312 244.619 50.12 245.478 50.12C246.352 50.12 247.112 50.3333 247.758 50.76C248.408 51.1867 248.854 51.7707 249.094 52.512L247.942 52.88C247.739 52.3627 247.416 51.9627 246.974 51.68C246.536 51.392 246.035 51.248 245.47 51.248C244.835 51.248 244.31 51.3947 243.894 51.688C243.478 51.976 243.168 52.3787 242.966 52.896C242.763 53.4133 242.659 54.008 242.654 54.68C242.664 55.7147 242.904 56.5467 243.374 57.176C243.843 57.8 244.542 58.112 245.47 58.112C246.056 58.112 246.555 57.9787 246.966 57.712C247.382 57.44 247.696 57.0453 247.91 56.528L249.094 56.88C248.774 57.648 248.304 58.2347 247.686 58.64C247.067 59.04 246.328 59.24 245.47 59.24ZM254.119 59.24C253.26 59.24 252.527 59.0453 251.919 58.656C251.311 58.2667 250.844 57.728 250.519 57.04C250.193 56.352 250.031 55.5627 250.031 54.672C250.031 53.7653 250.196 52.9707 250.527 52.288C250.857 51.6053 251.327 51.0747 251.935 50.696C252.548 50.312 253.276 50.12 254.119 50.12C254.983 50.12 255.719 50.3147 256.327 50.704C256.94 51.088 257.407 51.624 257.727 52.312C258.052 52.9947 258.215 53.7813 258.215 54.672C258.215 55.5787 258.052 56.376 257.727 57.064C257.401 57.7467 256.932 58.28 256.319 58.664C255.705 59.048 254.972 59.24 254.119 59.24ZM254.119 58.112C255.079 58.112 255.793 57.7947 256.263 57.16C256.732 56.52 256.967 55.6907 256.967 54.672C256.967 53.6267 256.729 52.7947 256.255 52.176C255.785 51.5573 255.073 51.248 254.119 51.248C253.473 51.248 252.94 51.3947 252.519 51.688C252.103 51.976 251.791 52.3787 251.583 52.896C251.38 53.408 251.279 54 251.279 54.672C251.279 55.712 251.519 56.5467 251.999 57.176C252.479 57.8 253.185 58.112 254.119 58.112ZM266.219 59V54.592C266.219 54.112 266.174 53.672 266.083 53.272C265.993 52.8667 265.846 52.5147 265.643 52.216C265.446 51.912 265.187 51.6773 264.867 51.512C264.553 51.3467 264.169 51.264 263.715 51.264C263.299 51.264 262.931 51.336 262.611 51.48C262.297 51.624 262.03 51.832 261.811 52.104C261.598 52.3707 261.435 52.696 261.323 53.08C261.211 53.464 261.155 53.9013 261.155 54.392L260.323 54.208C260.323 53.3227 260.478 52.5787 260.787 51.976C261.097 51.3733 261.523 50.9173 262.067 50.608C262.611 50.2987 263.235 50.144 263.939 50.144C264.457 50.144 264.907 50.224 265.291 50.384C265.681 50.544 266.009 50.76 266.275 51.032C266.547 51.304 266.766 51.616 266.931 51.968C267.097 52.3147 267.217 52.6853 267.291 53.08C267.366 53.4693 267.403 53.8587 267.403 54.248V59H266.219ZM259.971 59V50.36H261.035V52.488H261.155V59H259.971ZM272.911 63.08C272.469 63.08 272.031 63.0133 271.599 62.88C271.173 62.752 270.778 62.5467 270.415 62.264C270.053 61.9867 269.749 61.624 269.503 61.176L270.567 60.584C270.807 61.064 271.143 61.408 271.575 61.616C272.013 61.8293 272.458 61.936 272.911 61.936C273.535 61.936 274.039 61.8187 274.423 61.584C274.813 61.3547 275.095 61.0133 275.271 60.56C275.447 60.1067 275.533 59.5413 275.527 58.864V56.56H275.663V50.36H276.711V58.88C276.711 59.1253 276.703 59.36 276.687 59.584C276.677 59.8133 276.653 60.0373 276.615 60.256C276.514 60.9013 276.303 61.432 275.983 61.848C275.669 62.264 275.253 62.5733 274.735 62.776C274.223 62.9787 273.615 63.08 272.911 63.08ZM272.831 59.24C272.026 59.24 271.338 59.04 270.767 58.64C270.197 58.2347 269.759 57.688 269.455 57C269.151 56.312 268.999 55.536 268.999 54.672C268.999 53.8133 269.149 53.04 269.447 52.352C269.751 51.664 270.186 51.12 270.751 50.72C271.317 50.32 271.994 50.12 272.783 50.12C273.594 50.12 274.277 50.3173 274.831 50.712C275.386 51.1067 275.805 51.648 276.087 52.336C276.375 53.0187 276.519 53.7973 276.519 54.672C276.519 55.5307 276.378 56.3067 276.095 57C275.813 57.688 275.397 58.2347 274.847 58.64C274.298 59.04 273.626 59.24 272.831 59.24ZM272.951 58.144C273.565 58.144 274.071 57.9947 274.471 57.696C274.871 57.3973 275.17 56.9867 275.367 56.464C275.565 55.936 275.663 55.3387 275.663 54.672C275.663 53.9947 275.565 53.3973 275.367 52.88C275.17 52.3573 274.871 51.9493 274.471 51.656C274.077 51.3627 273.578 51.216 272.975 51.216C272.357 51.216 271.845 51.368 271.439 51.672C271.034 51.976 270.733 52.3893 270.535 52.912C270.343 53.4347 270.247 54.0213 270.247 54.672C270.247 55.328 270.346 55.92 270.543 56.448C270.746 56.9707 271.047 57.384 271.447 57.688C271.847 57.992 272.349 58.144 272.951 58.144ZM282.252 59.216C281.735 59.216 281.281 59.136 280.892 58.976C280.508 58.816 280.18 58.6 279.908 58.328C279.641 58.056 279.425 57.7467 279.26 57.4C279.095 57.048 278.975 56.6773 278.9 56.288C278.825 55.8933 278.788 55.5013 278.788 55.112V50.36H279.972V54.768C279.972 55.2427 280.017 55.6827 280.108 56.088C280.199 56.4933 280.343 56.848 280.54 57.152C280.743 57.4507 281.001 57.6827 281.316 57.848C281.636 58.0133 282.023 58.096 282.476 58.096C282.892 58.096 283.257 58.024 283.572 57.88C283.892 57.736 284.159 57.5307 284.372 57.264C284.591 56.992 284.756 56.664 284.868 56.28C284.98 55.8907 285.036 55.4533 285.036 54.968L285.868 55.152C285.868 56.0373 285.713 56.7813 285.404 57.384C285.095 57.9867 284.668 58.4427 284.124 58.752C283.58 59.0613 282.956 59.216 282.252 59.216ZM285.156 59V56.872H285.036V50.36H286.212V59H285.156ZM292.104 59.24C291.261 59.24 290.531 59.0533 289.912 58.68C289.299 58.3067 288.821 57.7813 288.48 57.104C288.139 56.4267 287.968 55.632 287.968 54.72C287.968 53.776 288.136 52.96 288.472 52.272C288.808 51.584 289.28 51.0533 289.888 50.68C290.501 50.3067 291.224 50.12 292.056 50.12C292.909 50.12 293.637 50.3173 294.24 50.712C294.843 51.1013 295.299 51.6613 295.608 52.392C295.917 53.1227 296.059 53.9947 296.032 55.008H294.832V54.592C294.811 53.472 294.568 52.6267 294.104 52.056C293.645 51.4853 292.973 51.2 292.088 51.2C291.16 51.2 290.448 51.5013 289.952 52.104C289.461 52.7067 289.216 53.5653 289.216 54.68C289.216 55.768 289.461 56.6133 289.952 57.216C290.448 57.8133 291.149 58.112 292.056 58.112C292.675 58.112 293.213 57.9707 293.672 57.688C294.136 57.4 294.501 56.9867 294.768 56.448L295.864 56.872C295.523 57.624 295.019 58.208 294.352 58.624C293.691 59.0347 292.941 59.24 292.104 59.24ZM288.8 55.008V54.024H295.4V55.008H288.8ZM88.776 85.24C87.9333 85.24 87.2027 85.0533 86.584 84.68C85.9707 84.3067 85.4933 83.7813 85.152 83.104C84.8107 82.4267 84.64 81.632 84.64 80.72C84.64 79.776 84.808 78.96 85.144 78.272C85.48 77.584 85.952 77.0533 86.56 76.68C87.1733 76.3067 87.896 76.12 88.728 76.12C89.5813 76.12 90.3093 76.3173 90.912 76.712C91.5147 77.1013 91.9707 77.6613 92.28 78.392C92.5893 79.1227 92.7307 79.9947 92.704 81.008H91.504V80.592C91.4827 79.472 91.24 78.6267 90.776 78.056C90.3173 77.4853 89.6453 77.2 88.76 77.2C87.832 77.2 87.12 77.5013 86.624 78.104C86.1333 78.7067 85.888 79.5653 85.888 80.68C85.888 81.768 86.1333 82.6133 86.624 83.216C87.12 83.8133 87.8213 84.112 88.728 84.112C89.3467 84.112 89.8853 83.9707 90.344 83.688C90.808 83.4 91.1733 82.9867 91.44 82.448L92.536 82.872C92.1947 83.624 91.6907 84.208 91.024 84.624C90.3627 85.0347 89.6133 85.24 88.776 85.24ZM85.472 81.008V80.024H92.072V81.008H85.472ZM97.9114 89.08C97.4687 89.08 97.0314 89.0133 96.5994 88.88C96.1727 88.752 95.778 88.5467 95.4154 88.264C95.0527 87.9867 94.7487 87.624 94.5034 87.176L95.5674 86.584C95.8074 87.064 96.1434 87.408 96.5754 87.616C97.0127 87.8293 97.458 87.936 97.9114 87.936C98.5354 87.936 99.0394 87.8187 99.4234 87.584C99.8127 87.3547 100.095 87.0133 100.271 86.56C100.447 86.1067 100.533 85.5413 100.527 84.864V82.56H100.663V76.36H101.711V84.88C101.711 85.1253 101.703 85.36 101.687 85.584C101.677 85.8133 101.653 86.0373 101.615 86.256C101.514 86.9013 101.303 87.432 100.983 87.848C100.669 88.264 100.253 88.5733 99.7354 88.776C99.2234 88.9787 98.6154 89.08 97.9114 89.08ZM97.8314 85.24C97.026 85.24 96.338 85.04 95.7674 84.64C95.1967 84.2347 94.7594 83.688 94.4554 83C94.1514 82.312 93.9994 81.536 93.9994 80.672C93.9994 79.8133 94.1487 79.04 94.4474 78.352C94.7514 77.664 95.186 77.12 95.7514 76.72C96.3167 76.32 96.994 76.12 97.7834 76.12C98.594 76.12 99.2767 76.3173 99.8314 76.712C100.386 77.1067 100.805 77.648 101.087 78.336C101.375 79.0187 101.519 79.7973 101.519 80.672C101.519 81.5307 101.378 82.3067 101.095 83C100.813 83.688 100.397 84.2347 99.8474 84.64C99.298 85.04 98.626 85.24 97.8314 85.24ZM97.9514 84.144C98.5647 84.144 99.0714 83.9947 99.4714 83.696C99.8714 83.3973 100.17 82.9867 100.367 82.464C100.565 81.936 100.663 81.3387 100.663 80.672C100.663 79.9947 100.565 79.3973 100.367 78.88C100.17 78.3573 99.8714 77.9493 99.4714 77.656C99.0767 77.3627 98.578 77.216 97.9754 77.216C97.3567 77.216 96.8447 77.368 96.4394 77.672C96.034 77.976 95.7327 78.3893 95.5354 78.912C95.3434 79.4347 95.2474 80.0213 95.2474 80.672C95.2474 81.328 95.346 81.92 95.5434 82.448C95.746 82.9707 96.0474 83.384 96.4474 83.688C96.8474 83.992 97.3487 84.144 97.9514 84.144ZM107.604 85.24C106.761 85.24 106.031 85.0533 105.412 84.68C104.799 84.3067 104.321 83.7813 103.98 83.104C103.639 82.4267 103.468 81.632 103.468 80.72C103.468 79.776 103.636 78.96 103.972 78.272C104.308 77.584 104.78 77.0533 105.388 76.68C106.001 76.3067 106.724 76.12 107.556 76.12C108.409 76.12 109.137 76.3173 109.74 76.712C110.343 77.1013 110.799 77.6613 111.108 78.392C111.417 79.1227 111.559 79.9947 111.532 81.008H110.332V80.592C110.311 79.472 110.068 78.6267 109.604 78.056C109.145 77.4853 108.473 77.2 107.588 77.2C106.66 77.2 105.948 77.5013 105.452 78.104C104.961 78.7067 104.716 79.5653 104.716 80.68C104.716 81.768 104.961 82.6133 105.452 83.216C105.948 83.8133 106.649 84.112 107.556 84.112C108.175 84.112 108.713 83.9707 109.172 83.688C109.636 83.4 110.001 82.9867 110.268 82.448L111.364 82.872C111.023 83.624 110.519 84.208 109.852 84.624C109.191 85.0347 108.441 85.24 107.604 85.24ZM104.3 81.008V80.024H110.9V81.008H104.3ZM116.532 85.232C115.518 85.232 114.684 85.0133 114.028 84.576C113.377 84.1387 112.977 83.5307 112.828 82.752L114.028 82.552C114.156 83.0427 114.446 83.4347 114.9 83.728C115.358 84.016 115.924 84.16 116.595 84.16C117.252 84.16 117.769 84.024 118.148 83.752C118.526 83.4747 118.716 83.0987 118.716 82.624C118.716 82.3573 118.654 82.1413 118.532 81.976C118.414 81.8053 118.172 81.648 117.804 81.504C117.436 81.36 116.886 81.1893 116.156 80.992C115.372 80.7787 114.758 80.5653 114.316 80.352C113.873 80.1387 113.558 79.8933 113.372 79.616C113.185 79.3333 113.092 78.9893 113.092 78.584C113.092 78.0933 113.23 77.664 113.508 77.296C113.785 76.9227 114.169 76.6347 114.66 76.432C115.15 76.224 115.721 76.12 116.372 76.12C117.022 76.12 117.604 76.2267 118.116 76.44C118.633 76.648 119.049 76.9413 119.364 77.32C119.678 77.6987 119.865 78.1387 119.924 78.64L118.724 78.856C118.644 78.3493 118.39 77.9493 117.964 77.656C117.542 77.3573 117.006 77.2027 116.356 77.192C115.742 77.176 115.244 77.2933 114.86 77.544C114.476 77.7893 114.284 78.1173 114.284 78.528C114.284 78.7573 114.353 78.9547 114.492 79.12C114.63 79.28 114.881 79.432 115.244 79.576C115.612 79.72 116.134 79.8773 116.812 80.048C117.606 80.2507 118.23 80.464 118.684 80.688C119.137 80.912 119.46 81.176 119.652 81.48C119.844 81.784 119.94 82.16 119.94 82.608C119.94 83.424 119.636 84.0667 119.028 84.536C118.425 85 117.593 85.232 116.532 85.232ZM126.418 85C125.932 85.1013 125.452 85.1413 124.978 85.12C124.508 85.0987 124.087 84.9973 123.714 84.816C123.346 84.6347 123.066 84.352 122.874 83.968C122.719 83.648 122.634 83.3253 122.618 83C122.607 82.6693 122.602 82.2933 122.602 81.872V73.96H123.77V81.824C123.77 82.1867 123.772 82.4907 123.778 82.736C123.788 82.976 123.844 83.1893 123.946 83.376C124.138 83.7333 124.442 83.9467 124.858 84.016C125.279 84.0853 125.799 84.0693 126.418 83.968V85ZM120.754 77.368V76.36H126.418V77.368H120.754ZM130.592 85.24C129.941 85.24 129.395 85.1227 128.952 84.888C128.515 84.6533 128.187 84.3413 127.968 83.952C127.749 83.5627 127.64 83.1387 127.64 82.68C127.64 82.2107 127.733 81.8107 127.92 81.48C128.112 81.144 128.371 80.8693 128.696 80.656C129.027 80.4427 129.408 80.28 129.84 80.168C130.277 80.0613 130.76 79.968 131.288 79.888C131.821 79.8027 132.341 79.7307 132.848 79.672C133.36 79.608 133.808 79.5467 134.192 79.488L133.776 79.744C133.792 78.8907 133.627 78.2587 133.28 77.848C132.933 77.4373 132.331 77.232 131.472 77.232C130.88 77.232 130.379 77.3653 129.968 77.632C129.563 77.8987 129.277 78.32 129.112 78.896L127.968 78.56C128.165 77.7867 128.563 77.1867 129.16 76.76C129.757 76.3333 130.533 76.12 131.488 76.12C132.277 76.12 132.947 76.2693 133.496 76.568C134.051 76.8613 134.443 77.288 134.672 77.848C134.779 78.0987 134.848 78.3787 134.88 78.688C134.912 78.9973 134.928 79.312 134.928 79.632V85H133.88V82.832L134.184 82.96C133.891 83.7013 133.435 84.2667 132.816 84.656C132.197 85.0453 131.456 85.24 130.592 85.24ZM130.728 84.224C131.277 84.224 131.757 84.1253 132.168 83.928C132.579 83.7307 132.909 83.4613 133.16 83.12C133.411 82.7733 133.573 82.384 133.648 81.952C133.712 81.6747 133.747 81.3707 133.752 81.04C133.757 80.704 133.76 80.4533 133.76 80.288L134.208 80.52C133.808 80.5733 133.373 80.6267 132.904 80.68C132.44 80.7333 131.981 80.7947 131.528 80.864C131.08 80.9333 130.675 81.016 130.312 81.112C130.067 81.1813 129.829 81.28 129.6 81.408C129.371 81.5307 129.181 81.696 129.032 81.904C128.888 82.112 128.816 82.3707 128.816 82.68C128.816 82.9307 128.877 83.1733 129 83.408C129.128 83.6427 129.331 83.8373 129.608 83.992C129.891 84.1467 130.264 84.224 130.728 84.224ZM140.235 85.232C139.221 85.232 138.387 85.0133 137.731 84.576C137.08 84.1387 136.68 83.5307 136.531 82.752L137.731 82.552C137.859 83.0427 138.149 83.4347 138.603 83.728C139.061 84.016 139.627 84.16 140.299 84.16C140.955 84.16 141.472 84.024 141.851 83.752C142.229 83.4747 142.419 83.0987 142.419 82.624C142.419 82.3573 142.357 82.1413 142.235 81.976C142.117 81.8053 141.875 81.648 141.507 81.504C141.139 81.36 140.589 81.1893 139.859 80.992C139.075 80.7787 138.461 80.5653 138.019 80.352C137.576 80.1387 137.261 79.8933 137.075 79.616C136.888 79.3333 136.795 78.9893 136.795 78.584C136.795 78.0933 136.933 77.664 137.211 77.296C137.488 76.9227 137.872 76.6347 138.363 76.432C138.853 76.224 139.424 76.12 140.075 76.12C140.725 76.12 141.307 76.2267 141.819 76.44C142.336 76.648 142.752 76.9413 143.067 77.32C143.381 77.6987 143.568 78.1387 143.627 78.64L142.427 78.856C142.347 78.3493 142.093 77.9493 141.667 77.656C141.245 77.3573 140.709 77.2027 140.059 77.192C139.445 77.176 138.947 77.2933 138.563 77.544C138.179 77.7893 137.987 78.1173 137.987 78.528C137.987 78.7573 138.056 78.9547 138.195 79.12C138.333 79.28 138.584 79.432 138.947 79.576C139.315 79.72 139.837 79.8773 140.515 80.048C141.309 80.2507 141.933 80.464 142.387 80.688C142.84 80.912 143.163 81.176 143.355 81.48C143.547 81.784 143.643 82.16 143.643 82.608C143.643 83.424 143.339 84.0667 142.731 84.536C142.128 85 141.296 85.232 140.235 85.232ZM152.276 85.24C151.433 85.24 150.703 85.0533 150.084 84.68C149.471 84.3067 148.993 83.7813 148.652 83.104C148.311 82.4267 148.14 81.632 148.14 80.72C148.14 79.776 148.308 78.96 148.644 78.272C148.98 77.584 149.452 77.0533 150.06 76.68C150.673 76.3067 151.396 76.12 152.228 76.12C153.081 76.12 153.809 76.3173 154.412 76.712C155.015 77.1013 155.471 77.6613 155.78 78.392C156.089 79.1227 156.231 79.9947 156.204 81.008H155.004V80.592C154.983 79.472 154.74 78.6267 154.276 78.056C153.817 77.4853 153.145 77.2 152.26 77.2C151.332 77.2 150.62 77.5013 150.124 78.104C149.633 78.7067 149.388 79.5653 149.388 80.68C149.388 81.768 149.633 82.6133 150.124 83.216C150.62 83.8133 151.321 84.112 152.228 84.112C152.847 84.112 153.385 83.9707 153.844 83.688C154.308 83.4 154.673 82.9867 154.94 82.448L156.036 82.872C155.695 83.624 155.191 84.208 154.524 84.624C153.863 85.0347 153.113 85.24 152.276 85.24ZM148.972 81.008V80.024H155.572V81.008H148.972ZM161.411 89.08C160.969 89.08 160.531 89.0133 160.099 88.88C159.673 88.752 159.278 88.5467 158.915 88.264C158.553 87.9867 158.249 87.624 158.003 87.176L159.067 86.584C159.307 87.064 159.643 87.408 160.075 87.616C160.513 87.8293 160.958 87.936 161.411 87.936C162.035 87.936 162.539 87.8187 162.923 87.584C163.313 87.3547 163.595 87.0133 163.771 86.56C163.947 86.1067 164.033 85.5413 164.027 84.864V82.56H164.163V76.36H165.211V84.88C165.211 85.1253 165.203 85.36 165.187 85.584C165.177 85.8133 165.153 86.0373 165.115 86.256C165.014 86.9013 164.803 87.432 164.483 87.848C164.169 88.264 163.753 88.5733 163.235 88.776C162.723 88.9787 162.115 89.08 161.411 89.08ZM161.331 85.24C160.526 85.24 159.838 85.04 159.267 84.64C158.697 84.2347 158.259 83.688 157.955 83C157.651 82.312 157.499 81.536 157.499 80.672C157.499 79.8133 157.649 79.04 157.947 78.352C158.251 77.664 158.686 77.12 159.251 76.72C159.817 76.32 160.494 76.12 161.283 76.12C162.094 76.12 162.777 76.3173 163.331 76.712C163.886 77.1067 164.305 77.648 164.587 78.336C164.875 79.0187 165.019 79.7973 165.019 80.672C165.019 81.5307 164.878 82.3067 164.595 83C164.313 83.688 163.897 84.2347 163.347 84.64C162.798 85.04 162.126 85.24 161.331 85.24ZM161.451 84.144C162.065 84.144 162.571 83.9947 162.971 83.696C163.371 83.3973 163.67 82.9867 163.867 82.464C164.065 81.936 164.163 81.3387 164.163 80.672C164.163 79.9947 164.065 79.3973 163.867 78.88C163.67 78.3573 163.371 77.9493 162.971 77.656C162.577 77.3627 162.078 77.216 161.475 77.216C160.857 77.216 160.345 77.368 159.939 77.672C159.534 77.976 159.233 78.3893 159.035 78.912C158.843 79.4347 158.747 80.0213 158.747 80.672C158.747 81.328 158.846 81.92 159.043 82.448C159.246 82.9707 159.547 83.384 159.947 83.688C160.347 83.992 160.849 84.144 161.451 84.144ZM171.104 85.24C170.261 85.24 169.531 85.0533 168.912 84.68C168.299 84.3067 167.821 83.7813 167.48 83.104C167.139 82.4267 166.968 81.632 166.968 80.72C166.968 79.776 167.136 78.96 167.472 78.272C167.808 77.584 168.28 77.0533 168.888 76.68C169.501 76.3067 170.224 76.12 171.056 76.12C171.909 76.12 172.637 76.3173 173.24 76.712C173.843 77.1013 174.299 77.6613 174.608 78.392C174.917 79.1227 175.059 79.9947 175.032 81.008H173.832V80.592C173.811 79.472 173.568 78.6267 173.104 78.056C172.645 77.4853 171.973 77.2 171.088 77.2C170.16 77.2 169.448 77.5013 168.952 78.104C168.461 78.7067 168.216 79.5653 168.216 80.68C168.216 81.768 168.461 82.6133 168.952 83.216C169.448 83.8133 170.149 84.112 171.056 84.112C171.675 84.112 172.213 83.9707 172.672 83.688C173.136 83.4 173.501 82.9867 173.768 82.448L174.864 82.872C174.523 83.624 174.019 84.208 173.352 84.624C172.691 85.0347 171.941 85.24 171.104 85.24ZM167.8 81.008V80.024H174.4V81.008H167.8ZM180.032 85.232C179.018 85.232 178.184 85.0133 177.528 84.576C176.877 84.1387 176.477 83.5307 176.328 82.752L177.528 82.552C177.656 83.0427 177.946 83.4347 178.4 83.728C178.858 84.016 179.424 84.16 180.095 84.16C180.752 84.16 181.269 84.024 181.648 83.752C182.026 83.4747 182.216 83.0987 182.216 82.624C182.216 82.3573 182.154 82.1413 182.032 81.976C181.914 81.8053 181.672 81.648 181.304 81.504C180.936 81.36 180.386 81.1893 179.656 80.992C178.872 80.7787 178.258 80.5653 177.816 80.352C177.373 80.1387 177.058 79.8933 176.872 79.616C176.685 79.3333 176.592 78.9893 176.592 78.584C176.592 78.0933 176.73 77.664 177.008 77.296C177.285 76.9227 177.669 76.6347 178.16 76.432C178.65 76.224 179.221 76.12 179.872 76.12C180.522 76.12 181.104 76.2267 181.616 76.44C182.133 76.648 182.549 76.9413 182.864 77.32C183.178 77.6987 183.365 78.1387 183.424 78.64L182.224 78.856C182.144 78.3493 181.89 77.9493 181.464 77.656C181.042 77.3573 180.506 77.2027 179.856 77.192C179.242 77.176 178.744 77.2933 178.36 77.544C177.976 77.7893 177.784 78.1173 177.784 78.528C177.784 78.7573 177.853 78.9547 177.992 79.12C178.13 79.28 178.381 79.432 178.744 79.576C179.112 79.72 179.634 79.8773 180.312 80.048C181.106 80.2507 181.73 80.464 182.184 80.688C182.637 80.912 182.96 81.176 183.152 81.48C183.344 81.784 183.44 82.16 183.44 82.608C183.44 83.424 183.136 84.0667 182.528 84.536C181.925 85 181.093 85.232 180.032 85.232ZM189.918 85C189.432 85.1013 188.952 85.1413 188.478 85.12C188.008 85.0987 187.587 84.9973 187.214 84.816C186.846 84.6347 186.566 84.352 186.374 83.968C186.219 83.648 186.134 83.3253 186.118 83C186.107 82.6693 186.102 82.2933 186.102 81.872V73.96H187.27V81.824C187.27 82.1867 187.272 82.4907 187.278 82.736C187.288 82.976 187.344 83.1893 187.446 83.376C187.638 83.7333 187.942 83.9467 188.358 84.016C188.779 84.0853 189.299 84.0693 189.918 83.968V85ZM184.254 77.368V76.36H189.918V77.368H184.254ZM194.092 85.24C193.441 85.24 192.895 85.1227 192.452 84.888C192.015 84.6533 191.687 84.3413 191.468 83.952C191.249 83.5627 191.14 83.1387 191.14 82.68C191.14 82.2107 191.233 81.8107 191.42 81.48C191.612 81.144 191.871 80.8693 192.196 80.656C192.527 80.4427 192.908 80.28 193.34 80.168C193.777 80.0613 194.26 79.968 194.788 79.888C195.321 79.8027 195.841 79.7307 196.348 79.672C196.86 79.608 197.308 79.5467 197.692 79.488L197.276 79.744C197.292 78.8907 197.127 78.2587 196.78 77.848C196.433 77.4373 195.831 77.232 194.972 77.232C194.38 77.232 193.879 77.3653 193.468 77.632C193.063 77.8987 192.777 78.32 192.612 78.896L191.468 78.56C191.665 77.7867 192.063 77.1867 192.66 76.76C193.257 76.3333 194.033 76.12 194.988 76.12C195.777 76.12 196.447 76.2693 196.996 76.568C197.551 76.8613 197.943 77.288 198.172 77.848C198.279 78.0987 198.348 78.3787 198.38 78.688C198.412 78.9973 198.428 79.312 198.428 79.632V85H197.38V82.832L197.684 82.96C197.391 83.7013 196.935 84.2667 196.316 84.656C195.697 85.0453 194.956 85.24 194.092 85.24ZM194.228 84.224C194.777 84.224 195.257 84.1253 195.668 83.928C196.079 83.7307 196.409 83.4613 196.66 83.12C196.911 82.7733 197.073 82.384 197.148 81.952C197.212 81.6747 197.247 81.3707 197.252 81.04C197.257 80.704 197.26 80.4533 197.26 80.288L197.708 80.52C197.308 80.5733 196.873 80.6267 196.404 80.68C195.94 80.7333 195.481 80.7947 195.028 80.864C194.58 80.9333 194.175 81.016 193.812 81.112C193.567 81.1813 193.329 81.28 193.1 81.408C192.871 81.5307 192.681 81.696 192.532 81.904C192.388 82.112 192.316 82.3707 192.316 82.68C192.316 82.9307 192.377 83.1733 192.5 83.408C192.628 83.6427 192.831 83.8373 193.108 83.992C193.391 84.1467 193.764 84.224 194.228 84.224ZM203.735 85.232C202.721 85.232 201.887 85.0133 201.231 84.576C200.58 84.1387 200.18 83.5307 200.031 82.752L201.231 82.552C201.359 83.0427 201.649 83.4347 202.103 83.728C202.561 84.016 203.127 84.16 203.799 84.16C204.455 84.16 204.972 84.024 205.351 83.752C205.729 83.4747 205.919 83.0987 205.919 82.624C205.919 82.3573 205.857 82.1413 205.735 81.976C205.617 81.8053 205.375 81.648 205.007 81.504C204.639 81.36 204.089 81.1893 203.359 80.992C202.575 80.7787 201.961 80.5653 201.519 80.352C201.076 80.1387 200.761 79.8933 200.575 79.616C200.388 79.3333 200.295 78.9893 200.295 78.584C200.295 78.0933 200.433 77.664 200.711 77.296C200.988 76.9227 201.372 76.6347 201.863 76.432C202.353 76.224 202.924 76.12 203.575 76.12C204.225 76.12 204.807 76.2267 205.319 76.44C205.836 76.648 206.252 76.9413 206.567 77.32C206.881 77.6987 207.068 78.1387 207.127 78.64L205.927 78.856C205.847 78.3493 205.593 77.9493 205.167 77.656C204.745 77.3573 204.209 77.2027 203.559 77.192C202.945 77.176 202.447 77.2933 202.063 77.544C201.679 77.7893 201.487 78.1173 201.487 78.528C201.487 78.7573 201.556 78.9547 201.695 79.12C201.833 79.28 202.084 79.432 202.447 79.576C202.815 79.72 203.337 79.8773 204.015 80.048C204.809 80.2507 205.433 80.464 205.887 80.688C206.34 80.912 206.663 81.176 206.855 81.48C207.047 81.784 207.143 82.16 207.143 82.608C207.143 83.424 206.839 84.0667 206.231 84.536C205.628 85 204.796 85.232 203.735 85.232ZM215.344 85.232C214.331 85.232 213.496 85.0133 212.84 84.576C212.189 84.1387 211.789 83.5307 211.64 82.752L212.84 82.552C212.968 83.0427 213.259 83.4347 213.712 83.728C214.171 84.016 214.736 84.16 215.408 84.16C216.064 84.16 216.581 84.024 216.96 83.752C217.339 83.4747 217.528 83.0987 217.528 82.624C217.528 82.3573 217.467 82.1413 217.344 81.976C217.227 81.8053 216.984 81.648 216.616 81.504C216.248 81.36 215.699 81.1893 214.968 80.992C214.184 80.7787 213.571 80.5653 213.128 80.352C212.685 80.1387 212.371 79.8933 212.184 79.616C211.997 79.3333 211.904 78.9893 211.904 78.584C211.904 78.0933 212.043 77.664 212.32 77.296C212.597 76.9227 212.981 76.6347 213.472 76.432C213.963 76.224 214.533 76.12 215.184 76.12C215.835 76.12 216.416 76.2267 216.928 76.44C217.445 76.648 217.861 76.9413 218.176 77.32C218.491 77.6987 218.677 78.1387 218.736 78.64L217.536 78.856C217.456 78.3493 217.203 77.9493 216.776 77.656C216.355 77.3573 215.819 77.2027 215.168 77.192C214.555 77.176 214.056 77.2933 213.672 77.544C213.288 77.7893 213.096 78.1173 213.096 78.528C213.096 78.7573 213.165 78.9547 213.304 79.12C213.443 79.28 213.693 79.432 214.056 79.576C214.424 79.72 214.947 79.8773 215.624 80.048C216.419 80.2507 217.043 80.464 217.496 80.688C217.949 80.912 218.272 81.176 218.464 81.48C218.656 81.784 218.752 82.16 218.752 82.608C218.752 83.424 218.448 84.0667 217.84 84.536C217.237 85 216.405 85.232 215.344 85.232ZM223.83 85.216C223.313 85.216 222.86 85.136 222.47 84.976C222.086 84.816 221.758 84.6 221.486 84.328C221.22 84.056 221.004 83.7467 220.838 83.4C220.673 83.048 220.553 82.6773 220.478 82.288C220.404 81.8933 220.366 81.5013 220.366 81.112V76.36H221.55V80.768C221.55 81.2427 221.596 81.6827 221.686 82.088C221.777 82.4933 221.921 82.848 222.118 83.152C222.321 83.4507 222.58 83.6827 222.894 83.848C223.214 84.0133 223.601 84.096 224.054 84.096C224.47 84.096 224.836 84.024 225.15 83.88C225.47 83.736 225.737 83.5307 225.95 83.264C226.169 82.992 226.334 82.664 226.446 82.28C226.558 81.8907 226.614 81.4533 226.614 80.968L227.446 81.152C227.446 82.0373 227.292 82.7813 226.982 83.384C226.673 83.9867 226.246 84.4427 225.702 84.752C225.158 85.0613 224.534 85.216 223.83 85.216ZM226.734 85V82.872H226.614V76.36H227.79V85H226.734ZM233.25 85.232C232.237 85.232 231.402 85.0133 230.746 84.576C230.096 84.1387 229.696 83.5307 229.546 82.752L230.746 82.552C230.874 83.0427 231.165 83.4347 231.618 83.728C232.077 84.016 232.642 84.16 233.314 84.16C233.97 84.16 234.488 84.024 234.866 83.752C235.245 83.4747 235.434 83.0987 235.434 82.624C235.434 82.3573 235.373 82.1413 235.25 81.976C235.133 81.8053 234.89 81.648 234.522 81.504C234.154 81.36 233.605 81.1893 232.874 80.992C232.09 80.7787 231.477 80.5653 231.034 80.352C230.592 80.1387 230.277 79.8933 230.09 79.616C229.904 79.3333 229.81 78.9893 229.81 78.584C229.81 78.0933 229.949 77.664 230.226 77.296C230.504 76.9227 230.888 76.6347 231.378 76.432C231.869 76.224 232.44 76.12 233.09 76.12C233.741 76.12 234.322 76.2267 234.834 76.44C235.352 76.648 235.768 76.9413 236.082 77.32C236.397 77.6987 236.584 78.1387 236.642 78.64L235.442 78.856C235.362 78.3493 235.109 77.9493 234.682 77.656C234.261 77.3573 233.725 77.2027 233.074 77.192C232.461 77.176 231.962 77.2933 231.578 77.544C231.194 77.7893 231.002 78.1173 231.002 78.528C231.002 78.7573 231.072 78.9547 231.21 79.12C231.349 79.28 231.6 79.432 231.962 79.576C232.33 79.72 232.853 79.8773 233.53 80.048C234.325 80.2507 234.949 80.464 235.402 80.688C235.856 80.912 236.178 81.176 236.37 81.48C236.562 81.784 236.658 82.16 236.658 82.608C236.658 83.424 236.354 84.0667 235.746 84.536C235.144 85 234.312 85.232 233.25 85.232ZM242.312 85.24C241.518 85.24 240.846 85.04 240.297 84.64C239.747 84.2347 239.331 83.688 239.049 83C238.766 82.3067 238.625 81.5307 238.625 80.672C238.625 79.7973 238.766 79.0187 239.049 78.336C239.337 77.648 239.758 77.1067 240.313 76.712C240.867 76.3173 241.55 76.12 242.361 76.12C243.15 76.12 243.827 76.32 244.393 76.72C244.958 77.12 245.39 77.664 245.689 78.352C245.993 79.04 246.145 79.8133 246.145 80.672C246.145 81.536 245.993 82.312 245.689 83C245.385 83.688 244.947 84.2347 244.377 84.64C243.806 85.04 243.118 85.24 242.312 85.24ZM238.425 88.84V76.36H239.481V82.864H239.609V88.84H238.425ZM242.193 84.144C242.795 84.144 243.297 83.992 243.697 83.688C244.097 83.384 244.395 82.9707 244.593 82.448C244.795 81.92 244.897 81.328 244.897 80.672C244.897 80.0213 244.798 79.4347 244.601 78.912C244.403 78.3893 244.102 77.976 243.697 77.672C243.297 77.368 242.787 77.216 242.169 77.216C241.566 77.216 241.065 77.3627 240.665 77.656C240.27 77.9493 239.974 78.3573 239.777 78.88C239.579 79.3973 239.481 79.9947 239.481 80.672C239.481 81.3387 239.579 81.936 239.777 82.464C239.974 82.9867 240.273 83.3973 240.673 83.696C241.073 83.9947 241.579 84.144 242.193 84.144ZM251.557 85.24C250.715 85.24 249.984 85.0533 249.365 84.68C248.752 84.3067 248.275 83.7813 247.933 83.104C247.592 82.4267 247.421 81.632 247.421 80.72C247.421 79.776 247.589 78.96 247.925 78.272C248.261 77.584 248.733 77.0533 249.341 76.68C249.955 76.3067 250.677 76.12 251.509 76.12C252.363 76.12 253.091 76.3173 253.693 76.712C254.296 77.1013 254.752 77.6613 255.061 78.392C255.371 79.1227 255.512 79.9947 255.485 81.008H254.285V80.592C254.264 79.472 254.021 78.6267 253.557 78.056C253.099 77.4853 252.427 77.2 251.541 77.2C250.613 77.2 249.901 77.5013 249.405 78.104C248.915 78.7067 248.669 79.5653 248.669 80.68C248.669 81.768 248.915 82.6133 249.405 83.216C249.901 83.8133 250.603 84.112 251.509 84.112C252.128 84.112 252.667 83.9707 253.125 83.688C253.589 83.4 253.955 82.9867 254.221 82.448L255.317 82.872C254.976 83.624 254.472 84.208 253.805 84.624C253.144 85.0347 252.395 85.24 251.557 85.24ZM248.253 81.008V80.024H254.853V81.008H248.253ZM263.266 85V80.592C263.266 80.112 263.221 79.672 263.13 79.272C263.04 78.8667 262.893 78.5147 262.69 78.216C262.493 77.912 262.234 77.6773 261.914 77.512C261.6 77.3467 261.216 77.264 260.762 77.264C260.346 77.264 259.978 77.336 259.658 77.48C259.344 77.624 259.077 77.832 258.858 78.104C258.645 78.3707 258.482 78.696 258.37 79.08C258.258 79.464 258.202 79.9013 258.202 80.392L257.37 80.208C257.37 79.3227 257.525 78.5787 257.834 77.976C258.144 77.3733 258.57 76.9173 259.114 76.608C259.658 76.2987 260.282 76.144 260.986 76.144C261.504 76.144 261.954 76.224 262.338 76.384C262.728 76.544 263.056 76.76 263.322 77.032C263.594 77.304 263.813 77.616 263.978 77.968C264.144 78.3147 264.264 78.6853 264.338 79.08C264.413 79.4693 264.45 79.8587 264.45 80.248V85H263.266ZM257.018 85V76.36H258.082V78.488H258.202V85H257.018ZM269.831 85.24C269.026 85.24 268.338 85.04 267.767 84.64C267.197 84.2347 266.759 83.688 266.455 83C266.151 82.312 265.999 81.536 265.999 80.672C265.999 79.8133 266.149 79.04 266.447 78.352C266.751 77.664 267.186 77.12 267.751 76.72C268.317 76.32 268.994 76.12 269.783 76.12C270.594 76.12 271.277 76.3173 271.831 76.712C272.386 77.1067 272.805 77.648 273.087 78.336C273.375 79.0187 273.519 79.7973 273.519 80.672C273.519 81.5307 273.378 82.3067 273.095 83C272.813 83.688 272.397 84.2347 271.847 84.64C271.298 85.04 270.626 85.24 269.831 85.24ZM269.951 84.144C270.565 84.144 271.071 83.9947 271.471 83.696C271.871 83.3973 272.17 82.9867 272.367 82.464C272.565 81.936 272.663 81.3387 272.663 80.672C272.663 79.9947 272.565 79.3973 272.367 78.88C272.17 78.3573 271.871 77.9493 271.471 77.656C271.077 77.3627 270.578 77.216 269.975 77.216C269.357 77.216 268.845 77.368 268.439 77.672C268.034 77.976 267.733 78.3893 267.535 78.912C267.343 79.4347 267.247 80.0213 267.247 80.672C267.247 81.328 267.346 81.92 267.543 82.448C267.746 82.9707 268.047 83.384 268.447 83.688C268.847 83.992 269.349 84.144 269.951 84.144ZM272.663 85V78.496H272.535V73.48H273.719V85H272.663ZM276.124 74.72V73.4H277.3V74.72H276.124ZM276.124 85V76.36H277.3V85H276.124ZM282.922 85.232C281.909 85.232 281.074 85.0133 280.418 84.576C279.767 84.1387 279.367 83.5307 279.218 82.752L280.418 82.552C280.546 83.0427 280.837 83.4347 281.29 83.728C281.749 84.016 282.314 84.16 282.986 84.16C283.642 84.16 284.159 84.024 284.538 83.752C284.917 83.4747 285.106 83.0987 285.106 82.624C285.106 82.3573 285.045 82.1413 284.922 81.976C284.805 81.8053 284.562 81.648 284.194 81.504C283.826 81.36 283.277 81.1893 282.546 80.992C281.762 80.7787 281.149 80.5653 280.706 80.352C280.263 80.1387 279.949 79.8933 279.762 79.616C279.575 79.3333 279.482 78.9893 279.482 78.584C279.482 78.0933 279.621 77.664 279.898 77.296C280.175 76.9227 280.559 76.6347 281.05 76.432C281.541 76.224 282.111 76.12 282.762 76.12C283.413 76.12 283.994 76.2267 284.506 76.44C285.023 76.648 285.439 76.9413 285.754 77.32C286.069 77.6987 286.255 78.1387 286.314 78.64L285.114 78.856C285.034 78.3493 284.781 77.9493 284.354 77.656C283.933 77.3573 283.397 77.2027 282.746 77.192C282.133 77.176 281.634 77.2933 281.25 77.544C280.866 77.7893 280.674 78.1173 280.674 78.528C280.674 78.7573 280.743 78.9547 280.882 79.12C281.021 79.28 281.271 79.432 281.634 79.576C282.002 79.72 282.525 79.8773 283.202 80.048C283.997 80.2507 284.621 80.464 285.074 80.688C285.527 80.912 285.85 81.176 286.042 81.48C286.234 81.784 286.33 82.16 286.33 82.608C286.33 83.424 286.026 84.0667 285.418 84.536C284.815 85 283.983 85.232 282.922 85.232ZM291.328 85.232C290.315 85.232 289.48 85.0133 288.824 84.576C288.174 84.1387 287.774 83.5307 287.624 82.752L288.824 82.552C288.952 83.0427 289.243 83.4347 289.696 83.728C290.155 84.016 290.72 84.16 291.392 84.16C292.048 84.16 292.566 84.024 292.944 83.752C293.323 83.4747 293.512 83.0987 293.512 82.624C293.512 82.3573 293.451 82.1413 293.328 81.976C293.211 81.8053 292.968 81.648 292.6 81.504C292.232 81.36 291.683 81.1893 290.952 80.992C290.168 80.7787 289.555 80.5653 289.112 80.352C288.67 80.1387 288.355 79.8933 288.168 79.616C287.982 79.3333 287.888 78.9893 287.888 78.584C287.888 78.0933 288.027 77.664 288.304 77.296C288.582 76.9227 288.966 76.6347 289.456 76.432C289.947 76.224 290.518 76.12 291.168 76.12C291.819 76.12 292.4 76.2267 292.912 76.44C293.43 76.648 293.846 76.9413 294.16 77.32C294.475 77.6987 294.662 78.1387 294.72 78.64L293.52 78.856C293.44 78.3493 293.187 77.9493 292.76 77.656C292.339 77.3573 291.803 77.2027 291.152 77.192C290.539 77.176 290.04 77.2933 289.656 77.544C289.272 77.7893 289.08 78.1173 289.08 78.528C289.08 78.7573 289.15 78.9547 289.288 79.12C289.427 79.28 289.678 79.432 290.04 79.576C290.408 79.72 290.931 79.8773 291.608 80.048C292.403 80.2507 293.027 80.464 293.48 80.688C293.934 80.912 294.256 81.176 294.448 81.48C294.64 81.784 294.736 82.16 294.736 82.608C294.736 83.424 294.432 84.0667 293.824 84.536C293.222 85 292.39 85.232 291.328 85.232ZM300.167 85.24C299.324 85.24 298.593 85.0533 297.975 84.68C297.361 84.3067 296.884 83.7813 296.543 83.104C296.201 82.4267 296.031 81.632 296.031 80.72C296.031 79.776 296.199 78.96 296.535 78.272C296.871 77.584 297.343 77.0533 297.951 76.68C298.564 76.3067 299.287 76.12 300.119 76.12C300.972 76.12 301.7 76.3173 302.303 76.712C302.905 77.1013 303.361 77.6613 303.671 78.392C303.98 79.1227 304.121 79.9947 304.095 81.008H302.895V80.592C302.873 79.472 302.631 78.6267 302.167 78.056C301.708 77.4853 301.036 77.2 300.151 77.2C299.223 77.2 298.511 77.5013 298.015 78.104C297.524 78.7067 297.279 79.5653 297.279 80.68C297.279 81.768 297.524 82.6133 298.015 83.216C298.511 83.8133 299.212 84.112 300.119 84.112C300.737 84.112 301.276 83.9707 301.735 83.688C302.199 83.4 302.564 82.9867 302.831 82.448L303.927 82.872C303.585 83.624 303.081 84.208 302.415 84.624C301.753 85.0347 301.004 85.24 300.167 85.24ZM296.863 81.008V80.024H303.463V81.008H296.863ZM89 111.24C88.2053 111.24 87.5333 111.04 86.984 110.64C86.4347 110.235 86.0187 109.688 85.736 109C85.4533 108.307 85.312 107.531 85.312 106.672C85.312 105.797 85.4533 105.019 85.736 104.336C86.024 103.648 86.4453 103.107 87 102.712C87.5547 102.317 88.2373 102.12 89.048 102.12C89.8373 102.12 90.5147 102.32 91.08 102.72C91.6453 103.12 92.0773 103.664 92.376 104.352C92.68 105.04 92.832 105.813 92.832 106.672C92.832 107.536 92.68 108.312 92.376 109C92.072 109.688 91.6347 110.235 91.064 110.64C90.4933 111.04 89.8053 111.24 89 111.24ZM85.112 111V99.48H86.296V104.496H86.168V111H85.112ZM88.88 110.144C89.4827 110.144 89.984 109.992 90.384 109.688C90.784 109.384 91.0827 108.971 91.28 108.448C91.4827 107.92 91.584 107.328 91.584 106.672C91.584 106.021 91.4853 105.435 91.288 104.912C91.0907 104.389 90.7893 103.976 90.384 103.672C89.984 103.368 89.4747 103.216 88.856 103.216C88.2533 103.216 87.752 103.363 87.352 103.656C86.9573 103.949 86.6613 104.357 86.464 104.88C86.2667 105.397 86.168 105.995 86.168 106.672C86.168 107.339 86.2667 107.936 86.464 108.464C86.6613 108.987 86.96 109.397 87.36 109.696C87.76 109.995 88.2667 110.144 88.88 110.144ZM94.7488 111V99.24H95.9248V111H94.7488ZM100.795 111.24C100.144 111.24 99.5978 111.123 99.1551 110.888C98.7178 110.653 98.3898 110.341 98.1711 109.952C97.9525 109.563 97.8431 109.139 97.8431 108.68C97.8431 108.211 97.9365 107.811 98.1231 107.48C98.3151 107.144 98.5738 106.869 98.8991 106.656C99.2298 106.443 99.6111 106.28 100.043 106.168C100.48 106.061 100.963 105.968 101.491 105.888C102.024 105.803 102.544 105.731 103.051 105.672C103.563 105.608 104.011 105.547 104.395 105.488L103.979 105.744C103.995 104.891 103.83 104.259 103.483 103.848C103.136 103.437 102.534 103.232 101.675 103.232C101.083 103.232 100.582 103.365 100.171 103.632C99.7658 103.899 99.4805 104.32 99.3151 104.896L98.1711 104.56C98.3685 103.787 98.7658 103.187 99.3631 102.76C99.9605 102.333 100.736 102.12 101.691 102.12C102.48 102.12 103.15 102.269 103.699 102.568C104.254 102.861 104.646 103.288 104.875 103.848C104.982 104.099 105.051 104.379 105.083 104.688C105.115 104.997 105.131 105.312 105.131 105.632V111H104.083V108.832L104.387 108.96C104.094 109.701 103.638 110.267 103.019 110.656C102.4 111.045 101.659 111.24 100.795 111.24ZM100.931 110.224C101.48 110.224 101.96 110.125 102.371 109.928C102.782 109.731 103.112 109.461 103.363 109.12C103.614 108.773 103.776 108.384 103.851 107.952C103.915 107.675 103.95 107.371 103.955 107.04C103.96 106.704 103.963 106.453 103.963 106.288L104.411 106.52C104.011 106.573 103.576 106.627 103.107 106.68C102.643 106.733 102.184 106.795 101.731 106.864C101.283 106.933 100.878 107.016 100.515 107.112C100.27 107.181 100.032 107.28 99.8031 107.408C99.5738 107.531 99.3845 107.696 99.2351 107.904C99.0911 108.112 99.0191 108.371 99.0191 108.68C99.0191 108.931 99.0805 109.173 99.2031 109.408C99.3311 109.643 99.5338 109.837 99.8111 109.992C100.094 110.147 100.467 110.224 100.931 110.224ZM113.454 111V106.592C113.454 106.112 113.408 105.672 113.318 105.272C113.227 104.867 113.08 104.515 112.878 104.216C112.68 103.912 112.422 103.677 112.102 103.512C111.787 103.347 111.403 103.264 110.95 103.264C110.534 103.264 110.166 103.336 109.846 103.48C109.531 103.624 109.264 103.832 109.046 104.104C108.832 104.371 108.67 104.696 108.558 105.08C108.446 105.464 108.39 105.901 108.39 106.392L107.558 106.208C107.558 105.323 107.712 104.579 108.022 103.976C108.331 103.373 108.758 102.917 109.302 102.608C109.846 102.299 110.47 102.144 111.174 102.144C111.691 102.144 112.142 102.224 112.526 102.384C112.915 102.544 113.243 102.76 113.51 103.032C113.782 103.304 114 103.616 114.166 103.968C114.331 104.315 114.451 104.685 114.526 105.08C114.6 105.469 114.638 105.859 114.638 106.248V111H113.454ZM107.206 111V102.36H108.27V104.488H108.39V111H107.206ZM120.019 111.24C119.214 111.24 118.526 111.04 117.955 110.64C117.384 110.235 116.947 109.688 116.643 109C116.339 108.312 116.187 107.536 116.187 106.672C116.187 105.813 116.336 105.04 116.635 104.352C116.939 103.664 117.374 103.12 117.939 102.72C118.504 102.32 119.182 102.12 119.971 102.12C120.782 102.12 121.464 102.317 122.019 102.712C122.574 103.107 122.992 103.648 123.275 104.336C123.563 105.019 123.707 105.797 123.707 106.672C123.707 107.531 123.566 108.307 123.283 109C123 109.688 122.584 110.235 122.035 110.64C121.486 111.04 120.814 111.24 120.019 111.24ZM120.139 110.144C120.752 110.144 121.259 109.995 121.659 109.696C122.059 109.397 122.358 108.987 122.555 108.464C122.752 107.936 122.851 107.339 122.851 106.672C122.851 105.995 122.752 105.397 122.555 104.88C122.358 104.357 122.059 103.949 121.659 103.656C121.264 103.363 120.766 103.216 120.163 103.216C119.544 103.216 119.032 103.368 118.627 103.672C118.222 103.976 117.92 104.389 117.723 104.912C117.531 105.435 117.435 106.021 117.435 106.672C117.435 107.328 117.534 107.92 117.731 108.448C117.934 108.971 118.235 109.384 118.635 109.688C119.035 109.992 119.536 110.144 120.139 110.144ZM122.851 111V104.496H122.723V99.48H123.907V111H122.851ZM126.311 100.72V99.4H127.487V100.72H126.311ZM126.311 111V102.36H127.487V111H126.311ZM134.59 111C134.104 111.101 133.624 111.141 133.15 111.12C132.68 111.099 132.259 110.997 131.886 110.816C131.518 110.635 131.238 110.352 131.046 109.968C130.891 109.648 130.806 109.325 130.79 109C130.779 108.669 130.774 108.293 130.774 107.872V99.96H131.942V107.824C131.942 108.187 131.944 108.491 131.95 108.736C131.96 108.976 132.016 109.189 132.118 109.376C132.31 109.733 132.614 109.947 133.03 110.016C133.451 110.085 133.971 110.069 134.59 109.968V111ZM128.926 103.368V102.36H134.59V103.368H128.926ZM138.215 114.84V113.704H138.703C139.092 113.704 139.402 113.603 139.631 113.4C139.866 113.203 139.983 112.869 139.983 112.4V102.36H141.151V112.696C141.151 113.416 140.978 113.952 140.631 114.304C140.29 114.661 139.764 114.84 139.055 114.84H138.215ZM139.983 100.72V99.4H141.151V100.72H139.983ZM146.815 111.216C146.297 111.216 145.844 111.136 145.455 110.976C145.071 110.816 144.743 110.6 144.471 110.328C144.204 110.056 143.988 109.747 143.823 109.4C143.657 109.048 143.537 108.677 143.463 108.288C143.388 107.893 143.351 107.501 143.351 107.112V102.36H144.535V106.768C144.535 107.243 144.58 107.683 144.671 108.088C144.761 108.493 144.905 108.848 145.103 109.152C145.305 109.451 145.564 109.683 145.879 109.848C146.199 110.013 146.585 110.096 147.039 110.096C147.455 110.096 147.82 110.024 148.135 109.88C148.455 109.736 148.721 109.531 148.935 109.264C149.153 108.992 149.319 108.664 149.431 108.28C149.543 107.891 149.599 107.453 149.599 106.968L150.431 107.152C150.431 108.037 150.276 108.781 149.967 109.384C149.657 109.987 149.231 110.443 148.687 110.752C148.143 111.061 147.519 111.216 146.815 111.216ZM149.719 111V108.872H149.599V102.36H150.775V111H149.719ZM156.235 111.232C155.221 111.232 154.387 111.013 153.731 110.576C153.08 110.139 152.68 109.531 152.531 108.752L153.731 108.552C153.859 109.043 154.149 109.435 154.603 109.728C155.061 110.016 155.627 110.16 156.299 110.16C156.955 110.16 157.472 110.024 157.851 109.752C158.229 109.475 158.419 109.099 158.419 108.624C158.419 108.357 158.357 108.141 158.235 107.976C158.117 107.805 157.875 107.648 157.507 107.504C157.139 107.36 156.589 107.189 155.859 106.992C155.075 106.779 154.461 106.565 154.019 106.352C153.576 106.139 153.261 105.893 153.075 105.616C152.888 105.333 152.795 104.989 152.795 104.584C152.795 104.093 152.933 103.664 153.211 103.296C153.488 102.923 153.872 102.635 154.363 102.432C154.853 102.224 155.424 102.12 156.075 102.12C156.725 102.12 157.307 102.227 157.819 102.44C158.336 102.648 158.752 102.941 159.067 103.32C159.381 103.699 159.568 104.139 159.627 104.64L158.427 104.856C158.347 104.349 158.093 103.949 157.667 103.656C157.245 103.357 156.709 103.203 156.059 103.192C155.445 103.176 154.947 103.293 154.563 103.544C154.179 103.789 153.987 104.117 153.987 104.528C153.987 104.757 154.056 104.955 154.195 105.12C154.333 105.28 154.584 105.432 154.947 105.576C155.315 105.72 155.837 105.877 156.515 106.048C157.309 106.251 157.933 106.464 158.387 106.688C158.84 106.912 159.163 107.176 159.355 107.48C159.547 107.784 159.643 108.16 159.643 108.608C159.643 109.424 159.339 110.067 158.731 110.536C158.128 111 157.296 111.232 156.235 111.232ZM166.121 111C165.636 111.101 165.156 111.141 164.681 111.12C164.212 111.099 163.79 110.997 163.417 110.816C163.049 110.635 162.769 110.352 162.577 109.968C162.422 109.648 162.337 109.325 162.321 109C162.31 108.669 162.305 108.293 162.305 107.872V99.96H163.473V107.824C163.473 108.187 163.476 108.491 163.481 108.736C163.492 108.976 163.548 109.189 163.649 109.376C163.841 109.733 164.145 109.947 164.561 110.016C164.982 110.085 165.502 110.069 166.121 109.968V111ZM160.457 103.368V102.36H166.121V103.368H160.457ZM171.119 111.24C170.26 111.24 169.527 111.045 168.919 110.656C168.311 110.267 167.844 109.728 167.519 109.04C167.193 108.352 167.031 107.563 167.031 106.672C167.031 105.765 167.196 104.971 167.527 104.288C167.857 103.605 168.327 103.075 168.935 102.696C169.548 102.312 170.276 102.12 171.119 102.12C171.983 102.12 172.719 102.315 173.327 102.704C173.94 103.088 174.407 103.624 174.727 104.312C175.052 104.995 175.215 105.781 175.215 106.672C175.215 107.579 175.052 108.376 174.727 109.064C174.401 109.747 173.932 110.28 173.319 110.664C172.705 111.048 171.972 111.24 171.119 111.24ZM171.119 110.112C172.079 110.112 172.793 109.795 173.263 109.16C173.732 108.52 173.967 107.691 173.967 106.672C173.967 105.627 173.729 104.795 173.255 104.176C172.785 103.557 172.073 103.248 171.119 103.248C170.473 103.248 169.94 103.395 169.519 103.688C169.103 103.976 168.791 104.379 168.583 104.896C168.38 105.408 168.279 106 168.279 106.672C168.279 107.712 168.519 108.547 168.999 109.176C169.479 109.8 170.185 110.112 171.119 110.112ZM176.891 111V109.632H178.259V111H176.891Z" fill="white"/>
<defs>
<linearGradient id="paint0_linear_20005128_7815" x1="16" y1="30.0492" x2="44" y2="30.0492" gradientUnits="userSpaceOnUse">
<stop stop-color="#6366F1"/>
<stop offset="0.5" stop-color="#8B5CF6"/>
<stop offset="1" stop-color="#D946EF"/>
</linearGradient>
</defs>
</svg>
