<svg width="345" height="118" viewBox="0 0 345 118" fill="none" xmlns="http://www.w3.org/2000/svg">
<rect width="60" height="60" rx="8" fill="#6366F1" fill-opacity="0.08"/>
<g clip-path="url(#clip0_20005128_7801)">
<path d="M41.8127 37.9827V18.7342C41.8127 18.4327 41.5673 18.1873 41.2658 18.1873H38.8598C38.5582 18.1873 38.3129 18.4327 38.3129 18.7342V41.8106H42.9062C43.5104 41.8106 44 42.3002 44 42.9041C44 43.5082 43.5104 43.9979 42.9062 43.9979H17.0959C16.4918 43.9979 16.0021 43.5082 16.0021 42.9041V35.0844C16.0021 33.5769 17.2288 32.3503 18.7363 32.3503H21.1423C22.6501 32.3503 23.8765 33.5769 23.8765 35.0844V37.9827C23.8765 38.5868 23.3869 39.0764 22.783 39.0764C22.1788 39.0764 21.6892 38.5868 21.6892 37.9827V35.0844C21.6892 34.783 21.444 34.5376 21.1423 34.5376H18.7363C18.4349 34.5376 18.1894 34.783 18.1894 35.0844V41.8106H26.064V27.4835C26.064 25.9758 27.2904 24.7494 28.7982 24.7494H31.2042C32.7117 24.7494 33.9384 25.9758 33.9384 27.4835V37.9827C33.9384 38.5868 33.4487 39.0764 32.8446 39.0764C32.2407 39.0764 31.7509 38.5868 31.7509 37.9827V27.4835C31.7509 27.1819 31.5056 26.9366 31.2042 26.9366H28.7982C28.4965 26.9366 28.2513 27.1819 28.2513 27.4835V41.8106H36.1256V18.7342C36.1256 17.2266 37.3523 16 38.8598 16H41.2658C42.7734 16 44 17.2266 44 18.7342V37.9827C44 38.5868 43.5104 39.0764 42.9062 39.0764C42.3023 39.0764 41.8127 38.5868 41.8127 37.9827ZM20.3568 25.7882H18.7282C18.4594 25.7882 18.1873 25.6192 18.1873 25.2962C18.1873 24.6921 17.6977 24.2025 17.0938 24.2025C16.4896 24.2025 16 24.6921 16 25.2962C16 26.7649 17.1454 27.9221 18.6259 27.9731V28.5771C18.6259 29.1812 19.1155 29.6708 19.7196 29.6708C20.3235 29.6708 20.8131 29.1812 20.8131 28.5771V27.9437C22.3177 27.7335 23.4392 26.4962 23.4392 24.9542V24.8585C23.4392 23.1399 22.0564 21.7418 20.3568 21.7418H19.3547C18.8564 21.7418 18.4659 21.3613 18.4659 20.8753V20.7961C18.4659 20.3064 18.848 19.9373 19.3547 19.9373H20.3024C20.5809 19.9373 20.8689 20.1236 20.8689 20.4357C20.8689 21.0398 21.3587 21.5294 21.9626 21.5294C22.5668 21.5294 23.0564 21.0398 23.0564 20.4357C23.0564 19.1249 22.0885 18.0313 20.8131 17.797V17.0938C20.8131 16.4896 20.3235 16 19.7196 16C19.1155 16 18.6259 16.4896 18.6259 17.0938V17.8346C18.0845 17.9623 17.5887 18.2321 17.1867 18.6256C16.6009 19.1988 16.2786 19.9695 16.2786 20.7961V20.8753C16.2786 21.7014 16.6003 22.4728 17.1845 23.0476C17.7624 23.6161 18.5331 23.929 19.3547 23.929H20.3568C20.842 23.929 21.2517 24.3548 21.2517 24.8585V24.9542C21.2517 25.4297 20.867 25.7882 20.3568 25.7882Z" fill="url(#paint0_linear_20005128_7801)"/>
</g>
<path d="M91.58 22.3C90.14 22.3 88.8967 21.9867 87.85 21.36C86.81 20.7333 86.0067 19.8567 85.44 18.73C84.88 17.6033 84.6 16.2933 84.6 14.8C84.6 13.3067 84.88 11.9967 85.44 10.87C86.0067 9.74333 86.81 8.86667 87.85 8.24C88.8967 7.61333 90.14 7.3 91.58 7.3C93.2333 7.3 94.62 7.71 95.74 8.53C96.8667 9.35 97.66 10.46 98.12 11.86L95.38 12.62C95.1133 11.7467 94.6633 11.07 94.03 10.59C93.3967 10.1033 92.58 9.86 91.58 9.86C90.6667 9.86 89.9033 10.0633 89.29 10.47C88.6833 10.8767 88.2267 11.45 87.92 12.19C87.6133 12.93 87.46 13.8 87.46 14.8C87.46 15.8 87.6133 16.67 87.92 17.41C88.2267 18.15 88.6833 18.7233 89.29 19.13C89.9033 19.5367 90.6667 19.74 91.58 19.74C92.58 19.74 93.3967 19.4967 94.03 19.01C94.6633 18.5233 95.1133 17.8467 95.38 16.98L98.12 17.74C97.66 19.14 96.8667 20.25 95.74 21.07C94.62 21.89 93.2333 22.3 91.58 22.3ZM105.182 22.3C104.095 22.3 103.142 22.0567 102.322 21.57C101.502 21.0833 100.862 20.4133 100.402 19.56C99.9485 18.7 99.7219 17.7133 99.7219 16.6C99.7219 15.4733 99.9552 14.4833 100.422 13.63C100.889 12.77 101.532 12.1 102.352 11.62C103.172 11.14 104.115 10.9 105.182 10.9C106.269 10.9 107.222 11.1433 108.042 11.63C108.869 12.1167 109.512 12.79 109.972 13.65C110.432 14.5033 110.662 15.4867 110.662 16.6C110.662 17.72 110.429 18.71 109.962 19.57C109.502 20.4233 108.859 21.0933 108.032 21.58C107.212 22.06 106.262 22.3 105.182 22.3ZM105.182 19.76C106.055 19.76 106.705 19.4667 107.132 18.88C107.565 18.2867 107.782 17.5267 107.782 16.6C107.782 15.64 107.562 14.8733 107.122 14.3C106.689 13.7267 106.042 13.44 105.182 13.44C104.589 13.44 104.102 13.5733 103.722 13.84C103.342 14.1067 103.059 14.4767 102.872 14.95C102.692 15.4233 102.602 15.9733 102.602 16.6C102.602 17.5667 102.819 18.3367 103.252 18.91C103.692 19.4767 104.335 19.76 105.182 19.76ZM116.788 22.3C115.428 22.3 114.328 21.9933 113.488 21.38C112.655 20.76 112.148 19.8867 111.968 18.76L114.748 18.34C114.861 18.8467 115.111 19.2433 115.498 19.53C115.891 19.8167 116.388 19.96 116.988 19.96C117.481 19.96 117.861 19.8667 118.128 19.68C118.395 19.4867 118.528 19.22 118.528 18.88C118.528 18.6667 118.475 18.4967 118.368 18.37C118.261 18.2367 118.021 18.1067 117.648 17.98C117.281 17.8533 116.708 17.6867 115.928 17.48C115.048 17.2533 114.345 17 113.818 16.72C113.291 16.44 112.911 16.1067 112.678 15.72C112.445 15.3267 112.328 14.8533 112.328 14.3C112.328 13.6067 112.505 13.0067 112.858 12.5C113.211 11.9867 113.708 11.5933 114.348 11.32C114.995 11.04 115.755 10.9 116.628 10.9C117.475 10.9 118.225 11.03 118.878 11.29C119.531 11.55 120.058 11.92 120.458 12.4C120.865 12.88 121.115 13.4467 121.208 14.1L118.428 14.6C118.381 14.2 118.208 13.8833 117.908 13.65C117.608 13.4167 117.201 13.28 116.688 13.24C116.188 13.2067 115.785 13.2733 115.478 13.44C115.178 13.6067 115.028 13.8467 115.028 14.16C115.028 14.3467 115.091 14.5033 115.218 14.63C115.351 14.7567 115.621 14.8867 116.028 15.02C116.441 15.1533 117.068 15.3267 117.908 15.54C118.728 15.7533 119.385 16.0033 119.878 16.29C120.378 16.57 120.741 16.91 120.968 17.31C121.195 17.7033 121.308 18.18 121.308 18.74C121.308 19.8467 120.908 20.7167 120.108 21.35C119.308 21.9833 118.201 22.3 116.788 22.3ZM129.985 22C129.239 22.14 128.505 22.2 127.785 22.18C127.072 22.1667 126.432 22.0433 125.865 21.81C125.305 21.57 124.879 21.1867 124.585 20.66C124.319 20.1667 124.179 19.6667 124.165 19.16C124.152 18.6467 124.145 18.0667 124.145 17.42V8.2H126.865V17.26C126.865 17.68 126.869 18.06 126.875 18.4C126.889 18.7333 126.959 19 127.085 19.2C127.325 19.58 127.709 19.7867 128.235 19.82C128.762 19.8533 129.345 19.8267 129.985 19.74V22ZM122.305 13.3V11.2H129.985V13.3H122.305ZM141.836 22.3C140.769 22.3 139.806 22.1133 138.946 21.74C138.093 21.36 137.389 20.82 136.836 20.12C136.289 19.4133 135.943 18.5733 135.796 17.6L138.636 17.18C138.836 18.0067 139.249 18.6433 139.876 19.09C140.503 19.5367 141.216 19.76 142.016 19.76C142.463 19.76 142.896 19.69 143.316 19.55C143.736 19.41 144.079 19.2033 144.346 18.93C144.619 18.6567 144.756 18.32 144.756 17.92C144.756 17.7733 144.733 17.6333 144.686 17.5C144.646 17.36 144.576 17.23 144.476 17.11C144.376 16.99 144.233 16.8767 144.046 16.77C143.866 16.6633 143.636 16.5667 143.356 16.48L139.616 15.38C139.336 15.3 139.009 15.1867 138.636 15.04C138.269 14.8933 137.913 14.6833 137.566 14.41C137.219 14.1367 136.929 13.7767 136.696 13.33C136.469 12.8767 136.356 12.3067 136.356 11.62C136.356 10.6533 136.599 9.85 137.086 9.21C137.573 8.57 138.223 8.09333 139.036 7.78C139.849 7.46667 140.749 7.31333 141.736 7.32C142.729 7.33333 143.616 7.50333 144.396 7.83C145.176 8.15667 145.829 8.63333 146.356 9.26C146.883 9.88 147.263 10.64 147.496 11.54L144.556 12.04C144.449 11.5733 144.253 11.18 143.966 10.86C143.679 10.54 143.336 10.2967 142.936 10.13C142.543 9.96333 142.129 9.87333 141.696 9.86C141.269 9.84667 140.866 9.90667 140.486 10.04C140.113 10.1667 139.806 10.3533 139.566 10.6C139.333 10.8467 139.216 11.14 139.216 11.48C139.216 11.7933 139.313 12.05 139.506 12.25C139.699 12.4433 139.943 12.6 140.236 12.72C140.529 12.84 140.829 12.94 141.136 13.02L143.636 13.7C144.009 13.8 144.423 13.9333 144.876 14.1C145.329 14.26 145.763 14.4867 146.176 14.78C146.596 15.0667 146.939 15.4467 147.206 15.92C147.479 16.3933 147.616 16.9933 147.616 17.72C147.616 18.4933 147.453 19.17 147.126 19.75C146.806 20.3233 146.373 20.8 145.826 21.18C145.279 21.5533 144.659 21.8333 143.966 22.02C143.279 22.2067 142.569 22.3 141.836 22.3ZM156.294 22C155.547 22.14 154.814 22.2 154.094 22.18C153.381 22.1667 152.741 22.0433 152.174 21.81C151.614 21.57 151.187 21.1867 150.894 20.66C150.627 20.1667 150.487 19.6667 150.474 19.16C150.461 18.6467 150.454 18.0667 150.454 17.42V8.2H153.174V17.26C153.174 17.68 153.177 18.06 153.184 18.4C153.197 18.7333 153.267 19 153.394 19.2C153.634 19.58 154.017 19.7867 154.544 19.82C155.071 19.8533 155.654 19.8267 156.294 19.74V22ZM148.614 13.3V11.2H156.294V13.3H148.614ZM161.701 22.3C160.927 22.3 160.271 22.1533 159.731 21.86C159.197 21.56 158.791 21.1633 158.511 20.67C158.237 20.17 158.101 19.62 158.101 19.02C158.101 18.52 158.177 18.0633 158.331 17.65C158.484 17.2367 158.731 16.8733 159.071 16.56C159.417 16.24 159.881 15.9733 160.461 15.76C160.861 15.6133 161.337 15.4833 161.891 15.37C162.444 15.2567 163.071 15.15 163.771 15.05C164.471 14.9433 165.241 14.8267 166.081 14.7L165.101 15.24C165.101 14.6 164.947 14.13 164.641 13.83C164.334 13.53 163.821 13.38 163.101 13.38C162.701 13.38 162.284 13.4767 161.851 13.67C161.417 13.8633 161.114 14.2067 160.941 14.7L158.481 13.92C158.754 13.0267 159.267 12.3 160.021 11.74C160.774 11.18 161.801 10.9 163.101 10.9C164.054 10.9 164.901 11.0467 165.641 11.34C166.381 11.6333 166.941 12.14 167.321 12.86C167.534 13.26 167.661 13.66 167.701 14.06C167.741 14.46 167.761 14.9067 167.761 15.4V22H165.381V19.78L165.721 20.24C165.194 20.9667 164.624 21.4933 164.011 21.82C163.404 22.14 162.634 22.3 161.701 22.3ZM162.281 20.16C162.781 20.16 163.201 20.0733 163.541 19.9C163.887 19.72 164.161 19.5167 164.361 19.29C164.567 19.0633 164.707 18.8733 164.781 18.72C164.921 18.4267 165.001 18.0867 165.021 17.7C165.047 17.3067 165.061 16.98 165.061 16.72L165.861 16.92C165.054 17.0533 164.401 17.1667 163.901 17.26C163.401 17.3467 162.997 17.4267 162.691 17.5C162.384 17.5733 162.114 17.6533 161.881 17.74C161.614 17.8467 161.397 17.9633 161.231 18.09C161.071 18.21 160.951 18.3433 160.871 18.49C160.797 18.6367 160.761 18.8 160.761 18.98C160.761 19.2267 160.821 19.44 160.941 19.62C161.067 19.7933 161.244 19.9267 161.471 20.02C161.697 20.1133 161.967 20.16 162.281 20.16ZM176.841 22C176.094 22.14 175.361 22.2 174.641 22.18C173.928 22.1667 173.288 22.0433 172.721 21.81C172.161 21.57 171.734 21.1867 171.441 20.66C171.174 20.1667 171.034 19.6667 171.021 19.16C171.008 18.6467 171.001 18.0667 171.001 17.42V8.2H173.721V17.26C173.721 17.68 173.724 18.06 173.731 18.4C173.744 18.7333 173.814 19 173.941 19.2C174.181 19.58 174.564 19.7867 175.091 19.82C175.618 19.8533 176.201 19.8267 176.841 19.74V22ZM169.161 13.3V11.2H176.841V13.3H169.161ZM179.448 9.7V7.3H182.168V9.7H179.448ZM179.448 22V11.2H182.168V22H179.448ZM189.386 22.3C188.026 22.3 186.926 21.9933 186.086 21.38C185.252 20.76 184.746 19.8867 184.566 18.76L187.346 18.34C187.459 18.8467 187.709 19.2433 188.096 19.53C188.489 19.8167 188.986 19.96 189.586 19.96C190.079 19.96 190.459 19.8667 190.726 19.68C190.992 19.4867 191.126 19.22 191.126 18.88C191.126 18.6667 191.072 18.4967 190.966 18.37C190.859 18.2367 190.619 18.1067 190.246 17.98C189.879 17.8533 189.306 17.6867 188.526 17.48C187.646 17.2533 186.942 17 186.416 16.72C185.889 16.44 185.509 16.1067 185.276 15.72C185.042 15.3267 184.926 14.8533 184.926 14.3C184.926 13.6067 185.102 13.0067 185.456 12.5C185.809 11.9867 186.306 11.5933 186.946 11.32C187.592 11.04 188.352 10.9 189.226 10.9C190.072 10.9 190.822 11.03 191.476 11.29C192.129 11.55 192.656 11.92 193.056 12.4C193.462 12.88 193.712 13.4467 193.806 14.1L191.026 14.6C190.979 14.2 190.806 13.8833 190.506 13.65C190.206 13.4167 189.799 13.28 189.286 13.24C188.786 13.2067 188.382 13.2733 188.076 13.44C187.776 13.6067 187.626 13.8467 187.626 14.16C187.626 14.3467 187.689 14.5033 187.816 14.63C187.949 14.7567 188.219 14.8867 188.626 15.02C189.039 15.1533 189.666 15.3267 190.506 15.54C191.326 15.7533 191.982 16.0033 192.476 16.29C192.976 16.57 193.339 16.91 193.566 17.31C193.792 17.7033 193.906 18.18 193.906 18.74C193.906 19.8467 193.506 20.7167 192.706 21.35C191.906 21.9833 190.799 22.3 189.386 22.3ZM202.583 22C201.836 22.14 201.103 22.2 200.383 22.18C199.67 22.1667 199.03 22.0433 198.463 21.81C197.903 21.57 197.476 21.1867 197.183 20.66C196.916 20.1667 196.776 19.6667 196.763 19.16C196.75 18.6467 196.743 18.0667 196.743 17.42V8.2H199.463V17.26C199.463 17.68 199.466 18.06 199.473 18.4C199.486 18.7333 199.556 19 199.683 19.2C199.923 19.58 200.306 19.7867 200.833 19.82C201.36 19.8533 201.943 19.8267 202.583 19.74V22ZM194.903 13.3V11.2H202.583V13.3H194.903ZM205.19 9.7V7.3H207.91V9.7H205.19ZM205.19 22V11.2H207.91V22H205.19ZM215.668 22.3C214.548 22.3 213.588 22.05 212.788 21.55C211.988 21.05 211.374 20.37 210.948 19.51C210.521 18.65 210.308 17.68 210.308 16.6C210.308 15.5067 210.528 14.53 210.968 13.67C211.414 12.81 212.041 12.1333 212.848 11.64C213.654 11.1467 214.608 10.9 215.708 10.9C216.981 10.9 218.048 11.2233 218.908 11.87C219.774 12.51 220.328 13.3867 220.568 14.5L217.848 15.22C217.688 14.66 217.408 14.2233 217.008 13.91C216.614 13.5967 216.168 13.44 215.668 13.44C215.094 13.44 214.624 13.58 214.258 13.86C213.891 14.1333 213.621 14.51 213.448 14.99C213.274 15.4633 213.188 16 213.188 16.6C213.188 17.54 213.394 18.3033 213.808 18.89C214.228 19.47 214.848 19.76 215.668 19.76C216.281 19.76 216.748 19.62 217.068 19.34C217.388 19.06 217.628 18.66 217.788 18.14L220.568 18.72C220.261 19.8667 219.681 20.75 218.828 21.37C217.974 21.99 216.921 22.3 215.668 22.3ZM226.788 22.3C225.428 22.3 224.328 21.9933 223.488 21.38C222.655 20.76 222.148 19.8867 221.968 18.76L224.748 18.34C224.861 18.8467 225.111 19.2433 225.498 19.53C225.891 19.8167 226.388 19.96 226.988 19.96C227.481 19.96 227.861 19.8667 228.128 19.68C228.395 19.4867 228.528 19.22 228.528 18.88C228.528 18.6667 228.475 18.4967 228.368 18.37C228.261 18.2367 228.021 18.1067 227.648 17.98C227.281 17.8533 226.708 17.6867 225.928 17.48C225.048 17.2533 224.345 17 223.818 16.72C223.291 16.44 222.911 16.1067 222.678 15.72C222.445 15.3267 222.328 14.8533 222.328 14.3C222.328 13.6067 222.505 13.0067 222.858 12.5C223.211 11.9867 223.708 11.5933 224.348 11.32C224.995 11.04 225.755 10.9 226.628 10.9C227.475 10.9 228.225 11.03 228.878 11.29C229.531 11.55 230.058 11.92 230.458 12.4C230.865 12.88 231.115 13.4467 231.208 14.1L228.428 14.6C228.381 14.2 228.208 13.8833 227.908 13.65C227.608 13.4167 227.201 13.28 226.688 13.24C226.188 13.2067 225.785 13.2733 225.478 13.44C225.178 13.6067 225.028 13.8467 225.028 14.16C225.028 14.3467 225.091 14.5033 225.218 14.63C225.351 14.7567 225.621 14.8867 226.028 15.02C226.441 15.1533 227.068 15.3267 227.908 15.54C228.728 15.7533 229.385 16.0033 229.878 16.29C230.378 16.57 230.741 16.91 230.968 17.31C231.195 17.7033 231.308 18.18 231.308 18.74C231.308 19.8467 230.908 20.7167 230.108 21.35C229.308 21.9833 228.201 22.3 226.788 22.3Z" fill="white"/>
<path opacity="0.7" d="M85.12 59V47.48H86.2L90.728 57.168L95.232 47.48H96.328V58.992H95.208V50.104L91.104 59H90.344L86.248 50.104V59H85.12ZM101.045 59.24C100.394 59.24 99.8478 59.1227 99.4051 58.888C98.9678 58.6533 98.6398 58.3413 98.4211 57.952C98.2025 57.5627 98.0931 57.1387 98.0931 56.68C98.0931 56.2107 98.1865 55.8107 98.3731 55.48C98.5651 55.144 98.8238 54.8693 99.1491 54.656C99.4798 54.4427 99.8611 54.28 100.293 54.168C100.73 54.0613 101.213 53.968 101.741 53.888C102.274 53.8027 102.794 53.7307 103.301 53.672C103.813 53.608 104.261 53.5467 104.645 53.488L104.229 53.744C104.245 52.8907 104.08 52.2587 103.733 51.848C103.386 51.4373 102.784 51.232 101.925 51.232C101.333 51.232 100.832 51.3653 100.421 51.632C100.016 51.8987 99.7305 52.32 99.5651 52.896L98.4211 52.56C98.6185 51.7867 99.0158 51.1867 99.6131 50.76C100.21 50.3333 100.986 50.12 101.941 50.12C102.73 50.12 103.4 50.2693 103.949 50.568C104.504 50.8613 104.896 51.288 105.125 51.848C105.232 52.0987 105.301 52.3787 105.333 52.688C105.365 52.9973 105.381 53.312 105.381 53.632V59H104.333V56.832L104.637 56.96C104.344 57.7013 103.888 58.2667 103.269 58.656C102.65 59.0453 101.909 59.24 101.045 59.24ZM101.181 58.224C101.73 58.224 102.21 58.1253 102.621 57.928C103.032 57.7307 103.362 57.4613 103.613 57.12C103.864 56.7733 104.026 56.384 104.101 55.952C104.165 55.6747 104.2 55.3707 104.205 55.04C104.21 54.704 104.213 54.4533 104.213 54.288L104.661 54.52C104.261 54.5733 103.826 54.6267 103.357 54.68C102.893 54.7333 102.434 54.7947 101.981 54.864C101.533 54.9333 101.128 55.016 100.765 55.112C100.52 55.1813 100.282 55.28 100.053 55.408C99.8238 55.5307 99.6345 55.696 99.4851 55.904C99.3411 56.112 99.2691 56.3707 99.2691 56.68C99.2691 56.9307 99.3305 57.1733 99.4531 57.408C99.5811 57.6427 99.7838 57.8373 100.061 57.992C100.344 58.1467 100.717 58.224 101.181 58.224ZM112.168 59C111.682 59.1013 111.202 59.1413 110.728 59.12C110.258 59.0987 109.837 58.9973 109.464 58.816C109.096 58.6347 108.816 58.352 108.624 57.968C108.469 57.648 108.384 57.3253 108.368 57C108.357 56.6693 108.352 56.2933 108.352 55.872V47.96H109.52V55.824C109.52 56.1867 109.522 56.4907 109.528 56.736C109.538 56.976 109.594 57.1893 109.696 57.376C109.888 57.7333 110.192 57.9467 110.608 58.016C111.029 58.0853 111.549 58.0693 112.168 57.968V59ZM106.504 51.368V50.36H112.168V51.368H106.504ZM118.574 59C118.089 59.1013 117.609 59.1413 117.134 59.12C116.665 59.0987 116.243 58.9973 115.87 58.816C115.502 58.6347 115.222 58.352 115.03 57.968C114.875 57.648 114.79 57.3253 114.774 57C114.763 56.6693 114.758 56.2933 114.758 55.872V47.96H115.926V55.824C115.926 56.1867 115.929 56.4907 115.934 56.736C115.945 56.976 116.001 57.1893 116.102 57.376C116.294 57.7333 116.598 57.9467 117.014 58.016C117.435 58.0853 117.955 58.0693 118.574 57.968V59ZM112.91 51.368V50.36H118.574V51.368H112.91ZM120.436 48.72V47.4H121.612V48.72H120.436ZM120.436 59V50.36H121.612V59H120.436ZM127.235 59.232C126.221 59.232 125.387 59.0133 124.731 58.576C124.08 58.1387 123.68 57.5307 123.531 56.752L124.731 56.552C124.859 57.0427 125.149 57.4347 125.603 57.728C126.061 58.016 126.627 58.16 127.299 58.16C127.955 58.16 128.472 58.024 128.851 57.752C129.229 57.4747 129.419 57.0987 129.419 56.624C129.419 56.3573 129.357 56.1413 129.235 55.976C129.117 55.8053 128.875 55.648 128.507 55.504C128.139 55.36 127.589 55.1893 126.859 54.992C126.075 54.7787 125.461 54.5653 125.019 54.352C124.576 54.1387 124.261 53.8933 124.075 53.616C123.888 53.3333 123.795 52.9893 123.795 52.584C123.795 52.0933 123.933 51.664 124.211 51.296C124.488 50.9227 124.872 50.6347 125.363 50.432C125.853 50.224 126.424 50.12 127.075 50.12C127.725 50.12 128.307 50.2267 128.819 50.44C129.336 50.648 129.752 50.9413 130.067 51.32C130.381 51.6987 130.568 52.1387 130.627 52.64L129.427 52.856C129.347 52.3493 129.093 51.9493 128.667 51.656C128.245 51.3573 127.709 51.2027 127.059 51.192C126.445 51.176 125.947 51.2933 125.563 51.544C125.179 51.7893 124.987 52.1173 124.987 52.528C124.987 52.7573 125.056 52.9547 125.195 53.12C125.333 53.28 125.584 53.432 125.947 53.576C126.315 53.72 126.837 53.8773 127.515 54.048C128.309 54.2507 128.933 54.464 129.387 54.688C129.84 54.912 130.163 55.176 130.355 55.48C130.547 55.784 130.643 56.16 130.643 56.608C130.643 57.424 130.339 58.0667 129.731 58.536C129.128 59 128.296 59.232 127.235 59.232ZM138.924 59.216C138.407 59.216 137.953 59.136 137.564 58.976C137.18 58.816 136.852 58.6 136.58 58.328C136.313 58.056 136.097 57.7467 135.932 57.4C135.767 57.048 135.647 56.6773 135.572 56.288C135.497 55.8933 135.46 55.5013 135.46 55.112V50.36H136.644V54.768C136.644 55.2427 136.689 55.6827 136.78 56.088C136.871 56.4933 137.015 56.848 137.212 57.152C137.415 57.4507 137.673 57.6827 137.988 57.848C138.308 58.0133 138.695 58.096 139.148 58.096C139.564 58.096 139.929 58.024 140.244 57.88C140.564 57.736 140.831 57.5307 141.044 57.264C141.263 56.992 141.428 56.664 141.54 56.28C141.652 55.8907 141.708 55.4533 141.708 54.968L142.54 55.152C142.54 56.0373 142.385 56.7813 142.076 57.384C141.767 57.9867 141.34 58.4427 140.796 58.752C140.252 59.0613 139.628 59.216 138.924 59.216ZM141.828 59V56.872H141.708V50.36H142.884V59H141.828ZM145.12 59V50.36H146.176V52.44L145.968 52.168C146.064 51.912 146.189 51.6773 146.344 51.464C146.499 51.2453 146.667 51.0667 146.848 50.928C147.072 50.7307 147.333 50.5813 147.632 50.48C147.931 50.3733 148.232 50.312 148.536 50.296C148.84 50.2747 149.117 50.296 149.368 50.36V51.464C149.053 51.384 148.709 51.3653 148.336 51.408C147.963 51.4507 147.619 51.6 147.304 51.856C147.016 52.08 146.8 52.3493 146.656 52.664C146.512 52.9733 146.416 53.304 146.368 53.656C146.32 54.0027 146.296 54.3467 146.296 54.688V59H145.12ZM157.126 59V54.592C157.126 54.112 157.08 53.672 156.99 53.272C156.899 52.8667 156.752 52.5147 156.55 52.216C156.352 51.912 156.094 51.6773 155.774 51.512C155.459 51.3467 155.075 51.264 154.622 51.264C154.206 51.264 153.838 51.336 153.518 51.48C153.203 51.624 152.936 51.832 152.718 52.104C152.504 52.3707 152.342 52.696 152.23 53.08C152.118 53.464 152.062 53.9013 152.062 54.392L151.23 54.208C151.23 53.3227 151.384 52.5787 151.694 51.976C152.003 51.3733 152.43 50.9173 152.974 50.608C153.518 50.2987 154.142 50.144 154.846 50.144C155.363 50.144 155.814 50.224 156.198 50.384C156.587 50.544 156.915 50.76 157.182 51.032C157.454 51.304 157.672 51.616 157.838 51.968C158.003 52.3147 158.123 52.6853 158.198 53.08C158.272 53.4693 158.31 53.8587 158.31 54.248V59H157.126ZM150.878 59V50.36H151.942V52.488H152.062V59H150.878ZM162.858 59.24C162.207 59.24 161.66 59.1227 161.218 58.888C160.78 58.6533 160.452 58.3413 160.234 57.952C160.015 57.5627 159.906 57.1387 159.906 56.68C159.906 56.2107 159.999 55.8107 160.186 55.48C160.378 55.144 160.636 54.8693 160.962 54.656C161.292 54.4427 161.674 54.28 162.106 54.168C162.543 54.0613 163.026 53.968 163.554 53.888C164.087 53.8027 164.607 53.7307 165.114 53.672C165.626 53.608 166.074 53.5467 166.458 53.488L166.042 53.744C166.058 52.8907 165.892 52.2587 165.546 51.848C165.199 51.4373 164.596 51.232 163.738 51.232C163.146 51.232 162.644 51.3653 162.234 51.632C161.828 51.8987 161.543 52.32 161.378 52.896L160.234 52.56C160.431 51.7867 160.828 51.1867 161.426 50.76C162.023 50.3333 162.799 50.12 163.754 50.12C164.543 50.12 165.212 50.2693 165.762 50.568C166.316 50.8613 166.708 51.288 166.938 51.848C167.044 52.0987 167.114 52.3787 167.146 52.688C167.178 52.9973 167.194 53.312 167.194 53.632V59H166.146V56.832L166.45 56.96C166.156 57.7013 165.7 58.2667 165.082 58.656C164.463 59.0453 163.722 59.24 162.858 59.24ZM162.994 58.224C163.543 58.224 164.023 58.1253 164.434 57.928C164.844 57.7307 165.175 57.4613 165.426 57.12C165.676 56.7733 165.839 56.384 165.914 55.952C165.978 55.6747 166.012 55.3707 166.018 55.04C166.023 54.704 166.026 54.4533 166.026 54.288L166.474 54.52C166.074 54.5733 165.639 54.6267 165.17 54.68C164.706 54.7333 164.247 54.7947 163.794 54.864C163.346 54.9333 162.94 55.016 162.578 55.112C162.332 55.1813 162.095 55.28 161.866 55.408C161.636 55.5307 161.447 55.696 161.298 55.904C161.154 56.112 161.082 56.3707 161.082 56.68C161.082 56.9307 161.143 57.1733 161.266 57.408C161.394 57.6427 161.596 57.8373 161.874 57.992C162.156 58.1467 162.53 58.224 162.994 58.224ZM175.783 59.216C175.266 59.216 174.813 59.136 174.423 58.976C174.039 58.816 173.711 58.6 173.439 58.328C173.173 58.056 172.957 57.7467 172.791 57.4C172.626 57.048 172.506 56.6773 172.431 56.288C172.357 55.8933 172.319 55.5013 172.319 55.112V50.36H173.503V54.768C173.503 55.2427 173.549 55.6827 173.639 56.088C173.73 56.4933 173.874 56.848 174.071 57.152C174.274 57.4507 174.533 57.6827 174.847 57.848C175.167 58.0133 175.554 58.096 176.007 58.096C176.423 58.096 176.789 58.024 177.103 57.88C177.423 57.736 177.69 57.5307 177.903 57.264C178.122 56.992 178.287 56.664 178.399 56.28C178.511 55.8907 178.567 55.4533 178.567 54.968L179.399 55.152C179.399 56.0373 179.245 56.7813 178.935 57.384C178.626 57.9867 178.199 58.4427 177.655 58.752C177.111 59.0613 176.487 59.216 175.783 59.216ZM178.687 59V56.872H178.567V50.36H179.743V59H178.687ZM182.139 59V47.24H183.315V59H182.139ZM190.418 59C189.932 59.1013 189.452 59.1413 188.978 59.12C188.508 59.0987 188.087 58.9973 187.714 58.816C187.346 58.6347 187.066 58.352 186.874 57.968C186.719 57.648 186.634 57.3253 186.618 57C186.607 56.6693 186.602 56.2933 186.602 55.872V47.96H187.77V55.824C187.77 56.1867 187.772 56.4907 187.778 56.736C187.788 56.976 187.844 57.1893 187.946 57.376C188.138 57.7333 188.442 57.9467 188.858 58.016C189.279 58.0853 189.799 58.0693 190.418 57.968V59ZM184.754 51.368V50.36H190.418V51.368H184.754ZM192.12 59V50.36H193.176V52.44L192.968 52.168C193.064 51.912 193.189 51.6773 193.344 51.464C193.499 51.2453 193.667 51.0667 193.848 50.928C194.072 50.7307 194.333 50.5813 194.632 50.48C194.931 50.3733 195.232 50.312 195.536 50.296C195.84 50.2747 196.117 50.296 196.368 50.36V51.464C196.053 51.384 195.709 51.3653 195.336 51.408C194.963 51.4507 194.619 51.6 194.304 51.856C194.016 52.08 193.8 52.3493 193.656 52.664C193.512 52.9733 193.416 53.304 193.368 53.656C193.32 54.0027 193.296 54.3467 193.296 54.688V59H192.12ZM198.046 48.72V47.4H199.222V48.72H198.046ZM198.046 59V50.36H199.222V59H198.046ZM205.204 59.24C204.335 59.24 203.599 59.0453 202.996 58.656C202.393 58.2667 201.935 57.7307 201.62 57.048C201.311 56.36 201.151 55.5707 201.14 54.68C201.151 53.7733 201.316 52.9787 201.636 52.296C201.956 51.608 202.417 51.0747 203.02 50.696C203.623 50.312 204.353 50.12 205.212 50.12C206.087 50.12 206.847 50.3333 207.492 50.76C208.143 51.1867 208.588 51.7707 208.828 52.512L207.676 52.88C207.473 52.3627 207.151 51.9627 206.708 51.68C206.271 51.392 205.769 51.248 205.204 51.248C204.569 51.248 204.044 51.3947 203.628 51.688C203.212 51.976 202.903 52.3787 202.7 52.896C202.497 53.4133 202.393 54.008 202.388 54.68C202.399 55.7147 202.639 56.5467 203.108 57.176C203.577 57.8 204.276 58.112 205.204 58.112C205.791 58.112 206.289 57.9787 206.7 57.712C207.116 57.44 207.431 57.0453 207.644 56.528L208.828 56.88C208.508 57.648 208.039 58.2347 207.42 58.64C206.801 59.04 206.063 59.24 205.204 59.24ZM210.405 48.72V47.4H211.581V48.72H210.405ZM210.405 59V50.36H211.581V59H210.405ZM217.635 59.24C216.793 59.24 216.062 59.0533 215.443 58.68C214.83 58.3067 214.353 57.7813 214.011 57.104C213.67 56.4267 213.499 55.632 213.499 54.72C213.499 53.776 213.667 52.96 214.003 52.272C214.339 51.584 214.811 51.0533 215.419 50.68C216.033 50.3067 216.755 50.12 217.587 50.12C218.441 50.12 219.169 50.3173 219.771 50.712C220.374 51.1013 220.83 51.6613 221.139 52.392C221.449 53.1227 221.59 53.9947 221.563 55.008H220.363V54.592C220.342 53.472 220.099 52.6267 219.635 52.056C219.177 51.4853 218.505 51.2 217.619 51.2C216.691 51.2 215.979 51.5013 215.483 52.104C214.993 52.7067 214.747 53.5653 214.747 54.68C214.747 55.768 214.993 56.6133 215.483 57.216C215.979 57.8133 216.681 58.112 217.587 58.112C218.206 58.112 218.745 57.9707 219.203 57.688C219.667 57.4 220.033 56.9867 220.299 56.448L221.395 56.872C221.054 57.624 220.55 58.208 219.883 58.624C219.222 59.0347 218.473 59.24 217.635 59.24ZM214.331 55.008V54.024H220.931V55.008H214.331ZM226.563 59.232C225.549 59.232 224.715 59.0133 224.059 58.576C223.408 58.1387 223.008 57.5307 222.859 56.752L224.059 56.552C224.187 57.0427 224.477 57.4347 224.931 57.728C225.389 58.016 225.955 58.16 226.627 58.16C227.283 58.16 227.8 58.024 228.179 57.752C228.557 57.4747 228.747 57.0987 228.747 56.624C228.747 56.3573 228.685 56.1413 228.563 55.976C228.445 55.8053 228.203 55.648 227.835 55.504C227.467 55.36 226.917 55.1893 226.187 54.992C225.403 54.7787 224.789 54.5653 224.347 54.352C223.904 54.1387 223.589 53.8933 223.403 53.616C223.216 53.3333 223.123 52.9893 223.123 52.584C223.123 52.0933 223.261 51.664 223.539 51.296C223.816 50.9227 224.2 50.6347 224.691 50.432C225.181 50.224 225.752 50.12 226.403 50.12C227.053 50.12 227.635 50.2267 228.147 50.44C228.664 50.648 229.08 50.9413 229.395 51.32C229.709 51.6987 229.896 52.1387 229.955 52.64L228.755 52.856C228.675 52.3493 228.421 51.9493 227.995 51.656C227.573 51.3573 227.037 51.2027 226.387 51.192C225.773 51.176 225.275 51.2933 224.891 51.544C224.507 51.7893 224.315 52.1173 224.315 52.528C224.315 52.7573 224.384 52.9547 224.523 53.12C224.661 53.28 224.912 53.432 225.275 53.576C225.643 53.72 226.165 53.8773 226.843 54.048C227.637 54.2507 228.261 54.464 228.715 54.688C229.168 54.912 229.491 55.176 229.683 55.48C229.875 55.784 229.971 56.16 229.971 56.608C229.971 57.424 229.667 58.0667 229.059 58.536C228.456 59 227.624 59.232 226.563 59.232ZM241.188 59V54.592C241.188 54.112 241.143 53.672 241.052 53.272C240.961 52.8667 240.815 52.5147 240.612 52.216C240.415 51.912 240.156 51.6773 239.836 51.512C239.521 51.3467 239.137 51.264 238.684 51.264C238.268 51.264 237.9 51.336 237.58 51.48C237.265 51.624 236.999 51.832 236.78 52.104C236.567 52.3707 236.404 52.696 236.292 53.08C236.18 53.464 236.124 53.9013 236.124 54.392L235.292 54.208C235.292 53.3227 235.447 52.5787 235.756 51.976C236.065 51.3733 236.492 50.9173 237.036 50.608C237.58 50.2987 238.204 50.144 238.908 50.144C239.425 50.144 239.876 50.224 240.26 50.384C240.649 50.544 240.977 50.76 241.244 51.032C241.516 51.304 241.735 51.616 241.9 51.968C242.065 52.3147 242.185 52.6853 242.26 53.08C242.335 53.4693 242.372 53.8587 242.372 54.248V59H241.188ZM234.94 59V50.36H236.004V52.488H236.124V59H234.94ZM248.009 59.24C247.151 59.24 246.417 59.0453 245.809 58.656C245.201 58.2667 244.735 57.728 244.409 57.04C244.084 56.352 243.921 55.5627 243.921 54.672C243.921 53.7653 244.087 52.9707 244.417 52.288C244.748 51.6053 245.217 51.0747 245.825 50.696C246.439 50.312 247.167 50.12 248.009 50.12C248.873 50.12 249.609 50.3147 250.217 50.704C250.831 51.088 251.297 51.624 251.617 52.312C251.943 52.9947 252.105 53.7813 252.105 54.672C252.105 55.5787 251.943 56.376 251.617 57.064C251.292 57.7467 250.823 58.28 250.209 58.664C249.596 59.048 248.863 59.24 248.009 59.24ZM248.009 58.112C248.969 58.112 249.684 57.7947 250.153 57.16C250.623 56.52 250.857 55.6907 250.857 54.672C250.857 53.6267 250.62 52.7947 250.145 52.176C249.676 51.5573 248.964 51.248 248.009 51.248C247.364 51.248 246.831 51.3947 246.409 51.688C245.993 51.976 245.681 52.3787 245.473 52.896C245.271 53.408 245.169 54 245.169 54.672C245.169 55.712 245.409 56.5467 245.889 57.176C246.369 57.8 247.076 58.112 248.009 58.112ZM260.11 59V54.592C260.11 54.112 260.065 53.672 259.974 53.272C259.883 52.8667 259.737 52.5147 259.534 52.216C259.337 51.912 259.078 51.6773 258.758 51.512C258.443 51.3467 258.059 51.264 257.606 51.264C257.19 51.264 256.822 51.336 256.502 51.48C256.187 51.624 255.921 51.832 255.702 52.104C255.489 52.3707 255.326 52.696 255.214 53.08C255.102 53.464 255.046 53.9013 255.046 54.392L254.214 54.208C254.214 53.3227 254.369 52.5787 254.678 51.976C254.987 51.3733 255.414 50.9173 255.958 50.608C256.502 50.2987 257.126 50.144 257.83 50.144C258.347 50.144 258.798 50.224 259.182 50.384C259.571 50.544 259.899 50.76 260.166 51.032C260.438 51.304 260.657 51.616 260.822 51.968C260.987 52.3147 261.107 52.6853 261.182 53.08C261.257 53.4693 261.294 53.8587 261.294 54.248V59H260.11ZM253.862 59V50.36H254.926V52.488H255.046V59H253.862ZM269.045 59.24C268.394 59.24 267.848 59.1227 267.405 58.888C266.968 58.6533 266.64 58.3413 266.421 57.952C266.202 57.5627 266.093 57.1387 266.093 56.68C266.093 56.2107 266.186 55.8107 266.373 55.48C266.565 55.144 266.824 54.8693 267.149 54.656C267.48 54.4427 267.861 54.28 268.293 54.168C268.73 54.0613 269.213 53.968 269.741 53.888C270.274 53.8027 270.794 53.7307 271.301 53.672C271.813 53.608 272.261 53.5467 272.645 53.488L272.229 53.744C272.245 52.8907 272.08 52.2587 271.733 51.848C271.386 51.4373 270.784 51.232 269.925 51.232C269.333 51.232 268.832 51.3653 268.421 51.632C268.016 51.8987 267.73 52.32 267.565 52.896L266.421 52.56C266.618 51.7867 267.016 51.1867 267.613 50.76C268.21 50.3333 268.986 50.12 269.941 50.12C270.73 50.12 271.4 50.2693 271.949 50.568C272.504 50.8613 272.896 51.288 273.125 51.848C273.232 52.0987 273.301 52.3787 273.333 52.688C273.365 52.9973 273.381 53.312 273.381 53.632V59H272.333V56.832L272.637 56.96C272.344 57.7013 271.888 58.2667 271.269 58.656C270.65 59.0453 269.909 59.24 269.045 59.24ZM269.181 58.224C269.73 58.224 270.21 58.1253 270.621 57.928C271.032 57.7307 271.362 57.4613 271.613 57.12C271.864 56.7733 272.026 56.384 272.101 55.952C272.165 55.6747 272.2 55.3707 272.205 55.04C272.21 54.704 272.213 54.4533 272.213 54.288L272.661 54.52C272.261 54.5733 271.826 54.6267 271.357 54.68C270.893 54.7333 270.434 54.7947 269.981 54.864C269.533 54.9333 269.128 55.016 268.765 55.112C268.52 55.1813 268.282 55.28 268.053 55.408C267.824 55.5307 267.634 55.696 267.485 55.904C267.341 56.112 267.269 56.3707 267.269 56.68C267.269 56.9307 267.33 57.1733 267.453 57.408C267.581 57.6427 267.784 57.8373 268.061 57.992C268.344 58.1467 268.717 58.224 269.181 58.224ZM285.768 59L285.776 53.328C285.776 52.6613 285.589 52.1387 285.216 51.76C284.848 51.376 284.378 51.184 283.808 51.184C283.482 51.184 283.165 51.2587 282.856 51.408C282.546 51.5573 282.29 51.7973 282.088 52.128C281.89 52.4587 281.792 52.8907 281.792 53.424L281.096 53.224C281.08 52.6053 281.2 52.064 281.456 51.6C281.717 51.136 282.074 50.776 282.528 50.52C282.986 50.2587 283.504 50.128 284.08 50.128C284.949 50.128 285.645 50.3973 286.168 50.936C286.69 51.4693 286.952 52.192 286.952 53.104L286.944 59H285.768ZM275.456 59V50.36H276.512V52.488H276.64V59H275.456ZM280.624 59L280.632 53.408C280.632 52.72 280.448 52.1787 280.08 51.784C279.717 51.384 279.237 51.184 278.64 51.184C278.042 51.184 277.56 51.3893 277.192 51.8C276.824 52.2053 276.64 52.7467 276.64 53.424L275.936 53.04C275.936 52.4853 276.066 51.9893 276.328 51.552C276.589 51.1093 276.946 50.7627 277.4 50.512C277.853 50.256 278.368 50.128 278.944 50.128C279.493 50.128 279.981 50.2453 280.408 50.48C280.84 50.7147 281.178 51.056 281.424 51.504C281.669 51.952 281.792 52.496 281.792 53.136L281.784 59H280.624ZM292.635 59.24C291.793 59.24 291.062 59.0533 290.443 58.68C289.83 58.3067 289.353 57.7813 289.011 57.104C288.67 56.4267 288.499 55.632 288.499 54.72C288.499 53.776 288.667 52.96 289.003 52.272C289.339 51.584 289.811 51.0533 290.419 50.68C291.033 50.3067 291.755 50.12 292.587 50.12C293.441 50.12 294.169 50.3173 294.771 50.712C295.374 51.1013 295.83 51.6613 296.139 52.392C296.449 53.1227 296.59 53.9947 296.563 55.008H295.363V54.592C295.342 53.472 295.099 52.6267 294.635 52.056C294.177 51.4853 293.505 51.2 292.619 51.2C291.691 51.2 290.979 51.5013 290.483 52.104C289.993 52.7067 289.747 53.5653 289.747 54.68C289.747 55.768 289.993 56.6133 290.483 57.216C290.979 57.8133 291.681 58.112 292.587 58.112C293.206 58.112 293.745 57.9707 294.203 57.688C294.667 57.4 295.033 56.9867 295.299 56.448L296.395 56.872C296.054 57.624 295.55 58.208 294.883 58.624C294.222 59.0347 293.473 59.24 292.635 59.24ZM289.331 55.008V54.024H295.931V55.008H289.331ZM303.043 59C302.557 59.1013 302.077 59.1413 301.603 59.12C301.133 59.0987 300.712 58.9973 300.339 58.816C299.971 58.6347 299.691 58.352 299.499 57.968C299.344 57.648 299.259 57.3253 299.243 57C299.232 56.6693 299.227 56.2933 299.227 55.872V47.96H300.395V55.824C300.395 56.1867 300.397 56.4907 300.403 56.736C300.413 56.976 300.469 57.1893 300.571 57.376C300.763 57.7333 301.067 57.9467 301.483 58.016C301.904 58.0853 302.424 58.0693 303.043 57.968V59ZM297.379 51.368V50.36H303.043V51.368H297.379ZM304.585 60.672L304.657 60.088C304.87 60.104 305.025 60.0613 305.121 59.96C305.217 59.8587 305.276 59.7227 305.297 59.552C305.318 59.3813 305.324 59.1973 305.313 59H304.585V57.312H305.953V59.32C305.953 59.8107 305.828 60.1787 305.577 60.424C305.332 60.6693 305.001 60.752 304.585 60.672ZM89 85.24C88.2053 85.24 87.5333 85.04 86.984 84.64C86.4347 84.2347 86.0187 83.688 85.736 83C85.4533 82.3067 85.312 81.5307 85.312 80.672C85.312 79.7973 85.4533 79.0187 85.736 78.336C86.024 77.648 86.4453 77.1067 87 76.712C87.5547 76.3173 88.2373 76.12 89.048 76.12C89.8373 76.12 90.5147 76.32 91.08 76.72C91.6453 77.12 92.0773 77.664 92.376 78.352C92.68 79.04 92.832 79.8133 92.832 80.672C92.832 81.536 92.68 82.312 92.376 83C92.072 83.688 91.6347 84.2347 91.064 84.64C90.4933 85.04 89.8053 85.24 89 85.24ZM85.112 88.84V76.36H86.168V82.864H86.296V88.84H85.112ZM88.88 84.144C89.4827 84.144 89.984 83.992 90.384 83.688C90.784 83.384 91.0827 82.9707 91.28 82.448C91.4827 81.92 91.584 81.328 91.584 80.672C91.584 80.0213 91.4853 79.4347 91.288 78.912C91.0907 78.3893 90.7893 77.976 90.384 77.672C89.984 77.368 89.4747 77.216 88.856 77.216C88.2533 77.216 87.752 77.3627 87.352 77.656C86.9573 77.9493 86.6613 78.3573 86.464 78.88C86.2667 79.3973 86.168 79.9947 86.168 80.672C86.168 81.3387 86.2667 81.936 86.464 82.464C86.6613 82.9867 86.96 83.3973 87.36 83.696C87.76 83.9947 88.2667 84.144 88.88 84.144ZM97.8928 85.216C97.3754 85.216 96.9221 85.136 96.5328 84.976C96.1488 84.816 95.8208 84.6 95.5488 84.328C95.2821 84.056 95.0661 83.7467 94.9008 83.4C94.7354 83.048 94.6154 82.6773 94.5408 82.288C94.4661 81.8933 94.4288 81.5013 94.4288 81.112V76.36H95.6128V80.768C95.6128 81.2427 95.6581 81.6827 95.7488 82.088C95.8394 82.4933 95.9834 82.848 96.1808 83.152C96.3834 83.4507 96.6421 83.6827 96.9568 83.848C97.2768 84.0133 97.6634 84.096 98.1168 84.096C98.5328 84.096 98.8981 84.024 99.2128 83.88C99.5328 83.736 99.7994 83.5307 100.013 83.264C100.231 82.992 100.397 82.664 100.509 82.28C100.621 81.8907 100.677 81.4533 100.677 80.968L101.509 81.152C101.509 82.0373 101.354 82.7813 101.045 83.384C100.735 83.9867 100.309 84.4427 99.7648 84.752C99.2208 85.0613 98.5968 85.216 97.8928 85.216ZM100.797 85V82.872H100.677V76.36H101.853V85H100.797ZM104.089 85V76.36H105.145V78.44L104.937 78.168C105.033 77.912 105.158 77.6773 105.313 77.464C105.467 77.2453 105.635 77.0667 105.817 76.928C106.041 76.7307 106.302 76.5813 106.601 76.48C106.899 76.3733 107.201 76.312 107.505 76.296C107.809 76.2747 108.086 76.296 108.337 76.36V77.464C108.022 77.384 107.678 77.3653 107.305 77.408C106.931 77.4507 106.587 77.6 106.273 77.856C105.985 78.08 105.769 78.3493 105.625 78.664C105.481 78.9733 105.385 79.304 105.337 79.656C105.289 80.0027 105.265 80.3467 105.265 80.688V85H104.089ZM113.158 85.216C112.641 85.216 112.188 85.136 111.798 84.976C111.414 84.816 111.086 84.6 110.814 84.328C110.548 84.056 110.332 83.7467 110.166 83.4C110.001 83.048 109.881 82.6773 109.806 82.288C109.732 81.8933 109.694 81.5013 109.694 81.112V76.36H110.878V80.768C110.878 81.2427 110.924 81.6827 111.014 82.088C111.105 82.4933 111.249 82.848 111.446 83.152C111.649 83.4507 111.908 83.6827 112.222 83.848C112.542 84.0133 112.929 84.096 113.382 84.096C113.798 84.096 114.164 84.024 114.478 83.88C114.798 83.736 115.065 83.5307 115.278 83.264C115.497 82.992 115.662 82.664 115.774 82.28C115.886 81.8907 115.942 81.4533 115.942 80.968L116.774 81.152C116.774 82.0373 116.62 82.7813 116.31 83.384C116.001 83.9867 115.574 84.4427 115.03 84.752C114.486 85.0613 113.862 85.216 113.158 85.216ZM116.062 85V82.872H115.942V76.36H117.118V85H116.062ZM122.578 85.232C121.565 85.232 120.73 85.0133 120.074 84.576C119.424 84.1387 119.024 83.5307 118.874 82.752L120.074 82.552C120.202 83.0427 120.493 83.4347 120.946 83.728C121.405 84.016 121.97 84.16 122.642 84.16C123.298 84.16 123.816 84.024 124.194 83.752C124.573 83.4747 124.762 83.0987 124.762 82.624C124.762 82.3573 124.701 82.1413 124.578 81.976C124.461 81.8053 124.218 81.648 123.85 81.504C123.482 81.36 122.933 81.1893 122.202 80.992C121.418 80.7787 120.805 80.5653 120.362 80.352C119.92 80.1387 119.605 79.8933 119.418 79.616C119.232 79.3333 119.138 78.9893 119.138 78.584C119.138 78.0933 119.277 77.664 119.554 77.296C119.832 76.9227 120.216 76.6347 120.706 76.432C121.197 76.224 121.768 76.12 122.418 76.12C123.069 76.12 123.65 76.2267 124.162 76.44C124.68 76.648 125.096 76.9413 125.41 77.32C125.725 77.6987 125.912 78.1387 125.97 78.64L124.77 78.856C124.69 78.3493 124.437 77.9493 124.01 77.656C123.589 77.3573 123.053 77.2027 122.402 77.192C121.789 77.176 121.29 77.2933 120.906 77.544C120.522 77.7893 120.33 78.1173 120.33 78.528C120.33 78.7573 120.4 78.9547 120.538 79.12C120.677 79.28 120.928 79.432 121.29 79.576C121.658 79.72 122.181 79.8773 122.858 80.048C123.653 80.2507 124.277 80.464 124.73 80.688C125.184 80.912 125.506 81.176 125.698 81.48C125.89 81.784 125.986 82.16 125.986 82.608C125.986 83.424 125.682 84.0667 125.074 84.536C124.472 85 123.64 85.232 122.578 85.232ZM131.124 74.72V73.4H132.3V74.72H131.124ZM131.124 85V76.36H132.3V85H131.124ZM140.938 85V80.592C140.938 80.112 140.893 79.672 140.802 79.272C140.711 78.8667 140.565 78.5147 140.362 78.216C140.165 77.912 139.906 77.6773 139.586 77.512C139.271 77.3467 138.887 77.264 138.434 77.264C138.018 77.264 137.65 77.336 137.33 77.48C137.015 77.624 136.749 77.832 136.53 78.104C136.317 78.3707 136.154 78.696 136.042 79.08C135.93 79.464 135.874 79.9013 135.874 80.392L135.042 80.208C135.042 79.3227 135.197 78.5787 135.506 77.976C135.815 77.3733 136.242 76.9173 136.786 76.608C137.33 76.2987 137.954 76.144 138.658 76.144C139.175 76.144 139.626 76.224 140.01 76.384C140.399 76.544 140.727 76.76 140.994 77.032C141.266 77.304 141.485 77.616 141.65 77.968C141.815 78.3147 141.935 78.6853 142.01 79.08C142.085 79.4693 142.122 79.8587 142.122 80.248V85H140.938ZM134.69 85V76.36H135.754V78.488H135.874V85H134.69ZM149.873 85.24C149.223 85.24 148.676 85.1227 148.233 84.888C147.796 84.6533 147.468 84.3413 147.249 83.952C147.031 83.5627 146.921 83.1387 146.921 82.68C146.921 82.2107 147.015 81.8107 147.201 81.48C147.393 81.144 147.652 80.8693 147.977 80.656C148.308 80.4427 148.689 80.28 149.121 80.168C149.559 80.0613 150.041 79.968 150.569 79.888C151.103 79.8027 151.623 79.7307 152.129 79.672C152.641 79.608 153.089 79.5467 153.473 79.488L153.057 79.744C153.073 78.8907 152.908 78.2587 152.561 77.848C152.215 77.4373 151.612 77.232 150.753 77.232C150.161 77.232 149.66 77.3653 149.249 77.632C148.844 77.8987 148.559 78.32 148.393 78.896L147.249 78.56C147.447 77.7867 147.844 77.1867 148.441 76.76C149.039 76.3333 149.815 76.12 150.769 76.12C151.559 76.12 152.228 76.2693 152.777 76.568C153.332 76.8613 153.724 77.288 153.953 77.848C154.06 78.0987 154.129 78.3787 154.161 78.688C154.193 78.9973 154.209 79.312 154.209 79.632V85H153.161V82.832L153.465 82.96C153.172 83.7013 152.716 84.2667 152.097 84.656C151.479 85.0453 150.737 85.24 149.873 85.24ZM150.009 84.224C150.559 84.224 151.039 84.1253 151.449 83.928C151.86 83.7307 152.191 83.4613 152.441 83.12C152.692 82.7733 152.855 82.384 152.929 81.952C152.993 81.6747 153.028 81.3707 153.033 81.04C153.039 80.704 153.041 80.4533 153.041 80.288L153.489 80.52C153.089 80.5733 152.655 80.6267 152.185 80.68C151.721 80.7333 151.263 80.7947 150.809 80.864C150.361 80.9333 149.956 81.016 149.593 81.112C149.348 81.1813 149.111 81.28 148.881 81.408C148.652 81.5307 148.463 81.696 148.313 81.904C148.169 82.112 148.097 82.3707 148.097 82.68C148.097 82.9307 148.159 83.1733 148.281 83.408C148.409 83.6427 148.612 83.8373 148.889 83.992C149.172 84.1467 149.545 84.224 150.009 84.224ZM159.596 85.216C159.079 85.216 158.625 85.136 158.236 84.976C157.852 84.816 157.524 84.6 157.252 84.328C156.985 84.056 156.769 83.7467 156.604 83.4C156.439 83.048 156.319 82.6773 156.244 82.288C156.169 81.8933 156.132 81.5013 156.132 81.112V76.36H157.316V80.768C157.316 81.2427 157.361 81.6827 157.452 82.088C157.543 82.4933 157.687 82.848 157.884 83.152C158.087 83.4507 158.345 83.6827 158.66 83.848C158.98 84.0133 159.367 84.096 159.82 84.096C160.236 84.096 160.601 84.024 160.916 83.88C161.236 83.736 161.503 83.5307 161.716 83.264C161.935 82.992 162.1 82.664 162.212 82.28C162.324 81.8907 162.38 81.4533 162.38 80.968L163.212 81.152C163.212 82.0373 163.057 82.7813 162.748 83.384C162.439 83.9867 162.012 84.4427 161.468 84.752C160.924 85.0613 160.3 85.216 159.596 85.216ZM162.5 85V82.872H162.38V76.36H163.556V85H162.5ZM169.376 85.24C168.507 85.24 167.771 85.0453 167.168 84.656C166.565 84.2667 166.107 83.7307 165.792 83.048C165.483 82.36 165.323 81.5707 165.312 80.68C165.323 79.7733 165.488 78.9787 165.808 78.296C166.128 77.608 166.589 77.0747 167.192 76.696C167.795 76.312 168.525 76.12 169.384 76.12C170.259 76.12 171.019 76.3333 171.664 76.76C172.315 77.1867 172.76 77.7707 173 78.512L171.848 78.88C171.645 78.3627 171.323 77.9627 170.88 77.68C170.443 77.392 169.941 77.248 169.376 77.248C168.741 77.248 168.216 77.3947 167.8 77.688C167.384 77.976 167.075 78.3787 166.872 78.896C166.669 79.4133 166.565 80.008 166.56 80.68C166.571 81.7147 166.811 82.5467 167.28 83.176C167.749 83.8 168.448 84.112 169.376 84.112C169.963 84.112 170.461 83.9787 170.872 83.712C171.288 83.44 171.603 83.0453 171.816 82.528L173 82.88C172.68 83.648 172.211 84.2347 171.592 84.64C170.973 85.04 170.235 85.24 169.376 85.24ZM179.355 85C178.87 85.1013 178.39 85.1413 177.915 85.12C177.446 85.0987 177.025 84.9973 176.651 84.816C176.283 84.6347 176.003 84.352 175.811 83.968C175.657 83.648 175.571 83.3253 175.555 83C175.545 82.6693 175.539 82.2933 175.539 81.872V73.96H176.707V81.824C176.707 82.1867 176.71 82.4907 176.715 82.736C176.726 82.976 176.782 83.1893 176.883 83.376C177.075 83.7333 177.379 83.9467 177.795 84.016C178.217 84.0853 178.737 84.0693 179.355 83.968V85ZM173.691 77.368V76.36H179.355V77.368H173.691ZM184.353 85.24C183.494 85.24 182.761 85.0453 182.153 84.656C181.545 84.2667 181.078 83.728 180.753 83.04C180.428 82.352 180.265 81.5627 180.265 80.672C180.265 79.7653 180.43 78.9707 180.761 78.288C181.092 77.6053 181.561 77.0747 182.169 76.696C182.782 76.312 183.51 76.12 184.353 76.12C185.217 76.12 185.953 76.3147 186.561 76.704C187.174 77.088 187.641 77.624 187.961 78.312C188.286 78.9947 188.449 79.7813 188.449 80.672C188.449 81.5787 188.286 82.376 187.961 83.064C187.636 83.7467 187.166 84.28 186.553 84.664C185.94 85.048 185.206 85.24 184.353 85.24ZM184.353 84.112C185.313 84.112 186.028 83.7947 186.497 83.16C186.966 82.52 187.201 81.6907 187.201 80.672C187.201 79.6267 186.964 78.7947 186.489 78.176C186.02 77.5573 185.308 77.248 184.353 77.248C183.708 77.248 183.174 77.3947 182.753 77.688C182.337 77.976 182.025 78.3787 181.817 78.896C181.614 79.408 181.513 80 181.513 80.672C181.513 81.712 181.753 82.5467 182.233 83.176C182.713 83.8 183.42 84.112 184.353 84.112ZM190.214 85V76.36H191.27V78.44L191.062 78.168C191.158 77.912 191.283 77.6773 191.438 77.464C191.592 77.2453 191.76 77.0667 191.942 76.928C192.166 76.7307 192.427 76.5813 192.726 76.48C193.024 76.3733 193.326 76.312 193.63 76.296C193.934 76.2747 194.211 76.296 194.462 76.36V77.464C194.147 77.384 193.803 77.3653 193.43 77.408C193.056 77.4507 192.712 77.6 192.398 77.856C192.11 78.08 191.894 78.3493 191.75 78.664C191.606 78.9733 191.51 79.304 191.462 79.656C191.414 80.0027 191.39 80.3467 191.39 80.688V85H190.214ZM205.423 85V80.592C205.423 80.112 205.377 79.672 205.287 79.272C205.196 78.8667 205.049 78.5147 204.847 78.216C204.649 77.912 204.391 77.6773 204.071 77.512C203.756 77.3467 203.372 77.264 202.919 77.264C202.503 77.264 202.135 77.336 201.815 77.48C201.5 77.624 201.233 77.832 201.015 78.104C200.801 78.3707 200.639 78.696 200.527 79.08C200.415 79.464 200.359 79.9013 200.359 80.392L199.527 80.208C199.527 79.3227 199.681 78.5787 199.991 77.976C200.3 77.3733 200.727 76.9173 201.271 76.608C201.815 76.2987 202.439 76.144 203.143 76.144C203.66 76.144 204.111 76.224 204.495 76.384C204.884 76.544 205.212 76.76 205.479 77.032C205.751 77.304 205.969 77.616 206.135 77.968C206.3 78.3147 206.42 78.6853 206.495 79.08C206.569 79.4693 206.607 79.8587 206.607 80.248V85H205.423ZM199.175 85V76.36H200.239V78.488H200.359V85H199.175ZM212.244 85.24C211.385 85.24 210.652 85.0453 210.044 84.656C209.436 84.2667 208.969 83.728 208.644 83.04C208.318 82.352 208.156 81.5627 208.156 80.672C208.156 79.7653 208.321 78.9707 208.652 78.288C208.982 77.6053 209.452 77.0747 210.06 76.696C210.673 76.312 211.401 76.12 212.244 76.12C213.108 76.12 213.844 76.3147 214.452 76.704C215.065 77.088 215.532 77.624 215.852 78.312C216.177 78.9947 216.34 79.7813 216.34 80.672C216.34 81.5787 216.177 82.376 215.852 83.064C215.526 83.7467 215.057 84.28 214.444 84.664C213.83 85.048 213.097 85.24 212.244 85.24ZM212.244 84.112C213.204 84.112 213.918 83.7947 214.388 83.16C214.857 82.52 215.092 81.6907 215.092 80.672C215.092 79.6267 214.854 78.7947 214.38 78.176C213.91 77.5573 213.198 77.248 212.244 77.248C211.598 77.248 211.065 77.3947 210.644 77.688C210.228 77.976 209.916 78.3787 209.708 78.896C209.505 79.408 209.404 80 209.404 80.672C209.404 81.712 209.644 82.5467 210.124 83.176C210.604 83.8 211.31 84.112 212.244 84.112ZM224.344 85V80.592C224.344 80.112 224.299 79.672 224.208 79.272C224.118 78.8667 223.971 78.5147 223.768 78.216C223.571 77.912 223.312 77.6773 222.992 77.512C222.678 77.3467 222.294 77.264 221.84 77.264C221.424 77.264 221.056 77.336 220.736 77.48C220.422 77.624 220.155 77.832 219.936 78.104C219.723 78.3707 219.56 78.696 219.448 79.08C219.336 79.464 219.28 79.9013 219.28 80.392L218.448 80.208C218.448 79.3227 218.603 78.5787 218.912 77.976C219.222 77.3733 219.648 76.9173 220.192 76.608C220.736 76.2987 221.36 76.144 222.064 76.144C222.582 76.144 223.032 76.224 223.416 76.384C223.806 76.544 224.134 76.76 224.4 77.032C224.672 77.304 224.891 77.616 225.056 77.968C225.222 78.3147 225.342 78.6853 225.416 79.08C225.491 79.4693 225.528 79.8587 225.528 80.248V85H224.344ZM218.096 85V76.36H219.16V78.488H219.28V85H218.096ZM227.828 85V83.632H229.196V85H227.828ZM239.534 85.24C238.387 85.24 237.419 84.9867 236.63 84.48C235.841 83.968 235.243 83.2613 234.838 82.36C234.433 81.4587 234.23 80.4187 234.23 79.24C234.23 78.0613 234.433 77.0213 234.838 76.12C235.243 75.2187 235.841 74.5147 236.63 74.008C237.419 73.496 238.387 73.24 239.534 73.24C240.686 73.24 241.654 73.496 242.438 74.008C243.227 74.5147 243.825 75.2187 244.23 76.12C244.641 77.0213 244.846 78.0613 244.846 79.24C244.846 80.4187 244.641 81.4587 244.23 82.36C243.825 83.2613 243.227 83.968 242.438 84.48C241.654 84.9867 240.686 85.24 239.534 85.24ZM239.534 84.112C240.435 84.112 241.187 83.9067 241.79 83.496C242.393 83.0853 242.843 82.5147 243.142 81.784C243.446 81.048 243.598 80.2 243.598 79.24C243.598 78.28 243.446 77.4347 243.142 76.704C242.843 75.9733 242.393 75.4027 241.79 74.992C241.187 74.5813 240.435 74.3733 239.534 74.368C238.633 74.368 237.883 74.5733 237.286 74.984C236.689 75.3947 236.238 75.968 235.934 76.704C235.635 77.4347 235.483 78.28 235.478 79.24C235.473 80.2 235.619 81.0453 235.918 81.776C236.222 82.5013 236.675 83.072 237.278 83.488C237.881 83.8987 238.633 84.1067 239.534 84.112ZM249.8 85.24C248.995 85.24 248.307 85.04 247.736 84.64C247.165 84.2347 246.728 83.688 246.424 83C246.12 82.312 245.968 81.536 245.968 80.672C245.968 79.8133 246.117 79.04 246.416 78.352C246.72 77.664 247.155 77.12 247.72 76.72C248.285 76.32 248.963 76.12 249.752 76.12C250.563 76.12 251.245 76.3173 251.8 76.712C252.355 77.1067 252.773 77.648 253.056 78.336C253.344 79.0187 253.488 79.7973 253.488 80.672C253.488 81.5307 253.347 82.3067 253.064 83C252.781 83.688 252.365 84.2347 251.816 84.64C251.267 85.04 250.595 85.24 249.8 85.24ZM249.92 84.144C250.533 84.144 251.04 83.9947 251.44 83.696C251.84 83.3973 252.139 82.9867 252.336 82.464C252.533 81.936 252.632 81.3387 252.632 80.672C252.632 79.9947 252.533 79.3973 252.336 78.88C252.139 78.3573 251.84 77.9493 251.44 77.656C251.045 77.3627 250.547 77.216 249.944 77.216C249.325 77.216 248.813 77.368 248.408 77.672C248.003 77.976 247.701 78.3893 247.504 78.912C247.312 79.4347 247.216 80.0213 247.216 80.672C247.216 81.328 247.315 81.92 247.512 82.448C247.715 82.9707 248.016 83.384 248.416 83.688C248.816 83.992 249.317 84.144 249.92 84.144ZM252.632 85V78.496H252.504V73.48H253.688V85H252.632ZM256.093 74.72V73.4H257.269V74.72H256.093ZM256.093 85V76.36H257.269V85H256.093ZM263.275 85.24C262.416 85.24 261.683 85.0453 261.075 84.656C260.467 84.2667 260 83.728 259.675 83.04C259.35 82.352 259.187 81.5627 259.187 80.672C259.187 79.7653 259.352 78.9707 259.683 78.288C260.014 77.6053 260.483 77.0747 261.091 76.696C261.704 76.312 262.432 76.12 263.275 76.12C264.139 76.12 264.875 76.3147 265.483 76.704C266.096 77.088 266.563 77.624 266.883 78.312C267.208 78.9947 267.371 79.7813 267.371 80.672C267.371 81.5787 267.208 82.376 266.883 83.064C266.558 83.7467 266.088 84.28 265.475 84.664C264.862 85.048 264.128 85.24 263.275 85.24ZM263.275 84.112C264.235 84.112 264.95 83.7947 265.419 83.16C265.888 82.52 266.123 81.6907 266.123 80.672C266.123 79.6267 265.886 78.7947 265.411 78.176C264.942 77.5573 264.23 77.248 263.275 77.248C262.63 77.248 262.096 77.3947 261.675 77.688C261.259 77.976 260.947 78.3787 260.739 78.896C260.536 79.408 260.435 80 260.435 80.672C260.435 81.712 260.675 82.5467 261.155 83.176C261.635 83.8 262.342 84.112 263.275 84.112ZM274.675 85L271.539 76.36H272.731L275.283 83.464L277.819 76.36H279.027L275.891 85H274.675ZM283.768 85.216C283.25 85.216 282.797 85.136 282.408 84.976C282.024 84.816 281.696 84.6 281.424 84.328C281.157 84.056 280.941 83.7467 280.776 83.4C280.61 83.048 280.49 82.6773 280.416 82.288C280.341 81.8933 280.304 81.5013 280.304 81.112V76.36H281.488V80.768C281.488 81.2427 281.533 81.6827 281.624 82.088C281.714 82.4933 281.858 82.848 282.056 83.152C282.258 83.4507 282.517 83.6827 282.832 83.848C283.152 84.0133 283.538 84.096 283.992 84.096C284.408 84.096 284.773 84.024 285.088 83.88C285.408 83.736 285.674 83.5307 285.888 83.264C286.106 82.992 286.272 82.664 286.384 82.28C286.496 81.8907 286.552 81.4533 286.552 80.968L287.384 81.152C287.384 82.0373 287.229 82.7813 286.92 83.384C286.61 83.9867 286.184 84.4427 285.64 84.752C285.096 85.0613 284.472 85.216 283.768 85.216ZM286.672 85V82.872H286.552V76.36H287.728V85H286.672ZM290.124 85V73.24H291.3V85H290.124ZM297.578 85.24C296.783 85.24 296.111 85.04 295.562 84.64C295.013 84.2347 294.597 83.688 294.314 83C294.031 82.3067 293.89 81.5307 293.89 80.672C293.89 79.7973 294.031 79.0187 294.314 78.336C294.602 77.648 295.023 77.1067 295.578 76.712C296.133 76.3173 296.815 76.12 297.626 76.12C298.415 76.12 299.093 76.32 299.658 76.72C300.223 77.12 300.655 77.664 300.954 78.352C301.258 79.04 301.41 79.8133 301.41 80.672C301.41 81.536 301.258 82.312 300.954 83C300.65 83.688 300.213 84.2347 299.642 84.64C299.071 85.04 298.383 85.24 297.578 85.24ZM293.69 88.84V76.36H294.746V82.864H294.874V88.84H293.69ZM297.458 84.144C298.061 84.144 298.562 83.992 298.962 83.688C299.362 83.384 299.661 82.9707 299.858 82.448C300.061 81.92 300.162 81.328 300.162 80.672C300.162 80.0213 300.063 79.4347 299.866 78.912C299.669 78.3893 299.367 77.976 298.962 77.672C298.562 77.368 298.053 77.216 297.434 77.216C296.831 77.216 296.33 77.3627 295.93 77.656C295.535 77.9493 295.239 78.3573 295.042 78.88C294.845 79.3973 294.746 79.9947 294.746 80.672C294.746 81.3387 294.845 81.936 295.042 82.464C295.239 82.9867 295.538 83.3973 295.938 83.696C296.338 83.9947 296.845 84.144 297.458 84.144ZM306.471 85.216C305.954 85.216 305.5 85.136 305.111 84.976C304.727 84.816 304.399 84.6 304.127 84.328C303.86 84.056 303.644 83.7467 303.479 83.4C303.314 83.048 303.194 82.6773 303.119 82.288C303.044 81.8933 303.007 81.5013 303.007 81.112V76.36H304.191V80.768C304.191 81.2427 304.236 81.6827 304.327 82.088C304.418 82.4933 304.562 82.848 304.759 83.152C304.962 83.4507 305.22 83.6827 305.535 83.848C305.855 84.0133 306.242 84.096 306.695 84.096C307.111 84.096 307.476 84.024 307.791 83.88C308.111 83.736 308.378 83.5307 308.591 83.264C308.81 82.992 308.975 82.664 309.087 82.28C309.199 81.8907 309.255 81.4533 309.255 80.968L310.087 81.152C310.087 82.0373 309.932 82.7813 309.623 83.384C309.314 83.9867 308.887 84.4427 308.343 84.752C307.799 85.0613 307.175 85.216 306.471 85.216ZM309.375 85V82.872H309.255V76.36H310.431V85H309.375ZM317.371 85C316.886 85.1013 316.406 85.1413 315.931 85.12C315.462 85.0987 315.04 84.9973 314.667 84.816C314.299 84.6347 314.019 84.352 313.827 83.968C313.672 83.648 313.587 83.3253 313.571 83C313.56 82.6693 313.555 82.2933 313.555 81.872V73.96H314.723V81.824C314.723 82.1867 314.726 82.4907 314.731 82.736C314.742 82.976 314.798 83.1893 314.899 83.376C315.091 83.7333 315.395 83.9467 315.811 84.016C316.232 84.0853 316.752 84.0693 317.371 83.968V85ZM311.707 77.368V76.36H317.371V77.368H311.707ZM321.545 85.24C320.894 85.24 320.348 85.1227 319.905 84.888C319.468 84.6533 319.14 84.3413 318.921 83.952C318.702 83.5627 318.593 83.1387 318.593 82.68C318.593 82.2107 318.686 81.8107 318.873 81.48C319.065 81.144 319.324 80.8693 319.649 80.656C319.98 80.4427 320.361 80.28 320.793 80.168C321.23 80.0613 321.713 79.968 322.241 79.888C322.774 79.8027 323.294 79.7307 323.801 79.672C324.313 79.608 324.761 79.5467 325.145 79.488L324.729 79.744C324.745 78.8907 324.58 78.2587 324.233 77.848C323.886 77.4373 323.284 77.232 322.425 77.232C321.833 77.232 321.332 77.3653 320.921 77.632C320.516 77.8987 320.23 78.32 320.065 78.896L318.921 78.56C319.118 77.7867 319.516 77.1867 320.113 76.76C320.71 76.3333 321.486 76.12 322.441 76.12C323.23 76.12 323.9 76.2693 324.449 76.568C325.004 76.8613 325.396 77.288 325.625 77.848C325.732 78.0987 325.801 78.3787 325.833 78.688C325.865 78.9973 325.881 79.312 325.881 79.632V85H324.833V82.832L325.137 82.96C324.844 83.7013 324.388 84.2667 323.769 84.656C323.15 85.0453 322.409 85.24 321.545 85.24ZM321.681 84.224C322.23 84.224 322.71 84.1253 323.121 83.928C323.532 83.7307 323.862 83.4613 324.113 83.12C324.364 82.7733 324.526 82.384 324.601 81.952C324.665 81.6747 324.7 81.3707 324.705 81.04C324.71 80.704 324.713 80.4533 324.713 80.288L325.161 80.52C324.761 80.5733 324.326 80.6267 323.857 80.68C323.393 80.7333 322.934 80.7947 322.481 80.864C322.033 80.9333 321.628 81.016 321.265 81.112C321.02 81.1813 320.782 81.28 320.553 81.408C320.324 81.5307 320.134 81.696 319.985 81.904C319.841 82.112 319.769 82.3707 319.769 82.68C319.769 82.9307 319.83 83.1733 319.953 83.408C320.081 83.6427 320.284 83.8373 320.561 83.992C320.844 84.1467 321.217 84.224 321.681 84.224ZM332.668 85C332.182 85.1013 331.702 85.1413 331.228 85.12C330.758 85.0987 330.337 84.9973 329.964 84.816C329.596 84.6347 329.316 84.352 329.124 83.968C328.969 83.648 328.884 83.3253 328.868 83C328.857 82.6693 328.852 82.2933 328.852 81.872V73.96H330.02V81.824C330.02 82.1867 330.022 82.4907 330.028 82.736C330.038 82.976 330.094 83.1893 330.196 83.376C330.388 83.7333 330.692 83.9467 331.108 84.016C331.529 84.0853 332.049 84.0693 332.668 83.968V85ZM327.004 77.368V76.36H332.668V77.368H327.004ZM337.714 85.24C336.871 85.24 336.14 85.0533 335.522 84.68C334.908 84.3067 334.431 83.7813 334.09 83.104C333.748 82.4267 333.578 81.632 333.578 80.72C333.578 79.776 333.746 78.96 334.082 78.272C334.418 77.584 334.89 77.0533 335.498 76.68C336.111 76.3067 336.834 76.12 337.666 76.12C338.519 76.12 339.247 76.3173 339.85 76.712C340.452 77.1013 340.908 77.6613 341.218 78.392C341.527 79.1227 341.668 79.9947 341.642 81.008H340.442V80.592C340.42 79.472 340.178 78.6267 339.714 78.056C339.255 77.4853 338.583 77.2 337.698 77.2C336.77 77.2 336.058 77.5013 335.562 78.104C335.071 78.7067 334.826 79.5653 334.826 80.68C334.826 81.768 335.071 82.6133 335.562 83.216C336.058 83.8133 336.759 84.112 337.666 84.112C338.284 84.112 338.823 83.9707 339.282 83.688C339.746 83.4 340.111 82.9867 340.378 82.448L341.474 82.872C341.132 83.624 340.628 84.208 339.962 84.624C339.3 85.0347 338.551 85.24 337.714 85.24ZM334.41 81.008V80.024H341.01V81.008H334.41ZM87.592 111.24C86.9413 111.24 86.3947 111.123 85.952 110.888C85.5147 110.653 85.1867 110.341 84.968 109.952C84.7493 109.563 84.64 109.139 84.64 108.68C84.64 108.211 84.7333 107.811 84.92 107.48C85.112 107.144 85.3707 106.869 85.696 106.656C86.0267 106.443 86.408 106.28 86.84 106.168C87.2773 106.061 87.76 105.968 88.288 105.888C88.8213 105.803 89.3413 105.731 89.848 105.672C90.36 105.608 90.808 105.547 91.192 105.488L90.776 105.744C90.792 104.891 90.6267 104.259 90.28 103.848C89.9333 103.437 89.3307 103.232 88.472 103.232C87.88 103.232 87.3787 103.365 86.968 103.632C86.5627 103.899 86.2773 104.32 86.112 104.896L84.968 104.56C85.1653 103.787 85.5627 103.187 86.16 102.76C86.7573 102.333 87.5333 102.12 88.488 102.12C89.2773 102.12 89.9467 102.269 90.496 102.568C91.0507 102.861 91.4427 103.288 91.672 103.848C91.7787 104.099 91.848 104.379 91.88 104.688C91.912 104.997 91.928 105.312 91.928 105.632V111H90.88V108.832L91.184 108.96C90.8907 109.701 90.4347 110.267 89.816 110.656C89.1973 111.045 88.456 111.24 87.592 111.24ZM87.728 110.224C88.2773 110.224 88.7573 110.125 89.168 109.928C89.5787 109.731 89.9093 109.461 90.16 109.12C90.4107 108.773 90.5733 108.384 90.648 107.952C90.712 107.675 90.7467 107.371 90.752 107.04C90.7573 106.704 90.76 106.453 90.76 106.288L91.208 106.52C90.808 106.573 90.3733 106.627 89.904 106.68C89.44 106.733 88.9813 106.795 88.528 106.864C88.08 106.933 87.6747 107.016 87.312 107.112C87.0667 107.181 86.8293 107.28 86.6 107.408C86.3707 107.531 86.1813 107.696 86.032 107.904C85.888 108.112 85.816 108.371 85.816 108.68C85.816 108.931 85.8773 109.173 86 109.408C86.128 109.643 86.3307 109.837 86.608 109.992C86.8907 110.147 87.264 110.224 87.728 110.224ZM97.5946 111.24C96.7253 111.24 95.9893 111.045 95.3866 110.656C94.784 110.267 94.3253 109.731 94.0106 109.048C93.7013 108.36 93.5413 107.571 93.5306 106.68C93.5413 105.773 93.7066 104.979 94.0266 104.296C94.3466 103.608 94.808 103.075 95.4106 102.696C96.0133 102.312 96.744 102.12 97.6026 102.12C98.4773 102.12 99.2373 102.333 99.8826 102.76C100.533 103.187 100.979 103.771 101.219 104.512L100.067 104.88C99.864 104.363 99.5413 103.963 99.0986 103.68C98.6613 103.392 98.16 103.248 97.5946 103.248C96.96 103.248 96.4346 103.395 96.0186 103.688C95.6026 103.976 95.2933 104.379 95.0906 104.896C94.888 105.413 94.784 106.008 94.7786 106.68C94.7893 107.715 95.0293 108.547 95.4986 109.176C95.968 109.8 96.6666 110.112 97.5946 110.112C98.1813 110.112 98.68 109.979 99.0906 109.712C99.5066 109.44 99.8213 109.045 100.035 108.528L101.219 108.88C100.899 109.648 100.429 110.235 99.8106 110.64C99.192 111.04 98.4533 111.24 97.5946 111.24ZM112.313 111V106.592C112.313 106.112 112.268 105.672 112.177 105.272C112.086 104.867 111.94 104.515 111.737 104.216C111.54 103.912 111.281 103.677 110.961 103.512C110.646 103.347 110.262 103.264 109.809 103.264C109.393 103.264 109.025 103.336 108.705 103.48C108.39 103.624 108.124 103.832 107.905 104.104C107.692 104.371 107.529 104.696 107.417 105.08C107.305 105.464 107.249 105.901 107.249 106.392L106.417 106.208C106.417 105.323 106.572 104.579 106.881 103.976C107.19 103.373 107.617 102.917 108.161 102.608C108.705 102.299 109.329 102.144 110.033 102.144C110.55 102.144 111.001 102.224 111.385 102.384C111.774 102.544 112.102 102.76 112.369 103.032C112.641 103.304 112.86 103.616 113.025 103.968C113.19 104.315 113.31 104.685 113.385 105.08C113.46 105.469 113.497 105.859 113.497 106.248V111H112.313ZM106.065 111V102.36H107.129V104.488H107.249V111H106.065ZM115.733 100.72V99.4H116.909V100.72H115.733ZM115.733 111V102.36H116.909V111H115.733ZM123.188 111.24C122.393 111.24 121.721 111.04 121.172 110.64C120.622 110.235 120.206 109.688 119.924 109C119.641 108.307 119.5 107.531 119.5 106.672C119.5 105.797 119.641 105.019 119.924 104.336C120.212 103.648 120.633 103.107 121.188 102.712C121.742 102.317 122.425 102.12 123.236 102.12C124.025 102.12 124.702 102.32 125.268 102.72C125.833 103.12 126.265 103.664 126.564 104.352C126.868 105.04 127.02 105.813 127.02 106.672C127.02 107.536 126.868 108.312 126.564 109C126.26 109.688 125.822 110.235 125.252 110.64C124.681 111.04 123.993 111.24 123.188 111.24ZM119.3 111V99.48H120.484V104.496H120.356V111H119.3ZM123.068 110.144C123.67 110.144 124.172 109.992 124.572 109.688C124.972 109.384 125.27 108.971 125.468 108.448C125.67 107.92 125.772 107.328 125.772 106.672C125.772 106.021 125.673 105.435 125.476 104.912C125.278 104.389 124.977 103.976 124.572 103.672C124.172 103.368 123.662 103.216 123.044 103.216C122.441 103.216 121.94 103.363 121.54 103.656C121.145 103.949 120.849 104.357 120.652 104.88C120.454 105.397 120.356 105.995 120.356 106.672C120.356 107.339 120.454 107.936 120.652 108.464C120.849 108.987 121.148 109.397 121.548 109.696C121.948 109.995 122.454 110.144 123.068 110.144ZM135.016 111V106.592C135.016 106.112 134.971 105.672 134.88 105.272C134.79 104.867 134.643 104.515 134.44 104.216C134.243 103.912 133.984 103.677 133.664 103.512C133.35 103.347 132.966 103.264 132.512 103.264C132.096 103.264 131.728 103.336 131.408 103.48C131.094 103.624 130.827 103.832 130.608 104.104C130.395 104.371 130.232 104.696 130.12 105.08C130.008 105.464 129.952 105.901 129.952 106.392L129.12 106.208C129.12 105.323 129.275 104.579 129.584 103.976C129.894 103.373 130.32 102.917 130.864 102.608C131.408 102.299 132.032 102.144 132.736 102.144C133.254 102.144 133.704 102.224 134.088 102.384C134.478 102.544 134.806 102.76 135.072 103.032C135.344 103.304 135.563 103.616 135.728 103.968C135.894 104.315 136.014 104.685 136.088 105.08C136.163 105.469 136.2 105.859 136.2 106.248V111H135.016ZM128.768 111V99.48H129.832V105.984H129.952V111H128.768ZM138.5 111V109.632H139.868V111H138.5Z" fill="white"/>
<defs>
<linearGradient id="paint0_linear_20005128_7801" x1="16" y1="30.0659" x2="44" y2="30.0659" gradientUnits="userSpaceOnUse">
<stop stop-color="#6366F1"/>
<stop offset="0.5" stop-color="#8B5CF6"/>
<stop offset="1" stop-color="#D946EF"/>
</linearGradient>
<clipPath id="clip0_20005128_7801">
<rect width="28" height="28" fill="white" transform="translate(16 16)"/>
</clipPath>
</defs>
</svg>
