<svg width="243" height="154" viewBox="0 0 243 154" fill="none" xmlns="http://www.w3.org/2000/svg">
<rect width="60" height="60" rx="8" fill="#6366F1" fill-opacity="0.08"/>
<g clip-path="url(#clip0_4634_10137)">
<path d="M38.1484 30.055C36.3391 30.055 34.8672 31.527 34.8672 33.3363C34.8672 35.1456 36.3391 36.6175 38.1484 36.6175H42.7968C42.8154 36.6175 42.8335 36.6157 42.8518 36.6147C42.8699 36.6156 42.8878 36.6175 42.9062 36.6175C43.5103 36.6175 43.9999 36.1278 43.9999 35.5237V26.9378C43.9999 25.4817 43.2843 24.1902 42.1868 23.3946L38.4659 17.2904C38.3142 17.0415 38.0693 16.8634 37.7857 16.7958C37.5021 16.7281 37.2033 16.7765 36.9555 16.9302L34.2115 18.6318L32.974 16.5376C32.8252 16.2858 32.5818 16.1042 32.2982 16.0331C32.0145 15.962 31.7141 16.0075 31.4643 16.1593L20.9278 22.5628H19.2812C18.6873 22.5628 18.2024 22.0869 18.1878 21.4964C18.2024 20.9059 18.6873 20.43 19.2812 20.43H21.3047C21.9088 20.43 22.3984 19.9403 22.3984 19.3362C22.3984 18.7322 21.9088 18.2425 21.3047 18.2425H19.2812C17.7337 18.2425 16.4331 19.3195 16.0891 20.7633C16.0319 20.896 16 21.042 16 21.1956V21.4691V21.5237V39.6253C16 42.0376 17.9626 44.0003 20.375 44.0003H39.625C41.5111 44.0003 43.1793 42.7987 43.7758 41.0104C43.967 40.4374 43.6574 39.8179 43.0844 39.6268C42.5114 39.4357 41.8919 39.7452 41.7007 40.3182C41.4025 41.2121 40.5684 41.8128 39.625 41.8128H20.375C19.1688 41.8128 18.1875 40.8315 18.1875 39.6253V24.5627C18.5298 24.6841 18.8979 24.7503 19.2812 24.7503H39.625C40.8311 24.7503 41.8125 25.7316 41.8125 26.9378V30.055H38.1484ZM41.8125 34.43H38.1484C37.5453 34.43 37.0546 33.9394 37.0546 33.3362C37.0546 32.7331 37.5453 32.2425 38.1484 32.2425H41.8125V34.43ZM25.1398 22.5629L31.6541 18.6039L32.8188 20.5749C32.8411 20.6287 32.8668 20.6818 32.8986 20.733C32.9224 20.7714 32.9487 20.8071 32.9762 20.8414L33.9934 22.5629H25.1398ZM36.5343 22.5628L35.3246 20.5155L37.1717 19.3701L39.1179 22.5628H36.5343Z" fill="url(#paint0_linear_4634_10137)"/>
</g>
<path d="M0.32 95L4.288 83.48H5.848L9.816 95H8.592L4.824 84.136H5.288L1.544 95H0.32ZM2.088 92.208V91.104H8.04V92.208H2.088ZM18.1198 95.24C17.2771 95.24 16.5464 95.0533 15.9278 94.68C15.3144 94.3067 14.8371 93.7813 14.4958 93.104C14.1544 92.4267 13.9838 91.632 13.9838 90.72C13.9838 89.776 14.1518 88.96 14.4878 88.272C14.8238 87.584 15.2958 87.0533 15.9038 86.68C16.5171 86.3067 17.2398 86.12 18.0718 86.12C18.9251 86.12 19.6531 86.3173 20.2558 86.712C20.8584 87.1013 21.3144 87.6613 21.6238 88.392C21.9331 89.1227 22.0744 89.9947 22.0478 91.008H20.8478V90.592C20.8264 89.472 20.5838 88.6267 20.1198 88.056C19.6611 87.4853 18.9891 87.2 18.1038 87.2C17.1758 87.2 16.4638 87.5013 15.9678 88.104C15.4771 88.7067 15.2318 89.5653 15.2318 90.68C15.2318 91.768 15.4771 92.6133 15.9678 93.216C16.4638 93.8133 17.1651 94.112 18.0718 94.112C18.6904 94.112 19.2291 93.9707 19.6878 93.688C20.1518 93.4 20.5171 92.9867 20.7838 92.448L21.8798 92.872C21.5384 93.624 21.0344 94.208 20.3678 94.624C19.7064 95.0347 18.9571 95.24 18.1198 95.24ZM14.8158 91.008V90.024H21.4158V91.008H14.8158ZM23.9831 95V83.24H25.1591V95H23.9831ZM31.2135 95.24C30.3708 95.24 29.6402 95.0533 29.0215 94.68C28.4082 94.3067 27.9308 93.7813 27.5895 93.104C27.2482 92.4267 27.0775 91.632 27.0775 90.72C27.0775 89.776 27.2455 88.96 27.5815 88.272C27.9175 87.584 28.3895 87.0533 28.9975 86.68C29.6108 86.3067 30.3335 86.12 31.1655 86.12C32.0188 86.12 32.7468 86.3173 33.3495 86.712C33.9522 87.1013 34.4082 87.6613 34.7175 88.392C35.0268 89.1227 35.1682 89.9947 35.1415 91.008H33.9415V90.592C33.9202 89.472 33.6775 88.6267 33.2135 88.056C32.7548 87.4853 32.0828 87.2 31.1975 87.2C30.2695 87.2 29.5575 87.5013 29.0615 88.104C28.5708 88.7067 28.3255 89.5653 28.3255 90.68C28.3255 91.768 28.5708 92.6133 29.0615 93.216C29.5575 93.8133 30.2588 94.112 31.1655 94.112C31.7842 94.112 32.3228 93.9707 32.7815 93.688C33.2455 93.4 33.6108 92.9867 33.8775 92.448L34.9735 92.872C34.6322 93.624 34.1282 94.208 33.4615 94.624C32.8002 95.0347 32.0508 95.24 31.2135 95.24ZM27.9095 91.008V90.024H34.5095V91.008H27.9095ZM46.9865 95L46.9945 89.328C46.9945 88.6613 46.8078 88.1387 46.4345 87.76C46.0665 87.376 45.5972 87.184 45.0265 87.184C44.7012 87.184 44.3838 87.2587 44.0745 87.408C43.7652 87.5573 43.5092 87.7973 43.3065 88.128C43.1092 88.4587 43.0105 88.8907 43.0105 89.424L42.3145 89.224C42.2985 88.6053 42.4185 88.064 42.6745 87.6C42.9358 87.136 43.2932 86.776 43.7465 86.52C44.2052 86.2587 44.7225 86.128 45.2985 86.128C46.1678 86.128 46.8638 86.3973 47.3865 86.936C47.9092 87.4693 48.1705 88.192 48.1705 89.104L48.1625 95H46.9865ZM36.6745 95V86.36H37.7305V88.488H37.8585V95H36.6745ZM41.8425 95L41.8505 89.408C41.8505 88.72 41.6665 88.1787 41.2985 87.784C40.9358 87.384 40.4558 87.184 39.8585 87.184C39.2612 87.184 38.7785 87.3893 38.4105 87.8C38.0425 88.2053 37.8585 88.7467 37.8585 89.424L37.1545 89.04C37.1545 88.4853 37.2852 87.9893 37.5465 87.552C37.8078 87.1093 38.1652 86.7627 38.6185 86.512C39.0718 86.256 39.5865 86.128 40.1625 86.128C40.7118 86.128 41.1998 86.2453 41.6265 86.48C42.0585 86.7147 42.3972 87.056 42.6425 87.504C42.8878 87.952 43.0105 88.496 43.0105 89.136L43.0025 95H41.8425ZM53.8541 95.24C53.0115 95.24 52.2808 95.0533 51.6621 94.68C51.0488 94.3067 50.5715 93.7813 50.2301 93.104C49.8888 92.4267 49.7181 91.632 49.7181 90.72C49.7181 89.776 49.8861 88.96 50.2221 88.272C50.5581 87.584 51.0301 87.0533 51.6381 86.68C52.2515 86.3067 52.9741 86.12 53.8061 86.12C54.6595 86.12 55.3875 86.3173 55.9901 86.712C56.5928 87.1013 57.0488 87.6613 57.3581 88.392C57.6675 89.1227 57.8088 89.9947 57.7821 91.008H56.5821V90.592C56.5608 89.472 56.3181 88.6267 55.8541 88.056C55.3955 87.4853 54.7235 87.2 53.8381 87.2C52.9101 87.2 52.1981 87.5013 51.7021 88.104C51.2115 88.7067 50.9661 89.5653 50.9661 90.68C50.9661 91.768 51.2115 92.6133 51.7021 93.216C52.1981 93.8133 52.8995 94.112 53.8061 94.112C54.4248 94.112 54.9635 93.9707 55.4221 93.688C55.8861 93.4 56.2515 92.9867 56.5181 92.448L57.6141 92.872C57.2728 93.624 56.7688 94.208 56.1021 94.624C55.4408 95.0347 54.6915 95.24 53.8541 95.24ZM50.5501 91.008V90.024H57.1501V91.008H50.5501ZM65.5631 95V90.592C65.5631 90.112 65.5178 89.672 65.4271 89.272C65.3365 88.8667 65.1898 88.5147 64.9871 88.216C64.7898 87.912 64.5311 87.6773 64.2111 87.512C63.8965 87.3467 63.5125 87.264 63.0591 87.264C62.6431 87.264 62.2751 87.336 61.9551 87.48C61.6405 87.624 61.3738 87.832 61.1551 88.104C60.9418 88.3707 60.7791 88.696 60.6671 89.08C60.5551 89.464 60.4991 89.9013 60.4991 90.392L59.6671 90.208C59.6671 89.3227 59.8218 88.5787 60.1311 87.976C60.4405 87.3733 60.8671 86.9173 61.4111 86.608C61.9551 86.2987 62.5791 86.144 63.2831 86.144C63.8005 86.144 64.2511 86.224 64.6351 86.384C65.0245 86.544 65.3525 86.76 65.6191 87.032C65.8911 87.304 66.1098 87.616 66.2751 87.968C66.4405 88.3147 66.5605 88.6853 66.6351 89.08C66.7098 89.4693 66.7471 89.8587 66.7471 90.248V95H65.5631ZM59.3151 95V86.36H60.3791V88.488H60.4991V95H59.3151ZM73.5271 95C73.0418 95.1013 72.5618 95.1413 72.0871 95.12C71.6178 95.0987 71.1965 94.9973 70.8231 94.816C70.4551 94.6347 70.1751 94.352 69.9831 93.968C69.8285 93.648 69.7431 93.3253 69.7271 93C69.7165 92.6693 69.7111 92.2933 69.7111 91.872V83.96H70.8791V91.824C70.8791 92.1867 70.8818 92.4907 70.8871 92.736C70.8978 92.976 70.9538 93.1893 71.0551 93.376C71.2471 93.7333 71.5511 93.9467 71.9671 94.016C72.3885 94.0853 72.9085 94.0693 73.5271 93.968V95ZM67.8631 87.368V86.36H73.5271V87.368H67.8631ZM78.5334 95.216C78.016 95.216 77.5627 95.136 77.1734 94.976C76.7894 94.816 76.4614 94.6 76.1894 94.328C75.9227 94.056 75.7067 93.7467 75.5414 93.4C75.376 93.048 75.256 92.6773 75.1814 92.288C75.1067 91.8933 75.0694 91.5013 75.0694 91.112V86.36H76.2534V90.768C76.2534 91.2427 76.2987 91.6827 76.3894 92.088C76.48 92.4933 76.624 92.848 76.8214 93.152C77.024 93.4507 77.2827 93.6827 77.5974 93.848C77.9174 94.0133 78.304 94.096 78.7574 94.096C79.1734 94.096 79.5387 94.024 79.8534 93.88C80.1734 93.736 80.44 93.5307 80.6534 93.264C80.872 92.992 81.0374 92.664 81.1494 92.28C81.2614 91.8907 81.3174 91.4533 81.3174 90.968L82.1494 91.152C82.1494 92.0373 81.9947 92.7813 81.6854 93.384C81.376 93.9867 80.9494 94.4427 80.4054 94.752C79.8614 95.0613 79.2374 95.216 78.5334 95.216ZM81.4374 95V92.872H81.3174V86.36H82.4934V95H81.4374ZM84.7294 95V86.36H85.7854V88.44L85.5774 88.168C85.6734 87.912 85.7987 87.6773 85.9534 87.464C86.108 87.2453 86.276 87.0667 86.4574 86.928C86.6814 86.7307 86.9427 86.5813 87.2414 86.48C87.54 86.3733 87.8414 86.312 88.1454 86.296C88.4494 86.2747 88.7267 86.296 88.9774 86.36V87.464C88.6627 87.384 88.3187 87.3653 87.9454 87.408C87.572 87.4507 87.228 87.6 86.9134 87.856C86.6254 88.08 86.4094 88.3493 86.2654 88.664C86.1214 88.9733 86.0254 89.304 85.9774 89.656C85.9294 90.0027 85.9054 90.3467 85.9054 90.688V95H84.7294ZM96.1701 95.24C95.5195 95.24 94.9728 95.1227 94.5301 94.888C94.0928 94.6533 93.7648 94.3413 93.5461 93.952C93.3275 93.5627 93.2181 93.1387 93.2181 92.68C93.2181 92.2107 93.3115 91.8107 93.4981 91.48C93.6901 91.144 93.9488 90.8693 94.2741 90.656C94.6048 90.4427 94.9861 90.28 95.4181 90.168C95.8555 90.0613 96.3381 89.968 96.8661 89.888C97.3995 89.8027 97.9195 89.7307 98.4261 89.672C98.9381 89.608 99.3861 89.5467 99.7701 89.488L99.3541 89.744C99.3701 88.8907 99.2048 88.2587 98.8581 87.848C98.5115 87.4373 97.9088 87.232 97.0501 87.232C96.4581 87.232 95.9568 87.3653 95.5461 87.632C95.1408 87.8987 94.8555 88.32 94.6901 88.896L93.5461 88.56C93.7435 87.7867 94.1408 87.1867 94.7381 86.76C95.3355 86.3333 96.1115 86.12 97.0661 86.12C97.8555 86.12 98.5248 86.2693 99.0741 86.568C99.6288 86.8613 100.021 87.288 100.25 87.848C100.357 88.0987 100.426 88.3787 100.458 88.688C100.49 88.9973 100.506 89.312 100.506 89.632V95H99.4581V92.832L99.7621 92.96C99.4688 93.7013 99.0128 94.2667 98.3941 94.656C97.7755 95.0453 97.0341 95.24 96.1701 95.24ZM96.3061 94.224C96.8555 94.224 97.3355 94.1253 97.7461 93.928C98.1568 93.7307 98.4875 93.4613 98.7381 93.12C98.9888 92.7733 99.1515 92.384 99.2261 91.952C99.2901 91.6747 99.3248 91.3707 99.3301 91.04C99.3355 90.704 99.3381 90.4533 99.3381 90.288L99.7861 90.52C99.3861 90.5733 98.9515 90.6267 98.4821 90.68C98.0181 90.7333 97.5595 90.7947 97.1061 90.864C96.6581 90.9333 96.2528 91.016 95.8901 91.112C95.6448 91.1813 95.4075 91.28 95.1781 91.408C94.9488 91.5307 94.7595 91.696 94.6101 91.904C94.4661 92.112 94.3941 92.3707 94.3941 92.68C94.3941 92.9307 94.4555 93.1733 94.5781 93.408C94.7061 93.6427 94.9088 93.8373 95.1861 93.992C95.4688 94.1467 95.8421 94.224 96.3061 94.224ZM108.829 95V90.592C108.829 90.112 108.783 89.672 108.693 89.272C108.602 88.8667 108.455 88.5147 108.253 88.216C108.055 87.912 107.797 87.6773 107.477 87.512C107.162 87.3467 106.778 87.264 106.325 87.264C105.909 87.264 105.541 87.336 105.221 87.48C104.906 87.624 104.639 87.832 104.421 88.104C104.207 88.3707 104.045 88.696 103.933 89.08C103.821 89.464 103.765 89.9013 103.765 90.392L102.933 90.208C102.933 89.3227 103.087 88.5787 103.397 87.976C103.706 87.3733 104.133 86.9173 104.677 86.608C105.221 86.2987 105.845 86.144 106.549 86.144C107.066 86.144 107.517 86.224 107.901 86.384C108.29 86.544 108.618 86.76 108.885 87.032C109.157 87.304 109.375 87.616 109.541 87.968C109.706 88.3147 109.826 88.6853 109.901 89.08C109.975 89.4693 110.013 89.8587 110.013 90.248V95H108.829ZM102.581 95V86.36H103.645V88.488H103.765V95H102.581ZM115.394 95.24C114.589 95.24 113.901 95.04 113.33 94.64C112.759 94.2347 112.322 93.688 112.018 93C111.714 92.312 111.562 91.536 111.562 90.672C111.562 89.8133 111.711 89.04 112.01 88.352C112.314 87.664 112.749 87.12 113.314 86.72C113.879 86.32 114.557 86.12 115.346 86.12C116.157 86.12 116.839 86.3173 117.394 86.712C117.949 87.1067 118.367 87.648 118.65 88.336C118.938 89.0187 119.082 89.7973 119.082 90.672C119.082 91.5307 118.941 92.3067 118.658 93C118.375 93.688 117.959 94.2347 117.41 94.64C116.861 95.04 116.189 95.24 115.394 95.24ZM115.514 94.144C116.127 94.144 116.634 93.9947 117.034 93.696C117.434 93.3973 117.733 92.9867 117.93 92.464C118.127 91.936 118.226 91.3387 118.226 90.672C118.226 89.9947 118.127 89.3973 117.93 88.88C117.733 88.3573 117.434 87.9493 117.034 87.656C116.639 87.3627 116.141 87.216 115.538 87.216C114.919 87.216 114.407 87.368 114.002 87.672C113.597 87.976 113.295 88.3893 113.098 88.912C112.906 89.4347 112.81 90.0213 112.81 90.672C112.81 91.328 112.909 91.92 113.106 92.448C113.309 92.9707 113.61 93.384 114.01 93.688C114.41 93.992 114.911 94.144 115.514 94.144ZM118.226 95V88.496H118.098V83.48H119.282V95H118.226ZM124.889 84.72V83.4H126.065V84.72H124.889ZM124.889 95V86.36H126.065V95H124.889ZM138.768 95L138.776 89.328C138.776 88.6613 138.589 88.1387 138.216 87.76C137.848 87.376 137.378 87.184 136.808 87.184C136.482 87.184 136.165 87.2587 135.856 87.408C135.546 87.5573 135.29 87.7973 135.088 88.128C134.89 88.4587 134.792 88.8907 134.792 89.424L134.096 89.224C134.08 88.6053 134.2 88.064 134.456 87.6C134.717 87.136 135.074 86.776 135.528 86.52C135.986 86.2587 136.504 86.128 137.08 86.128C137.949 86.128 138.645 86.3973 139.168 86.936C139.69 87.4693 139.952 88.192 139.952 89.104L139.944 95H138.768ZM128.456 95V86.36H129.512V88.488H129.64V95H128.456ZM133.624 95L133.632 89.408C133.632 88.72 133.448 88.1787 133.08 87.784C132.717 87.384 132.237 87.184 131.64 87.184C131.042 87.184 130.56 87.3893 130.192 87.8C129.824 88.2053 129.64 88.7467 129.64 89.424L128.936 89.04C128.936 88.4853 129.066 87.9893 129.328 87.552C129.589 87.1093 129.946 86.7627 130.4 86.512C130.853 86.256 131.368 86.128 131.944 86.128C132.493 86.128 132.981 86.2453 133.408 86.48C133.84 86.7147 134.178 87.056 134.424 87.504C134.669 87.952 134.792 88.496 134.792 89.136L134.784 95H133.624ZM145.906 95.24C145.112 95.24 144.44 95.04 143.89 94.64C143.341 94.2347 142.925 93.688 142.642 93C142.36 92.3067 142.218 91.5307 142.218 90.672C142.218 89.7973 142.36 89.0187 142.642 88.336C142.93 87.648 143.352 87.1067 143.906 86.712C144.461 86.3173 145.144 86.12 145.954 86.12C146.744 86.12 147.421 86.32 147.986 86.72C148.552 87.12 148.984 87.664 149.282 88.352C149.586 89.04 149.738 89.8133 149.738 90.672C149.738 91.536 149.586 92.312 149.282 93C148.978 93.688 148.541 94.2347 147.97 94.64C147.4 95.04 146.712 95.24 145.906 95.24ZM142.018 98.84V86.36H143.074V92.864H143.202V98.84H142.018ZM145.786 94.144C146.389 94.144 146.89 93.992 147.29 93.688C147.69 93.384 147.989 92.9707 148.186 92.448C148.389 91.92 148.49 91.328 148.49 90.672C148.49 90.0213 148.392 89.4347 148.194 88.912C147.997 88.3893 147.696 87.976 147.29 87.672C146.89 87.368 146.381 87.216 145.762 87.216C145.16 87.216 144.658 87.3627 144.258 87.656C143.864 87.9493 143.568 88.3573 143.37 88.88C143.173 89.3973 143.074 89.9947 143.074 90.672C143.074 91.3387 143.173 91.936 143.37 92.464C143.568 92.9867 143.866 93.3973 144.266 93.696C144.666 93.9947 145.173 94.144 145.786 94.144ZM155.151 95.24C154.308 95.24 153.578 95.0533 152.959 94.68C152.346 94.3067 151.868 93.7813 151.527 93.104C151.186 92.4267 151.015 91.632 151.015 90.72C151.015 89.776 151.183 88.96 151.519 88.272C151.855 87.584 152.327 87.0533 152.935 86.68C153.548 86.3067 154.271 86.12 155.103 86.12C155.956 86.12 156.684 86.3173 157.287 86.712C157.89 87.1013 158.346 87.6613 158.655 88.392C158.964 89.1227 159.106 89.9947 159.079 91.008H157.879V90.592C157.858 89.472 157.615 88.6267 157.151 88.056C156.692 87.4853 156.02 87.2 155.135 87.2C154.207 87.2 153.495 87.5013 152.999 88.104C152.508 88.7067 152.263 89.5653 152.263 90.68C152.263 91.768 152.508 92.6133 152.999 93.216C153.495 93.8133 154.196 94.112 155.103 94.112C155.722 94.112 156.26 93.9707 156.719 93.688C157.183 93.4 157.548 92.9867 157.815 92.448L158.911 92.872C158.57 93.624 158.066 94.208 157.399 94.624C156.738 95.0347 155.988 95.24 155.151 95.24ZM151.847 91.008V90.024H158.447V91.008H151.847ZM160.854 95V86.36H161.91V88.44L161.702 88.168C161.798 87.912 161.924 87.6773 162.078 87.464C162.233 87.2453 162.401 87.0667 162.582 86.928C162.806 86.7307 163.068 86.5813 163.366 86.48C163.665 86.3733 163.966 86.312 164.27 86.296C164.574 86.2747 164.852 86.296 165.102 86.36V87.464C164.788 87.384 164.444 87.3653 164.07 87.408C163.697 87.4507 163.353 87.6 163.038 87.856C162.75 88.08 162.534 88.3493 162.39 88.664C162.246 88.9733 162.15 89.304 162.102 89.656C162.054 90.0027 162.03 90.3467 162.03 90.688V95H160.854ZM169.816 95.24C169.01 95.24 168.322 95.04 167.752 94.64C167.181 94.2347 166.744 93.688 166.44 93C166.136 92.312 165.984 91.536 165.984 90.672C165.984 89.8133 166.133 89.04 166.432 88.352C166.736 87.664 167.17 87.12 167.736 86.72C168.301 86.32 168.978 86.12 169.768 86.12C170.578 86.12 171.261 86.3173 171.816 86.712C172.37 87.1067 172.789 87.648 173.072 88.336C173.36 89.0187 173.504 89.7973 173.504 90.672C173.504 91.5307 173.362 92.3067 173.08 93C172.797 93.688 172.381 94.2347 171.832 94.64C171.282 95.04 170.61 95.24 169.816 95.24ZM169.936 94.144C170.549 94.144 171.056 93.9947 171.456 93.696C171.856 93.3973 172.154 92.9867 172.352 92.464C172.549 91.936 172.648 91.3387 172.648 90.672C172.648 89.9947 172.549 89.3973 172.352 88.88C172.154 88.3573 171.856 87.9493 171.456 87.656C171.061 87.3627 170.562 87.216 169.96 87.216C169.341 87.216 168.829 87.368 168.424 87.672C168.018 87.976 167.717 88.3893 167.52 88.912C167.328 89.4347 167.232 90.0213 167.232 90.672C167.232 91.328 167.33 91.92 167.528 92.448C167.73 92.9707 168.032 93.384 168.432 93.688C168.832 93.992 169.333 94.144 169.936 94.144ZM172.648 95V88.496H172.52V83.48H173.704V95H172.648ZM176.108 84.72V83.4H177.284V84.72H176.108ZM176.108 95V86.36H177.284V95H176.108ZM183.339 95.24C182.496 95.24 181.765 95.0533 181.147 94.68C180.533 94.3067 180.056 93.7813 179.715 93.104C179.373 92.4267 179.203 91.632 179.203 90.72C179.203 89.776 179.371 88.96 179.707 88.272C180.043 87.584 180.515 87.0533 181.123 86.68C181.736 86.3067 182.459 86.12 183.291 86.12C184.144 86.12 184.872 86.3173 185.475 86.712C186.077 87.1013 186.533 87.6613 186.843 88.392C187.152 89.1227 187.293 89.9947 187.267 91.008H186.067V90.592C186.045 89.472 185.803 88.6267 185.339 88.056C184.88 87.4853 184.208 87.2 183.323 87.2C182.395 87.2 181.683 87.5013 181.187 88.104C180.696 88.7067 180.451 89.5653 180.451 90.68C180.451 91.768 180.696 92.6133 181.187 93.216C181.683 93.8133 182.384 94.112 183.291 94.112C183.909 94.112 184.448 93.9707 184.907 93.688C185.371 93.4 185.736 92.9867 186.003 92.448L187.099 92.872C186.757 93.624 186.253 94.208 185.587 94.624C184.925 95.0347 184.176 95.24 183.339 95.24ZM180.035 91.008V90.024H186.635V91.008H180.035ZM193.746 95C193.261 95.1013 192.781 95.1413 192.306 95.12C191.837 95.0987 191.415 94.9973 191.042 94.816C190.674 94.6347 190.394 94.352 190.202 93.968C190.047 93.648 189.962 93.3253 189.946 93C189.935 92.6693 189.93 92.2933 189.93 91.872V83.96H191.098V91.824C191.098 92.1867 191.101 92.4907 191.106 92.736C191.117 92.976 191.173 93.1893 191.274 93.376C191.466 93.7333 191.77 93.9467 192.186 94.016C192.607 94.0853 193.127 94.0693 193.746 93.968V95ZM188.082 87.368V86.36H193.746V87.368H188.082ZM202.307 95.24C201.465 95.24 200.734 95.0533 200.115 94.68C199.502 94.3067 199.025 93.7813 198.683 93.104C198.342 92.4267 198.171 91.632 198.171 90.72C198.171 89.776 198.339 88.96 198.675 88.272C199.011 87.584 199.483 87.0533 200.091 86.68C200.705 86.3067 201.427 86.12 202.259 86.12C203.113 86.12 203.841 86.3173 204.443 86.712C205.046 87.1013 205.502 87.6613 205.811 88.392C206.121 89.1227 206.262 89.9947 206.235 91.008H205.035V90.592C205.014 89.472 204.771 88.6267 204.307 88.056C203.849 87.4853 203.177 87.2 202.291 87.2C201.363 87.2 200.651 87.5013 200.155 88.104C199.665 88.7067 199.419 89.5653 199.419 90.68C199.419 91.768 199.665 92.6133 200.155 93.216C200.651 93.8133 201.353 94.112 202.259 94.112C202.878 94.112 203.417 93.9707 203.875 93.688C204.339 93.4 204.705 92.9867 204.971 92.448L206.067 92.872C205.726 93.624 205.222 94.208 204.555 94.624C203.894 95.0347 203.145 95.24 202.307 95.24ZM199.003 91.008V90.024H205.603V91.008H199.003ZM214.016 95V90.592C214.016 90.112 213.971 89.672 213.88 89.272C213.79 88.8667 213.643 88.5147 213.44 88.216C213.243 87.912 212.984 87.6773 212.664 87.512C212.35 87.3467 211.966 87.264 211.512 87.264C211.096 87.264 210.728 87.336 210.408 87.48C210.094 87.624 209.827 87.832 209.608 88.104C209.395 88.3707 209.232 88.696 209.12 89.08C209.008 89.464 208.952 89.9013 208.952 90.392L208.12 90.208C208.12 89.3227 208.275 88.5787 208.584 87.976C208.894 87.3733 209.32 86.9173 209.864 86.608C210.408 86.2987 211.032 86.144 211.736 86.144C212.254 86.144 212.704 86.224 213.088 86.384C213.478 86.544 213.806 86.76 214.072 87.032C214.344 87.304 214.563 87.616 214.728 87.968C214.894 88.3147 215.014 88.6853 215.088 89.08C215.163 89.4693 215.2 89.8587 215.2 90.248V95H214.016ZM207.768 95V86.36H208.832V88.488H208.952V95H207.768ZM217.436 84.72V83.4H218.612V84.72H217.436ZM217.436 95V86.36H218.612V95H217.436ZM231.315 95L231.323 89.328C231.323 88.6613 231.136 88.1387 230.763 87.76C230.395 87.376 229.925 87.184 229.355 87.184C229.029 87.184 228.712 87.2587 228.403 87.408C228.093 87.5573 227.837 87.7973 227.635 88.128C227.437 88.4587 227.339 88.8907 227.339 89.424L226.643 89.224C226.627 88.6053 226.747 88.064 227.003 87.6C227.264 87.136 227.621 86.776 228.075 86.52C228.533 86.2587 229.051 86.128 229.627 86.128C230.496 86.128 231.192 86.3973 231.715 86.936C232.237 87.4693 232.499 88.192 232.499 89.104L232.491 95H231.315ZM221.003 95V86.36H222.059V88.488H222.187V95H221.003ZM226.171 95L226.179 89.408C226.179 88.72 225.995 88.1787 225.627 87.784C225.264 87.384 224.784 87.184 224.187 87.184C223.589 87.184 223.107 87.3893 222.739 87.8C222.371 88.2053 222.187 88.7467 222.187 89.424L221.483 89.04C221.483 88.4853 221.613 87.9893 221.875 87.552C222.136 87.1093 222.493 86.7627 222.947 86.512C223.4 86.256 223.915 86.128 224.491 86.128C225.04 86.128 225.528 86.2453 225.955 86.48C226.387 86.7147 226.725 87.056 226.971 87.504C227.216 87.952 227.339 88.496 227.339 89.136L227.331 95H226.171ZM234.413 96.672L234.485 96.088C234.698 96.104 234.853 96.0613 234.949 95.96C235.045 95.8587 235.104 95.7227 235.125 95.552C235.146 95.3813 235.152 95.1973 235.141 95H234.413V93.312H235.781V95.32C235.781 95.8107 235.656 96.1787 235.405 96.424C235.16 96.6693 234.829 96.752 234.413 96.672ZM5 121.24C4.20533 121.24 3.53333 121.04 2.984 120.64C2.43467 120.235 2.01867 119.688 1.736 119C1.45333 118.307 1.312 117.531 1.312 116.672C1.312 115.797 1.45333 115.019 1.736 114.336C2.024 113.648 2.44533 113.107 3 112.712C3.55467 112.317 4.23733 112.12 5.048 112.12C5.83733 112.12 6.51467 112.32 7.08 112.72C7.64533 113.12 8.07733 113.664 8.376 114.352C8.68 115.04 8.832 115.813 8.832 116.672C8.832 117.536 8.68 118.312 8.376 119C8.072 119.688 7.63467 120.235 7.064 120.64C6.49333 121.04 5.80533 121.24 5 121.24ZM1.112 124.84V112.36H2.168V118.864H2.296V124.84H1.112ZM4.88 120.144C5.48267 120.144 5.984 119.992 6.384 119.688C6.784 119.384 7.08267 118.971 7.28 118.448C7.48267 117.92 7.584 117.328 7.584 116.672C7.584 116.021 7.48533 115.435 7.288 114.912C7.09067 114.389 6.78933 113.976 6.384 113.672C5.984 113.368 5.47467 113.216 4.856 113.216C4.25333 113.216 3.752 113.363 3.352 113.656C2.95733 113.949 2.66133 114.357 2.464 114.88C2.26667 115.397 2.168 115.995 2.168 116.672C2.168 117.339 2.26667 117.936 2.464 118.464C2.66133 118.987 2.96 119.397 3.36 119.696C3.76 119.995 4.26667 120.144 4.88 120.144ZM10.5888 121V112.36H11.6448V114.44L11.4368 114.168C11.5328 113.912 11.6581 113.677 11.8128 113.464C11.9674 113.245 12.1354 113.067 12.3168 112.928C12.5408 112.731 12.8021 112.581 13.1008 112.48C13.3994 112.373 13.7008 112.312 14.0048 112.296C14.3088 112.275 14.5861 112.296 14.8368 112.36V113.464C14.5221 113.384 14.1781 113.365 13.8048 113.408C13.4314 113.451 13.0874 113.6 12.7728 113.856C12.4848 114.08 12.2688 114.349 12.1248 114.664C11.9808 114.973 11.8848 115.304 11.8368 115.656C11.7888 116.003 11.7648 116.347 11.7648 116.688V121H10.5888ZM19.8541 121.24C19.0115 121.24 18.2808 121.053 17.6621 120.68C17.0488 120.307 16.5715 119.781 16.2301 119.104C15.8888 118.427 15.7181 117.632 15.7181 116.72C15.7181 115.776 15.8861 114.96 16.2221 114.272C16.5581 113.584 17.0301 113.053 17.6381 112.68C18.2515 112.307 18.9741 112.12 19.8061 112.12C20.6595 112.12 21.3875 112.317 21.9901 112.712C22.5928 113.101 23.0488 113.661 23.3581 114.392C23.6675 115.123 23.8088 115.995 23.7821 117.008H22.5821V116.592C22.5608 115.472 22.3181 114.627 21.8541 114.056C21.3955 113.485 20.7235 113.2 19.8381 113.2C18.9101 113.2 18.1981 113.501 17.7021 114.104C17.2115 114.707 16.9661 115.565 16.9661 116.68C16.9661 117.768 17.2115 118.613 17.7021 119.216C18.1981 119.813 18.8995 120.112 19.8061 120.112C20.4248 120.112 20.9635 119.971 21.4221 119.688C21.8861 119.4 22.2515 118.987 22.5181 118.448L23.6141 118.872C23.2728 119.624 22.7688 120.208 22.1021 120.624C21.4408 121.035 20.6915 121.24 19.8541 121.24ZM16.5501 117.008V116.024H23.1501V117.008H16.5501ZM30.2615 121C29.7762 121.101 29.2962 121.141 28.8215 121.12C28.3522 121.099 27.9308 120.997 27.5575 120.816C27.1895 120.635 26.9095 120.352 26.7175 119.968C26.5628 119.648 26.4775 119.325 26.4615 119C26.4508 118.669 26.4455 118.293 26.4455 117.872V109.96H27.6135V117.824C27.6135 118.187 27.6162 118.491 27.6215 118.736C27.6322 118.976 27.6882 119.189 27.7895 119.376C27.9815 119.733 28.2855 119.947 28.7015 120.016C29.1228 120.085 29.6428 120.069 30.2615 119.968V121ZM24.5975 113.368V112.36H30.2615V113.368H24.5975ZM32.1238 110.72V109.4H33.2998V110.72H32.1238ZM32.1238 121V112.36H33.2998V121H32.1238ZM39.0021 121.216C38.4848 121.216 38.0315 121.136 37.6421 120.976C37.2581 120.816 36.9301 120.6 36.6581 120.328C36.3915 120.056 36.1755 119.747 36.0101 119.4C35.8448 119.048 35.7248 118.677 35.6501 118.288C35.5755 117.893 35.5381 117.501 35.5381 117.112V112.36H36.7221V116.768C36.7221 117.243 36.7675 117.683 36.8581 118.088C36.9488 118.493 37.0928 118.848 37.2901 119.152C37.4928 119.451 37.7515 119.683 38.0661 119.848C38.3861 120.013 38.7728 120.096 39.2261 120.096C39.6421 120.096 40.0075 120.024 40.3221 119.88C40.6421 119.736 40.9088 119.531 41.1221 119.264C41.3408 118.992 41.5061 118.664 41.6181 118.28C41.7301 117.891 41.7861 117.453 41.7861 116.968L42.6181 117.152C42.6181 118.037 42.4635 118.781 42.1541 119.384C41.8448 119.987 41.4181 120.443 40.8741 120.752C40.3301 121.061 39.7061 121.216 39.0021 121.216ZM41.9061 121V118.872H41.7861V112.36H42.9621V121H41.9061ZM55.5021 121L55.5101 115.328C55.5101 114.661 55.3235 114.139 54.9501 113.76C54.5821 113.376 54.1128 113.184 53.5421 113.184C53.2168 113.184 52.8995 113.259 52.5901 113.408C52.2808 113.557 52.0248 113.797 51.8221 114.128C51.6248 114.459 51.5261 114.891 51.5261 115.424L50.8301 115.224C50.8141 114.605 50.9341 114.064 51.1901 113.6C51.4515 113.136 51.8088 112.776 52.2621 112.52C52.7208 112.259 53.2381 112.128 53.8141 112.128C54.6835 112.128 55.3795 112.397 55.9021 112.936C56.4248 113.469 56.6861 114.192 56.6861 115.104L56.6781 121H55.5021ZM45.1901 121V112.36H46.2461V114.488H46.3741V121H45.1901ZM50.3581 121L50.3661 115.408C50.3661 114.72 50.1821 114.179 49.8141 113.784C49.4515 113.384 48.9715 113.184 48.3741 113.184C47.7768 113.184 47.2941 113.389 46.9261 113.8C46.5581 114.205 46.3741 114.747 46.3741 115.424L45.6701 115.04C45.6701 114.485 45.8008 113.989 46.0621 113.552C46.3235 113.109 46.6808 112.763 47.1341 112.512C47.5875 112.256 48.1021 112.128 48.6781 112.128C49.2275 112.128 49.7155 112.245 50.1421 112.48C50.5741 112.715 50.9128 113.056 51.1581 113.504C51.4035 113.952 51.5261 114.496 51.5261 115.136L51.5181 121H50.3581ZM65.6198 121.24C64.7771 121.24 64.0464 121.053 63.4278 120.68C62.8144 120.307 62.3371 119.781 61.9958 119.104C61.6544 118.427 61.4838 117.632 61.4838 116.72C61.4838 115.776 61.6518 114.96 61.9878 114.272C62.3238 113.584 62.7958 113.053 63.4038 112.68C64.0171 112.307 64.7398 112.12 65.5718 112.12C66.4251 112.12 67.1531 112.317 67.7558 112.712C68.3584 113.101 68.8144 113.661 69.1238 114.392C69.4331 115.123 69.5744 115.995 69.5478 117.008H68.3478V116.592C68.3264 115.472 68.0838 114.627 67.6198 114.056C67.1611 113.485 66.4891 113.2 65.6038 113.2C64.6758 113.2 63.9638 113.501 63.4678 114.104C62.9771 114.707 62.7318 115.565 62.7318 116.68C62.7318 117.768 62.9771 118.613 63.4678 119.216C63.9638 119.813 64.6651 120.112 65.5718 120.112C66.1904 120.112 66.7291 119.971 67.1878 119.688C67.6518 119.4 68.0171 118.987 68.2838 118.448L69.3798 118.872C69.0384 119.624 68.5344 120.208 67.8678 120.624C67.2064 121.035 66.4571 121.24 65.6198 121.24ZM62.3158 117.008V116.024H68.9158V117.008H62.3158ZM76.0271 121C75.5418 121.101 75.0618 121.141 74.5871 121.12C74.1178 121.099 73.6965 120.997 73.3231 120.816C72.9551 120.635 72.6751 120.352 72.4831 119.968C72.3285 119.648 72.2431 119.325 72.2271 119C72.2165 118.669 72.2111 118.293 72.2111 117.872V109.96H73.3791V117.824C73.3791 118.187 73.3818 118.491 73.3871 118.736C73.3978 118.976 73.4538 119.189 73.5551 119.376C73.7471 119.733 74.0511 119.947 74.4671 120.016C74.8885 120.085 75.4085 120.069 76.0271 119.968V121ZM70.3631 113.368V112.36H76.0271V113.368H70.3631ZM77.8894 110.72V109.4H79.0654V110.72H77.8894ZM77.8894 121V112.36H79.0654V121H77.8894ZM83.9358 121.24C83.2851 121.24 82.7384 121.123 82.2958 120.888C81.8584 120.653 81.5304 120.341 81.3118 119.952C81.0931 119.563 80.9838 119.139 80.9838 118.68C80.9838 118.211 81.0771 117.811 81.2638 117.48C81.4558 117.144 81.7144 116.869 82.0398 116.656C82.3704 116.443 82.7518 116.28 83.1838 116.168C83.6211 116.061 84.1038 115.968 84.6318 115.888C85.1651 115.803 85.6851 115.731 86.1918 115.672C86.7038 115.608 87.1518 115.547 87.5358 115.488L87.1198 115.744C87.1358 114.891 86.9704 114.259 86.6238 113.848C86.2771 113.437 85.6744 113.232 84.8158 113.232C84.2238 113.232 83.7224 113.365 83.3118 113.632C82.9064 113.899 82.6211 114.32 82.4557 114.896L81.3118 114.56C81.5091 113.787 81.9064 113.187 82.5038 112.76C83.1011 112.333 83.8771 112.12 84.8318 112.12C85.6211 112.12 86.2904 112.269 86.8398 112.568C87.3944 112.861 87.7864 113.288 88.0158 113.848C88.1224 114.099 88.1918 114.379 88.2238 114.688C88.2558 114.997 88.2718 115.312 88.2718 115.632V121H87.2238V118.832L87.5278 118.96C87.2344 119.701 86.7784 120.267 86.1598 120.656C85.5411 121.045 84.7998 121.24 83.9358 121.24ZM84.0718 120.224C84.6211 120.224 85.1011 120.125 85.5118 119.928C85.9224 119.731 86.2531 119.461 86.5038 119.12C86.7544 118.773 86.9171 118.384 86.9918 117.952C87.0558 117.675 87.0904 117.371 87.0958 117.04C87.1011 116.704 87.1038 116.453 87.1038 116.288L87.5518 116.52C87.1518 116.573 86.7171 116.627 86.2478 116.68C85.7838 116.733 85.3251 116.795 84.8718 116.864C84.4238 116.933 84.0184 117.016 83.6558 117.112C83.4104 117.181 83.1731 117.28 82.9438 117.408C82.7144 117.531 82.5251 117.696 82.3758 117.904C82.2318 118.112 82.1598 118.371 82.1598 118.68C82.1598 118.931 82.2211 119.173 82.3438 119.408C82.4718 119.643 82.6744 119.837 82.9518 119.992C83.2344 120.147 83.6078 120.224 84.0718 120.224ZM100.658 121L100.666 115.328C100.666 114.661 100.48 114.139 100.106 113.76C99.7384 113.376 99.269 113.184 98.6984 113.184C98.373 113.184 98.0557 113.259 97.7464 113.408C97.437 113.557 97.181 113.797 96.9784 114.128C96.781 114.459 96.6824 114.891 96.6824 115.424L95.9864 115.224C95.9704 114.605 96.0904 114.064 96.3464 113.6C96.6077 113.136 96.965 112.776 97.4184 112.52C97.877 112.259 98.3944 112.128 98.9704 112.128C99.8397 112.128 100.536 112.397 101.058 112.936C101.581 113.469 101.842 114.192 101.842 115.104L101.834 121H100.658ZM90.3464 121V112.36H91.4024V114.488H91.5304V121H90.3464ZM95.5144 121L95.5224 115.408C95.5224 114.72 95.3384 114.179 94.9704 113.784C94.6077 113.384 94.1277 113.184 93.5304 113.184C92.933 113.184 92.4504 113.389 92.0824 113.8C91.7144 114.205 91.5304 114.747 91.5304 115.424L90.8264 115.04C90.8264 114.485 90.957 113.989 91.2184 113.552C91.4797 113.109 91.837 112.763 92.2904 112.512C92.7437 112.256 93.2584 112.128 93.8344 112.128C94.3837 112.128 94.8717 112.245 95.2984 112.48C95.7304 112.715 96.069 113.056 96.3144 113.504C96.5597 113.952 96.6824 114.496 96.6824 115.136L96.6744 121H95.5144ZM107.976 121V111.72C107.976 111.496 107.987 111.275 108.008 111.056C108.035 110.837 108.085 110.629 108.16 110.432C108.235 110.229 108.352 110.043 108.512 109.872C108.688 109.68 108.88 109.541 109.088 109.456C109.296 109.365 109.512 109.307 109.736 109.28C109.965 109.253 110.189 109.24 110.408 109.24H111.512V110.232H110.488C110.04 110.232 109.704 110.341 109.48 110.56C109.261 110.779 109.152 111.123 109.152 111.592V121H107.976ZM106.48 113.368V112.36H111.512V113.368H106.48ZM115.03 121.24C114.379 121.24 113.832 121.123 113.39 120.888C112.952 120.653 112.624 120.341 112.406 119.952C112.187 119.563 112.078 119.139 112.078 118.68C112.078 118.211 112.171 117.811 112.358 117.48C112.55 117.144 112.808 116.869 113.134 116.656C113.464 116.443 113.846 116.28 114.278 116.168C114.715 116.061 115.198 115.968 115.726 115.888C116.259 115.803 116.779 115.731 117.286 115.672C117.798 115.608 118.246 115.547 118.63 115.488L118.214 115.744C118.23 114.891 118.064 114.259 117.718 113.848C117.371 113.437 116.768 113.232 115.91 113.232C115.318 113.232 114.816 113.365 114.406 113.632C114 113.899 113.715 114.32 113.549 114.896L112.406 114.56C112.603 113.787 113 113.187 113.598 112.76C114.195 112.333 114.971 112.12 115.926 112.12C116.715 112.12 117.384 112.269 117.934 112.568C118.488 112.861 118.88 113.288 119.11 113.848C119.216 114.099 119.286 114.379 119.318 114.688C119.35 114.997 119.366 115.312 119.366 115.632V121H118.318V118.832L118.622 118.96C118.328 119.701 117.872 120.267 117.254 120.656C116.635 121.045 115.894 121.24 115.03 121.24ZM115.166 120.224C115.715 120.224 116.195 120.125 116.606 119.928C117.016 119.731 117.347 119.461 117.598 119.12C117.848 118.773 118.011 118.384 118.086 117.952C118.15 117.675 118.184 117.371 118.19 117.04C118.195 116.704 118.198 116.453 118.198 116.288L118.646 116.52C118.246 116.573 117.811 116.627 117.342 116.68C116.878 116.733 116.419 116.795 115.966 116.864C115.518 116.933 115.112 117.016 114.75 117.112C114.504 117.181 114.267 117.28 114.038 117.408C113.808 117.531 113.619 117.696 113.47 117.904C113.326 118.112 113.254 118.371 113.254 118.68C113.254 118.931 113.315 119.173 113.438 119.408C113.566 119.643 113.768 119.837 114.046 119.992C114.328 120.147 114.702 120.224 115.166 120.224ZM125.032 121.24C124.163 121.24 123.427 121.045 122.824 120.656C122.221 120.267 121.763 119.731 121.448 119.048C121.139 118.36 120.979 117.571 120.968 116.68C120.979 115.773 121.144 114.979 121.464 114.296C121.784 113.608 122.245 113.075 122.848 112.696C123.451 112.312 124.181 112.12 125.04 112.12C125.915 112.12 126.675 112.333 127.32 112.76C127.971 113.187 128.416 113.771 128.656 114.512L127.504 114.88C127.301 114.363 126.979 113.963 126.536 113.68C126.099 113.392 125.597 113.248 125.032 113.248C124.397 113.248 123.872 113.395 123.456 113.688C123.04 113.976 122.731 114.379 122.528 114.896C122.325 115.413 122.221 116.008 122.216 116.68C122.227 117.715 122.467 118.547 122.936 119.176C123.405 119.8 124.104 120.112 125.032 120.112C125.619 120.112 126.117 119.979 126.528 119.712C126.944 119.44 127.259 119.045 127.472 118.528L128.656 118.88C128.336 119.648 127.867 120.235 127.248 120.64C126.629 121.04 125.891 121.24 125.032 121.24ZM130.233 110.72V109.4H131.409V110.72H130.233ZM130.233 121V112.36H131.409V121H130.233ZM133.968 121V109.24H135.144V121H133.968ZM137.702 110.72V109.4H138.878V110.72H137.702ZM137.702 121V112.36H138.878V121H137.702ZM144.5 121.232C143.487 121.232 142.652 121.013 141.996 120.576C141.346 120.139 140.946 119.531 140.796 118.752L141.996 118.552C142.124 119.043 142.415 119.435 142.868 119.728C143.327 120.016 143.892 120.16 144.564 120.16C145.22 120.16 145.738 120.024 146.116 119.752C146.495 119.475 146.684 119.099 146.684 118.624C146.684 118.357 146.623 118.141 146.5 117.976C146.383 117.805 146.14 117.648 145.772 117.504C145.404 117.36 144.855 117.189 144.124 116.992C143.34 116.779 142.727 116.565 142.284 116.352C141.842 116.139 141.527 115.893 141.34 115.616C141.154 115.333 141.06 114.989 141.06 114.584C141.06 114.093 141.199 113.664 141.476 113.296C141.754 112.923 142.138 112.635 142.628 112.432C143.119 112.224 143.69 112.12 144.34 112.12C144.991 112.12 145.572 112.227 146.084 112.44C146.602 112.648 147.018 112.941 147.332 113.32C147.647 113.699 147.834 114.139 147.892 114.64L146.692 114.856C146.612 114.349 146.359 113.949 145.932 113.656C145.511 113.357 144.975 113.203 144.324 113.192C143.711 113.176 143.212 113.293 142.828 113.544C142.444 113.789 142.252 114.117 142.252 114.528C142.252 114.757 142.322 114.955 142.46 115.12C142.599 115.28 142.85 115.432 143.212 115.576C143.58 115.72 144.103 115.877 144.78 116.048C145.575 116.251 146.199 116.464 146.652 116.688C147.106 116.912 147.428 117.176 147.62 117.48C147.812 117.784 147.908 118.16 147.908 118.608C147.908 119.424 147.604 120.067 146.996 120.536C146.394 121 145.562 121.232 144.5 121.232ZM149.843 110.72V109.4H151.019V110.72H149.843ZM149.843 121V112.36H151.019V121H149.843ZM159.092 121.24C158.441 121.24 157.895 121.123 157.452 120.888C157.015 120.653 156.687 120.341 156.468 119.952C156.249 119.563 156.14 119.139 156.14 118.68C156.14 118.211 156.233 117.811 156.42 117.48C156.612 117.144 156.871 116.869 157.196 116.656C157.527 116.443 157.908 116.28 158.34 116.168C158.777 116.061 159.26 115.968 159.788 115.888C160.321 115.803 160.841 115.731 161.348 115.672C161.86 115.608 162.308 115.547 162.692 115.488L162.276 115.744C162.292 114.891 162.127 114.259 161.78 113.848C161.433 113.437 160.831 113.232 159.972 113.232C159.38 113.232 158.879 113.365 158.468 113.632C158.063 113.899 157.777 114.32 157.612 114.896L156.468 114.56C156.665 113.787 157.063 113.187 157.66 112.76C158.257 112.333 159.033 112.12 159.988 112.12C160.777 112.12 161.447 112.269 161.996 112.568C162.551 112.861 162.943 113.288 163.172 113.848C163.279 114.099 163.348 114.379 163.38 114.688C163.412 114.997 163.428 115.312 163.428 115.632V121H162.38V118.832L162.684 118.96C162.391 119.701 161.935 120.267 161.316 120.656C160.697 121.045 159.956 121.24 159.092 121.24ZM159.228 120.224C159.777 120.224 160.257 120.125 160.668 119.928C161.079 119.731 161.409 119.461 161.66 119.12C161.911 118.773 162.073 118.384 162.148 117.952C162.212 117.675 162.247 117.371 162.252 117.04C162.257 116.704 162.26 116.453 162.26 116.288L162.708 116.52C162.308 116.573 161.873 116.627 161.404 116.68C160.94 116.733 160.481 116.795 160.028 116.864C159.58 116.933 159.175 117.016 158.812 117.112C158.567 117.181 158.329 117.28 158.1 117.408C157.871 117.531 157.681 117.696 157.532 117.904C157.388 118.112 157.316 118.371 157.316 118.68C157.316 118.931 157.377 119.173 157.5 119.408C157.628 119.643 157.831 119.837 158.108 119.992C158.391 120.147 158.764 120.224 159.228 120.224ZM169.167 121.24C168.324 121.24 167.593 121.053 166.975 120.68C166.361 120.307 165.884 119.781 165.543 119.104C165.201 118.427 165.031 117.632 165.031 116.72C165.031 115.776 165.199 114.96 165.535 114.272C165.871 113.584 166.343 113.053 166.951 112.68C167.564 112.307 168.287 112.12 169.119 112.12C169.972 112.12 170.7 112.317 171.303 112.712C171.905 113.101 172.361 113.661 172.671 114.392C172.98 115.123 173.121 115.995 173.095 117.008H171.895V116.592C171.873 115.472 171.631 114.627 171.167 114.056C170.708 113.485 170.036 113.2 169.151 113.2C168.223 113.2 167.511 113.501 167.015 114.104C166.524 114.707 166.279 115.565 166.279 116.68C166.279 117.768 166.524 118.613 167.015 119.216C167.511 119.813 168.212 120.112 169.119 120.112C169.737 120.112 170.276 119.971 170.735 119.688C171.199 119.4 171.564 118.987 171.831 118.448L172.927 118.872C172.585 119.624 172.081 120.208 171.415 120.624C170.753 121.035 170.004 121.24 169.167 121.24ZM165.863 117.008V116.024H172.463V117.008H165.863ZM180.876 121V116.592C180.876 116.112 180.83 115.672 180.74 115.272C180.649 114.867 180.502 114.515 180.3 114.216C180.102 113.912 179.844 113.677 179.524 113.512C179.209 113.347 178.825 113.264 178.372 113.264C177.956 113.264 177.588 113.336 177.268 113.48C176.953 113.624 176.686 113.832 176.468 114.104C176.254 114.371 176.092 114.696 175.98 115.08C175.868 115.464 175.812 115.901 175.812 116.392L174.98 116.208C174.98 115.323 175.134 114.579 175.444 113.976C175.753 113.373 176.18 112.917 176.724 112.608C177.268 112.299 177.892 112.144 178.596 112.144C179.113 112.144 179.564 112.224 179.948 112.384C180.337 112.544 180.665 112.76 180.932 113.032C181.204 113.304 181.422 113.616 181.588 113.968C181.753 114.315 181.873 114.685 181.948 115.08C182.022 115.469 182.06 115.859 182.06 116.248V121H180.876ZM174.628 121V112.36H175.692V114.488H175.812V121H174.628ZM187.745 121.24C186.902 121.24 186.171 121.053 185.553 120.68C184.939 120.307 184.462 119.781 184.121 119.104C183.779 118.427 183.609 117.632 183.609 116.72C183.609 115.776 183.777 114.96 184.113 114.272C184.449 113.584 184.921 113.053 185.529 112.68C186.142 112.307 186.865 112.12 187.697 112.12C188.55 112.12 189.278 112.317 189.881 112.712C190.483 113.101 190.939 113.661 191.249 114.392C191.558 115.123 191.699 115.995 191.673 117.008H190.473V116.592C190.451 115.472 190.209 114.627 189.745 114.056C189.286 113.485 188.614 113.2 187.729 113.2C186.801 113.2 186.089 113.501 185.593 114.104C185.102 114.707 184.857 115.565 184.857 116.68C184.857 117.768 185.102 118.613 185.593 119.216C186.089 119.813 186.79 120.112 187.697 120.112C188.315 120.112 188.854 119.971 189.313 119.688C189.777 119.4 190.142 118.987 190.409 118.448L191.505 118.872C191.163 119.624 190.659 120.208 189.993 120.624C189.331 121.035 188.582 121.24 187.745 121.24ZM184.441 117.008V116.024H191.041V117.008H184.441ZM195.764 121.24C195.113 121.24 194.567 121.123 194.124 120.888C193.687 120.653 193.359 120.341 193.14 119.952C192.921 119.563 192.812 119.139 192.812 118.68C192.812 118.211 192.905 117.811 193.092 117.48C193.284 117.144 193.543 116.869 193.868 116.656C194.199 116.443 194.58 116.28 195.012 116.168C195.449 116.061 195.932 115.968 196.46 115.888C196.993 115.803 197.513 115.731 198.02 115.672C198.532 115.608 198.98 115.547 199.364 115.488L198.948 115.744C198.964 114.891 198.799 114.259 198.452 113.848C198.105 113.437 197.503 113.232 196.644 113.232C196.052 113.232 195.551 113.365 195.14 113.632C194.735 113.899 194.449 114.32 194.284 114.896L193.14 114.56C193.337 113.787 193.735 113.187 194.332 112.76C194.929 112.333 195.705 112.12 196.66 112.12C197.449 112.12 198.119 112.269 198.668 112.568C199.223 112.861 199.615 113.288 199.844 113.848C199.951 114.099 200.02 114.379 200.052 114.688C200.084 114.997 200.1 115.312 200.1 115.632V121H199.052V118.832L199.356 118.96C199.063 119.701 198.607 120.267 197.988 120.656C197.369 121.045 196.628 121.24 195.764 121.24ZM195.9 120.224C196.449 120.224 196.929 120.125 197.34 119.928C197.751 119.731 198.081 119.461 198.332 119.12C198.583 118.773 198.745 118.384 198.82 117.952C198.884 117.675 198.919 117.371 198.924 117.04C198.929 116.704 198.932 116.453 198.932 116.288L199.38 116.52C198.98 116.573 198.545 116.627 198.076 116.68C197.612 116.733 197.153 116.795 196.7 116.864C196.252 116.933 195.847 117.016 195.484 117.112C195.239 117.181 195.001 117.28 194.772 117.408C194.543 117.531 194.353 117.696 194.204 117.904C194.06 118.112 193.988 118.371 193.988 118.68C193.988 118.931 194.049 119.173 194.172 119.408C194.3 119.643 194.503 119.837 194.78 119.992C195.063 120.147 195.436 120.224 195.9 120.224ZM208.423 121V116.592C208.423 116.112 208.377 115.672 208.287 115.272C208.196 114.867 208.049 114.515 207.847 114.216C207.649 113.912 207.391 113.677 207.071 113.512C206.756 113.347 206.372 113.264 205.919 113.264C205.503 113.264 205.135 113.336 204.815 113.48C204.5 113.624 204.233 113.832 204.015 114.104C203.801 114.371 203.639 114.696 203.527 115.08C203.415 115.464 203.359 115.901 203.359 116.392L202.527 116.208C202.527 115.323 202.681 114.579 202.991 113.976C203.3 113.373 203.727 112.917 204.271 112.608C204.815 112.299 205.439 112.144 206.143 112.144C206.66 112.144 207.111 112.224 207.495 112.384C207.884 112.544 208.212 112.76 208.479 113.032C208.751 113.304 208.969 113.616 209.135 113.968C209.3 114.315 209.42 114.685 209.495 115.08C209.569 115.469 209.607 115.859 209.607 116.248V121H208.423ZM202.175 121V112.36H203.239V114.488H203.359V121H202.175ZM4.472 147.24C3.66667 147.24 2.97867 147.04 2.408 146.64C1.83733 146.235 1.4 145.688 1.096 145C0.792 144.312 0.64 143.536 0.64 142.672C0.64 141.813 0.789333 141.04 1.088 140.352C1.392 139.664 1.82667 139.12 2.392 138.72C2.95733 138.32 3.63467 138.12 4.424 138.12C5.23467 138.12 5.91733 138.317 6.472 138.712C7.02667 139.107 7.44533 139.648 7.728 140.336C8.016 141.019 8.16 141.797 8.16 142.672C8.16 143.531 8.01867 144.307 7.736 145C7.45333 145.688 7.03733 146.235 6.488 146.64C5.93867 147.04 5.26667 147.24 4.472 147.24ZM4.592 146.144C5.20533 146.144 5.712 145.995 6.112 145.696C6.512 145.397 6.81067 144.987 7.008 144.464C7.20533 143.936 7.304 143.339 7.304 142.672C7.304 141.995 7.20533 141.397 7.008 140.88C6.81067 140.357 6.512 139.949 6.112 139.656C5.71733 139.363 5.21867 139.216 4.616 139.216C3.99733 139.216 3.48533 139.368 3.08 139.672C2.67467 139.976 2.37333 140.389 2.176 140.912C1.984 141.435 1.888 142.021 1.888 142.672C1.888 143.328 1.98667 143.92 2.184 144.448C2.38667 144.971 2.688 145.384 3.088 145.688C3.488 145.992 3.98933 146.144 4.592 146.144ZM7.176 150.84V144.864H7.304V138.36H8.36V150.84H7.176ZM13.9084 147.216C13.391 147.216 12.9377 147.136 12.5484 146.976C12.1644 146.816 11.8364 146.6 11.5644 146.328C11.2977 146.056 11.0817 145.747 10.9164 145.4C10.751 145.048 10.631 144.677 10.5564 144.288C10.4817 143.893 10.4444 143.501 10.4444 143.112V138.36H11.6284V142.768C11.6284 143.243 11.6737 143.683 11.7644 144.088C11.855 144.493 11.999 144.848 12.1964 145.152C12.399 145.451 12.6577 145.683 12.9724 145.848C13.2924 146.013 13.679 146.096 14.1324 146.096C14.5484 146.096 14.9137 146.024 15.2284 145.88C15.5484 145.736 15.815 145.531 16.0284 145.264C16.247 144.992 16.4124 144.664 16.5244 144.28C16.6364 143.891 16.6924 143.453 16.6924 142.968L17.5244 143.152C17.5244 144.037 17.3697 144.781 17.0604 145.384C16.751 145.987 16.3244 146.443 15.7804 146.752C15.2364 147.061 14.6124 147.216 13.9084 147.216ZM16.8124 147V144.872H16.6924V138.36H17.8684V147H16.8124ZM22.5764 147.24C21.9257 147.24 21.379 147.123 20.9364 146.888C20.499 146.653 20.171 146.341 19.9524 145.952C19.7337 145.563 19.6244 145.139 19.6244 144.68C19.6244 144.211 19.7177 143.811 19.9044 143.48C20.0964 143.144 20.355 142.869 20.6804 142.656C21.011 142.443 21.3924 142.28 21.8244 142.168C22.2617 142.061 22.7444 141.968 23.2724 141.888C23.8057 141.803 24.3257 141.731 24.8324 141.672C25.3444 141.608 25.7924 141.547 26.1764 141.488L25.7604 141.744C25.7764 140.891 25.611 140.259 25.2644 139.848C24.9177 139.437 24.315 139.232 23.4564 139.232C22.8644 139.232 22.363 139.365 21.9524 139.632C21.547 139.899 21.2617 140.32 21.0964 140.896L19.9524 140.56C20.1497 139.787 20.547 139.187 21.1444 138.76C21.7417 138.333 22.5177 138.12 23.4724 138.12C24.2617 138.12 24.931 138.269 25.4804 138.568C26.035 138.861 26.427 139.288 26.6564 139.848C26.763 140.099 26.8324 140.379 26.8644 140.688C26.8964 140.997 26.9124 141.312 26.9124 141.632V147H25.8644V144.832L26.1684 144.96C25.875 145.701 25.419 146.267 24.8004 146.656C24.1817 147.045 23.4404 147.24 22.5764 147.24ZM22.7124 146.224C23.2617 146.224 23.7417 146.125 24.1524 145.928C24.563 145.731 24.8937 145.461 25.1444 145.12C25.395 144.773 25.5577 144.384 25.6324 143.952C25.6964 143.675 25.731 143.371 25.7364 143.04C25.7417 142.704 25.7444 142.453 25.7444 142.288L26.1924 142.52C25.7924 142.573 25.3577 142.627 24.8884 142.68C24.4244 142.733 23.9657 142.795 23.5124 142.864C23.0644 142.933 22.659 143.016 22.2964 143.112C22.051 143.181 21.8137 143.28 21.5844 143.408C21.355 143.531 21.1657 143.696 21.0164 143.904C20.8724 144.112 20.8004 144.371 20.8004 144.68C20.8004 144.931 20.8617 145.173 20.9844 145.408C21.1124 145.643 21.315 145.837 21.5924 145.992C21.875 146.147 22.2484 146.224 22.7124 146.224ZM39.299 147L39.307 141.328C39.307 140.661 39.1203 140.139 38.747 139.76C38.379 139.376 37.9097 139.184 37.339 139.184C37.0137 139.184 36.6963 139.259 36.387 139.408C36.0777 139.557 35.8217 139.797 35.619 140.128C35.4217 140.459 35.323 140.891 35.323 141.424L34.627 141.224C34.611 140.605 34.731 140.064 34.987 139.6C35.2483 139.136 35.6057 138.776 36.059 138.52C36.5177 138.259 37.035 138.128 37.611 138.128C38.4803 138.128 39.1763 138.397 39.699 138.936C40.2217 139.469 40.483 140.192 40.483 141.104L40.475 147H39.299ZM28.987 147V138.36H30.043V140.488H30.171V147H28.987ZM34.155 147L34.163 141.408C34.163 140.72 33.979 140.179 33.611 139.784C33.2483 139.384 32.7683 139.184 32.171 139.184C31.5737 139.184 31.091 139.389 30.723 139.8C30.355 140.205 30.171 140.747 30.171 141.424L29.467 141.04C29.467 140.485 29.5977 139.989 29.859 139.552C30.1203 139.109 30.4777 138.763 30.931 138.512C31.3843 138.256 31.899 138.128 32.475 138.128C33.0243 138.128 33.5123 138.245 33.939 138.48C34.371 138.715 34.7097 139.056 34.955 139.504C35.2003 139.952 35.323 140.496 35.323 141.136L35.315 147H34.155ZM56.0646 147L56.0726 141.328C56.0726 140.661 55.886 140.139 55.5126 139.76C55.1446 139.376 54.6753 139.184 54.1046 139.184C53.7793 139.184 53.462 139.259 53.1526 139.408C52.8433 139.557 52.5873 139.797 52.3846 140.128C52.1873 140.459 52.0886 140.891 52.0886 141.424L51.3926 141.224C51.3766 140.605 51.4966 140.064 51.7526 139.6C52.014 139.136 52.3713 138.776 52.8246 138.52C53.2833 138.259 53.8006 138.128 54.3766 138.128C55.246 138.128 55.942 138.397 56.4646 138.936C56.9873 139.469 57.2486 140.192 57.2486 141.104L57.2406 147H56.0646ZM45.7526 147V138.36H46.8086V140.488H46.9366V147H45.7526ZM50.9206 147L50.9286 141.408C50.9286 140.72 50.7446 140.179 50.3766 139.784C50.014 139.384 49.534 139.184 48.9366 139.184C48.3393 139.184 47.8566 139.389 47.4886 139.8C47.1206 140.205 46.9366 140.747 46.9366 141.424L46.2326 141.04C46.2326 140.485 46.3633 139.989 46.6246 139.552C46.886 139.109 47.2433 138.763 47.6966 138.512C48.15 138.256 48.6646 138.128 49.2406 138.128C49.79 138.128 50.278 138.245 50.7046 138.48C51.1366 138.715 51.4753 139.056 51.7206 139.504C51.966 139.952 52.0886 140.496 52.0886 141.136L52.0806 147H50.9206ZM61.7951 147.24C61.1445 147.24 60.5978 147.123 60.1551 146.888C59.7178 146.653 59.3898 146.341 59.1711 145.952C58.9525 145.563 58.8431 145.139 58.8431 144.68C58.8431 144.211 58.9365 143.811 59.1231 143.48C59.3151 143.144 59.5738 142.869 59.8991 142.656C60.2298 142.443 60.6111 142.28 61.0431 142.168C61.4805 142.061 61.9631 141.968 62.4911 141.888C63.0245 141.803 63.5445 141.731 64.0511 141.672C64.5631 141.608 65.0111 141.547 65.3951 141.488L64.9791 141.744C64.9951 140.891 64.8298 140.259 64.4831 139.848C64.1365 139.437 63.5338 139.232 62.6751 139.232C62.0831 139.232 61.5818 139.365 61.1711 139.632C60.7658 139.899 60.4805 140.32 60.3151 140.896L59.1711 140.56C59.3685 139.787 59.7658 139.187 60.3631 138.76C60.9605 138.333 61.7365 138.12 62.6911 138.12C63.4805 138.12 64.1498 138.269 64.6991 138.568C65.2538 138.861 65.6458 139.288 65.8751 139.848C65.9818 140.099 66.0511 140.379 66.0831 140.688C66.1151 140.997 66.1311 141.312 66.1311 141.632V147H65.0831V144.832L65.3871 144.96C65.0938 145.701 64.6378 146.267 64.0191 146.656C63.4005 147.045 62.6591 147.24 61.7951 147.24ZM61.9311 146.224C62.4805 146.224 62.9605 146.125 63.3711 145.928C63.7818 145.731 64.1125 145.461 64.3631 145.12C64.6138 144.773 64.7765 144.384 64.8511 143.952C64.9151 143.675 64.9498 143.371 64.9551 143.04C64.9605 142.704 64.9631 142.453 64.9631 142.288L65.4111 142.52C65.0111 142.573 64.5765 142.627 64.1071 142.68C63.6431 142.733 63.1845 142.795 62.7311 142.864C62.2831 142.933 61.8778 143.016 61.5151 143.112C61.2698 143.181 61.0325 143.28 60.8031 143.408C60.5738 143.531 60.3845 143.696 60.2351 143.904C60.0911 144.112 60.0191 144.371 60.0191 144.68C60.0191 144.931 60.0805 145.173 60.2031 145.408C60.3311 145.643 60.5338 145.837 60.8111 145.992C61.0938 146.147 61.4671 146.224 61.9311 146.224ZM71.5178 147.216C71.0004 147.216 70.5471 147.136 70.1578 146.976C69.7738 146.816 69.4458 146.6 69.1738 146.328C68.9071 146.056 68.6911 145.747 68.5258 145.4C68.3604 145.048 68.2404 144.677 68.1658 144.288C68.0911 143.893 68.0538 143.501 68.0538 143.112V138.36H69.2378V142.768C69.2378 143.243 69.2831 143.683 69.3738 144.088C69.4644 144.493 69.6084 144.848 69.8058 145.152C70.0084 145.451 70.2671 145.683 70.5818 145.848C70.9018 146.013 71.2884 146.096 71.7418 146.096C72.1578 146.096 72.5231 146.024 72.8378 145.88C73.1578 145.736 73.4244 145.531 73.6378 145.264C73.8564 144.992 74.0218 144.664 74.1338 144.28C74.2458 143.891 74.3018 143.453 74.3018 142.968L75.1337 143.152C75.1337 144.037 74.9791 144.781 74.6698 145.384C74.3604 145.987 73.9338 146.443 73.3898 146.752C72.8458 147.061 72.2218 147.216 71.5178 147.216ZM74.4218 147V144.872H74.3018V138.36H75.4778V147H74.4218ZM77.7138 147V138.36H78.7698V140.44L78.5618 140.168C78.6578 139.912 78.7831 139.677 78.9378 139.464C79.0924 139.245 79.2604 139.067 79.4418 138.928C79.6658 138.731 79.9271 138.581 80.2258 138.48C80.5244 138.373 80.8258 138.312 81.1298 138.296C81.4338 138.275 81.7111 138.296 81.9618 138.36V139.464C81.6471 139.384 81.3031 139.365 80.9298 139.408C80.5564 139.451 80.2124 139.6 79.8978 139.856C79.6098 140.08 79.3938 140.349 79.2498 140.664C79.1058 140.973 79.0098 141.304 78.9618 141.656C78.9138 142.003 78.8898 142.347 78.8898 142.688V147H77.7138ZM83.6394 136.72V135.4H84.8154V136.72H83.6394ZM83.6394 147V138.36H84.8154V147H83.6394ZM90.4378 147.232C89.4244 147.232 88.5898 147.013 87.9338 146.576C87.2831 146.139 86.8831 145.531 86.7338 144.752L87.9338 144.552C88.0618 145.043 88.3524 145.435 88.8058 145.728C89.2644 146.016 89.8298 146.16 90.5017 146.16C91.1578 146.16 91.6751 146.024 92.0538 145.752C92.4324 145.475 92.6218 145.099 92.6218 144.624C92.6218 144.357 92.5604 144.141 92.4378 143.976C92.3204 143.805 92.0778 143.648 91.7098 143.504C91.3418 143.36 90.7924 143.189 90.0618 142.992C89.2778 142.779 88.6644 142.565 88.2218 142.352C87.7791 142.139 87.4644 141.893 87.2778 141.616C87.0911 141.333 86.9978 140.989 86.9978 140.584C86.9978 140.093 87.1364 139.664 87.4138 139.296C87.6911 138.923 88.0751 138.635 88.5658 138.432C89.0564 138.224 89.6271 138.12 90.2778 138.12C90.9284 138.12 91.5098 138.227 92.0218 138.44C92.5391 138.648 92.9551 138.941 93.2698 139.32C93.5844 139.699 93.7711 140.139 93.8298 140.64L92.6298 140.856C92.5498 140.349 92.2964 139.949 91.8698 139.656C91.4484 139.357 90.9124 139.203 90.2618 139.192C89.6484 139.176 89.1498 139.293 88.7658 139.544C88.3818 139.789 88.1898 140.117 88.1898 140.528C88.1898 140.757 88.2591 140.955 88.3978 141.12C88.5364 141.28 88.7871 141.432 89.1498 141.576C89.5178 141.72 90.0404 141.877 90.7178 142.048C91.5124 142.251 92.1364 142.464 92.5898 142.688C93.0431 142.912 93.3658 143.176 93.5578 143.48C93.7498 143.784 93.8458 144.16 93.8458 144.608C93.8458 145.424 93.5418 146.067 92.9338 146.536C92.3311 147 91.4991 147.232 90.4378 147.232ZM95.844 147V145.632H97.212V147H95.844Z" fill="#565973"/>
<defs>
<linearGradient id="paint0_linear_4634_10137" x1="16" y1="30.0673" x2="43.9999" y2="30.0673" gradientUnits="userSpaceOnUse">
<stop stop-color="#6366F1"/>
<stop offset="0.5" stop-color="#8B5CF6"/>
<stop offset="1" stop-color="#D946EF"/>
</linearGradient>
<clipPath id="clip0_4634_10137">
<rect width="28" height="28" fill="white" transform="translate(16 16)"/>
</clipPath>
</defs>
</svg>
