<svg width="243" height="154" viewBox="0 0 243 154" fill="none" xmlns="http://www.w3.org/2000/svg">
<rect width="60" height="60" rx="8" fill="#6366F1" fill-opacity="0.08"/>
<path d="M38.5312 32.4129C39.1354 32.4129 39.625 32.9025 39.625 33.5066V34.8191C39.625 35.4232 39.1354 35.9129 38.5312 35.9129H36.0156C35.4115 35.9129 34.9219 35.4232 34.9219 34.8191V33.5066C34.9219 32.9025 35.4115 32.4129 36.0156 32.4129H38.5312ZM41.8125 30.4441V27.1629H18.1875V35.9062C18.1875 37.1124 19.1689 38.0938 20.375 38.0938H39.625C40.8311 38.0938 41.8125 37.1124 41.8125 35.9062C41.8125 35.3021 42.3021 34.8125 42.9062 34.8125C43.5104 34.8125 44 35.3021 44 35.9062C44 38.3187 42.0374 40.2812 39.625 40.2812H20.375C17.9626 40.2812 16 38.3187 16 35.9062V24.0938C16 21.6813 17.9626 19.7188 20.375 19.7188H39.625C42.0374 19.7188 44 21.6813 44 24.0938V30.4441C44 31.0482 43.5104 31.5379 42.9062 31.5379C42.3021 31.5379 41.8125 31.0482 41.8125 30.4441ZM41.8125 24.9754V24.0938C41.8125 22.8876 40.8311 21.9062 39.625 21.9062H20.375C19.1689 21.9062 18.1875 22.8876 18.1875 24.0938V24.9754H41.8125ZM21.4688 29.3504C20.8646 29.3504 20.375 29.84 20.375 30.4441C20.375 31.0482 20.8646 31.5379 21.4688 31.5379H30.4922C31.0963 31.5379 31.5859 31.0482 31.5859 30.4441C31.5859 29.84 31.0963 29.3504 30.4922 29.3504H21.4688Z" fill="url(#paint0_linear_4634_10132)"/>
<path d="M1.12 95V83.48H2.2L6.728 93.168L11.232 83.48H12.328V94.992H11.208V86.104L7.104 95H6.344L2.248 86.104V95H1.12ZM17.0451 95.24C16.3945 95.24 15.8478 95.1227 15.4051 94.888C14.9678 94.6533 14.6398 94.3413 14.4211 93.952C14.2025 93.5627 14.0931 93.1387 14.0931 92.68C14.0931 92.2107 14.1865 91.8107 14.3731 91.48C14.5651 91.144 14.8238 90.8693 15.1491 90.656C15.4798 90.4427 15.8611 90.28 16.2931 90.168C16.7305 90.0613 17.2131 89.968 17.7411 89.888C18.2745 89.8027 18.7945 89.7307 19.3011 89.672C19.8131 89.608 20.2611 89.5467 20.6451 89.488L20.2291 89.744C20.2451 88.8907 20.0798 88.2587 19.7331 87.848C19.3865 87.4373 18.7838 87.232 17.9251 87.232C17.3331 87.232 16.8318 87.3653 16.4211 87.632C16.0158 87.8987 15.7305 88.32 15.5651 88.896L14.4211 88.56C14.6185 87.7867 15.0158 87.1867 15.6131 86.76C16.2105 86.3333 16.9865 86.12 17.9411 86.12C18.7305 86.12 19.3998 86.2693 19.9491 86.568C20.5038 86.8613 20.8958 87.288 21.1251 87.848C21.2318 88.0987 21.3011 88.3787 21.3331 88.688C21.3651 88.9973 21.3811 89.312 21.3811 89.632V95H20.3331V92.832L20.6371 92.96C20.3438 93.7013 19.8878 94.2667 19.2691 94.656C18.6505 95.0453 17.9091 95.24 17.0451 95.24ZM17.1811 94.224C17.7305 94.224 18.2105 94.1253 18.6211 93.928C19.0318 93.7307 19.3625 93.4613 19.6131 93.12C19.8638 92.7733 20.0265 92.384 20.1011 91.952C20.1651 91.6747 20.1998 91.3707 20.2051 91.04C20.2105 90.704 20.2131 90.4533 20.2131 90.288L20.6611 90.52C20.2611 90.5733 19.8265 90.6267 19.3571 90.68C18.8931 90.7333 18.4345 90.7947 17.9811 90.864C17.5331 90.9333 17.1278 91.016 16.7651 91.112C16.5198 91.1813 16.2825 91.28 16.0531 91.408C15.8238 91.5307 15.6345 91.696 15.4851 91.904C15.3411 92.112 15.2691 92.3707 15.2691 92.68C15.2691 92.9307 15.3305 93.1733 15.4531 93.408C15.5811 93.6427 15.7838 93.8373 16.0611 93.992C16.3438 94.1467 16.7171 94.224 17.1811 94.224ZM29.7038 95V90.592C29.7038 90.112 29.6584 89.672 29.5678 89.272C29.4771 88.8667 29.3304 88.5147 29.1278 88.216C28.9304 87.912 28.6718 87.6773 28.3518 87.512C28.0371 87.3467 27.6531 87.264 27.1998 87.264C26.7838 87.264 26.4158 87.336 26.0958 87.48C25.7811 87.624 25.5144 87.832 25.2958 88.104C25.0824 88.3707 24.9198 88.696 24.8078 89.08C24.6958 89.464 24.6398 89.9013 24.6398 90.392L23.8078 90.208C23.8078 89.3227 23.9624 88.5787 24.2718 87.976C24.5811 87.3733 25.0078 86.9173 25.5518 86.608C26.0958 86.2987 26.7198 86.144 27.4238 86.144C27.9411 86.144 28.3918 86.224 28.7758 86.384C29.1651 86.544 29.4931 86.76 29.7598 87.032C30.0318 87.304 30.2504 87.616 30.4158 87.968C30.5811 88.3147 30.7011 88.6853 30.7758 89.08C30.8504 89.4693 30.8878 89.8587 30.8878 90.248V95H29.7038ZM23.4558 95V86.36H24.5198V88.488H24.6398V95H23.4558ZM35.4358 95.24C34.7851 95.24 34.2384 95.1227 33.7958 94.888C33.3584 94.6533 33.0304 94.3413 32.8118 93.952C32.5931 93.5627 32.4838 93.1387 32.4838 92.68C32.4838 92.2107 32.5771 91.8107 32.7638 91.48C32.9558 91.144 33.2144 90.8693 33.5398 90.656C33.8704 90.4427 34.2518 90.28 34.6838 90.168C35.1211 90.0613 35.6038 89.968 36.1318 89.888C36.6651 89.8027 37.1851 89.7307 37.6918 89.672C38.2038 89.608 38.6518 89.5467 39.0358 89.488L38.6198 89.744C38.6358 88.8907 38.4704 88.2587 38.1238 87.848C37.7771 87.4373 37.1744 87.232 36.3158 87.232C35.7238 87.232 35.2224 87.3653 34.8118 87.632C34.4064 87.8987 34.1211 88.32 33.9557 88.896L32.8118 88.56C33.0091 87.7867 33.4064 87.1867 34.0038 86.76C34.6011 86.3333 35.3771 86.12 36.3318 86.12C37.1211 86.12 37.7904 86.2693 38.3398 86.568C38.8944 86.8613 39.2864 87.288 39.5158 87.848C39.6224 88.0987 39.6918 88.3787 39.7238 88.688C39.7558 88.9973 39.7718 89.312 39.7718 89.632V95H38.7238V92.832L39.0278 92.96C38.7344 93.7013 38.2784 94.2667 37.6598 94.656C37.0411 95.0453 36.2998 95.24 35.4358 95.24ZM35.5718 94.224C36.1211 94.224 36.6011 94.1253 37.0118 93.928C37.4224 93.7307 37.7531 93.4613 38.0038 93.12C38.2544 92.7733 38.4171 92.384 38.4918 91.952C38.5558 91.6747 38.5904 91.3707 38.5958 91.04C38.6011 90.704 38.6038 90.4533 38.6038 90.288L39.0518 90.52C38.6518 90.5733 38.2171 90.6267 37.7478 90.68C37.2838 90.7333 36.8251 90.7947 36.3718 90.864C35.9238 90.9333 35.5184 91.016 35.1558 91.112C34.9104 91.1813 34.6731 91.28 34.4438 91.408C34.2144 91.5307 34.0251 91.696 33.8758 91.904C33.7318 92.112 33.6598 92.3707 33.6598 92.68C33.6598 92.9307 33.7211 93.1733 33.8438 93.408C33.9718 93.6427 34.1744 93.8373 34.4518 93.992C34.7344 94.1467 35.1078 94.224 35.5718 94.224ZM45.2864 99.08C44.8437 99.08 44.4064 99.0133 43.9744 98.88C43.5477 98.752 43.153 98.5467 42.7904 98.264C42.4277 97.9867 42.1237 97.624 41.8784 97.176L42.9424 96.584C43.1824 97.064 43.5184 97.408 43.9504 97.616C44.3877 97.8293 44.833 97.936 45.2864 97.936C45.9104 97.936 46.4144 97.8187 46.7984 97.584C47.1877 97.3547 47.4704 97.0133 47.6464 96.56C47.8224 96.1067 47.9077 95.5413 47.9024 94.864V92.56H48.0384V86.36H49.0864V94.88C49.0864 95.1253 49.0784 95.36 49.0624 95.584C49.0517 95.8133 49.0277 96.0373 48.9904 96.256C48.889 96.9013 48.6784 97.432 48.3584 97.848C48.0437 98.264 47.6277 98.5733 47.1104 98.776C46.5984 98.9787 45.9904 99.08 45.2864 99.08ZM45.2064 95.24C44.401 95.24 43.713 95.04 43.1424 94.64C42.5717 94.2347 42.1344 93.688 41.8304 93C41.5264 92.312 41.3744 91.536 41.3744 90.672C41.3744 89.8133 41.5237 89.04 41.8224 88.352C42.1264 87.664 42.561 87.12 43.1264 86.72C43.6917 86.32 44.369 86.12 45.1584 86.12C45.969 86.12 46.6517 86.3173 47.2064 86.712C47.761 87.1067 48.1797 87.648 48.4624 88.336C48.7504 89.0187 48.8944 89.7973 48.8944 90.672C48.8944 91.5307 48.753 92.3067 48.4704 93C48.1877 93.688 47.7717 94.2347 47.2224 94.64C46.673 95.04 46.001 95.24 45.2064 95.24ZM45.3264 94.144C45.9397 94.144 46.4464 93.9947 46.8464 93.696C47.2464 93.3973 47.545 92.9867 47.7424 92.464C47.9397 91.936 48.0384 91.3387 48.0384 90.672C48.0384 89.9947 47.9397 89.3973 47.7424 88.88C47.545 88.3573 47.2464 87.9493 46.8464 87.656C46.4517 87.3627 45.953 87.216 45.3504 87.216C44.7317 87.216 44.2197 87.368 43.8144 87.672C43.409 87.976 43.1077 88.3893 42.9104 88.912C42.7184 89.4347 42.6224 90.0213 42.6224 90.672C42.6224 91.328 42.721 91.92 42.9184 92.448C43.121 92.9707 43.4224 93.384 43.8224 93.688C44.2224 93.992 44.7237 94.144 45.3264 94.144ZM54.9791 95.24C54.1365 95.24 53.4058 95.0533 52.7871 94.68C52.1738 94.3067 51.6965 93.7813 51.3551 93.104C51.0138 92.4267 50.8431 91.632 50.8431 90.72C50.8431 89.776 51.0111 88.96 51.3471 88.272C51.6831 87.584 52.1551 87.0533 52.7631 86.68C53.3765 86.3067 54.0991 86.12 54.9311 86.12C55.7845 86.12 56.5125 86.3173 57.1151 86.712C57.7178 87.1013 58.1738 87.6613 58.4831 88.392C58.7925 89.1227 58.9338 89.9947 58.9071 91.008H57.7071V90.592C57.6858 89.472 57.4431 88.6267 56.9791 88.056C56.5205 87.4853 55.8485 87.2 54.9631 87.2C54.0351 87.2 53.3231 87.5013 52.8271 88.104C52.3365 88.7067 52.0911 89.5653 52.0911 90.68C52.0911 91.768 52.3365 92.6133 52.8271 93.216C53.3231 93.8133 54.0245 94.112 54.9311 94.112C55.5498 94.112 56.0885 93.9707 56.5471 93.688C57.0111 93.4 57.3765 92.9867 57.6431 92.448L58.7391 92.872C58.3978 93.624 57.8938 94.208 57.2271 94.624C56.5658 95.0347 55.8165 95.24 54.9791 95.24ZM51.6751 91.008V90.024H58.2751V91.008H51.6751ZM65.1176 98.84L66.7896 94.304L66.8136 95.648L63.0296 86.36H64.2776L67.3816 94.128H66.8696L69.7336 86.36H70.9336L66.2936 98.84H65.1176ZM75.6186 95.24C74.76 95.24 74.0266 95.0453 73.4186 94.656C72.8106 94.2667 72.344 93.728 72.0186 93.04C71.6933 92.352 71.5306 91.5627 71.5306 90.672C71.5306 89.7653 71.696 88.9707 72.0266 88.288C72.3573 87.6053 72.8266 87.0747 73.4346 86.696C74.048 86.312 74.776 86.12 75.6186 86.12C76.4826 86.12 77.2186 86.3147 77.8266 86.704C78.44 87.088 78.9066 87.624 79.2266 88.312C79.552 88.9947 79.7146 89.7813 79.7146 90.672C79.7146 91.5787 79.552 92.376 79.2266 93.064C78.9013 93.7467 78.432 94.28 77.8186 94.664C77.2053 95.048 76.472 95.24 75.6186 95.24ZM75.6186 94.112C76.5786 94.112 77.2933 93.7947 77.7626 93.16C78.232 92.52 78.4666 91.6907 78.4666 90.672C78.4666 89.6267 78.2293 88.7947 77.7546 88.176C77.2853 87.5573 76.5733 87.248 75.6186 87.248C74.9733 87.248 74.44 87.3947 74.0186 87.688C73.6026 87.976 73.2906 88.3787 73.0826 88.896C72.88 89.408 72.7786 90 72.7786 90.672C72.7786 91.712 73.0186 92.5467 73.4986 93.176C73.9786 93.8 74.6853 94.112 75.6186 94.112ZM84.7834 95.216C84.266 95.216 83.8127 95.136 83.4234 94.976C83.0394 94.816 82.7114 94.6 82.4394 94.328C82.1727 94.056 81.9567 93.7467 81.7914 93.4C81.626 93.048 81.506 92.6773 81.4314 92.288C81.3567 91.8933 81.3194 91.5013 81.3194 91.112V86.36H82.5034V90.768C82.5034 91.2427 82.5487 91.6827 82.6394 92.088C82.73 92.4933 82.874 92.848 83.0714 93.152C83.274 93.4507 83.5327 93.6827 83.8474 93.848C84.1674 94.0133 84.554 94.096 85.0074 94.096C85.4234 94.096 85.7887 94.024 86.1034 93.88C86.4234 93.736 86.69 93.5307 86.9034 93.264C87.122 92.992 87.2874 92.664 87.3994 92.28C87.5114 91.8907 87.5674 91.4533 87.5674 90.968L88.3994 91.152C88.3994 92.0373 88.2447 92.7813 87.9354 93.384C87.626 93.9867 87.1994 94.4427 86.6554 94.752C86.1114 95.0613 85.4874 95.216 84.7834 95.216ZM87.6874 95V92.872H87.5674V86.36H88.7434V95H87.6874ZM90.9794 95V86.36H92.0354V88.44L91.8274 88.168C91.9234 87.912 92.0487 87.6773 92.2034 87.464C92.358 87.2453 92.526 87.0667 92.7074 86.928C92.9314 86.7307 93.1927 86.5813 93.4914 86.48C93.79 86.3733 94.0914 86.312 94.3954 86.296C94.6994 86.2747 94.9767 86.296 95.2274 86.36V87.464C94.9127 87.384 94.5687 87.3653 94.1954 87.408C93.822 87.4507 93.478 87.6 93.1634 87.856C92.8754 88.08 92.6594 88.3493 92.5154 88.664C92.3714 88.9733 92.2754 89.304 92.2274 89.656C92.1794 90.0027 92.1554 90.3467 92.1554 90.688V95H90.9794ZM103.828 95.24C103.033 95.24 102.361 95.04 101.812 94.64C101.263 94.2347 100.847 93.688 100.564 93C100.281 92.3067 100.14 91.5307 100.14 90.672C100.14 89.7973 100.281 89.0187 100.564 88.336C100.852 87.648 101.273 87.1067 101.828 86.712C102.383 86.3173 103.065 86.12 103.876 86.12C104.665 86.12 105.343 86.32 105.908 86.72C106.473 87.12 106.905 87.664 107.204 88.352C107.508 89.04 107.66 89.8133 107.66 90.672C107.66 91.536 107.508 92.312 107.204 93C106.9 93.688 106.463 94.2347 105.892 94.64C105.321 95.04 104.633 95.24 103.828 95.24ZM99.9401 98.84V86.36H100.996V92.864H101.124V98.84H99.9401ZM103.708 94.144C104.311 94.144 104.812 93.992 105.212 93.688C105.612 93.384 105.911 92.9707 106.108 92.448C106.311 91.92 106.412 91.328 106.412 90.672C106.412 90.0213 106.313 89.4347 106.116 88.912C105.919 88.3893 105.617 87.976 105.212 87.672C104.812 87.368 104.303 87.216 103.684 87.216C103.081 87.216 102.58 87.3627 102.18 87.656C101.785 87.9493 101.489 88.3573 101.292 88.88C101.095 89.3973 100.996 89.9947 100.996 90.672C100.996 91.3387 101.095 91.936 101.292 92.464C101.489 92.9867 101.788 93.3973 102.188 93.696C102.588 93.9947 103.095 94.144 103.708 94.144ZM111.889 95.24C111.238 95.24 110.692 95.1227 110.249 94.888C109.812 94.6533 109.484 94.3413 109.265 93.952C109.046 93.5627 108.937 93.1387 108.937 92.68C108.937 92.2107 109.03 91.8107 109.217 91.48C109.409 91.144 109.668 90.8693 109.993 90.656C110.324 90.4427 110.705 90.28 111.137 90.168C111.574 90.0613 112.057 89.968 112.585 89.888C113.118 89.8027 113.638 89.7307 114.145 89.672C114.657 89.608 115.105 89.5467 115.489 89.488L115.073 89.744C115.089 88.8907 114.924 88.2587 114.577 87.848C114.23 87.4373 113.628 87.232 112.769 87.232C112.177 87.232 111.676 87.3653 111.265 87.632C110.86 87.8987 110.574 88.32 110.409 88.896L109.265 88.56C109.462 87.7867 109.86 87.1867 110.457 86.76C111.054 86.3333 111.83 86.12 112.785 86.12C113.574 86.12 114.244 86.2693 114.793 86.568C115.348 86.8613 115.74 87.288 115.969 87.848C116.076 88.0987 116.145 88.3787 116.177 88.688C116.209 88.9973 116.225 89.312 116.225 89.632V95H115.177V92.832L115.481 92.96C115.188 93.7013 114.732 94.2667 114.113 94.656C113.494 95.0453 112.753 95.24 111.889 95.24ZM112.025 94.224C112.574 94.224 113.054 94.1253 113.465 93.928C113.876 93.7307 114.206 93.4613 114.457 93.12C114.708 92.7733 114.87 92.384 114.945 91.952C115.009 91.6747 115.044 91.3707 115.049 91.04C115.054 90.704 115.057 90.4533 115.057 90.288L115.505 90.52C115.105 90.5733 114.67 90.6267 114.201 90.68C113.737 90.7333 113.278 90.7947 112.825 90.864C112.377 90.9333 111.972 91.016 111.609 91.112C111.364 91.1813 111.126 91.28 110.897 91.408C110.668 91.5307 110.478 91.696 110.329 91.904C110.185 92.112 110.113 92.3707 110.113 92.68C110.113 92.9307 110.174 93.1733 110.297 93.408C110.425 93.6427 110.628 93.8373 110.905 93.992C111.188 94.1467 111.561 94.224 112.025 94.224ZM119.055 98.84L120.727 94.304L120.751 95.648L116.967 86.36H118.215L121.319 94.128H120.807L123.671 86.36H124.871L120.231 98.84H119.055ZM136.565 95L136.573 89.328C136.573 88.6613 136.386 88.1387 136.013 87.76C135.645 87.376 135.175 87.184 134.605 87.184C134.279 87.184 133.962 87.2587 133.653 87.408C133.343 87.5573 133.087 87.7973 132.885 88.128C132.687 88.4587 132.589 88.8907 132.589 89.424L131.893 89.224C131.877 88.6053 131.997 88.064 132.253 87.6C132.514 87.136 132.871 86.776 133.325 86.52C133.783 86.2587 134.301 86.128 134.877 86.128C135.746 86.128 136.442 86.3973 136.965 86.936C137.487 87.4693 137.749 88.192 137.749 89.104L137.741 95H136.565ZM126.253 95V86.36H127.309V88.488H127.437V95H126.253ZM131.421 95L131.429 89.408C131.429 88.72 131.245 88.1787 130.877 87.784C130.514 87.384 130.034 87.184 129.437 87.184C128.839 87.184 128.357 87.3893 127.989 87.8C127.621 88.2053 127.437 88.7467 127.437 89.424L126.733 89.04C126.733 88.4853 126.863 87.9893 127.125 87.552C127.386 87.1093 127.743 86.7627 128.197 86.512C128.65 86.256 129.165 86.128 129.741 86.128C130.29 86.128 130.778 86.2453 131.205 86.48C131.637 86.7147 131.975 87.056 132.221 87.504C132.466 87.952 132.589 88.496 132.589 89.136L132.581 95H131.421ZM143.432 95.24C142.59 95.24 141.859 95.0533 141.24 94.68C140.627 94.3067 140.15 93.7813 139.808 93.104C139.467 92.4267 139.296 91.632 139.296 90.72C139.296 89.776 139.464 88.96 139.8 88.272C140.136 87.584 140.608 87.0533 141.216 86.68C141.83 86.3067 142.552 86.12 143.384 86.12C144.238 86.12 144.966 86.3173 145.568 86.712C146.171 87.1013 146.627 87.6613 146.936 88.392C147.246 89.1227 147.387 89.9947 147.36 91.008H146.16V90.592C146.139 89.472 145.896 88.6267 145.432 88.056C144.974 87.4853 144.302 87.2 143.416 87.2C142.488 87.2 141.776 87.5013 141.28 88.104C140.79 88.7067 140.544 89.5653 140.544 90.68C140.544 91.768 140.79 92.6133 141.28 93.216C141.776 93.8133 142.478 94.112 143.384 94.112C144.003 94.112 144.542 93.9707 145 93.688C145.464 93.4 145.83 92.9867 146.096 92.448L147.192 92.872C146.851 93.624 146.347 94.208 145.68 94.624C145.019 95.0347 144.27 95.24 143.432 95.24ZM140.128 91.008V90.024H146.728V91.008H140.128ZM155.141 95V90.592C155.141 90.112 155.096 89.672 155.005 89.272C154.915 88.8667 154.768 88.5147 154.565 88.216C154.368 87.912 154.109 87.6773 153.789 87.512C153.475 87.3467 153.091 87.264 152.637 87.264C152.221 87.264 151.853 87.336 151.533 87.48C151.219 87.624 150.952 87.832 150.733 88.104C150.52 88.3707 150.357 88.696 150.245 89.08C150.133 89.464 150.077 89.9013 150.077 90.392L149.245 90.208C149.245 89.3227 149.4 88.5787 149.709 87.976C150.019 87.3733 150.445 86.9173 150.989 86.608C151.533 86.2987 152.157 86.144 152.861 86.144C153.379 86.144 153.829 86.224 154.213 86.384C154.603 86.544 154.931 86.76 155.197 87.032C155.469 87.304 155.688 87.616 155.853 87.968C156.019 88.3147 156.139 88.6853 156.213 89.08C156.288 89.4693 156.325 89.8587 156.325 90.248V95H155.141ZM148.893 95V86.36H149.957V88.488H150.077V95H148.893ZM163.105 95C162.62 95.1013 162.14 95.1413 161.665 95.12C161.196 95.0987 160.775 94.9973 160.401 94.816C160.033 94.6347 159.753 94.352 159.561 93.968C159.407 93.648 159.321 93.3253 159.305 93C159.295 92.6693 159.289 92.2933 159.289 91.872V83.96H160.457V91.824C160.457 92.1867 160.46 92.4907 160.465 92.736C160.476 92.976 160.532 93.1893 160.633 93.376C160.825 93.7333 161.129 93.9467 161.545 94.016C161.967 94.0853 162.487 94.0693 163.105 93.968V95ZM157.441 87.368V86.36H163.105V87.368H157.441ZM168.032 95.232C167.018 95.232 166.184 95.0133 165.528 94.576C164.877 94.1387 164.477 93.5307 164.328 92.752L165.528 92.552C165.656 93.0427 165.946 93.4347 166.4 93.728C166.858 94.016 167.424 94.16 168.095 94.16C168.752 94.16 169.269 94.024 169.648 93.752C170.026 93.4747 170.216 93.0987 170.216 92.624C170.216 92.3573 170.154 92.1413 170.032 91.976C169.914 91.8053 169.672 91.648 169.304 91.504C168.936 91.36 168.386 91.1893 167.656 90.992C166.872 90.7787 166.258 90.5653 165.816 90.352C165.373 90.1387 165.058 89.8933 164.872 89.616C164.685 89.3333 164.592 88.9893 164.592 88.584C164.592 88.0933 164.73 87.664 165.008 87.296C165.285 86.9227 165.669 86.6347 166.16 86.432C166.65 86.224 167.221 86.12 167.872 86.12C168.522 86.12 169.104 86.2267 169.616 86.44C170.133 86.648 170.549 86.9413 170.864 87.32C171.178 87.6987 171.365 88.1387 171.424 88.64L170.224 88.856C170.144 88.3493 169.89 87.9493 169.464 87.656C169.042 87.3573 168.506 87.2027 167.856 87.192C167.242 87.176 166.744 87.2933 166.36 87.544C165.976 87.7893 165.784 88.1173 165.784 88.528C165.784 88.7573 165.853 88.9547 165.992 89.12C166.13 89.28 166.381 89.432 166.744 89.576C167.112 89.72 167.634 89.8773 168.312 90.048C169.106 90.2507 169.73 90.464 170.184 90.688C170.637 90.912 170.96 91.176 171.152 91.48C171.344 91.784 171.44 92.16 171.44 92.608C171.44 93.424 171.136 94.0667 170.528 94.536C169.925 95 169.093 95.232 168.032 95.232ZM180.025 95.24C179.166 95.24 178.433 95.0453 177.825 94.656C177.217 94.2667 176.75 93.728 176.425 93.04C176.1 92.352 175.937 91.5627 175.937 90.672C175.937 89.7653 176.102 88.9707 176.433 88.288C176.764 87.6053 177.233 87.0747 177.841 86.696C178.454 86.312 179.182 86.12 180.025 86.12C180.889 86.12 181.625 86.3147 182.233 86.704C182.846 87.088 183.313 87.624 183.633 88.312C183.958 88.9947 184.121 89.7813 184.121 90.672C184.121 91.5787 183.958 92.376 183.633 93.064C183.308 93.7467 182.838 94.28 182.225 94.664C181.612 95.048 180.878 95.24 180.025 95.24ZM180.025 94.112C180.985 94.112 181.7 93.7947 182.169 93.16C182.638 92.52 182.873 91.6907 182.873 90.672C182.873 89.6267 182.636 88.7947 182.161 88.176C181.692 87.5573 180.98 87.248 180.025 87.248C179.38 87.248 178.846 87.3947 178.425 87.688C178.009 87.976 177.697 88.3787 177.489 88.896C177.286 89.408 177.185 90 177.185 90.672C177.185 91.712 177.425 92.5467 177.905 93.176C178.385 93.8 179.092 94.112 180.025 94.112ZM192.126 95V90.592C192.126 90.112 192.08 89.672 191.99 89.272C191.899 88.8667 191.752 88.5147 191.55 88.216C191.352 87.912 191.094 87.6773 190.774 87.512C190.459 87.3467 190.075 87.264 189.622 87.264C189.206 87.264 188.838 87.336 188.518 87.48C188.203 87.624 187.936 87.832 187.718 88.104C187.504 88.3707 187.342 88.696 187.23 89.08C187.118 89.464 187.062 89.9013 187.062 90.392L186.23 90.208C186.23 89.3227 186.384 88.5787 186.694 87.976C187.003 87.3733 187.43 86.9173 187.974 86.608C188.518 86.2987 189.142 86.144 189.846 86.144C190.363 86.144 190.814 86.224 191.198 86.384C191.587 86.544 191.915 86.76 192.182 87.032C192.454 87.304 192.672 87.616 192.838 87.968C193.003 88.3147 193.123 88.6853 193.198 89.08C193.272 89.4693 193.31 89.8587 193.31 90.248V95H192.126ZM185.878 95V86.36H186.942V88.488H187.062V95H185.878ZM195.546 95V83.24H196.722V95H195.546ZM199.28 84.72V83.4H200.456V84.72H199.28ZM199.28 95V86.36H200.456V95H199.28ZM209.094 95V90.592C209.094 90.112 209.049 89.672 208.958 89.272C208.868 88.8667 208.721 88.5147 208.518 88.216C208.321 87.912 208.062 87.6773 207.742 87.512C207.428 87.3467 207.044 87.264 206.59 87.264C206.174 87.264 205.806 87.336 205.486 87.48C205.172 87.624 204.905 87.832 204.686 88.104C204.473 88.3707 204.31 88.696 204.198 89.08C204.086 89.464 204.03 89.9013 204.03 90.392L203.198 90.208C203.198 89.3227 203.353 88.5787 203.662 87.976C203.972 87.3733 204.398 86.9173 204.942 86.608C205.486 86.2987 206.11 86.144 206.814 86.144C207.332 86.144 207.782 86.224 208.166 86.384C208.556 86.544 208.884 86.76 209.15 87.032C209.422 87.304 209.641 87.616 209.806 87.968C209.972 88.3147 210.092 88.6853 210.166 89.08C210.241 89.4693 210.278 89.8587 210.278 90.248V95H209.094ZM202.846 95V86.36H203.91V88.488H204.03V95H202.846ZM215.964 95.24C215.121 95.24 214.39 95.0533 213.772 94.68C213.158 94.3067 212.681 93.7813 212.34 93.104C211.998 92.4267 211.828 91.632 211.828 90.72C211.828 89.776 211.996 88.96 212.332 88.272C212.668 87.584 213.14 87.0533 213.748 86.68C214.361 86.3067 215.084 86.12 215.916 86.12C216.769 86.12 217.497 86.3173 218.1 86.712C218.702 87.1013 219.158 87.6613 219.468 88.392C219.777 89.1227 219.918 89.9947 219.892 91.008H218.692V90.592C218.67 89.472 218.428 88.6267 217.964 88.056C217.505 87.4853 216.833 87.2 215.948 87.2C215.02 87.2 214.308 87.5013 213.812 88.104C213.321 88.7067 213.076 89.5653 213.076 90.68C213.076 91.768 213.321 92.6133 213.812 93.216C214.308 93.8133 215.009 94.112 215.916 94.112C216.534 94.112 217.073 93.9707 217.532 93.688C217.996 93.4 218.361 92.9867 218.628 92.448L219.724 92.872C219.382 93.624 218.878 94.208 218.212 94.624C217.55 95.0347 216.801 95.24 215.964 95.24ZM212.66 91.008V90.024H219.26V91.008H212.66ZM221.578 95V93.632H222.946V95H221.578ZM1.12 121V109.48H2.2L6.728 119.168L11.232 109.48H12.328V120.992H11.208V112.104L7.104 121H6.344L2.248 112.104V121H1.12ZM18.1811 121.24C17.3225 121.24 16.5891 121.045 15.9811 120.656C15.3731 120.267 14.9065 119.728 14.5811 119.04C14.2558 118.352 14.0931 117.563 14.0931 116.672C14.0931 115.765 14.2585 114.971 14.5891 114.288C14.9198 113.605 15.3891 113.075 15.9971 112.696C16.6105 112.312 17.3385 112.12 18.1811 112.12C19.0451 112.12 19.7811 112.315 20.3891 112.704C21.0025 113.088 21.4691 113.624 21.7891 114.312C22.1145 114.995 22.2771 115.781 22.2771 116.672C22.2771 117.579 22.1145 118.376 21.7891 119.064C21.4638 119.747 20.9945 120.28 20.3811 120.664C19.7678 121.048 19.0345 121.24 18.1811 121.24ZM18.1811 120.112C19.1411 120.112 19.8558 119.795 20.3251 119.16C20.7945 118.52 21.0291 117.691 21.0291 116.672C21.0291 115.627 20.7918 114.795 20.3171 114.176C19.8478 113.557 19.1358 113.248 18.1811 113.248C17.5358 113.248 17.0025 113.395 16.5811 113.688C16.1651 113.976 15.8531 114.379 15.6451 114.896C15.4425 115.408 15.3411 116 15.3411 116.672C15.3411 117.712 15.5811 118.547 16.0611 119.176C16.5411 119.8 17.2478 120.112 18.1811 120.112ZM24.2019 121V109.24H25.3779V121H24.2019ZM27.9363 121V109.24H29.1123V121H27.9363ZM31.6706 110.72V109.4H32.8466V110.72H31.6706ZM31.6706 121V112.36H32.8466V121H31.6706ZM38.469 121.232C37.4557 121.232 36.621 121.013 35.965 120.576C35.3143 120.139 34.9143 119.531 34.765 118.752L35.965 118.552C36.093 119.043 36.3837 119.435 36.837 119.728C37.2957 120.016 37.861 120.16 38.533 120.16C39.189 120.16 39.7063 120.024 40.085 119.752C40.4637 119.475 40.653 119.099 40.653 118.624C40.653 118.357 40.5917 118.141 40.469 117.976C40.3517 117.805 40.109 117.648 39.741 117.504C39.373 117.36 38.8237 117.189 38.093 116.992C37.309 116.779 36.6957 116.565 36.253 116.352C35.8103 116.139 35.4957 115.893 35.309 115.616C35.1223 115.333 35.029 114.989 35.029 114.584C35.029 114.093 35.1677 113.664 35.445 113.296C35.7223 112.923 36.1063 112.635 36.597 112.432C37.0877 112.224 37.6583 112.12 38.309 112.12C38.9597 112.12 39.541 112.227 40.053 112.44C40.5703 112.648 40.9863 112.941 41.301 113.32C41.6157 113.699 41.8023 114.139 41.861 114.64L40.661 114.856C40.581 114.349 40.3277 113.949 39.901 113.656C39.4797 113.357 38.9437 113.203 38.293 113.192C37.6797 113.176 37.181 113.293 36.797 113.544C36.413 113.789 36.221 114.117 36.221 114.528C36.221 114.757 36.2903 114.955 36.429 115.12C36.5677 115.28 36.8183 115.432 37.181 115.576C37.549 115.72 38.0717 115.877 38.749 116.048C39.5437 116.251 40.1677 116.464 40.621 116.688C41.0743 116.912 41.397 117.176 41.589 117.48C41.781 117.784 41.877 118.16 41.877 118.608C41.877 119.424 41.573 120.067 40.965 120.536C40.3623 121 39.5303 121.232 38.469 121.232ZM50.4384 121.24C49.569 121.24 48.833 121.045 48.2304 120.656C47.6277 120.267 47.169 119.731 46.8544 119.048C46.545 118.36 46.385 117.571 46.3744 116.68C46.385 115.773 46.5504 114.979 46.8704 114.296C47.1904 113.608 47.6517 113.075 48.2544 112.696C48.857 112.312 49.5877 112.12 50.4464 112.12C51.321 112.12 52.081 112.333 52.7264 112.76C53.377 113.187 53.8224 113.771 54.0624 114.512L52.9104 114.88C52.7077 114.363 52.385 113.963 51.9424 113.68C51.505 113.392 51.0037 113.248 50.4384 113.248C49.8037 113.248 49.2784 113.395 48.8624 113.688C48.4464 113.976 48.137 114.379 47.9344 114.896C47.7317 115.413 47.6277 116.008 47.6224 116.68C47.633 117.715 47.873 118.547 48.3424 119.176C48.8117 119.8 49.5104 120.112 50.4384 120.112C51.025 120.112 51.5237 119.979 51.9344 119.712C52.3504 119.44 52.665 119.045 52.8784 118.528L54.0624 118.88C53.7424 119.648 53.273 120.235 52.6544 120.64C52.0357 121.04 51.297 121.24 50.4384 121.24ZM59.0874 121.24C58.2287 121.24 57.4954 121.045 56.8874 120.656C56.2794 120.267 55.8127 119.728 55.4874 119.04C55.162 118.352 54.9994 117.563 54.9994 116.672C54.9994 115.765 55.1647 114.971 55.4954 114.288C55.826 113.605 56.2954 113.075 56.9034 112.696C57.5167 112.312 58.2447 112.12 59.0874 112.12C59.9514 112.12 60.6874 112.315 61.2954 112.704C61.9087 113.088 62.3754 113.624 62.6954 114.312C63.0207 114.995 63.1834 115.781 63.1834 116.672C63.1834 117.579 63.0207 118.376 62.6954 119.064C62.37 119.747 61.9007 120.28 61.2874 120.664C60.674 121.048 59.9407 121.24 59.0874 121.24ZM59.0874 120.112C60.0474 120.112 60.762 119.795 61.2314 119.16C61.7007 118.52 61.9354 117.691 61.9354 116.672C61.9354 115.627 61.698 114.795 61.2234 114.176C60.754 113.557 60.042 113.248 59.0874 113.248C58.442 113.248 57.9087 113.395 57.4874 113.688C57.0714 113.976 56.7594 114.379 56.5514 114.896C56.3487 115.408 56.2474 116 56.2474 116.672C56.2474 117.712 56.4874 118.547 56.9674 119.176C57.4474 119.8 58.154 120.112 59.0874 120.112ZM71.1881 121V116.592C71.1881 116.112 71.1428 115.672 71.0521 115.272C70.9615 114.867 70.8148 114.515 70.6121 114.216C70.4148 113.912 70.1561 113.677 69.8361 113.512C69.5215 113.347 69.1375 113.264 68.6841 113.264C68.2681 113.264 67.9001 113.336 67.5801 113.48C67.2655 113.624 66.9988 113.832 66.7801 114.104C66.5668 114.371 66.4041 114.696 66.2921 115.08C66.1801 115.464 66.1241 115.901 66.1241 116.392L65.2921 116.208C65.2921 115.323 65.4468 114.579 65.7561 113.976C66.0655 113.373 66.4921 112.917 67.0361 112.608C67.5801 112.299 68.2041 112.144 68.9081 112.144C69.4255 112.144 69.8761 112.224 70.2601 112.384C70.6495 112.544 70.9775 112.76 71.2441 113.032C71.5161 113.304 71.7348 113.616 71.9001 113.968C72.0655 114.315 72.1855 114.685 72.2601 115.08C72.3348 115.469 72.3721 115.859 72.3721 116.248V121H71.1881ZM64.9401 121V112.36H66.0041V114.488H66.1241V121H64.9401ZM77.8801 125.08C77.4375 125.08 77.0001 125.013 76.5681 124.88C76.1415 124.752 75.7468 124.547 75.3841 124.264C75.0215 123.987 74.7175 123.624 74.4721 123.176L75.5361 122.584C75.7761 123.064 76.1121 123.408 76.5441 123.616C76.9815 123.829 77.4268 123.936 77.8801 123.936C78.5041 123.936 79.0081 123.819 79.3921 123.584C79.7815 123.355 80.0641 123.013 80.2401 122.56C80.4161 122.107 80.5015 121.541 80.4961 120.864V118.56H80.6321V112.36H81.6801V120.88C81.6801 121.125 81.6721 121.36 81.6561 121.584C81.6455 121.813 81.6215 122.037 81.5841 122.256C81.4828 122.901 81.2721 123.432 80.9521 123.848C80.6375 124.264 80.2215 124.573 79.7041 124.776C79.1921 124.979 78.5841 125.08 77.8801 125.08ZM77.8001 121.24C76.9948 121.24 76.3068 121.04 75.7361 120.64C75.1655 120.235 74.7281 119.688 74.4241 119C74.1201 118.312 73.9681 117.536 73.9681 116.672C73.9681 115.813 74.1175 115.04 74.4161 114.352C74.7201 113.664 75.1548 113.12 75.7201 112.72C76.2855 112.32 76.9628 112.12 77.7521 112.12C78.5628 112.12 79.2455 112.317 79.8001 112.712C80.3548 113.107 80.7735 113.648 81.0561 114.336C81.3441 115.019 81.4881 115.797 81.4881 116.672C81.4881 117.531 81.3468 118.307 81.0641 119C80.7815 119.688 80.3655 120.235 79.8161 120.64C79.2668 121.04 78.5948 121.24 77.8001 121.24ZM77.9201 120.144C78.5335 120.144 79.0401 119.995 79.4401 119.696C79.8401 119.397 80.1388 118.987 80.3361 118.464C80.5335 117.936 80.6321 117.339 80.6321 116.672C80.6321 115.995 80.5335 115.397 80.3361 114.88C80.1388 114.357 79.8401 113.949 79.4401 113.656C79.0455 113.363 78.5468 113.216 77.9441 113.216C77.3255 113.216 76.8135 113.368 76.4081 113.672C76.0028 113.976 75.7015 114.389 75.5041 114.912C75.3121 115.435 75.2161 116.021 75.2161 116.672C75.2161 117.328 75.3148 117.92 75.5121 118.448C75.7148 118.971 76.0161 119.384 76.4161 119.688C76.8161 119.992 77.3175 120.144 77.9201 120.144ZM87.2209 121.216C86.7035 121.216 86.2502 121.136 85.8609 120.976C85.4769 120.816 85.1489 120.6 84.8769 120.328C84.6102 120.056 84.3942 119.747 84.2289 119.4C84.0635 119.048 83.9435 118.677 83.8689 118.288C83.7942 117.893 83.7569 117.501 83.7569 117.112V112.36H84.9409V116.768C84.9409 117.243 84.9862 117.683 85.0769 118.088C85.1675 118.493 85.3115 118.848 85.5089 119.152C85.7115 119.451 85.9702 119.683 86.2849 119.848C86.6049 120.013 86.9915 120.096 87.4449 120.096C87.8609 120.096 88.2262 120.024 88.5409 119.88C88.8609 119.736 89.1275 119.531 89.3409 119.264C89.5595 118.992 89.7249 118.664 89.8369 118.28C89.9489 117.891 90.0049 117.453 90.0049 116.968L90.8369 117.152C90.8369 118.037 90.6822 118.781 90.3729 119.384C90.0635 119.987 89.6369 120.443 89.0929 120.752C88.5489 121.061 87.9249 121.216 87.2209 121.216ZM90.1249 121V118.872H90.0049V112.36H91.1809V121H90.1249ZM97.0729 121.24C96.2302 121.24 95.4995 121.053 94.8809 120.68C94.2675 120.307 93.7902 119.781 93.4489 119.104C93.1075 118.427 92.9369 117.632 92.9369 116.72C92.9369 115.776 93.1049 114.96 93.4409 114.272C93.7769 113.584 94.2489 113.053 94.8569 112.68C95.4702 112.307 96.1929 112.12 97.0249 112.12C97.8782 112.12 98.6062 112.317 99.2089 112.712C99.8115 113.101 100.268 113.661 100.577 114.392C100.886 115.123 101.028 115.995 101.001 117.008H99.8009V116.592C99.7795 115.472 99.5369 114.627 99.0729 114.056C98.6142 113.485 97.9422 113.2 97.0569 113.2C96.1289 113.2 95.4169 113.501 94.9209 114.104C94.4302 114.707 94.1849 115.565 94.1849 116.68C94.1849 117.768 94.4302 118.613 94.9209 119.216C95.4169 119.813 96.1182 120.112 97.0249 120.112C97.6435 120.112 98.1822 119.971 98.6409 119.688C99.1049 119.4 99.4702 118.987 99.7369 118.448L100.833 118.872C100.492 119.624 99.9875 120.208 99.3209 120.624C98.6595 121.035 97.9102 121.24 97.0729 121.24ZM93.7689 117.008V116.024H100.369V117.008H93.7689ZM109.635 121.24C108.793 121.24 108.062 121.053 107.443 120.68C106.83 120.307 106.353 119.781 106.011 119.104C105.67 118.427 105.499 117.632 105.499 116.72C105.499 115.776 105.667 114.96 106.003 114.272C106.339 113.584 106.811 113.053 107.419 112.68C108.033 112.307 108.755 112.12 109.587 112.12C110.441 112.12 111.169 112.317 111.771 112.712C112.374 113.101 112.83 113.661 113.139 114.392C113.449 115.123 113.59 115.995 113.563 117.008H112.363V116.592C112.342 115.472 112.099 114.627 111.635 114.056C111.177 113.485 110.505 113.2 109.619 113.2C108.691 113.2 107.979 113.501 107.483 114.104C106.993 114.707 106.747 115.565 106.747 116.68C106.747 117.768 106.993 118.613 107.483 119.216C107.979 119.813 108.681 120.112 109.587 120.112C110.206 120.112 110.745 119.971 111.203 119.688C111.667 119.4 112.033 118.987 112.299 118.448L113.395 118.872C113.054 119.624 112.55 120.208 111.883 120.624C111.222 121.035 110.473 121.24 109.635 121.24ZM106.331 117.008V116.024H112.931V117.008H106.331ZM118.771 125.08C118.328 125.08 117.891 125.013 117.459 124.88C117.032 124.752 116.637 124.547 116.275 124.264C115.912 123.987 115.608 123.624 115.363 123.176L116.427 122.584C116.667 123.064 117.003 123.408 117.435 123.616C117.872 123.829 118.317 123.936 118.771 123.936C119.395 123.936 119.899 123.819 120.283 123.584C120.672 123.355 120.955 123.013 121.131 122.56C121.307 122.107 121.392 121.541 121.387 120.864V118.56H121.523V112.36H122.571V120.88C122.571 121.125 122.563 121.36 122.547 121.584C122.536 121.813 122.512 122.037 122.475 122.256C122.373 122.901 122.163 123.432 121.843 123.848C121.528 124.264 121.112 124.573 120.595 124.776C120.083 124.979 119.475 125.08 118.771 125.08ZM118.691 121.24C117.885 121.24 117.197 121.04 116.627 120.64C116.056 120.235 115.619 119.688 115.315 119C115.011 118.312 114.859 117.536 114.859 116.672C114.859 115.813 115.008 115.04 115.307 114.352C115.611 113.664 116.045 113.12 116.611 112.72C117.176 112.32 117.853 112.12 118.643 112.12C119.453 112.12 120.136 112.317 120.691 112.712C121.245 113.107 121.664 113.648 121.947 114.336C122.235 115.019 122.379 115.797 122.379 116.672C122.379 117.531 122.237 118.307 121.955 119C121.672 119.688 121.256 120.235 120.707 120.64C120.157 121.04 119.485 121.24 118.691 121.24ZM118.811 120.144C119.424 120.144 119.931 119.995 120.331 119.696C120.731 119.397 121.029 118.987 121.227 118.464C121.424 117.936 121.523 117.339 121.523 116.672C121.523 115.995 121.424 115.397 121.227 114.88C121.029 114.357 120.731 113.949 120.331 113.656C119.936 113.363 119.437 113.216 118.835 113.216C118.216 113.216 117.704 113.368 117.299 113.672C116.893 113.976 116.592 114.389 116.395 114.912C116.203 115.435 116.107 116.021 116.107 116.672C116.107 117.328 116.205 117.92 116.403 118.448C116.605 118.971 116.907 119.384 117.307 119.688C117.707 119.992 118.208 120.144 118.811 120.144ZM128.464 121.24C127.621 121.24 126.89 121.053 126.272 120.68C125.658 120.307 125.181 119.781 124.84 119.104C124.498 118.427 124.328 117.632 124.328 116.72C124.328 115.776 124.496 114.96 124.832 114.272C125.168 113.584 125.64 113.053 126.248 112.68C126.861 112.307 127.584 112.12 128.416 112.12C129.269 112.12 129.997 112.317 130.6 112.712C131.202 113.101 131.658 113.661 131.968 114.392C132.277 115.123 132.418 115.995 132.392 117.008H131.192V116.592C131.17 115.472 130.928 114.627 130.464 114.056C130.005 113.485 129.333 113.2 128.448 113.2C127.52 113.2 126.808 113.501 126.312 114.104C125.821 114.707 125.576 115.565 125.576 116.68C125.576 117.768 125.821 118.613 126.312 119.216C126.808 119.813 127.509 120.112 128.416 120.112C129.034 120.112 129.573 119.971 130.032 119.688C130.496 119.4 130.861 118.987 131.128 118.448L132.224 118.872C131.882 119.624 131.378 120.208 130.712 120.624C130.05 121.035 129.301 121.24 128.464 121.24ZM125.16 117.008V116.024H131.76V117.008H125.16ZM137.391 121.232C136.378 121.232 135.543 121.013 134.887 120.576C134.236 120.139 133.836 119.531 133.687 118.752L134.887 118.552C135.015 119.043 135.306 119.435 135.759 119.728C136.218 120.016 136.783 120.16 137.455 120.16C138.111 120.16 138.628 120.024 139.007 119.752C139.386 119.475 139.575 119.099 139.575 118.624C139.575 118.357 139.514 118.141 139.391 117.976C139.274 117.805 139.031 117.648 138.663 117.504C138.295 117.36 137.746 117.189 137.015 116.992C136.231 116.779 135.618 116.565 135.175 116.352C134.732 116.139 134.418 115.893 134.231 115.616C134.044 115.333 133.951 114.989 133.951 114.584C133.951 114.093 134.09 113.664 134.367 113.296C134.644 112.923 135.028 112.635 135.519 112.432C136.01 112.224 136.58 112.12 137.231 112.12C137.882 112.12 138.463 112.227 138.975 112.44C139.492 112.648 139.908 112.941 140.223 113.32C140.538 113.699 140.724 114.139 140.783 114.64L139.583 114.856C139.503 114.349 139.25 113.949 138.823 113.656C138.402 113.357 137.866 113.203 137.215 113.192C136.602 113.176 136.103 113.293 135.719 113.544C135.335 113.789 135.143 114.117 135.143 114.528C135.143 114.757 135.212 114.955 135.351 115.12C135.49 115.28 135.74 115.432 136.103 115.576C136.471 115.72 136.994 115.877 137.671 116.048C138.466 116.251 139.09 116.464 139.543 116.688C139.996 116.912 140.319 117.176 140.511 117.48C140.703 117.784 140.799 118.16 140.799 118.608C140.799 119.424 140.495 120.067 139.887 120.536C139.284 121 138.452 121.232 137.391 121.232ZM147.277 121C146.792 121.101 146.312 121.141 145.837 121.12C145.368 121.099 144.946 120.997 144.573 120.816C144.205 120.635 143.925 120.352 143.733 119.968C143.578 119.648 143.493 119.325 143.477 119C143.466 118.669 143.461 118.293 143.461 117.872V109.96H144.629V117.824C144.629 118.187 144.632 118.491 144.637 118.736C144.648 118.976 144.704 119.189 144.805 119.376C144.997 119.733 145.301 119.947 145.717 120.016C146.138 120.085 146.658 120.069 147.277 119.968V121ZM141.613 113.368V112.36H147.277V113.368H141.613ZM151.451 121.24C150.801 121.24 150.254 121.123 149.811 120.888C149.374 120.653 149.046 120.341 148.827 119.952C148.609 119.563 148.499 119.139 148.499 118.68C148.499 118.211 148.593 117.811 148.779 117.48C148.971 117.144 149.23 116.869 149.555 116.656C149.886 116.443 150.267 116.28 150.699 116.168C151.137 116.061 151.619 115.968 152.147 115.888C152.681 115.803 153.201 115.731 153.707 115.672C154.219 115.608 154.667 115.547 155.051 115.488L154.635 115.744C154.651 114.891 154.486 114.259 154.139 113.848C153.793 113.437 153.19 113.232 152.331 113.232C151.739 113.232 151.238 113.365 150.827 113.632C150.422 113.899 150.137 114.32 149.971 114.896L148.827 114.56C149.025 113.787 149.422 113.187 150.019 112.76C150.617 112.333 151.393 112.12 152.347 112.12C153.137 112.12 153.806 112.269 154.355 112.568C154.91 112.861 155.302 113.288 155.531 113.848C155.638 114.099 155.707 114.379 155.739 114.688C155.771 114.997 155.787 115.312 155.787 115.632V121H154.739V118.832L155.043 118.96C154.75 119.701 154.294 120.267 153.675 120.656C153.057 121.045 152.315 121.24 151.451 121.24ZM151.587 120.224C152.137 120.224 152.617 120.125 153.027 119.928C153.438 119.731 153.769 119.461 154.019 119.12C154.27 118.773 154.433 118.384 154.507 117.952C154.571 117.675 154.606 117.371 154.611 117.04C154.617 116.704 154.619 116.453 154.619 116.288L155.067 116.52C154.667 116.573 154.233 116.627 153.763 116.68C153.299 116.733 152.841 116.795 152.387 116.864C151.939 116.933 151.534 117.016 151.171 117.112C150.926 117.181 150.689 117.28 150.459 117.408C150.23 117.531 150.041 117.696 149.891 117.904C149.747 118.112 149.675 118.371 149.675 118.68C149.675 118.931 149.737 119.173 149.859 119.408C149.987 119.643 150.19 119.837 150.467 119.992C150.75 120.147 151.123 120.224 151.587 120.224ZM161.094 121.232C160.081 121.232 159.246 121.013 158.59 120.576C157.939 120.139 157.539 119.531 157.39 118.752L158.59 118.552C158.718 119.043 159.009 119.435 159.462 119.728C159.921 120.016 160.486 120.16 161.158 120.16C161.814 120.16 162.331 120.024 162.71 119.752C163.089 119.475 163.278 119.099 163.278 118.624C163.278 118.357 163.217 118.141 163.094 117.976C162.977 117.805 162.734 117.648 162.366 117.504C161.998 117.36 161.449 117.189 160.718 116.992C159.934 116.779 159.321 116.565 158.878 116.352C158.435 116.139 158.121 115.893 157.934 115.616C157.747 115.333 157.654 114.989 157.654 114.584C157.654 114.093 157.793 113.664 158.07 113.296C158.347 112.923 158.731 112.635 159.222 112.432C159.713 112.224 160.283 112.12 160.934 112.12C161.585 112.12 162.166 112.227 162.678 112.44C163.195 112.648 163.611 112.941 163.926 113.32C164.241 113.699 164.427 114.139 164.486 114.64L163.286 114.856C163.206 114.349 162.953 113.949 162.526 113.656C162.105 113.357 161.569 113.203 160.918 113.192C160.305 113.176 159.806 113.293 159.422 113.544C159.038 113.789 158.846 114.117 158.846 114.528C158.846 114.757 158.915 114.955 159.054 115.12C159.193 115.28 159.443 115.432 159.806 115.576C160.174 115.72 160.697 115.877 161.374 116.048C162.169 116.251 162.793 116.464 163.246 116.688C163.699 116.912 164.022 117.176 164.214 117.48C164.406 117.784 164.502 118.16 164.502 118.608C164.502 119.424 164.198 120.067 163.59 120.536C162.987 121 162.155 121.232 161.094 121.232ZM173.135 121.24C172.293 121.24 171.562 121.053 170.943 120.68C170.33 120.307 169.853 119.781 169.511 119.104C169.17 118.427 168.999 117.632 168.999 116.72C168.999 115.776 169.167 114.96 169.503 114.272C169.839 113.584 170.311 113.053 170.919 112.68C171.533 112.307 172.255 112.12 173.087 112.12C173.941 112.12 174.669 112.317 175.271 112.712C175.874 113.101 176.33 113.661 176.639 114.392C176.949 115.123 177.09 115.995 177.063 117.008H175.863V116.592C175.842 115.472 175.599 114.627 175.135 114.056C174.677 113.485 174.005 113.2 173.119 113.2C172.191 113.2 171.479 113.501 170.983 114.104C170.493 114.707 170.247 115.565 170.247 116.68C170.247 117.768 170.493 118.613 170.983 119.216C171.479 119.813 172.181 120.112 173.087 120.112C173.706 120.112 174.245 119.971 174.703 119.688C175.167 119.4 175.533 118.987 175.799 118.448L176.895 118.872C176.554 119.624 176.05 120.208 175.383 120.624C174.722 121.035 173.973 121.24 173.135 121.24ZM169.831 117.008V116.024H176.431V117.008H169.831ZM182.271 125.08C181.828 125.08 181.391 125.013 180.959 124.88C180.532 124.752 180.137 124.547 179.775 124.264C179.412 123.987 179.108 123.624 178.863 123.176L179.927 122.584C180.167 123.064 180.503 123.408 180.935 123.616C181.372 123.829 181.817 123.936 182.271 123.936C182.895 123.936 183.399 123.819 183.783 123.584C184.172 123.355 184.455 123.013 184.631 122.56C184.807 122.107 184.892 121.541 184.887 120.864V118.56H185.023V112.36H186.071V120.88C186.071 121.125 186.063 121.36 186.047 121.584C186.036 121.813 186.012 122.037 185.975 122.256C185.873 122.901 185.663 123.432 185.343 123.848C185.028 124.264 184.612 124.573 184.095 124.776C183.583 124.979 182.975 125.08 182.271 125.08ZM182.191 121.24C181.385 121.24 180.697 121.04 180.127 120.64C179.556 120.235 179.119 119.688 178.815 119C178.511 118.312 178.359 117.536 178.359 116.672C178.359 115.813 178.508 115.04 178.807 114.352C179.111 113.664 179.545 113.12 180.111 112.72C180.676 112.32 181.353 112.12 182.143 112.12C182.953 112.12 183.636 112.317 184.191 112.712C184.745 113.107 185.164 113.648 185.447 114.336C185.735 115.019 185.879 115.797 185.879 116.672C185.879 117.531 185.737 118.307 185.455 119C185.172 119.688 184.756 120.235 184.207 120.64C183.657 121.04 182.985 121.24 182.191 121.24ZM182.311 120.144C182.924 120.144 183.431 119.995 183.831 119.696C184.231 119.397 184.529 118.987 184.727 118.464C184.924 117.936 185.023 117.339 185.023 116.672C185.023 115.995 184.924 115.397 184.727 114.88C184.529 114.357 184.231 113.949 183.831 113.656C183.436 113.363 182.937 113.216 182.335 113.216C181.716 113.216 181.204 113.368 180.799 113.672C180.393 113.976 180.092 114.389 179.895 114.912C179.703 115.435 179.607 116.021 179.607 116.672C179.607 117.328 179.705 117.92 179.903 118.448C180.105 118.971 180.407 119.384 180.807 119.688C181.207 119.992 181.708 120.144 182.311 120.144ZM191.964 121.24C191.121 121.24 190.39 121.053 189.772 120.68C189.158 120.307 188.681 119.781 188.34 119.104C187.998 118.427 187.828 117.632 187.828 116.72C187.828 115.776 187.996 114.96 188.332 114.272C188.668 113.584 189.14 113.053 189.748 112.68C190.361 112.307 191.084 112.12 191.916 112.12C192.769 112.12 193.497 112.317 194.1 112.712C194.702 113.101 195.158 113.661 195.468 114.392C195.777 115.123 195.918 115.995 195.892 117.008H194.692V116.592C194.67 115.472 194.428 114.627 193.964 114.056C193.505 113.485 192.833 113.2 191.948 113.2C191.02 113.2 190.308 113.501 189.812 114.104C189.321 114.707 189.076 115.565 189.076 116.68C189.076 117.768 189.321 118.613 189.812 119.216C190.308 119.813 191.009 120.112 191.916 120.112C192.534 120.112 193.073 119.971 193.532 119.688C193.996 119.4 194.361 118.987 194.628 118.448L195.724 118.872C195.382 119.624 194.878 120.208 194.212 120.624C193.55 121.035 192.801 121.24 191.964 121.24ZM188.66 117.008V116.024H195.26V117.008H188.66ZM200.891 121.232C199.878 121.232 199.043 121.013 198.387 120.576C197.736 120.139 197.336 119.531 197.187 118.752L198.387 118.552C198.515 119.043 198.806 119.435 199.259 119.728C199.718 120.016 200.283 120.16 200.955 120.16C201.611 120.16 202.128 120.024 202.507 119.752C202.886 119.475 203.075 119.099 203.075 118.624C203.075 118.357 203.014 118.141 202.891 117.976C202.774 117.805 202.531 117.648 202.163 117.504C201.795 117.36 201.246 117.189 200.515 116.992C199.731 116.779 199.118 116.565 198.675 116.352C198.232 116.139 197.918 115.893 197.731 115.616C197.544 115.333 197.451 114.989 197.451 114.584C197.451 114.093 197.59 113.664 197.867 113.296C198.144 112.923 198.528 112.635 199.019 112.432C199.51 112.224 200.08 112.12 200.731 112.12C201.382 112.12 201.963 112.227 202.475 112.44C202.992 112.648 203.408 112.941 203.723 113.32C204.038 113.699 204.224 114.139 204.283 114.64L203.083 114.856C203.003 114.349 202.75 113.949 202.323 113.656C201.902 113.357 201.366 113.203 200.715 113.192C200.102 113.176 199.603 113.293 199.219 113.544C198.835 113.789 198.643 114.117 198.643 114.528C198.643 114.757 198.712 114.955 198.851 115.12C198.99 115.28 199.24 115.432 199.603 115.576C199.971 115.72 200.494 115.877 201.171 116.048C201.966 116.251 202.59 116.464 203.043 116.688C203.496 116.912 203.819 117.176 204.011 117.48C204.203 117.784 204.299 118.16 204.299 118.608C204.299 119.424 203.995 120.067 203.387 120.536C202.784 121 201.952 121.232 200.891 121.232ZM210.777 121C210.292 121.101 209.812 121.141 209.337 121.12C208.868 121.099 208.446 120.997 208.073 120.816C207.705 120.635 207.425 120.352 207.233 119.968C207.078 119.648 206.993 119.325 206.977 119C206.966 118.669 206.961 118.293 206.961 117.872V109.96H208.129V117.824C208.129 118.187 208.132 118.491 208.137 118.736C208.148 118.976 208.204 119.189 208.305 119.376C208.497 119.733 208.801 119.947 209.217 120.016C209.638 120.085 210.158 120.069 210.777 119.968V121ZM205.113 113.368V112.36H210.777V113.368H205.113ZM214.951 121.24C214.301 121.24 213.754 121.123 213.311 120.888C212.874 120.653 212.546 120.341 212.327 119.952C212.109 119.563 211.999 119.139 211.999 118.68C211.999 118.211 212.093 117.811 212.279 117.48C212.471 117.144 212.73 116.869 213.055 116.656C213.386 116.443 213.767 116.28 214.199 116.168C214.637 116.061 215.119 115.968 215.647 115.888C216.181 115.803 216.701 115.731 217.207 115.672C217.719 115.608 218.167 115.547 218.551 115.488L218.135 115.744C218.151 114.891 217.986 114.259 217.639 113.848C217.293 113.437 216.69 113.232 215.831 113.232C215.239 113.232 214.738 113.365 214.327 113.632C213.922 113.899 213.637 114.32 213.471 114.896L212.327 114.56C212.525 113.787 212.922 113.187 213.519 112.76C214.117 112.333 214.893 112.12 215.847 112.12C216.637 112.12 217.306 112.269 217.855 112.568C218.41 112.861 218.802 113.288 219.031 113.848C219.138 114.099 219.207 114.379 219.239 114.688C219.271 114.997 219.287 115.312 219.287 115.632V121H218.239V118.832L218.543 118.96C218.25 119.701 217.794 120.267 217.175 120.656C216.557 121.045 215.815 121.24 214.951 121.24ZM215.087 120.224C215.637 120.224 216.117 120.125 216.527 119.928C216.938 119.731 217.269 119.461 217.519 119.12C217.77 118.773 217.933 118.384 218.007 117.952C218.071 117.675 218.106 117.371 218.111 117.04C218.117 116.704 218.119 116.453 218.119 116.288L218.567 116.52C218.167 116.573 217.733 116.627 217.263 116.68C216.799 116.733 216.341 116.795 215.887 116.864C215.439 116.933 215.034 117.016 214.671 117.112C214.426 117.181 214.189 117.28 213.959 117.408C213.73 117.531 213.541 117.696 213.391 117.904C213.247 118.112 213.175 118.371 213.175 118.68C213.175 118.931 213.237 119.173 213.359 119.408C213.487 119.643 213.69 119.837 213.967 119.992C214.25 120.147 214.623 120.224 215.087 120.224ZM224.594 121.232C223.581 121.232 222.746 121.013 222.09 120.576C221.439 120.139 221.039 119.531 220.89 118.752L222.09 118.552C222.218 119.043 222.509 119.435 222.962 119.728C223.421 120.016 223.986 120.16 224.658 120.16C225.314 120.16 225.831 120.024 226.21 119.752C226.589 119.475 226.778 119.099 226.778 118.624C226.778 118.357 226.717 118.141 226.594 117.976C226.477 117.805 226.234 117.648 225.866 117.504C225.498 117.36 224.949 117.189 224.218 116.992C223.434 116.779 222.821 116.565 222.378 116.352C221.935 116.139 221.621 115.893 221.434 115.616C221.247 115.333 221.154 114.989 221.154 114.584C221.154 114.093 221.293 113.664 221.57 113.296C221.847 112.923 222.231 112.635 222.722 112.432C223.213 112.224 223.783 112.12 224.434 112.12C225.085 112.12 225.666 112.227 226.178 112.44C226.695 112.648 227.111 112.941 227.426 113.32C227.741 113.699 227.927 114.139 227.986 114.64L226.786 114.856C226.706 114.349 226.453 113.949 226.026 113.656C225.605 113.357 225.069 113.203 224.418 113.192C223.805 113.176 223.306 113.293 222.922 113.544C222.538 113.789 222.346 114.117 222.346 114.528C222.346 114.757 222.415 114.955 222.554 115.12C222.693 115.28 222.943 115.432 223.306 115.576C223.674 115.72 224.197 115.877 224.874 116.048C225.669 116.251 226.293 116.464 226.746 116.688C227.199 116.912 227.522 117.176 227.714 117.48C227.906 117.784 228.002 118.16 228.002 118.608C228.002 119.424 227.698 120.067 227.09 120.536C226.487 121 225.655 121.232 224.594 121.232ZM1.976 147V137.72C1.976 137.496 1.98667 137.275 2.008 137.056C2.03467 136.837 2.08533 136.629 2.16 136.432C2.23467 136.229 2.352 136.043 2.512 135.872C2.688 135.68 2.88 135.541 3.088 135.456C3.296 135.365 3.512 135.307 3.736 135.28C3.96533 135.253 4.18933 135.24 4.408 135.24H5.512V136.232H4.488C4.04 136.232 3.704 136.341 3.48 136.56C3.26133 136.779 3.152 137.123 3.152 137.592V147H1.976ZM0.48 139.368V138.36H5.512V139.368H0.48ZM10.1354 147.24C9.29271 147.24 8.56204 147.053 7.94338 146.68C7.33004 146.307 6.85271 145.781 6.51138 145.104C6.17004 144.427 5.99938 143.632 5.99938 142.72C5.99938 141.776 6.16738 140.96 6.50338 140.272C6.83938 139.584 7.31138 139.053 7.91938 138.68C8.53271 138.307 9.25538 138.12 10.0874 138.12C10.9407 138.12 11.6687 138.317 12.2714 138.712C12.874 139.101 13.33 139.661 13.6394 140.392C13.9487 141.123 14.09 141.995 14.0634 143.008H12.8634V142.592C12.842 141.472 12.5994 140.627 12.1354 140.056C11.6767 139.485 11.0047 139.2 10.1194 139.2C9.19138 139.2 8.47938 139.501 7.98338 140.104C7.49271 140.707 7.24738 141.565 7.24738 142.68C7.24738 143.768 7.49271 144.613 7.98338 145.216C8.47938 145.813 9.18071 146.112 10.0874 146.112C10.706 146.112 11.2447 145.971 11.7034 145.688C12.1674 145.4 12.5327 144.987 12.7994 144.448L13.8954 144.872C13.554 145.624 13.05 146.208 12.3834 146.624C11.722 147.035 10.9727 147.24 10.1354 147.24ZM6.83138 143.008V142.024H13.4314V143.008H6.83138ZM15.8388 147V138.36H16.8948V140.44L16.6868 140.168C16.7828 139.912 16.9081 139.677 17.0628 139.464C17.2174 139.245 17.3854 139.067 17.5668 138.928C17.7908 138.731 18.0521 138.581 18.3508 138.48C18.6494 138.373 18.9508 138.312 19.2548 138.296C19.5588 138.275 19.8361 138.296 20.0868 138.36V139.464C19.7721 139.384 19.4281 139.365 19.0548 139.408C18.6814 139.451 18.3374 139.6 18.0228 139.856C17.7348 140.08 17.5188 140.349 17.3748 140.664C17.2308 140.973 17.1348 141.304 17.0868 141.656C17.0388 142.003 17.0148 142.347 17.0148 142.688V147H15.8388ZM31.9084 147L31.9164 141.328C31.9164 140.661 31.7297 140.139 31.3564 139.76C30.9884 139.376 30.519 139.184 29.9484 139.184C29.623 139.184 29.3057 139.259 28.9964 139.408C28.687 139.557 28.431 139.797 28.2284 140.128C28.031 140.459 27.9324 140.891 27.9324 141.424L27.2364 141.224C27.2204 140.605 27.3404 140.064 27.5964 139.6C27.8577 139.136 28.215 138.776 28.6684 138.52C29.127 138.259 29.6444 138.128 30.2204 138.128C31.0897 138.128 31.7857 138.397 32.3084 138.936C32.831 139.469 33.0924 140.192 33.0924 141.104L33.0844 147H31.9084ZM21.5964 147V138.36H22.6524V140.488H22.7804V147H21.5964ZM26.7644 147L26.7724 141.408C26.7724 140.72 26.5884 140.179 26.2204 139.784C25.8577 139.384 25.3777 139.184 24.7804 139.184C24.183 139.184 23.7004 139.389 23.3324 139.8C22.9644 140.205 22.7804 140.747 22.7804 141.424L22.0764 141.04C22.0764 140.485 22.207 139.989 22.4684 139.552C22.7297 139.109 23.087 138.763 23.5404 138.512C23.9937 138.256 24.5084 138.128 25.0844 138.128C25.6337 138.128 26.1217 138.245 26.5484 138.48C26.9804 138.715 27.319 139.056 27.5644 139.504C27.8097 139.952 27.9324 140.496 27.9324 141.136L27.9244 147H26.7644ZM38.776 147.24C37.9333 147.24 37.2027 147.053 36.584 146.68C35.9707 146.307 35.4933 145.781 35.152 145.104C34.8107 144.427 34.64 143.632 34.64 142.72C34.64 141.776 34.808 140.96 35.144 140.272C35.48 139.584 35.952 139.053 36.56 138.68C37.1733 138.307 37.896 138.12 38.728 138.12C39.5813 138.12 40.3093 138.317 40.912 138.712C41.5147 139.101 41.9707 139.661 42.28 140.392C42.5893 141.123 42.7307 141.995 42.704 143.008H41.504V142.592C41.4827 141.472 41.24 140.627 40.776 140.056C40.3173 139.485 39.6453 139.2 38.76 139.2C37.832 139.2 37.12 139.501 36.624 140.104C36.1333 140.707 35.888 141.565 35.888 142.68C35.888 143.768 36.1333 144.613 36.624 145.216C37.12 145.813 37.8213 146.112 38.728 146.112C39.3467 146.112 39.8853 145.971 40.344 145.688C40.808 145.4 41.1733 144.987 41.44 144.448L42.536 144.872C42.1947 145.624 41.6907 146.208 41.024 146.624C40.3627 147.035 39.6133 147.24 38.776 147.24ZM35.472 143.008V142.024H42.072V143.008H35.472ZM50.485 147V142.592C50.485 142.112 50.4397 141.672 50.349 141.272C50.2583 140.867 50.1117 140.515 49.909 140.216C49.7117 139.912 49.453 139.677 49.133 139.512C48.8183 139.347 48.4343 139.264 47.981 139.264C47.565 139.264 47.197 139.336 46.877 139.48C46.5623 139.624 46.2957 139.832 46.077 140.104C45.8637 140.371 45.701 140.696 45.589 141.08C45.477 141.464 45.421 141.901 45.421 142.392L44.589 142.208C44.589 141.323 44.7437 140.579 45.053 139.976C45.3623 139.373 45.789 138.917 46.333 138.608C46.877 138.299 47.501 138.144 48.205 138.144C48.7223 138.144 49.173 138.224 49.557 138.384C49.9463 138.544 50.2743 138.76 50.541 139.032C50.813 139.304 51.0317 139.616 51.197 139.968C51.3623 140.315 51.4823 140.685 51.557 141.08C51.6317 141.469 51.669 141.859 51.669 142.248V147H50.485ZM44.237 147V138.36H45.301V140.488H45.421V147H44.237ZM58.449 147C57.9637 147.101 57.4837 147.141 57.009 147.12C56.5397 147.099 56.1183 146.997 55.745 146.816C55.377 146.635 55.097 146.352 54.905 145.968C54.7503 145.648 54.665 145.325 54.649 145C54.6383 144.669 54.633 144.293 54.633 143.872V135.96H55.801V143.824C55.801 144.187 55.8037 144.491 55.809 144.736C55.8197 144.976 55.8757 145.189 55.977 145.376C56.169 145.733 56.473 145.947 56.889 146.016C57.3103 146.085 57.8303 146.069 58.449 145.968V147ZM52.785 139.368V138.36H58.449V139.368H52.785ZM63.4553 147.216C62.9379 147.216 62.4846 147.136 62.0953 146.976C61.7113 146.816 61.3833 146.6 61.1113 146.328C60.8446 146.056 60.6286 145.747 60.4633 145.4C60.2979 145.048 60.1779 144.677 60.1033 144.288C60.0286 143.893 59.9913 143.501 59.9913 143.112V138.36H61.1753V142.768C61.1753 143.243 61.2206 143.683 61.3113 144.088C61.4019 144.493 61.5459 144.848 61.7433 145.152C61.9459 145.451 62.2046 145.683 62.5193 145.848C62.8393 146.013 63.2259 146.096 63.6793 146.096C64.0953 146.096 64.4606 146.024 64.7753 145.88C65.0953 145.736 65.3619 145.531 65.5753 145.264C65.7939 144.992 65.9593 144.664 66.0713 144.28C66.1833 143.891 66.2393 143.453 66.2393 142.968L67.0712 143.152C67.0712 144.037 66.9166 144.781 66.6073 145.384C66.2979 145.987 65.8713 146.443 65.3273 146.752C64.7833 147.061 64.1593 147.216 63.4553 147.216ZM66.3593 147V144.872H66.2393V138.36H67.4153V147H66.3593ZM79.9553 147L79.9633 141.328C79.9633 140.661 79.7766 140.139 79.4033 139.76C79.0353 139.376 78.5659 139.184 77.9953 139.184C77.6699 139.184 77.3526 139.259 77.0433 139.408C76.7339 139.557 76.4779 139.797 76.2753 140.128C76.0779 140.459 75.9793 140.891 75.9793 141.424L75.2833 141.224C75.2673 140.605 75.3873 140.064 75.6433 139.6C75.9046 139.136 76.2619 138.776 76.7153 138.52C77.1739 138.259 77.6913 138.128 78.2673 138.128C79.1366 138.128 79.8326 138.397 80.3553 138.936C80.8779 139.469 81.1393 140.192 81.1393 141.104L81.1313 147H79.9553ZM69.6433 147V138.36H70.6993V140.488H70.8273V147H69.6433ZM74.8113 147L74.8193 141.408C74.8193 140.72 74.6353 140.179 74.2673 139.784C73.9046 139.384 73.4246 139.184 72.8273 139.184C72.2299 139.184 71.7473 139.389 71.3793 139.8C71.0113 140.205 70.8273 140.747 70.8273 141.424L70.1233 141.04C70.1233 140.485 70.2539 139.989 70.5153 139.552C70.7766 139.109 71.1339 138.763 71.5873 138.512C72.0406 138.256 72.5553 138.128 73.1313 138.128C73.6806 138.128 74.1686 138.245 74.5953 138.48C75.0273 138.715 75.3659 139.056 75.6113 139.504C75.8566 139.952 75.9793 140.496 75.9793 141.136L75.9713 147H74.8113ZM87.2729 147V137.72C87.2729 137.496 87.2835 137.275 87.3049 137.056C87.3315 136.837 87.3822 136.629 87.4569 136.432C87.5315 136.229 87.6489 136.043 87.8089 135.872C87.9849 135.68 88.1769 135.541 88.3849 135.456C88.5929 135.365 88.8089 135.307 89.0329 135.28C89.2622 135.253 89.4862 135.24 89.7049 135.24H90.8089V136.232H89.7849C89.3369 136.232 89.0009 136.341 88.7769 136.56C88.5582 136.779 88.4489 137.123 88.4489 137.592V147H87.2729ZM85.7769 139.368V138.36H90.8089V139.368H85.7769ZM94.3264 147.24C93.6757 147.24 93.129 147.123 92.6864 146.888C92.249 146.653 91.921 146.341 91.7024 145.952C91.4837 145.563 91.3744 145.139 91.3744 144.68C91.3744 144.211 91.4677 143.811 91.6544 143.48C91.8464 143.144 92.105 142.869 92.4304 142.656C92.761 142.443 93.1424 142.28 93.5744 142.168C94.0117 142.061 94.4944 141.968 95.0224 141.888C95.5557 141.803 96.0757 141.731 96.5824 141.672C97.0944 141.608 97.5424 141.547 97.9264 141.488L97.5104 141.744C97.5264 140.891 97.361 140.259 97.0144 139.848C96.6677 139.437 96.065 139.232 95.2064 139.232C94.6144 139.232 94.113 139.365 93.7024 139.632C93.297 139.899 93.0117 140.32 92.8464 140.896L91.7024 140.56C91.8997 139.787 92.297 139.187 92.8944 138.76C93.4917 138.333 94.2677 138.12 95.2224 138.12C96.0117 138.12 96.681 138.269 97.2304 138.568C97.785 138.861 98.177 139.288 98.4064 139.848C98.513 140.099 98.5824 140.379 98.6144 140.688C98.6464 140.997 98.6624 141.312 98.6624 141.632V147H97.6144V144.832L97.9184 144.96C97.625 145.701 97.169 146.267 96.5504 146.656C95.9317 147.045 95.1904 147.24 94.3264 147.24ZM94.4624 146.224C95.0117 146.224 95.4917 146.125 95.9024 145.928C96.313 145.731 96.6437 145.461 96.8944 145.12C97.145 144.773 97.3077 144.384 97.3824 143.952C97.4464 143.675 97.481 143.371 97.4864 143.04C97.4917 142.704 97.4944 142.453 97.4944 142.288L97.9424 142.52C97.5424 142.573 97.1077 142.627 96.6384 142.68C96.1744 142.733 95.7157 142.795 95.2624 142.864C94.8144 142.933 94.409 143.016 94.0464 143.112C93.801 143.181 93.5637 143.28 93.3344 143.408C93.105 143.531 92.9157 143.696 92.7664 143.904C92.6224 144.112 92.5504 144.371 92.5504 144.68C92.5504 144.931 92.6117 145.173 92.7344 145.408C92.8624 145.643 93.065 145.837 93.3424 145.992C93.625 146.147 93.9984 146.224 94.4624 146.224ZM111.049 147L111.057 141.328C111.057 140.661 110.87 140.139 110.497 139.76C110.129 139.376 109.66 139.184 109.089 139.184C108.764 139.184 108.446 139.259 108.137 139.408C107.828 139.557 107.572 139.797 107.369 140.128C107.172 140.459 107.073 140.891 107.073 141.424L106.377 141.224C106.361 140.605 106.481 140.064 106.737 139.6C106.998 139.136 107.356 138.776 107.809 138.52C108.268 138.259 108.785 138.128 109.361 138.128C110.23 138.128 110.926 138.397 111.449 138.936C111.972 139.469 112.233 140.192 112.233 141.104L112.225 147H111.049ZM100.737 147V138.36H101.793V140.488H101.921V147H100.737ZM105.905 147L105.913 141.408C105.913 140.72 105.729 140.179 105.361 139.784C104.998 139.384 104.518 139.184 103.921 139.184C103.324 139.184 102.841 139.389 102.473 139.8C102.105 140.205 101.921 140.747 101.921 141.424L101.217 141.04C101.217 140.485 101.348 139.989 101.609 139.552C101.87 139.109 102.228 138.763 102.681 138.512C103.134 138.256 103.649 138.128 104.225 138.128C104.774 138.128 105.262 138.245 105.689 138.48C106.121 138.715 106.46 139.056 106.705 139.504C106.95 139.952 107.073 140.496 107.073 141.136L107.065 147H105.905ZM117.917 147.24C117.074 147.24 116.343 147.053 115.725 146.68C115.111 146.307 114.634 145.781 114.293 145.104C113.951 144.427 113.781 143.632 113.781 142.72C113.781 141.776 113.949 140.96 114.285 140.272C114.621 139.584 115.093 139.053 115.701 138.68C116.314 138.307 117.037 138.12 117.869 138.12C118.722 138.12 119.45 138.317 120.053 138.712C120.655 139.101 121.111 139.661 121.421 140.392C121.73 141.123 121.871 141.995 121.845 143.008H120.645V142.592C120.623 141.472 120.381 140.627 119.917 140.056C119.458 139.485 118.786 139.2 117.901 139.2C116.973 139.2 116.261 139.501 115.765 140.104C115.274 140.707 115.029 141.565 115.029 142.68C115.029 143.768 115.274 144.613 115.765 145.216C116.261 145.813 116.962 146.112 117.869 146.112C118.487 146.112 119.026 145.971 119.485 145.688C119.949 145.4 120.314 144.987 120.581 144.448L121.677 144.872C121.335 145.624 120.831 146.208 120.165 146.624C119.503 147.035 118.754 147.24 117.917 147.24ZM114.613 143.008V142.024H121.213V143.008H114.613ZM126.844 147.232C125.831 147.232 124.996 147.013 124.34 146.576C123.689 146.139 123.289 145.531 123.14 144.752L124.34 144.552C124.468 145.043 124.759 145.435 125.212 145.728C125.671 146.016 126.236 146.16 126.908 146.16C127.564 146.16 128.081 146.024 128.46 145.752C128.839 145.475 129.028 145.099 129.028 144.624C129.028 144.357 128.967 144.141 128.844 143.976C128.727 143.805 128.484 143.648 128.116 143.504C127.748 143.36 127.199 143.189 126.468 142.992C125.684 142.779 125.071 142.565 124.628 142.352C124.185 142.139 123.871 141.893 123.684 141.616C123.497 141.333 123.404 140.989 123.404 140.584C123.404 140.093 123.543 139.664 123.82 139.296C124.097 138.923 124.481 138.635 124.972 138.432C125.463 138.224 126.033 138.12 126.684 138.12C127.335 138.12 127.916 138.227 128.428 138.44C128.945 138.648 129.361 138.941 129.676 139.32C129.991 139.699 130.177 140.139 130.236 140.64L129.036 140.856C128.956 140.349 128.703 139.949 128.276 139.656C127.855 139.357 127.319 139.203 126.668 139.192C126.055 139.176 125.556 139.293 125.172 139.544C124.788 139.789 124.596 140.117 124.596 140.528C124.596 140.757 124.665 140.955 124.804 141.12C124.943 141.28 125.193 141.432 125.556 141.576C125.924 141.72 126.447 141.877 127.124 142.048C127.919 142.251 128.543 142.464 128.996 142.688C129.449 142.912 129.772 143.176 129.964 143.48C130.156 143.784 130.252 144.16 130.252 144.608C130.252 145.424 129.948 146.067 129.34 146.536C128.737 147 127.905 147.232 126.844 147.232ZM132.25 147V145.632H133.618V147H132.25Z" fill="#565973"/>
<defs>
<linearGradient id="paint0_linear_4634_10132" x1="16" y1="30.0492" x2="44" y2="30.0492" gradientUnits="userSpaceOnUse">
<stop stop-color="#6366F1"/>
<stop offset="0.5" stop-color="#8B5CF6"/>
<stop offset="1" stop-color="#D946EF"/>
</linearGradient>
</defs>
</svg>
