<svg width="345" height="118" viewBox="0 0 345 118" fill="none" xmlns="http://www.w3.org/2000/svg">
<rect width="60" height="60" rx="8" fill="#6366F1" fill-opacity="0.08"/>
<g clip-path="url(#clip0_20005128_7808)">
<path d="M29.9452 44C29.7775 44 29.6101 43.9615 29.456 43.8846C29.3281 43.8206 26.2865 42.2784 23.1042 38.8192C21.2388 36.7919 19.7067 34.5186 18.5502 32.0625C17.1056 28.9949 16.2484 25.6363 16.0016 22.0801C15.9816 21.79 16.0779 21.504 16.2691 21.285C16.4605 21.0661 16.7309 20.9321 17.0213 20.9131C19.0244 20.7815 20.5937 19.1039 20.5937 17.0938C20.5937 16.4896 21.0833 16 21.6874 16H38.3124C38.9163 16 39.4062 16.4896 39.4062 17.0938C39.4062 19.1027 40.9744 20.7802 42.9765 20.9131C43.2713 20.9326 43.5455 21.0706 43.737 21.2955C43.9286 21.5204 44.0209 21.8133 43.9931 22.1075C43.619 26.0561 42.5287 29.7492 40.7522 33.0845C40.4681 33.6177 39.8057 33.8196 39.2727 33.5357C38.7395 33.2518 38.5376 32.5893 38.8215 32.0561C40.3096 29.2624 41.2767 26.1905 41.702 22.9116C39.4624 22.3211 37.7418 20.469 37.3189 18.1875H22.681C22.2563 20.4788 20.5232 22.3367 18.2697 22.9188C18.8445 28.4367 20.9893 33.2612 24.6529 37.2717C26.846 39.6722 28.9961 41.0885 29.939 41.6491C30.9708 41.0215 33.4662 39.3349 35.8955 36.4106C36.2815 35.9458 36.9709 35.8821 37.4357 36.2681C37.9003 36.6541 37.9642 37.3437 37.5782 37.8083C34.1209 41.9702 30.5921 43.8039 30.4434 43.8799C30.287 43.9601 30.1161 44 29.9452 44ZM30.7912 38.0809C31.1554 37.5988 31.0599 36.9131 30.5782 36.5488C29.6325 35.8343 28.7376 35.024 27.9182 34.1409C25.5356 31.5723 23.9191 28.5544 23.1072 25.1617C23.5447 24.8237 23.9563 24.4503 24.3364 24.0461C24.9665 23.3755 25.5047 22.6268 25.9357 21.8202C26.2203 21.2874 26.0191 20.6247 25.4863 20.34C24.9535 20.0554 24.2909 20.2567 24.0063 20.7894C23.666 21.426 23.2409 22.0175 22.7427 22.5478C22.3035 23.015 21.8113 23.4296 21.2803 23.7806C20.9077 24.0267 20.7221 24.4746 20.8116 24.9124C21.6443 28.9842 23.4955 32.5898 26.3145 35.6285C27.2207 36.6054 28.2115 37.5024 29.2593 38.2941C29.4567 38.4432 29.6883 38.5152 29.9179 38.5152C30.249 38.5152 30.5763 38.3655 30.7912 38.0809Z" fill="url(#paint0_linear_20005128_7808)"/>
</g>
<path d="M85.4 22V7.6H90.06C90.1733 7.6 90.4067 7.60333 90.76 7.61C91.1133 7.61667 91.4533 7.64 91.78 7.68C92.94 7.82 93.9233 8.22333 94.73 8.89C95.5367 9.55667 96.15 10.4033 96.57 11.43C96.99 12.4567 97.2 13.58 97.2 14.8C97.2 16.02 96.99 17.1433 96.57 18.17C96.15 19.1967 95.5367 20.0433 94.73 20.71C93.9233 21.3767 92.94 21.78 91.78 21.92C91.4533 21.96 91.1133 21.9833 90.76 21.99C90.4067 21.9967 90.1733 22 90.06 22H85.4ZM88.16 19.44H90.06C90.24 19.44 90.4833 19.4367 90.79 19.43C91.0967 19.4167 91.3733 19.3867 91.62 19.34C92.2467 19.2133 92.7567 18.92 93.15 18.46C93.55 18 93.8433 17.4467 94.03 16.8C94.2233 16.1533 94.32 15.4867 94.32 14.8C94.32 14.08 94.22 13.3967 94.02 12.75C93.8267 12.1033 93.53 11.5567 93.13 11.11C92.73 10.6633 92.2267 10.38 91.62 10.26C91.3733 10.2067 91.0967 10.1767 90.79 10.17C90.4833 10.1633 90.24 10.16 90.06 10.16H88.16V19.44ZM102.599 22.3C101.826 22.3 101.169 22.1533 100.629 21.86C100.096 21.56 99.6892 21.1633 99.4092 20.67C99.1359 20.17 98.9992 19.62 98.9992 19.02C98.9992 18.52 99.0759 18.0633 99.2292 17.65C99.3826 17.2367 99.6292 16.8733 99.9692 16.56C100.316 16.24 100.779 15.9733 101.359 15.76C101.759 15.6133 102.236 15.4833 102.789 15.37C103.343 15.2567 103.969 15.15 104.669 15.05C105.369 14.9433 106.139 14.8267 106.979 14.7L105.999 15.24C105.999 14.6 105.846 14.13 105.539 13.83C105.233 13.53 104.719 13.38 103.999 13.38C103.599 13.38 103.183 13.4767 102.749 13.67C102.316 13.8633 102.013 14.2067 101.839 14.7L99.3792 13.92C99.6526 13.0267 100.166 12.3 100.919 11.74C101.673 11.18 102.699 10.9 103.999 10.9C104.953 10.9 105.799 11.0467 106.539 11.34C107.279 11.6333 107.839 12.14 108.219 12.86C108.433 13.26 108.559 13.66 108.599 14.06C108.639 14.46 108.659 14.9067 108.659 15.4V22H106.279V19.78L106.619 20.24C106.093 20.9667 105.523 21.4933 104.909 21.82C104.303 22.14 103.533 22.3 102.599 22.3ZM103.179 20.16C103.679 20.16 104.099 20.0733 104.439 19.9C104.786 19.72 105.059 19.5167 105.259 19.29C105.466 19.0633 105.606 18.8733 105.679 18.72C105.819 18.4267 105.899 18.0867 105.919 17.7C105.946 17.3067 105.959 16.98 105.959 16.72L106.759 16.92C105.953 17.0533 105.299 17.1667 104.799 17.26C104.299 17.3467 103.896 17.4267 103.589 17.5C103.283 17.5733 103.013 17.6533 102.779 17.74C102.513 17.8467 102.296 17.9633 102.129 18.09C101.969 18.21 101.849 18.3433 101.769 18.49C101.696 18.6367 101.659 18.8 101.659 18.98C101.659 19.2267 101.719 19.44 101.839 19.62C101.966 19.7933 102.143 19.9267 102.369 20.02C102.596 20.1133 102.866 20.16 103.179 20.16ZM117.739 22C116.993 22.14 116.259 22.2 115.539 22.18C114.826 22.1667 114.186 22.0433 113.619 21.81C113.059 21.57 112.633 21.1867 112.339 20.66C112.073 20.1667 111.933 19.6667 111.919 19.16C111.906 18.6467 111.899 18.0667 111.899 17.42V8.2H114.619V17.26C114.619 17.68 114.623 18.06 114.629 18.4C114.643 18.7333 114.713 19 114.839 19.2C115.079 19.58 115.463 19.7867 115.989 19.82C116.516 19.8533 117.099 19.8267 117.739 19.74V22ZM110.059 13.3V11.2H117.739V13.3H110.059ZM123.146 22.3C122.373 22.3 121.716 22.1533 121.176 21.86C120.643 21.56 120.236 21.1633 119.956 20.67C119.683 20.17 119.546 19.62 119.546 19.02C119.546 18.52 119.623 18.0633 119.776 17.65C119.929 17.2367 120.176 16.8733 120.516 16.56C120.863 16.24 121.326 15.9733 121.906 15.76C122.306 15.6133 122.783 15.4833 123.336 15.37C123.889 15.2567 124.516 15.15 125.216 15.05C125.916 14.9433 126.686 14.8267 127.526 14.7L126.546 15.24C126.546 14.6 126.393 14.13 126.086 13.83C125.779 13.53 125.266 13.38 124.546 13.38C124.146 13.38 123.729 13.4767 123.296 13.67C122.863 13.8633 122.559 14.2067 122.386 14.7L119.926 13.92C120.199 13.0267 120.713 12.3 121.466 11.74C122.219 11.18 123.246 10.9 124.546 10.9C125.499 10.9 126.346 11.0467 127.086 11.34C127.826 11.6333 128.386 12.14 128.766 12.86C128.979 13.26 129.106 13.66 129.146 14.06C129.186 14.46 129.206 14.9067 129.206 15.4V22H126.826V19.78L127.166 20.24C126.639 20.9667 126.069 21.4933 125.456 21.82C124.849 22.14 124.079 22.3 123.146 22.3ZM123.726 20.16C124.226 20.16 124.646 20.0733 124.986 19.9C125.333 19.72 125.606 19.5167 125.806 19.29C126.013 19.0633 126.153 18.8733 126.226 18.72C126.366 18.4267 126.446 18.0867 126.466 17.7C126.493 17.3067 126.506 16.98 126.506 16.72L127.306 16.92C126.499 17.0533 125.846 17.1667 125.346 17.26C124.846 17.3467 124.443 17.4267 124.136 17.5C123.829 17.5733 123.559 17.6533 123.326 17.74C123.059 17.8467 122.843 17.9633 122.676 18.09C122.516 18.21 122.396 18.3433 122.316 18.49C122.243 18.6367 122.206 18.8 122.206 18.98C122.206 19.2267 122.266 19.44 122.386 19.62C122.513 19.7933 122.689 19.9267 122.916 20.02C123.143 20.1133 123.413 20.16 123.726 20.16ZM141.25 22.3C140.183 22.3 139.22 22.1133 138.36 21.74C137.507 21.36 136.803 20.82 136.25 20.12C135.703 19.4133 135.357 18.5733 135.21 17.6L138.05 17.18C138.25 18.0067 138.663 18.6433 139.29 19.09C139.917 19.5367 140.63 19.76 141.43 19.76C141.877 19.76 142.31 19.69 142.73 19.55C143.15 19.41 143.493 19.2033 143.76 18.93C144.033 18.6567 144.17 18.32 144.17 17.92C144.17 17.7733 144.147 17.6333 144.1 17.5C144.06 17.36 143.99 17.23 143.89 17.11C143.79 16.99 143.647 16.8767 143.46 16.77C143.28 16.6633 143.05 16.5667 142.77 16.48L139.03 15.38C138.75 15.3 138.423 15.1867 138.05 15.04C137.683 14.8933 137.327 14.6833 136.98 14.41C136.633 14.1367 136.343 13.7767 136.11 13.33C135.883 12.8767 135.77 12.3067 135.77 11.62C135.77 10.6533 136.013 9.85 136.5 9.21C136.987 8.57 137.637 8.09333 138.45 7.78C139.263 7.46667 140.163 7.31333 141.15 7.32C142.143 7.33333 143.03 7.50333 143.81 7.83C144.59 8.15667 145.243 8.63333 145.77 9.26C146.297 9.88 146.677 10.64 146.91 11.54L143.97 12.04C143.863 11.5733 143.667 11.18 143.38 10.86C143.093 10.54 142.75 10.2967 142.35 10.13C141.957 9.96333 141.543 9.87333 141.11 9.86C140.683 9.84667 140.28 9.90667 139.9 10.04C139.527 10.1667 139.22 10.3533 138.98 10.6C138.747 10.8467 138.63 11.14 138.63 11.48C138.63 11.7933 138.727 12.05 138.92 12.25C139.113 12.4433 139.357 12.6 139.65 12.72C139.943 12.84 140.243 12.94 140.55 13.02L143.05 13.7C143.423 13.8 143.837 13.9333 144.29 14.1C144.743 14.26 145.177 14.4867 145.59 14.78C146.01 15.0667 146.353 15.4467 146.62 15.92C146.893 16.3933 147.03 16.9933 147.03 17.72C147.03 18.4933 146.867 19.17 146.54 19.75C146.22 20.3233 145.787 20.8 145.24 21.18C144.693 21.5533 144.073 21.8333 143.38 22.02C142.693 22.2067 141.983 22.3 141.25 22.3ZM154.248 22.3C153.141 22.3 152.165 22.0633 151.318 21.59C150.478 21.11 149.818 20.4533 149.338 19.62C148.865 18.78 148.628 17.82 148.628 16.74C148.628 15.56 148.861 14.5333 149.328 13.66C149.795 12.7867 150.438 12.11 151.258 11.63C152.078 11.1433 153.021 10.9 154.088 10.9C155.221 10.9 156.185 11.1667 156.978 11.7C157.771 12.2333 158.358 12.9833 158.738 13.95C159.118 14.9167 159.251 16.0533 159.138 17.36H156.448V16.36C156.448 15.26 156.271 14.47 155.918 13.99C155.571 13.5033 155.001 13.26 154.208 13.26C153.281 13.26 152.598 13.5433 152.158 14.11C151.725 14.67 151.508 15.5 151.508 16.6C151.508 17.6067 151.725 18.3867 152.158 18.94C152.598 19.4867 153.241 19.76 154.088 19.76C154.621 19.76 155.078 19.6433 155.458 19.41C155.838 19.1767 156.128 18.84 156.328 18.4L159.048 19.18C158.641 20.1667 157.998 20.9333 157.118 21.48C156.245 22.0267 155.288 22.3 154.248 22.3ZM150.668 17.36V15.34H157.828V17.36H150.668ZM166.156 22.3C165.036 22.3 164.076 22.05 163.276 21.55C162.476 21.05 161.863 20.37 161.436 19.51C161.009 18.65 160.796 17.68 160.796 16.6C160.796 15.5067 161.016 14.53 161.456 13.67C161.903 12.81 162.529 12.1333 163.336 11.64C164.143 11.1467 165.096 10.9 166.196 10.9C167.469 10.9 168.536 11.2233 169.396 11.87C170.263 12.51 170.816 13.3867 171.056 14.5L168.336 15.22C168.176 14.66 167.896 14.2233 167.496 13.91C167.103 13.5967 166.656 13.44 166.156 13.44C165.583 13.44 165.113 13.58 164.746 13.86C164.379 14.1333 164.109 14.51 163.936 14.99C163.763 15.4633 163.676 16 163.676 16.6C163.676 17.54 163.883 18.3033 164.296 18.89C164.716 19.47 165.336 19.76 166.156 19.76C166.769 19.76 167.236 19.62 167.556 19.34C167.876 19.06 168.116 18.66 168.276 18.14L171.056 18.72C170.749 19.8667 170.169 20.75 169.316 21.37C168.463 21.99 167.409 22.3 166.156 22.3ZM177.076 22.32C176.23 22.32 175.54 22.1767 175.006 21.89C174.473 21.6033 174.056 21.24 173.756 20.8C173.463 20.36 173.253 19.9033 173.126 19.43C173 18.95 172.923 18.5133 172.896 18.12C172.87 17.7267 172.856 17.44 172.856 17.26V11.2H175.616V16.3C175.616 16.5467 175.63 16.8633 175.656 17.25C175.683 17.63 175.766 18.0133 175.906 18.4C176.046 18.7867 176.273 19.11 176.586 19.37C176.906 19.63 177.356 19.76 177.936 19.76C178.17 19.76 178.42 19.7233 178.686 19.65C178.953 19.5767 179.203 19.4367 179.436 19.23C179.67 19.0167 179.86 18.7067 180.006 18.3C180.16 17.8867 180.236 17.3467 180.236 16.68L181.796 17.42C181.796 18.2733 181.623 19.0733 181.276 19.82C180.93 20.5667 180.406 21.17 179.706 21.63C179.013 22.09 178.136 22.32 177.076 22.32ZM180.576 22V18.42H180.236V11.2H182.976V22H180.576ZM185.771 22V11.2H188.171V13.84L187.911 13.5C188.051 13.1267 188.238 12.7867 188.471 12.48C188.704 12.1733 188.991 11.92 189.331 11.72C189.591 11.56 189.874 11.4367 190.181 11.35C190.488 11.2567 190.804 11.2 191.131 11.18C191.458 11.1533 191.784 11.16 192.111 11.2V13.74C191.811 13.6467 191.461 13.6167 191.061 13.65C190.668 13.6767 190.311 13.7667 189.991 13.92C189.671 14.0667 189.401 14.2633 189.181 14.51C188.961 14.75 188.794 15.0367 188.681 15.37C188.568 15.6967 188.511 16.0667 188.511 16.48V22H185.771ZM194.213 9.7V7.3H196.933V9.7H194.213ZM194.213 22V11.2H196.933V22H194.213ZM206.411 22C205.665 22.14 204.931 22.2 204.211 22.18C203.498 22.1667 202.858 22.0433 202.291 21.81C201.731 21.57 201.305 21.1867 201.011 20.66C200.745 20.1667 200.605 19.6667 200.591 19.16C200.578 18.6467 200.571 18.0667 200.571 17.42V8.2H203.291V17.26C203.291 17.68 203.295 18.06 203.301 18.4C203.315 18.7333 203.385 19 203.511 19.2C203.751 19.58 204.135 19.7867 204.661 19.82C205.188 19.8533 205.771 19.8267 206.411 19.74V22ZM198.731 13.3V11.2H206.411V13.3H198.731ZM209.905 26.8L211.985 21.08L212.025 22.76L207.325 11.2H210.145L213.305 19.38H212.665L215.805 11.2H218.525L212.425 26.8H209.905Z" fill="white"/>
<path opacity="0.7" d="M84.32 59L88.288 47.48H89.848L93.816 59H92.592L88.824 48.136H89.288L85.544 59H84.32ZM86.088 56.208V55.104H92.04V56.208H86.088ZM98.5646 59.216C98.0473 59.216 97.594 59.136 97.2046 58.976C96.8206 58.816 96.4926 58.6 96.2206 58.328C95.954 58.056 95.738 57.7467 95.5726 57.4C95.4073 57.048 95.2873 56.6773 95.2126 56.288C95.138 55.8933 95.1006 55.5013 95.1006 55.112V50.36H96.2846V54.768C96.2846 55.2427 96.33 55.6827 96.4206 56.088C96.5113 56.4933 96.6553 56.848 96.8526 57.152C97.0553 57.4507 97.314 57.6827 97.6286 57.848C97.9486 58.0133 98.3353 58.096 98.7886 58.096C99.2046 58.096 99.57 58.024 99.8846 57.88C100.205 57.736 100.471 57.5307 100.685 57.264C100.903 56.992 101.069 56.664 101.181 56.28C101.293 55.8907 101.349 55.4533 101.349 54.968L102.181 55.152C102.181 56.0373 102.026 56.7813 101.717 57.384C101.407 57.9867 100.981 58.4427 100.437 58.752C99.8926 59.0613 99.2686 59.216 98.5646 59.216ZM101.469 59V56.872H101.349V50.36H102.525V59H101.469ZM108.193 63.08C107.75 63.08 107.313 63.0133 106.881 62.88C106.454 62.752 106.059 62.5467 105.697 62.264C105.334 61.9867 105.03 61.624 104.785 61.176L105.849 60.584C106.089 61.064 106.425 61.408 106.857 61.616C107.294 61.8293 107.739 61.936 108.193 61.936C108.817 61.936 109.321 61.8187 109.705 61.584C110.094 61.3547 110.377 61.0133 110.553 60.56C110.729 60.1067 110.814 59.5413 110.809 58.864V56.56H110.945V50.36H111.993V58.88C111.993 59.1253 111.985 59.36 111.969 59.584C111.958 59.8133 111.934 60.0373 111.897 60.256C111.795 60.9013 111.585 61.432 111.265 61.848C110.95 62.264 110.534 62.5733 110.017 62.776C109.505 62.9787 108.897 63.08 108.193 63.08ZM108.113 59.24C107.307 59.24 106.619 59.04 106.049 58.64C105.478 58.2347 105.041 57.688 104.737 57C104.433 56.312 104.281 55.536 104.281 54.672C104.281 53.8133 104.43 53.04 104.729 52.352C105.033 51.664 105.467 51.12 106.033 50.72C106.598 50.32 107.275 50.12 108.065 50.12C108.875 50.12 109.558 50.3173 110.113 50.712C110.667 51.1067 111.086 51.648 111.369 52.336C111.657 53.0187 111.801 53.7973 111.801 54.672C111.801 55.5307 111.659 56.3067 111.377 57C111.094 57.688 110.678 58.2347 110.129 58.64C109.579 59.04 108.907 59.24 108.113 59.24ZM108.233 58.144C108.846 58.144 109.353 57.9947 109.753 57.696C110.153 57.3973 110.451 56.9867 110.649 56.464C110.846 55.936 110.945 55.3387 110.945 54.672C110.945 53.9947 110.846 53.3973 110.649 52.88C110.451 52.3573 110.153 51.9493 109.753 51.656C109.358 51.3627 108.859 51.216 108.257 51.216C107.638 51.216 107.126 51.368 106.721 51.672C106.315 51.976 106.014 52.3893 105.817 52.912C105.625 53.4347 105.529 54.0213 105.529 54.672C105.529 55.328 105.627 55.92 105.825 56.448C106.027 56.9707 106.329 57.384 106.729 57.688C107.129 57.992 107.63 58.144 108.233 58.144ZM117.533 59.216C117.016 59.216 116.563 59.136 116.173 58.976C115.789 58.816 115.461 58.6 115.189 58.328C114.923 58.056 114.707 57.7467 114.541 57.4C114.376 57.048 114.256 56.6773 114.181 56.288C114.107 55.8933 114.069 55.5013 114.069 55.112V50.36H115.253V54.768C115.253 55.2427 115.299 55.6827 115.389 56.088C115.48 56.4933 115.624 56.848 115.821 57.152C116.024 57.4507 116.283 57.6827 116.597 57.848C116.917 58.0133 117.304 58.096 117.757 58.096C118.173 58.096 118.539 58.024 118.853 57.88C119.173 57.736 119.44 57.5307 119.653 57.264C119.872 56.992 120.037 56.664 120.149 56.28C120.261 55.8907 120.317 55.4533 120.317 54.968L121.149 55.152C121.149 56.0373 120.995 56.7813 120.685 57.384C120.376 57.9867 119.949 58.4427 119.405 58.752C118.861 59.0613 118.237 59.216 117.533 59.216ZM120.437 59V56.872H120.317V50.36H121.493V59H120.437ZM127.385 59.24C126.543 59.24 125.812 59.0533 125.193 58.68C124.58 58.3067 124.103 57.7813 123.761 57.104C123.42 56.4267 123.249 55.632 123.249 54.72C123.249 53.776 123.417 52.96 123.753 52.272C124.089 51.584 124.561 51.0533 125.169 50.68C125.783 50.3067 126.505 50.12 127.337 50.12C128.191 50.12 128.919 50.3173 129.521 50.712C130.124 51.1013 130.58 51.6613 130.889 52.392C131.199 53.1227 131.34 53.9947 131.313 55.008H130.113V54.592C130.092 53.472 129.849 52.6267 129.385 52.056C128.927 51.4853 128.255 51.2 127.369 51.2C126.441 51.2 125.729 51.5013 125.233 52.104C124.743 52.7067 124.497 53.5653 124.497 54.68C124.497 55.768 124.743 56.6133 125.233 57.216C125.729 57.8133 126.431 58.112 127.337 58.112C127.956 58.112 128.495 57.9707 128.953 57.688C129.417 57.4 129.783 56.9867 130.049 56.448L131.145 56.872C130.804 57.624 130.3 58.208 129.633 58.624C128.972 59.0347 128.223 59.24 127.385 59.24ZM124.081 55.008V54.024H130.681V55.008H124.081ZM140.172 59.24C139.377 59.24 138.705 59.04 138.156 58.64C137.607 58.2347 137.191 57.688 136.908 57C136.625 56.3067 136.484 55.5307 136.484 54.672C136.484 53.7973 136.625 53.0187 136.908 52.336C137.196 51.648 137.617 51.1067 138.172 50.712C138.727 50.3173 139.409 50.12 140.22 50.12C141.009 50.12 141.687 50.32 142.252 50.72C142.817 51.12 143.249 51.664 143.548 52.352C143.852 53.04 144.004 53.8133 144.004 54.672C144.004 55.536 143.852 56.312 143.548 57C143.244 57.688 142.807 58.2347 142.236 58.64C141.665 59.04 140.977 59.24 140.172 59.24ZM136.284 62.84V50.36H137.34V56.864H137.468V62.84H136.284ZM140.052 58.144C140.655 58.144 141.156 57.992 141.556 57.688C141.956 57.384 142.255 56.9707 142.452 56.448C142.655 55.92 142.756 55.328 142.756 54.672C142.756 54.0213 142.657 53.4347 142.46 52.912C142.263 52.3893 141.961 51.976 141.556 51.672C141.156 51.368 140.647 51.216 140.028 51.216C139.425 51.216 138.924 51.3627 138.524 51.656C138.129 51.9493 137.833 52.3573 137.636 52.88C137.439 53.3973 137.34 53.9947 137.34 54.672C137.34 55.3387 137.439 55.936 137.636 56.464C137.833 56.9867 138.132 57.3973 138.532 57.696C138.932 57.9947 139.439 58.144 140.052 58.144ZM149.065 59.216C148.547 59.216 148.094 59.136 147.705 58.976C147.321 58.816 146.993 58.6 146.721 58.328C146.454 58.056 146.238 57.7467 146.073 57.4C145.907 57.048 145.787 56.6773 145.713 56.288C145.638 55.8933 145.601 55.5013 145.601 55.112V50.36H146.785V54.768C146.785 55.2427 146.83 55.6827 146.921 56.088C147.011 56.4933 147.155 56.848 147.353 57.152C147.555 57.4507 147.814 57.6827 148.129 57.848C148.449 58.0133 148.835 58.096 149.289 58.096C149.705 58.096 150.07 58.024 150.385 57.88C150.705 57.736 150.971 57.5307 151.185 57.264C151.403 56.992 151.569 56.664 151.681 56.28C151.793 55.8907 151.849 55.4533 151.849 54.968L152.681 55.152C152.681 56.0373 152.526 56.7813 152.217 57.384C151.907 57.9867 151.481 58.4427 150.937 58.752C150.393 59.0613 149.769 59.216 149.065 59.216ZM151.969 59V56.872H151.849V50.36H153.025V59H151.969ZM155.421 59V47.24H156.597V59H155.421ZM161.331 59L158.195 50.36H159.387L161.939 57.464L164.475 50.36H165.683L162.547 59H161.331ZM167.28 48.72V47.4H168.456V48.72H167.28ZM167.28 59V50.36H168.456V59H167.28ZM177.094 59V54.592C177.094 54.112 177.049 53.672 176.958 53.272C176.868 52.8667 176.721 52.5147 176.518 52.216C176.321 51.912 176.062 51.6773 175.742 51.512C175.428 51.3467 175.044 51.264 174.59 51.264C174.174 51.264 173.806 51.336 173.486 51.48C173.172 51.624 172.905 51.832 172.686 52.104C172.473 52.3707 172.31 52.696 172.198 53.08C172.086 53.464 172.03 53.9013 172.03 54.392L171.198 54.208C171.198 53.3227 171.353 52.5787 171.662 51.976C171.972 51.3733 172.398 50.9173 172.942 50.608C173.486 50.2987 174.11 50.144 174.814 50.144C175.332 50.144 175.782 50.224 176.166 50.384C176.556 50.544 176.884 50.76 177.15 51.032C177.422 51.304 177.641 51.616 177.806 51.968C177.972 52.3147 178.092 52.6853 178.166 53.08C178.241 53.4693 178.278 53.8587 178.278 54.248V59H177.094ZM170.846 59V50.36H171.91V52.488H172.03V59H170.846ZM182.826 59.24C182.176 59.24 181.629 59.1227 181.186 58.888C180.749 58.6533 180.421 58.3413 180.202 57.952C179.984 57.5627 179.874 57.1387 179.874 56.68C179.874 56.2107 179.968 55.8107 180.154 55.48C180.346 55.144 180.605 54.8693 180.93 54.656C181.261 54.4427 181.642 54.28 182.074 54.168C182.512 54.0613 182.994 53.968 183.522 53.888C184.056 53.8027 184.576 53.7307 185.082 53.672C185.594 53.608 186.042 53.5467 186.426 53.488L186.01 53.744C186.026 52.8907 185.861 52.2587 185.514 51.848C185.168 51.4373 184.565 51.232 183.706 51.232C183.114 51.232 182.613 51.3653 182.202 51.632C181.797 51.8987 181.512 52.32 181.346 52.896L180.202 52.56C180.4 51.7867 180.797 51.1867 181.394 50.76C181.992 50.3333 182.768 50.12 183.722 50.12C184.512 50.12 185.181 50.2693 185.73 50.568C186.285 50.8613 186.677 51.288 186.906 51.848C187.013 52.0987 187.082 52.3787 187.114 52.688C187.146 52.9973 187.162 53.312 187.162 53.632V59H186.114V56.832L186.418 56.96C186.125 57.7013 185.669 58.2667 185.05 58.656C184.432 59.0453 183.69 59.24 182.826 59.24ZM182.962 58.224C183.512 58.224 183.992 58.1253 184.402 57.928C184.813 57.7307 185.144 57.4613 185.394 57.12C185.645 56.7733 185.808 56.384 185.882 55.952C185.946 55.6747 185.981 55.3707 185.986 55.04C185.992 54.704 185.994 54.4533 185.994 54.288L186.442 54.52C186.042 54.5733 185.608 54.6267 185.138 54.68C184.674 54.7333 184.216 54.7947 183.762 54.864C183.314 54.9333 182.909 55.016 182.546 55.112C182.301 55.1813 182.064 55.28 181.834 55.408C181.605 55.5307 181.416 55.696 181.266 55.904C181.122 56.112 181.05 56.3707 181.05 56.68C181.05 56.9307 181.112 57.1733 181.234 57.408C181.362 57.6427 181.565 57.8373 181.842 57.992C182.125 58.1467 182.498 58.224 182.962 58.224ZM189.245 59V50.36H190.301V52.44L190.093 52.168C190.189 51.912 190.314 51.6773 190.469 51.464C190.624 51.2453 190.792 51.0667 190.973 50.928C191.197 50.7307 191.458 50.5813 191.757 50.48C192.056 50.3733 192.357 50.312 192.661 50.296C192.965 50.2747 193.242 50.296 193.493 50.36V51.464C193.178 51.384 192.834 51.3653 192.461 51.408C192.088 51.4507 191.744 51.6 191.429 51.856C191.141 52.08 190.925 52.3493 190.781 52.664C190.637 52.9733 190.541 53.304 190.493 53.656C190.445 54.0027 190.421 54.3467 190.421 54.688V59H189.245ZM196.934 62.84V61.704H197.422C197.811 61.704 198.12 61.6027 198.35 61.4C198.584 61.2027 198.702 60.8693 198.702 60.4V50.36H199.87V60.696C199.87 61.416 199.696 61.952 199.35 62.304C199.008 62.6613 198.483 62.84 197.774 62.84H196.934ZM198.702 48.72V47.4H199.87V48.72H198.702ZM205.533 59.216C205.016 59.216 204.563 59.136 204.173 58.976C203.789 58.816 203.461 58.6 203.189 58.328C202.923 58.056 202.707 57.7467 202.541 57.4C202.376 57.048 202.256 56.6773 202.181 56.288C202.107 55.8933 202.069 55.5013 202.069 55.112V50.36H203.253V54.768C203.253 55.2427 203.299 55.6827 203.389 56.088C203.48 56.4933 203.624 56.848 203.821 57.152C204.024 57.4507 204.283 57.6827 204.597 57.848C204.917 58.0133 205.304 58.096 205.757 58.096C206.173 58.096 206.539 58.024 206.853 57.88C207.173 57.736 207.44 57.5307 207.653 57.264C207.872 56.992 208.037 56.664 208.149 56.28C208.261 55.8907 208.317 55.4533 208.317 54.968L209.149 55.152C209.149 56.0373 208.995 56.7813 208.685 57.384C208.376 57.9867 207.949 58.4427 207.405 58.752C206.861 59.0613 206.237 59.216 205.533 59.216ZM208.437 59V56.872H208.317V50.36H209.493V59H208.437ZM214.953 59.232C213.94 59.232 213.105 59.0133 212.449 58.576C211.799 58.1387 211.399 57.5307 211.249 56.752L212.449 56.552C212.577 57.0427 212.868 57.4347 213.321 57.728C213.78 58.016 214.345 58.16 215.017 58.16C215.673 58.16 216.191 58.024 216.569 57.752C216.948 57.4747 217.137 57.0987 217.137 56.624C217.137 56.3573 217.076 56.1413 216.953 55.976C216.836 55.8053 216.593 55.648 216.225 55.504C215.857 55.36 215.308 55.1893 214.577 54.992C213.793 54.7787 213.18 54.5653 212.737 54.352C212.295 54.1387 211.98 53.8933 211.793 53.616C211.607 53.3333 211.513 52.9893 211.513 52.584C211.513 52.0933 211.652 51.664 211.929 51.296C212.207 50.9227 212.591 50.6347 213.081 50.432C213.572 50.224 214.143 50.12 214.793 50.12C215.444 50.12 216.025 50.2267 216.537 50.44C217.055 50.648 217.471 50.9413 217.785 51.32C218.1 51.6987 218.287 52.1387 218.345 52.64L217.145 52.856C217.065 52.3493 216.812 51.9493 216.385 51.656C215.964 51.3573 215.428 51.2027 214.777 51.192C214.164 51.176 213.665 51.2933 213.281 51.544C212.897 51.7893 212.705 52.1173 212.705 52.528C212.705 52.7573 212.775 52.9547 212.913 53.12C213.052 53.28 213.303 53.432 213.665 53.576C214.033 53.72 214.556 53.8773 215.233 54.048C216.028 54.2507 216.652 54.464 217.105 54.688C217.559 54.912 217.881 55.176 218.073 55.48C218.265 55.784 218.361 56.16 218.361 56.608C218.361 57.424 218.057 58.0667 217.449 58.536C216.847 59 216.015 59.232 214.953 59.232ZM224.84 59C224.354 59.1013 223.874 59.1413 223.4 59.12C222.93 59.0987 222.509 58.9973 222.136 58.816C221.768 58.6347 221.488 58.352 221.296 57.968C221.141 57.648 221.056 57.3253 221.04 57C221.029 56.6693 221.024 56.2933 221.024 55.872V47.96H222.192V55.824C222.192 56.1867 222.194 56.4907 222.2 56.736C222.21 56.976 222.266 57.1893 222.368 57.376C222.56 57.7333 222.864 57.9467 223.28 58.016C223.701 58.0853 224.221 58.0693 224.84 57.968V59ZM219.176 51.368V50.36H224.84V51.368H219.176ZM229.837 59.24C228.979 59.24 228.245 59.0453 227.637 58.656C227.029 58.2667 226.563 57.728 226.237 57.04C225.912 56.352 225.749 55.5627 225.749 54.672C225.749 53.7653 225.915 52.9707 226.245 52.288C226.576 51.6053 227.045 51.0747 227.653 50.696C228.267 50.312 228.995 50.12 229.837 50.12C230.701 50.12 231.437 50.3147 232.045 50.704C232.659 51.088 233.125 51.624 233.445 52.312C233.771 52.9947 233.933 53.7813 233.933 54.672C233.933 55.5787 233.771 56.376 233.445 57.064C233.12 57.7467 232.651 58.28 232.037 58.664C231.424 59.048 230.691 59.24 229.837 59.24ZM229.837 58.112C230.797 58.112 231.512 57.7947 231.981 57.16C232.451 56.52 232.685 55.6907 232.685 54.672C232.685 53.6267 232.448 52.7947 231.973 52.176C231.504 51.5573 230.792 51.248 229.837 51.248C229.192 51.248 228.659 51.3947 228.237 51.688C227.821 51.976 227.509 52.3787 227.301 52.896C227.099 53.408 226.997 54 226.997 54.672C226.997 55.712 227.237 56.5467 227.717 57.176C228.197 57.8 228.904 58.112 229.837 58.112ZM235.226 60.672L235.298 60.088C235.511 60.104 235.666 60.0613 235.762 59.96C235.858 59.8587 235.916 59.7227 235.938 59.552C235.959 59.3813 235.964 59.1973 235.954 59H235.226V57.312H236.594V59.32C236.594 59.8107 236.468 60.1787 236.218 60.424C235.972 60.6693 235.642 60.752 235.226 60.672ZM243.695 59V49.72C243.695 49.496 243.705 49.2747 243.727 49.056C243.753 48.8373 243.804 48.6293 243.879 48.432C243.953 48.2293 244.071 48.0427 244.231 47.872C244.407 47.68 244.599 47.5413 244.807 47.456C245.015 47.3653 245.231 47.3067 245.455 47.28C245.684 47.2533 245.908 47.24 246.127 47.24H247.231V48.232H246.207C245.759 48.232 245.423 48.3413 245.199 48.56C244.98 48.7787 244.871 49.1227 244.871 49.592V59H243.695ZM242.199 51.368V50.36H247.231V51.368H242.199ZM251.854 59.24C251.011 59.24 250.281 59.0533 249.662 58.68C249.049 58.3067 248.571 57.7813 248.23 57.104C247.889 56.4267 247.718 55.632 247.718 54.72C247.718 53.776 247.886 52.96 248.222 52.272C248.558 51.584 249.03 51.0533 249.638 50.68C250.251 50.3067 250.974 50.12 251.806 50.12C252.659 50.12 253.387 50.3173 253.99 50.712C254.593 51.1013 255.049 51.6613 255.358 52.392C255.667 53.1227 255.809 53.9947 255.782 55.008H254.582V54.592C254.561 53.472 254.318 52.6267 253.854 52.056C253.395 51.4853 252.723 51.2 251.838 51.2C250.91 51.2 250.198 51.5013 249.702 52.104C249.211 52.7067 248.966 53.5653 248.966 54.68C248.966 55.768 249.211 56.6133 249.702 57.216C250.198 57.8133 250.899 58.112 251.806 58.112C252.425 58.112 252.963 57.9707 253.422 57.688C253.886 57.4 254.251 56.9867 254.518 56.448L255.614 56.872C255.273 57.624 254.769 58.208 254.102 58.624C253.441 59.0347 252.691 59.24 251.854 59.24ZM248.55 55.008V54.024H255.15V55.008H248.55ZM257.558 59V50.36H258.614V52.44L258.406 52.168C258.502 51.912 258.627 51.6773 258.782 51.464C258.936 51.2453 259.104 51.0667 259.286 50.928C259.51 50.7307 259.771 50.5813 260.07 50.48C260.368 50.3733 260.67 50.312 260.974 50.296C261.278 50.2747 261.555 50.296 261.806 50.36V51.464C261.491 51.384 261.147 51.3653 260.774 51.408C260.4 51.4507 260.056 51.6 259.742 51.856C259.454 52.08 259.238 52.3493 259.094 52.664C258.95 52.9733 258.854 53.304 258.806 53.656C258.758 54.0027 258.734 54.3467 258.734 54.688V59H257.558ZM273.627 59L273.635 53.328C273.635 52.6613 273.448 52.1387 273.075 51.76C272.707 51.376 272.238 51.184 271.667 51.184C271.342 51.184 271.024 51.2587 270.715 51.408C270.406 51.5573 270.15 51.7973 269.947 52.128C269.75 52.4587 269.651 52.8907 269.651 53.424L268.955 53.224C268.939 52.6053 269.059 52.064 269.315 51.6C269.576 51.136 269.934 50.776 270.387 50.52C270.846 50.2587 271.363 50.128 271.939 50.128C272.808 50.128 273.504 50.3973 274.027 50.936C274.55 51.4693 274.811 52.192 274.811 53.104L274.803 59H273.627ZM263.315 59V50.36H264.371V52.488H264.499V59H263.315ZM268.483 59L268.491 53.408C268.491 52.72 268.307 52.1787 267.939 51.784C267.576 51.384 267.096 51.184 266.499 51.184C265.902 51.184 265.419 51.3893 265.051 51.8C264.683 52.2053 264.499 52.7467 264.499 53.424L263.795 53.04C263.795 52.4853 263.926 51.9893 264.187 51.552C264.448 51.1093 264.806 50.7627 265.259 50.512C265.712 50.256 266.227 50.128 266.803 50.128C267.352 50.128 267.84 50.2453 268.267 50.48C268.699 50.7147 269.038 51.056 269.283 51.504C269.528 51.952 269.651 52.496 269.651 53.136L269.643 59H268.483ZM280.495 59.24C279.652 59.24 278.921 59.0533 278.303 58.68C277.689 58.3067 277.212 57.7813 276.871 57.104C276.529 56.4267 276.359 55.632 276.359 54.72C276.359 53.776 276.527 52.96 276.863 52.272C277.199 51.584 277.671 51.0533 278.279 50.68C278.892 50.3067 279.615 50.12 280.447 50.12C281.3 50.12 282.028 50.3173 282.631 50.712C283.233 51.1013 283.689 51.6613 283.999 52.392C284.308 53.1227 284.449 53.9947 284.423 55.008H283.223V54.592C283.201 53.472 282.959 52.6267 282.495 52.056C282.036 51.4853 281.364 51.2 280.479 51.2C279.551 51.2 278.839 51.5013 278.343 52.104C277.852 52.7067 277.607 53.5653 277.607 54.68C277.607 55.768 277.852 56.6133 278.343 57.216C278.839 57.8133 279.54 58.112 280.447 58.112C281.065 58.112 281.604 57.9707 282.063 57.688C282.527 57.4 282.892 56.9867 283.159 56.448L284.255 56.872C283.913 57.624 283.409 58.208 282.743 58.624C282.081 59.0347 281.332 59.24 280.495 59.24ZM277.191 55.008V54.024H283.791V55.008H277.191ZM292.204 59V54.592C292.204 54.112 292.158 53.672 292.068 53.272C291.977 52.8667 291.83 52.5147 291.628 52.216C291.43 51.912 291.172 51.6773 290.852 51.512C290.537 51.3467 290.153 51.264 289.7 51.264C289.284 51.264 288.916 51.336 288.596 51.48C288.281 51.624 288.014 51.832 287.796 52.104C287.582 52.3707 287.42 52.696 287.308 53.08C287.196 53.464 287.14 53.9013 287.14 54.392L286.308 54.208C286.308 53.3227 286.462 52.5787 286.772 51.976C287.081 51.3733 287.508 50.9173 288.052 50.608C288.596 50.2987 289.22 50.144 289.924 50.144C290.441 50.144 290.892 50.224 291.276 50.384C291.665 50.544 291.993 50.76 292.26 51.032C292.532 51.304 292.75 51.616 292.916 51.968C293.081 52.3147 293.201 52.6853 293.276 53.08C293.35 53.4693 293.388 53.8587 293.388 54.248V59H292.204ZM285.956 59V50.36H287.02V52.488H287.14V59H285.956ZM300.168 59C299.682 59.1013 299.202 59.1413 298.728 59.12C298.258 59.0987 297.837 58.9973 297.464 58.816C297.096 58.6347 296.816 58.352 296.624 57.968C296.469 57.648 296.384 57.3253 296.368 57C296.357 56.6693 296.352 56.2933 296.352 55.872V47.96H297.52V55.824C297.52 56.1867 297.522 56.4907 297.528 56.736C297.538 56.976 297.594 57.1893 297.696 57.376C297.888 57.7333 298.192 57.9467 298.608 58.016C299.029 58.0853 299.549 58.0693 300.168 57.968V59ZM294.504 51.368V50.36H300.168V51.368H294.504ZM305.174 59.216C304.657 59.216 304.203 59.136 303.814 58.976C303.43 58.816 303.102 58.6 302.83 58.328C302.563 58.056 302.347 57.7467 302.182 57.4C302.017 57.048 301.897 56.6773 301.822 56.288C301.747 55.8933 301.71 55.5013 301.71 55.112V50.36H302.894V54.768C302.894 55.2427 302.939 55.6827 303.03 56.088C303.121 56.4933 303.265 56.848 303.462 57.152C303.665 57.4507 303.923 57.6827 304.238 57.848C304.558 58.0133 304.945 58.096 305.398 58.096C305.814 58.096 306.179 58.024 306.494 57.88C306.814 57.736 307.081 57.5307 307.294 57.264C307.513 56.992 307.678 56.664 307.79 56.28C307.902 55.8907 307.958 55.4533 307.958 54.968L308.79 55.152C308.79 56.0373 308.635 56.7813 308.326 57.384C308.017 57.9867 307.59 58.4427 307.046 58.752C306.502 59.0613 305.878 59.216 305.174 59.216ZM308.078 59V56.872H307.958V50.36H309.134V59H308.078ZM321.674 59L321.682 53.328C321.682 52.6613 321.495 52.1387 321.122 51.76C320.754 51.376 320.285 51.184 319.714 51.184C319.389 51.184 319.071 51.2587 318.762 51.408C318.453 51.5573 318.197 51.7973 317.994 52.128C317.797 52.4587 317.698 52.8907 317.698 53.424L317.002 53.224C316.986 52.6053 317.106 52.064 317.362 51.6C317.623 51.136 317.981 50.776 318.434 50.52C318.893 50.2587 319.41 50.128 319.986 50.128C320.855 50.128 321.551 50.3973 322.074 50.936C322.597 51.4693 322.858 52.192 322.858 53.104L322.85 59H321.674ZM311.362 59V50.36H312.418V52.488H312.546V59H311.362ZM316.53 59L316.538 53.408C316.538 52.72 316.354 52.1787 315.986 51.784C315.623 51.384 315.143 51.184 314.546 51.184C313.949 51.184 313.466 51.3893 313.098 51.8C312.73 52.2053 312.546 52.7467 312.546 53.424L311.842 53.04C311.842 52.4853 311.973 51.9893 312.234 51.552C312.495 51.1093 312.853 50.7627 313.306 50.512C313.759 50.256 314.274 50.128 314.85 50.128C315.399 50.128 315.887 50.2453 316.314 50.48C316.746 50.7147 317.085 51.056 317.33 51.504C317.575 51.952 317.698 52.496 317.698 53.136L317.69 59H316.53ZM85.976 85V75.72C85.976 75.496 85.9867 75.2747 86.008 75.056C86.0347 74.8373 86.0853 74.6293 86.16 74.432C86.2347 74.2293 86.352 74.0427 86.512 73.872C86.688 73.68 86.88 73.5413 87.088 73.456C87.296 73.3653 87.512 73.3067 87.736 73.28C87.9653 73.2533 88.1893 73.24 88.408 73.24H89.512V74.232H88.488C88.04 74.232 87.704 74.3413 87.48 74.56C87.2613 74.7787 87.152 75.1227 87.152 75.592V85H85.976ZM84.48 77.368V76.36H89.512V77.368H84.48ZM93.0295 85.24C92.3788 85.24 91.8322 85.1227 91.3895 84.888C90.9522 84.6533 90.6242 84.3413 90.4055 83.952C90.1868 83.5627 90.0775 83.1387 90.0775 82.68C90.0775 82.2107 90.1708 81.8107 90.3575 81.48C90.5495 81.144 90.8082 80.8693 91.1335 80.656C91.4642 80.4427 91.8455 80.28 92.2775 80.168C92.7148 80.0613 93.1975 79.968 93.7255 79.888C94.2588 79.8027 94.7788 79.7307 95.2855 79.672C95.7975 79.608 96.2455 79.5467 96.6295 79.488L96.2135 79.744C96.2295 78.8907 96.0642 78.2587 95.7175 77.848C95.3708 77.4373 94.7682 77.232 93.9095 77.232C93.3175 77.232 92.8162 77.3653 92.4055 77.632C92.0002 77.8987 91.7148 78.32 91.5495 78.896L90.4055 78.56C90.6028 77.7867 91.0002 77.1867 91.5975 76.76C92.1948 76.3333 92.9708 76.12 93.9255 76.12C94.7148 76.12 95.3842 76.2693 95.9335 76.568C96.4882 76.8613 96.8802 77.288 97.1095 77.848C97.2162 78.0987 97.2855 78.3787 97.3175 78.688C97.3495 78.9973 97.3655 79.312 97.3655 79.632V85H96.3175V82.832L96.6215 82.96C96.3282 83.7013 95.8722 84.2667 95.2535 84.656C94.6348 85.0453 93.8935 85.24 93.0295 85.24ZM93.1655 84.224C93.7148 84.224 94.1948 84.1253 94.6055 83.928C95.0162 83.7307 95.3468 83.4613 95.5975 83.12C95.8482 82.7733 96.0108 82.384 96.0855 81.952C96.1495 81.6747 96.1842 81.3707 96.1895 81.04C96.1948 80.704 96.1975 80.4533 96.1975 80.288L96.6455 80.52C96.2455 80.5733 95.8108 80.6267 95.3415 80.68C94.8775 80.7333 94.4188 80.7947 93.9655 80.864C93.5175 80.9333 93.1122 81.016 92.7495 81.112C92.5042 81.1813 92.2668 81.28 92.0375 81.408C91.8082 81.5307 91.6188 81.696 91.4695 81.904C91.3255 82.112 91.2535 82.3707 91.2535 82.68C91.2535 82.9307 91.3148 83.1733 91.4375 83.408C91.5655 83.6427 91.7682 83.8373 92.0455 83.992C92.3282 84.1467 92.7015 84.224 93.1655 84.224ZM109.752 85L109.76 79.328C109.76 78.6613 109.573 78.1387 109.2 77.76C108.832 77.376 108.363 77.184 107.792 77.184C107.467 77.184 107.149 77.2587 106.84 77.408C106.531 77.5573 106.275 77.7973 106.072 78.128C105.875 78.4587 105.776 78.8907 105.776 79.424L105.08 79.224C105.064 78.6053 105.184 78.064 105.44 77.6C105.701 77.136 106.059 76.776 106.512 76.52C106.971 76.2587 107.488 76.128 108.064 76.128C108.933 76.128 109.629 76.3973 110.152 76.936C110.675 77.4693 110.936 78.192 110.936 79.104L110.928 85H109.752ZM99.4401 85V76.36H100.496V78.488H100.624V85H99.4401ZM104.608 85L104.616 79.408C104.616 78.72 104.432 78.1787 104.064 77.784C103.701 77.384 103.221 77.184 102.624 77.184C102.027 77.184 101.544 77.3893 101.176 77.8C100.808 78.2053 100.624 78.7467 100.624 79.424L99.9201 79.04C99.9201 78.4853 100.051 77.9893 100.312 77.552C100.573 77.1093 100.931 76.7627 101.384 76.512C101.837 76.256 102.352 76.128 102.928 76.128C103.477 76.128 103.965 76.2453 104.392 76.48C104.824 76.7147 105.163 77.056 105.408 77.504C105.653 77.952 105.776 78.496 105.776 79.136L105.768 85H104.608ZM116.62 85.24C115.777 85.24 115.046 85.0533 114.428 84.68C113.814 84.3067 113.337 83.7813 112.996 83.104C112.654 82.4267 112.484 81.632 112.484 80.72C112.484 79.776 112.652 78.96 112.988 78.272C113.324 77.584 113.796 77.0533 114.404 76.68C115.017 76.3067 115.74 76.12 116.572 76.12C117.425 76.12 118.153 76.3173 118.756 76.712C119.358 77.1013 119.814 77.6613 120.124 78.392C120.433 79.1227 120.574 79.9947 120.548 81.008H119.348V80.592C119.326 79.472 119.084 78.6267 118.62 78.056C118.161 77.4853 117.489 77.2 116.604 77.2C115.676 77.2 114.964 77.5013 114.468 78.104C113.977 78.7067 113.732 79.5653 113.732 80.68C113.732 81.768 113.977 82.6133 114.468 83.216C114.964 83.8133 115.665 84.112 116.572 84.112C117.19 84.112 117.729 83.9707 118.188 83.688C118.652 83.4 119.017 82.9867 119.284 82.448L120.38 82.872C120.038 83.624 119.534 84.208 118.868 84.624C118.206 85.0347 117.457 85.24 116.62 85.24ZM113.316 81.008V80.024H119.916V81.008H113.316ZM125.547 85.232C124.534 85.232 123.699 85.0133 123.043 84.576C122.392 84.1387 121.992 83.5307 121.843 82.752L123.043 82.552C123.171 83.0427 123.462 83.4347 123.915 83.728C124.374 84.016 124.939 84.16 125.611 84.16C126.267 84.16 126.784 84.024 127.163 83.752C127.542 83.4747 127.731 83.0987 127.731 82.624C127.731 82.3573 127.67 82.1413 127.547 81.976C127.43 81.8053 127.187 81.648 126.819 81.504C126.451 81.36 125.902 81.1893 125.171 80.992C124.387 80.7787 123.774 80.5653 123.331 80.352C122.888 80.1387 122.574 79.8933 122.387 79.616C122.2 79.3333 122.107 78.9893 122.107 78.584C122.107 78.0933 122.246 77.664 122.523 77.296C122.8 76.9227 123.184 76.6347 123.675 76.432C124.166 76.224 124.736 76.12 125.387 76.12C126.038 76.12 126.619 76.2267 127.131 76.44C127.648 76.648 128.064 76.9413 128.379 77.32C128.694 77.6987 128.88 78.1387 128.939 78.64L127.739 78.856C127.659 78.3493 127.406 77.9493 126.979 77.656C126.558 77.3573 126.022 77.2027 125.371 77.192C124.758 77.176 124.259 77.2933 123.875 77.544C123.491 77.7893 123.299 78.1173 123.299 78.528C123.299 78.7573 123.368 78.9547 123.507 79.12C123.646 79.28 123.896 79.432 124.259 79.576C124.627 79.72 125.15 79.8773 125.827 80.048C126.622 80.2507 127.246 80.464 127.699 80.688C128.152 80.912 128.475 81.176 128.667 81.48C128.859 81.784 128.955 82.16 128.955 82.608C128.955 83.424 128.651 84.0667 128.043 84.536C127.44 85 126.608 85.232 125.547 85.232ZM136.405 85.24C135.754 85.24 135.207 85.1227 134.765 84.888C134.327 84.6533 133.999 84.3413 133.781 83.952C133.562 83.5627 133.453 83.1387 133.453 82.68C133.453 82.2107 133.546 81.8107 133.733 81.48C133.925 81.144 134.183 80.8693 134.509 80.656C134.839 80.4427 135.221 80.28 135.653 80.168C136.09 80.0613 136.573 79.968 137.101 79.888C137.634 79.8027 138.154 79.7307 138.661 79.672C139.173 79.608 139.621 79.5467 140.005 79.488L139.589 79.744C139.605 78.8907 139.439 78.2587 139.093 77.848C138.746 77.4373 138.143 77.232 137.285 77.232C136.693 77.232 136.191 77.3653 135.781 77.632C135.375 77.8987 135.09 78.32 134.924 78.896L133.781 78.56C133.978 77.7867 134.375 77.1867 134.973 76.76C135.57 76.3333 136.346 76.12 137.301 76.12C138.09 76.12 138.759 76.2693 139.309 76.568C139.863 76.8613 140.255 77.288 140.485 77.848C140.591 78.0987 140.661 78.3787 140.693 78.688C140.725 78.9973 140.741 79.312 140.741 79.632V85H139.693V82.832L139.997 82.96C139.703 83.7013 139.247 84.2667 138.629 84.656C138.01 85.0453 137.269 85.24 136.405 85.24ZM136.541 84.224C137.09 84.224 137.57 84.1253 137.981 83.928C138.391 83.7307 138.722 83.4613 138.973 83.12C139.223 82.7733 139.386 82.384 139.461 81.952C139.525 81.6747 139.559 81.3707 139.565 81.04C139.57 80.704 139.573 80.4533 139.573 80.288L140.021 80.52C139.621 80.5733 139.186 80.6267 138.717 80.68C138.253 80.7333 137.794 80.7947 137.341 80.864C136.893 80.9333 136.487 81.016 136.125 81.112C135.879 81.1813 135.642 81.28 135.413 81.408C135.183 81.5307 134.994 81.696 134.845 81.904C134.701 82.112 134.629 82.3707 134.629 82.68C134.629 82.9307 134.69 83.1733 134.812 83.408C134.941 83.6427 135.143 83.8373 135.421 83.992C135.703 84.1467 136.077 84.224 136.541 84.224ZM142.983 85V73.24H144.159V85H142.983ZM146.718 74.72V73.4H147.894V74.72H146.718ZM146.718 85V76.36H147.894V85H146.718ZM153.644 85.24C152.839 85.24 152.151 85.04 151.58 84.64C151.009 84.2347 150.572 83.688 150.268 83C149.964 82.312 149.812 81.536 149.812 80.672C149.812 79.8133 149.961 79.04 150.26 78.352C150.564 77.664 150.999 77.12 151.564 76.72C152.129 76.32 152.807 76.12 153.596 76.12C154.407 76.12 155.089 76.3173 155.644 76.712C156.199 77.1067 156.617 77.648 156.9 78.336C157.188 79.0187 157.332 79.7973 157.332 80.672C157.332 81.5307 157.191 82.3067 156.908 83C156.625 83.688 156.209 84.2347 155.66 84.64C155.111 85.04 154.439 85.24 153.644 85.24ZM153.764 84.144C154.377 84.144 154.884 83.9947 155.284 83.696C155.684 83.3973 155.983 82.9867 156.18 82.464C156.377 81.936 156.476 81.3387 156.476 80.672C156.476 79.9947 156.377 79.3973 156.18 78.88C155.983 78.3573 155.684 77.9493 155.284 77.656C154.889 77.3627 154.391 77.216 153.788 77.216C153.169 77.216 152.657 77.368 152.252 77.672C151.847 77.976 151.545 78.3893 151.348 78.912C151.156 79.4347 151.06 80.0213 151.06 80.672C151.06 81.328 151.159 81.92 151.356 82.448C151.559 82.9707 151.86 83.384 152.26 83.688C152.66 83.992 153.161 84.144 153.764 84.144ZM156.348 88.84V82.864H156.476V76.36H157.532V88.84H156.348ZM163.08 85.216C162.563 85.216 162.11 85.136 161.72 84.976C161.336 84.816 161.008 84.6 160.736 84.328C160.47 84.056 160.254 83.7467 160.088 83.4C159.923 83.048 159.803 82.6773 159.728 82.288C159.654 81.8933 159.616 81.5013 159.616 81.112V76.36H160.8V80.768C160.8 81.2427 160.846 81.6827 160.936 82.088C161.027 82.4933 161.171 82.848 161.368 83.152C161.571 83.4507 161.83 83.6827 162.144 83.848C162.464 84.0133 162.851 84.096 163.304 84.096C163.72 84.096 164.086 84.024 164.4 83.88C164.72 83.736 164.987 83.5307 165.2 83.264C165.419 82.992 165.584 82.664 165.696 82.28C165.808 81.8907 165.864 81.4533 165.864 80.968L166.696 81.152C166.696 82.0373 166.542 82.7813 166.232 83.384C165.923 83.9867 165.496 84.4427 164.952 84.752C164.408 85.0613 163.784 85.216 163.08 85.216ZM165.984 85V82.872H165.864V76.36H167.04V85H165.984ZM171.748 85.24C171.098 85.24 170.551 85.1227 170.108 84.888C169.671 84.6533 169.343 84.3413 169.124 83.952C168.906 83.5627 168.796 83.1387 168.796 82.68C168.796 82.2107 168.89 81.8107 169.076 81.48C169.268 81.144 169.527 80.8693 169.852 80.656C170.183 80.4427 170.564 80.28 170.996 80.168C171.434 80.0613 171.916 79.968 172.444 79.888C172.978 79.8027 173.498 79.7307 174.004 79.672C174.516 79.608 174.964 79.5467 175.348 79.488L174.932 79.744C174.948 78.8907 174.783 78.2587 174.436 77.848C174.09 77.4373 173.487 77.232 172.628 77.232C172.036 77.232 171.535 77.3653 171.124 77.632C170.719 77.8987 170.434 78.32 170.268 78.896L169.124 78.56C169.322 77.7867 169.719 77.1867 170.316 76.76C170.914 76.3333 171.69 76.12 172.644 76.12C173.434 76.12 174.103 76.2693 174.652 76.568C175.207 76.8613 175.599 77.288 175.828 77.848C175.935 78.0987 176.004 78.3787 176.036 78.688C176.068 78.9973 176.084 79.312 176.084 79.632V85H175.036V82.832L175.34 82.96C175.047 83.7013 174.591 84.2667 173.972 84.656C173.354 85.0453 172.612 85.24 171.748 85.24ZM171.884 84.224C172.434 84.224 172.914 84.1253 173.324 83.928C173.735 83.7307 174.066 83.4613 174.316 83.12C174.567 82.7733 174.73 82.384 174.804 81.952C174.868 81.6747 174.903 81.3707 174.908 81.04C174.914 80.704 174.916 80.4533 174.916 80.288L175.364 80.52C174.964 80.5733 174.53 80.6267 174.06 80.68C173.596 80.7333 173.138 80.7947 172.684 80.864C172.236 80.9333 171.831 81.016 171.468 81.112C171.223 81.1813 170.986 81.28 170.756 81.408C170.527 81.5307 170.338 81.696 170.188 81.904C170.044 82.112 169.972 82.3707 169.972 82.68C169.972 82.9307 170.034 83.1733 170.156 83.408C170.284 83.6427 170.487 83.8373 170.764 83.992C171.047 84.1467 171.42 84.224 171.884 84.224ZM188.471 85L188.479 79.328C188.479 78.6613 188.292 78.1387 187.919 77.76C187.551 77.376 187.082 77.184 186.511 77.184C186.186 77.184 185.868 77.2587 185.559 77.408C185.25 77.5573 184.994 77.7973 184.791 78.128C184.594 78.4587 184.495 78.8907 184.495 79.424L183.799 79.224C183.783 78.6053 183.903 78.064 184.159 77.6C184.42 77.136 184.778 76.776 185.231 76.52C185.69 76.2587 186.207 76.128 186.783 76.128C187.652 76.128 188.348 76.3973 188.871 76.936C189.394 77.4693 189.655 78.192 189.655 79.104L189.647 85H188.471ZM178.159 85V76.36H179.215V78.488H179.343V85H178.159ZM183.327 85L183.335 79.408C183.335 78.72 183.151 78.1787 182.783 77.784C182.42 77.384 181.94 77.184 181.343 77.184C180.746 77.184 180.263 77.3893 179.895 77.8C179.527 78.2053 179.343 78.7467 179.343 79.424L178.639 79.04C178.639 78.4853 178.77 77.9893 179.031 77.552C179.292 77.1093 179.65 76.7627 180.103 76.512C180.556 76.256 181.071 76.128 181.647 76.128C182.196 76.128 182.684 76.2453 183.111 76.48C183.543 76.7147 183.882 77.056 184.127 77.504C184.372 77.952 184.495 78.496 184.495 79.136L184.487 85H183.327ZM197.405 85.24C196.754 85.24 196.207 85.1227 195.765 84.888C195.327 84.6533 194.999 84.3413 194.781 83.952C194.562 83.5627 194.453 83.1387 194.453 82.68C194.453 82.2107 194.546 81.8107 194.733 81.48C194.925 81.144 195.183 80.8693 195.509 80.656C195.839 80.4427 196.221 80.28 196.653 80.168C197.09 80.0613 197.573 79.968 198.101 79.888C198.634 79.8027 199.154 79.7307 199.661 79.672C200.173 79.608 200.621 79.5467 201.005 79.488L200.589 79.744C200.605 78.8907 200.439 78.2587 200.093 77.848C199.746 77.4373 199.143 77.232 198.285 77.232C197.693 77.232 197.191 77.3653 196.781 77.632C196.375 77.8987 196.09 78.32 195.924 78.896L194.781 78.56C194.978 77.7867 195.375 77.1867 195.973 76.76C196.57 76.3333 197.346 76.12 198.301 76.12C199.09 76.12 199.759 76.2693 200.309 76.568C200.863 76.8613 201.255 77.288 201.485 77.848C201.591 78.0987 201.661 78.3787 201.693 78.688C201.725 78.9973 201.741 79.312 201.741 79.632V85H200.693V82.832L200.997 82.96C200.703 83.7013 200.247 84.2667 199.629 84.656C199.01 85.0453 198.269 85.24 197.405 85.24ZM197.541 84.224C198.09 84.224 198.57 84.1253 198.981 83.928C199.391 83.7307 199.722 83.4613 199.973 83.12C200.223 82.7733 200.386 82.384 200.461 81.952C200.525 81.6747 200.559 81.3707 200.565 81.04C200.57 80.704 200.573 80.4533 200.573 80.288L201.021 80.52C200.621 80.5733 200.186 80.6267 199.717 80.68C199.253 80.7333 198.794 80.7947 198.341 80.864C197.893 80.9333 197.487 81.016 197.125 81.112C196.879 81.1813 196.642 81.28 196.413 81.408C196.183 81.5307 195.994 81.696 195.845 81.904C195.701 82.112 195.629 82.3707 195.629 82.68C195.629 82.9307 195.69 83.1733 195.812 83.408C195.941 83.6427 196.143 83.8373 196.421 83.992C196.703 84.1467 197.077 84.224 197.541 84.224ZM207.407 85.24C206.538 85.24 205.802 85.0453 205.199 84.656C204.596 84.2667 204.138 83.7307 203.823 83.048C203.514 82.36 203.354 81.5707 203.343 80.68C203.354 79.7733 203.519 78.9787 203.839 78.296C204.159 77.608 204.62 77.0747 205.223 76.696C205.826 76.312 206.556 76.12 207.415 76.12C208.29 76.12 209.05 76.3333 209.695 76.76C210.346 77.1867 210.791 77.7707 211.031 78.512L209.879 78.88C209.676 78.3627 209.354 77.9627 208.911 77.68C208.474 77.392 207.972 77.248 207.407 77.248C206.772 77.248 206.247 77.3947 205.831 77.688C205.415 77.976 205.106 78.3787 204.903 78.896C204.7 79.4133 204.596 80.008 204.591 80.68C204.602 81.7147 204.842 82.5467 205.311 83.176C205.78 83.8 206.479 84.112 207.407 84.112C207.994 84.112 208.492 83.9787 208.903 83.712C209.319 83.44 209.634 83.0453 209.847 82.528L211.031 82.88C210.711 83.648 210.242 84.2347 209.623 84.64C209.004 85.04 208.266 85.24 207.407 85.24ZM216.032 85.24C215.163 85.24 214.427 85.0453 213.824 84.656C213.221 84.2667 212.763 83.7307 212.448 83.048C212.139 82.36 211.979 81.5707 211.968 80.68C211.979 79.7733 212.144 78.9787 212.464 78.296C212.784 77.608 213.245 77.0747 213.848 76.696C214.451 76.312 215.181 76.12 216.04 76.12C216.915 76.12 217.675 76.3333 218.32 76.76C218.971 77.1867 219.416 77.7707 219.656 78.512L218.504 78.88C218.301 78.3627 217.979 77.9627 217.536 77.68C217.099 77.392 216.597 77.248 216.032 77.248C215.397 77.248 214.872 77.3947 214.456 77.688C214.04 77.976 213.731 78.3787 213.528 78.896C213.325 79.4133 213.221 80.008 213.216 80.68C213.227 81.7147 213.467 82.5467 213.936 83.176C214.405 83.8 215.104 84.112 216.032 84.112C216.619 84.112 217.117 83.9787 217.528 83.712C217.944 83.44 218.259 83.0453 218.472 82.528L219.656 82.88C219.336 83.648 218.867 84.2347 218.248 84.64C217.629 85.04 216.891 85.24 216.032 85.24ZM224.612 85.216C224.094 85.216 223.641 85.136 223.252 84.976C222.868 84.816 222.54 84.6 222.268 84.328C222.001 84.056 221.785 83.7467 221.62 83.4C221.454 83.048 221.334 82.6773 221.26 82.288C221.185 81.8933 221.148 81.5013 221.148 81.112V76.36H222.332V80.768C222.332 81.2427 222.377 81.6827 222.468 82.088C222.558 82.4933 222.702 82.848 222.9 83.152C223.102 83.4507 223.361 83.6827 223.676 83.848C223.996 84.0133 224.382 84.096 224.836 84.096C225.252 84.096 225.617 84.024 225.932 83.88C226.252 83.736 226.518 83.5307 226.732 83.264C226.95 82.992 227.116 82.664 227.228 82.28C227.34 81.8907 227.396 81.4533 227.396 80.968L228.227 81.152C228.227 82.0373 228.073 82.7813 227.764 83.384C227.454 83.9867 227.028 84.4427 226.484 84.752C225.94 85.0613 225.316 85.216 224.612 85.216ZM227.516 85V82.872H227.396V76.36H228.572V85H227.516ZM241.112 85L241.12 79.328C241.12 78.6613 240.933 78.1387 240.56 77.76C240.192 77.376 239.722 77.184 239.152 77.184C238.826 77.184 238.509 77.2587 238.2 77.408C237.89 77.5573 237.634 77.7973 237.432 78.128C237.234 78.4587 237.136 78.8907 237.136 79.424L236.44 79.224C236.424 78.6053 236.544 78.064 236.8 77.6C237.061 77.136 237.418 76.776 237.872 76.52C238.33 76.2587 238.848 76.128 239.424 76.128C240.293 76.128 240.989 76.3973 241.512 76.936C242.034 77.4693 242.296 78.192 242.296 79.104L242.288 85H241.112ZM230.8 85V76.36H231.856V78.488H231.984V85H230.8ZM235.968 85L235.976 79.408C235.976 78.72 235.792 78.1787 235.424 77.784C235.061 77.384 234.581 77.184 233.984 77.184C233.386 77.184 232.904 77.3893 232.536 77.8C232.168 78.2053 231.984 78.7467 231.984 79.424L231.28 79.04C231.28 78.4853 231.41 77.9893 231.672 77.552C231.933 77.1093 232.29 76.7627 232.744 76.512C233.197 76.256 233.712 76.128 234.288 76.128C234.837 76.128 235.325 76.2453 235.752 76.48C236.184 76.7147 236.522 77.056 236.768 77.504C237.013 77.952 237.136 78.496 237.136 79.136L237.128 85H235.968ZM247.594 85.232C246.581 85.232 245.746 85.0133 245.09 84.576C244.439 84.1387 244.039 83.5307 243.89 82.752L245.09 82.552C245.218 83.0427 245.509 83.4347 245.962 83.728C246.421 84.016 246.986 84.16 247.658 84.16C248.314 84.16 248.831 84.024 249.21 83.752C249.589 83.4747 249.778 83.0987 249.778 82.624C249.778 82.3573 249.717 82.1413 249.594 81.976C249.477 81.8053 249.234 81.648 248.866 81.504C248.498 81.36 247.949 81.1893 247.218 80.992C246.434 80.7787 245.821 80.5653 245.378 80.352C244.935 80.1387 244.621 79.8933 244.434 79.616C244.247 79.3333 244.154 78.9893 244.154 78.584C244.154 78.0933 244.293 77.664 244.57 77.296C244.847 76.9227 245.231 76.6347 245.722 76.432C246.213 76.224 246.783 76.12 247.434 76.12C248.085 76.12 248.666 76.2267 249.178 76.44C249.695 76.648 250.111 76.9413 250.426 77.32C250.741 77.6987 250.927 78.1387 250.986 78.64L249.786 78.856C249.706 78.3493 249.453 77.9493 249.026 77.656C248.605 77.3573 248.069 77.2027 247.418 77.192C246.805 77.176 246.306 77.2933 245.922 77.544C245.538 77.7893 245.346 78.1173 245.346 78.528C245.346 78.7573 245.415 78.9547 245.554 79.12C245.693 79.28 245.943 79.432 246.306 79.576C246.674 79.72 247.197 79.8773 247.874 80.048C248.669 80.2507 249.293 80.464 249.746 80.688C250.199 80.912 250.522 81.176 250.714 81.48C250.906 81.784 251.002 82.16 251.002 82.608C251.002 83.424 250.698 84.0667 250.09 84.536C249.487 85 248.655 85.232 247.594 85.232ZM255.248 85.24C254.598 85.24 254.051 85.1227 253.608 84.888C253.171 84.6533 252.843 84.3413 252.624 83.952C252.406 83.5627 252.296 83.1387 252.296 82.68C252.296 82.2107 252.39 81.8107 252.576 81.48C252.768 81.144 253.027 80.8693 253.352 80.656C253.683 80.4427 254.064 80.28 254.496 80.168C254.934 80.0613 255.416 79.968 255.944 79.888C256.478 79.8027 256.998 79.7307 257.504 79.672C258.016 79.608 258.464 79.5467 258.848 79.488L258.432 79.744C258.448 78.8907 258.283 78.2587 257.936 77.848C257.59 77.4373 256.987 77.232 256.128 77.232C255.536 77.232 255.035 77.3653 254.624 77.632C254.219 77.8987 253.934 78.32 253.768 78.896L252.624 78.56C252.822 77.7867 253.219 77.1867 253.816 76.76C254.414 76.3333 255.19 76.12 256.144 76.12C256.934 76.12 257.603 76.2693 258.152 76.568C258.707 76.8613 259.099 77.288 259.328 77.848C259.435 78.0987 259.504 78.3787 259.536 78.688C259.568 78.9973 259.584 79.312 259.584 79.632V85H258.536V82.832L258.84 82.96C258.547 83.7013 258.091 84.2667 257.472 84.656C256.854 85.0453 256.112 85.24 255.248 85.24ZM255.384 84.224C255.934 84.224 256.414 84.1253 256.824 83.928C257.235 83.7307 257.566 83.4613 257.816 83.12C258.067 82.7733 258.23 82.384 258.304 81.952C258.368 81.6747 258.403 81.3707 258.408 81.04C258.414 80.704 258.416 80.4533 258.416 80.288L258.864 80.52C258.464 80.5733 258.03 80.6267 257.56 80.68C257.096 80.7333 256.638 80.7947 256.184 80.864C255.736 80.9333 255.331 81.016 254.968 81.112C254.723 81.1813 254.486 81.28 254.256 81.408C254.027 81.5307 253.838 81.696 253.688 81.904C253.544 82.112 253.472 82.3707 253.472 82.68C253.472 82.9307 253.534 83.1733 253.656 83.408C253.784 83.6427 253.987 83.8373 254.264 83.992C254.547 84.1467 254.92 84.224 255.384 84.224ZM267.907 85V80.592C267.907 80.112 267.862 79.672 267.771 79.272C267.68 78.8667 267.534 78.5147 267.331 78.216C267.134 77.912 266.875 77.6773 266.555 77.512C266.24 77.3467 265.856 77.264 265.403 77.264C264.987 77.264 264.619 77.336 264.299 77.48C263.984 77.624 263.718 77.832 263.499 78.104C263.286 78.3707 263.123 78.696 263.011 79.08C262.899 79.464 262.843 79.9013 262.843 80.392L262.011 80.208C262.011 79.3227 262.166 78.5787 262.475 77.976C262.784 77.3733 263.211 76.9173 263.755 76.608C264.299 76.2987 264.923 76.144 265.627 76.144C266.144 76.144 266.595 76.224 266.979 76.384C267.368 76.544 267.696 76.76 267.963 77.032C268.235 77.304 268.454 77.616 268.619 77.968C268.784 78.3147 268.904 78.6853 268.979 79.08C269.054 79.4693 269.091 79.8587 269.091 80.248V85H267.907ZM261.659 85V76.36H262.723V78.488H262.843V85H261.659ZM87.456 111L84.32 102.36H85.512L88.064 109.464L90.6 102.36H91.808L88.672 111H87.456ZM96.5885 111.24C95.7458 111.24 95.0152 111.053 94.3965 110.68C93.7832 110.307 93.3058 109.781 92.9645 109.104C92.6232 108.427 92.4525 107.632 92.4525 106.72C92.4525 105.776 92.6205 104.96 92.9565 104.272C93.2925 103.584 93.7645 103.053 94.3725 102.68C94.9858 102.307 95.7085 102.12 96.5405 102.12C97.3938 102.12 98.1218 102.317 98.7245 102.712C99.3272 103.101 99.7832 103.661 100.093 104.392C100.402 105.123 100.543 105.995 100.517 107.008H99.3165V106.592C99.2952 105.472 99.0525 104.627 98.5885 104.056C98.1298 103.485 97.4578 103.2 96.5725 103.2C95.6445 103.2 94.9325 103.501 94.4365 104.104C93.9458 104.707 93.7005 105.565 93.7005 106.68C93.7005 107.768 93.9458 108.613 94.4365 109.216C94.9325 109.813 95.6338 110.112 96.5405 110.112C97.1592 110.112 97.6978 109.971 98.1565 109.688C98.6205 109.4 98.9858 108.987 99.2525 108.448L100.349 108.872C100.007 109.624 99.5032 110.208 98.8365 110.624C98.1752 111.035 97.4258 111.24 96.5885 111.24ZM93.2845 107.008V106.024H99.8845V107.008H93.2845ZM105.516 111.232C104.503 111.232 103.668 111.013 103.012 110.576C102.361 110.139 101.961 109.531 101.812 108.752L103.012 108.552C103.14 109.043 103.431 109.435 103.884 109.728C104.343 110.016 104.908 110.16 105.58 110.16C106.236 110.16 106.753 110.024 107.132 109.752C107.511 109.475 107.7 109.099 107.7 108.624C107.7 108.357 107.639 108.141 107.516 107.976C107.399 107.805 107.156 107.648 106.788 107.504C106.42 107.36 105.871 107.189 105.14 106.992C104.356 106.779 103.743 106.565 103.3 106.352C102.857 106.139 102.543 105.893 102.356 105.616C102.169 105.333 102.076 104.989 102.076 104.584C102.076 104.093 102.215 103.664 102.492 103.296C102.769 102.923 103.153 102.635 103.644 102.432C104.135 102.224 104.705 102.12 105.356 102.12C106.007 102.12 106.588 102.227 107.1 102.44C107.617 102.648 108.033 102.941 108.348 103.32C108.663 103.699 108.849 104.139 108.908 104.64L107.708 104.856C107.628 104.349 107.375 103.949 106.948 103.656C106.527 103.357 105.991 103.203 105.34 103.192C104.727 103.176 104.228 103.293 103.844 103.544C103.46 103.789 103.268 104.117 103.268 104.528C103.268 104.757 103.337 104.955 103.476 105.12C103.615 105.28 103.865 105.432 104.228 105.576C104.596 105.72 105.119 105.877 105.796 106.048C106.591 106.251 107.215 106.464 107.668 106.688C108.121 106.912 108.444 107.176 108.636 107.48C108.828 107.784 108.924 108.16 108.924 108.608C108.924 109.424 108.62 110.067 108.012 110.536C107.409 111 106.577 111.232 105.516 111.232ZM115.402 111C114.917 111.101 114.437 111.141 113.962 111.12C113.493 111.099 113.071 110.997 112.698 110.816C112.33 110.635 112.05 110.352 111.858 109.968C111.703 109.648 111.618 109.325 111.602 109C111.591 108.669 111.586 108.293 111.586 107.872V99.96H112.754V107.824C112.754 108.187 112.757 108.491 112.762 108.736C112.773 108.976 112.829 109.189 112.93 109.376C113.122 109.733 113.426 109.947 113.842 110.016C114.263 110.085 114.783 110.069 115.402 109.968V111ZM109.738 103.368V102.36H115.402V103.368H109.738ZM117.264 100.72V99.4H118.44V100.72H117.264ZM117.264 111V102.36H118.44V111H117.264ZM124.719 111.24C123.924 111.24 123.252 111.04 122.703 110.64C122.153 110.235 121.737 109.688 121.455 109C121.172 108.307 121.031 107.531 121.031 106.672C121.031 105.797 121.172 105.019 121.455 104.336C121.743 103.648 122.164 103.107 122.719 102.712C123.273 102.317 123.956 102.12 124.767 102.12C125.556 102.12 126.233 102.32 126.799 102.72C127.364 103.12 127.796 103.664 128.095 104.352C128.399 105.04 128.551 105.813 128.551 106.672C128.551 107.536 128.399 108.312 128.095 109C127.791 109.688 127.353 110.235 126.783 110.64C126.212 111.04 125.524 111.24 124.719 111.24ZM120.831 111V99.48H122.015V104.496H121.887V111H120.831ZM124.599 110.144C125.201 110.144 125.703 109.992 126.103 109.688C126.503 109.384 126.801 108.971 126.999 108.448C127.201 107.92 127.303 107.328 127.303 106.672C127.303 106.021 127.204 105.435 127.007 104.912C126.809 104.389 126.508 103.976 126.103 103.672C125.703 103.368 125.193 103.216 124.575 103.216C123.972 103.216 123.471 103.363 123.071 103.656C122.676 103.949 122.38 104.357 122.183 104.88C121.985 105.397 121.887 105.995 121.887 106.672C121.887 107.339 121.985 107.936 122.183 108.464C122.38 108.987 122.679 109.397 123.079 109.696C123.479 109.995 123.985 110.144 124.599 110.144ZM133.612 111.216C133.094 111.216 132.641 111.136 132.252 110.976C131.868 110.816 131.54 110.6 131.268 110.328C131.001 110.056 130.785 109.747 130.62 109.4C130.454 109.048 130.334 108.677 130.26 108.288C130.185 107.893 130.148 107.501 130.148 107.112V102.36H131.332V106.768C131.332 107.243 131.377 107.683 131.468 108.088C131.558 108.493 131.702 108.848 131.9 109.152C132.102 109.451 132.361 109.683 132.676 109.848C132.996 110.013 133.382 110.096 133.836 110.096C134.252 110.096 134.617 110.024 134.932 109.88C135.252 109.736 135.518 109.531 135.732 109.264C135.95 108.992 136.116 108.664 136.228 108.28C136.34 107.891 136.396 107.453 136.396 106.968L137.227 107.152C137.227 108.037 137.073 108.781 136.764 109.384C136.454 109.987 136.028 110.443 135.484 110.752C134.94 111.061 134.316 111.216 133.612 111.216ZM136.516 111V108.872H136.396V102.36H137.572V111H136.516ZM139.968 111V99.24H141.144V111H139.968ZM146.846 111.216C146.329 111.216 145.875 111.136 145.486 110.976C145.102 110.816 144.774 110.6 144.502 110.328C144.235 110.056 144.019 109.747 143.854 109.4C143.689 109.048 143.569 108.677 143.494 108.288C143.419 107.893 143.382 107.501 143.382 107.112V102.36H144.566V106.768C144.566 107.243 144.611 107.683 144.702 108.088C144.793 108.493 144.937 108.848 145.134 109.152C145.337 109.451 145.595 109.683 145.91 109.848C146.23 110.013 146.617 110.096 147.07 110.096C147.486 110.096 147.851 110.024 148.166 109.88C148.486 109.736 148.753 109.531 148.966 109.264C149.185 108.992 149.35 108.664 149.462 108.28C149.574 107.891 149.63 107.453 149.63 106.968L150.462 107.152C150.462 108.037 150.307 108.781 149.998 109.384C149.689 109.987 149.262 110.443 148.718 110.752C148.174 111.061 147.55 111.216 146.846 111.216ZM149.75 111V108.872H149.63V102.36H150.806V111H149.75ZM163.346 111L163.354 105.328C163.354 104.661 163.167 104.139 162.794 103.76C162.426 103.376 161.957 103.184 161.386 103.184C161.061 103.184 160.743 103.259 160.434 103.408C160.125 103.557 159.869 103.797 159.666 104.128C159.469 104.459 159.37 104.891 159.37 105.424L158.674 105.224C158.658 104.605 158.778 104.064 159.034 103.6C159.295 103.136 159.653 102.776 160.106 102.52C160.565 102.259 161.082 102.128 161.658 102.128C162.527 102.128 163.223 102.397 163.746 102.936C164.269 103.469 164.53 104.192 164.53 105.104L164.522 111H163.346ZM153.034 111V102.36H154.09V104.488H154.218V111H153.034ZM158.202 111L158.21 105.408C158.21 104.72 158.026 104.179 157.658 103.784C157.295 103.384 156.815 103.184 156.218 103.184C155.621 103.184 155.138 103.389 154.77 103.8C154.402 104.205 154.218 104.747 154.218 105.424L153.514 105.04C153.514 104.485 153.645 103.989 153.906 103.552C154.167 103.109 154.525 102.763 154.978 102.512C155.431 102.256 155.946 102.128 156.522 102.128C157.071 102.128 157.559 102.245 157.986 102.48C158.418 102.715 158.757 103.056 159.002 103.504C159.247 103.952 159.37 104.496 159.37 105.136L159.362 111H158.202ZM176.048 111V106.592C176.048 106.112 176.002 105.672 175.912 105.272C175.821 104.867 175.674 104.515 175.472 104.216C175.274 103.912 175.016 103.677 174.696 103.512C174.381 103.347 173.997 103.264 173.544 103.264C173.128 103.264 172.76 103.336 172.44 103.48C172.125 103.624 171.858 103.832 171.64 104.104C171.426 104.371 171.264 104.696 171.152 105.08C171.04 105.464 170.984 105.901 170.984 106.392L170.152 106.208C170.152 105.323 170.306 104.579 170.616 103.976C170.925 103.373 171.352 102.917 171.896 102.608C172.44 102.299 173.064 102.144 173.768 102.144C174.285 102.144 174.736 102.224 175.12 102.384C175.509 102.544 175.837 102.76 176.104 103.032C176.376 103.304 176.594 103.616 176.76 103.968C176.925 104.315 177.045 104.685 177.12 105.08C177.194 105.469 177.232 105.859 177.232 106.248V111H176.048ZM169.8 111V102.36H170.864V104.488H170.984V111H169.8ZM182.869 111.24C182.01 111.24 181.277 111.045 180.669 110.656C180.061 110.267 179.594 109.728 179.269 109.04C178.943 108.352 178.781 107.563 178.781 106.672C178.781 105.765 178.946 104.971 179.277 104.288C179.607 103.605 180.077 103.075 180.685 102.696C181.298 102.312 182.026 102.12 182.869 102.12C183.733 102.12 184.469 102.315 185.077 102.704C185.69 103.088 186.157 103.624 186.477 104.312C186.802 104.995 186.965 105.781 186.965 106.672C186.965 107.579 186.802 108.376 186.477 109.064C186.151 109.747 185.682 110.28 185.069 110.664C184.455 111.048 183.722 111.24 182.869 111.24ZM182.869 110.112C183.829 110.112 184.543 109.795 185.013 109.16C185.482 108.52 185.717 107.691 185.717 106.672C185.717 105.627 185.479 104.795 185.005 104.176C184.535 103.557 183.823 103.248 182.869 103.248C182.223 103.248 181.69 103.395 181.269 103.688C180.853 103.976 180.541 104.379 180.333 104.896C180.13 105.408 180.029 106 180.029 106.672C180.029 107.712 180.269 108.547 180.749 109.176C181.229 109.8 181.935 110.112 182.869 110.112ZM194.969 111V106.592C194.969 106.112 194.924 105.672 194.833 105.272C194.743 104.867 194.596 104.515 194.393 104.216C194.196 103.912 193.937 103.677 193.617 103.512C193.303 103.347 192.919 103.264 192.465 103.264C192.049 103.264 191.681 103.336 191.361 103.48C191.047 103.624 190.78 103.832 190.561 104.104C190.348 104.371 190.185 104.696 190.073 105.08C189.961 105.464 189.905 105.901 189.905 106.392L189.073 106.208C189.073 105.323 189.228 104.579 189.537 103.976C189.847 103.373 190.273 102.917 190.817 102.608C191.361 102.299 191.985 102.144 192.689 102.144C193.207 102.144 193.657 102.224 194.041 102.384C194.431 102.544 194.759 102.76 195.025 103.032C195.297 103.304 195.516 103.616 195.681 103.968C195.847 104.315 195.967 104.685 196.041 105.08C196.116 105.469 196.153 105.859 196.153 106.248V111H194.969ZM188.721 111V102.36H189.785V104.488H189.905V111H188.721ZM198.453 111V109.632H199.821V111H198.453Z" fill="white"/>
<defs>
<linearGradient id="paint0_linear_20005128_7808" x1="15.999" y1="30.067" x2="43.9979" y2="30.067" gradientUnits="userSpaceOnUse">
<stop stop-color="#6366F1"/>
<stop offset="0.5" stop-color="#8B5CF6"/>
<stop offset="1" stop-color="#D946EF"/>
</linearGradient>
<clipPath id="clip0_20005128_7808">
<rect width="28" height="28" fill="white" transform="translate(16 16)"/>
</clipPath>
</defs>
</svg>
